<?xml version="1.0" standalone="no"?>
<!DOCTYPE svg PUBLIC "-//W3C//DTD SVG 20010904//EN"
 "http://www.w3.org/TR/2001/REC-SVG-20010904/DTD/svg10.dtd">
<svg version="1.0" xmlns="http://www.w3.org/2000/svg"
 width="883.000000pt" height="395.000000pt" viewBox="0 0 883.000000 395.000000"
 preserveAspectRatio="xMidYMid meet">
<metadata>
Created by potrace 1.16, written by Peter Selinger 2001-2019
</metadata>
<g transform="translate(0.000000,395.000000) scale(0.100000,-0.100000)"
fill="#000" stroke="none">
<path d="M2325 3763 c-30 -8 -47 -25 -185 -193 -101 -123 -139 -162 -180 -184
-86 -47 -92 -119 -10 -132 65 -11 75 -23 72 -93 -1 -33 -16 -147 -33 -253 -49
-309 -43 -375 40 -414 95 -46 372 44 371 120 -1 31 -20 40 -76 38 -76 -3 -94
13 -94 82 0 64 75 515 87 527 5 5 36 14 68 20 33 6 72 17 87 25 49 26 69 92
34 116 -6 4 -46 8 -90 8 l-78 0 7 27 c13 54 45 239 45 265 0 17 -7 31 -19 38
-11 5 -21 9 -23 9 -2 -1 -12 -4 -23 -6z"/>
<path d="M1434 3486 c-131 -32 -290 -140 -334 -226 -34 -67 -43 -122 -30 -184
20 -98 72 -140 256 -205 60 -21 124 -45 141 -54 129 -67 73 -217 -81 -217 -94
0 -150 38 -273 183 -29 35 -77 37 -96 5 -8 -14 -19 -83 -26 -172 -10 -135 -10
-151 5 -168 24 -26 41 -23 85 17 22 19 45 35 52 35 6 0 44 -9 82 -20 136 -39
296 -21 428 48 157 81 228 249 163 388 -40 87 -91 120 -313 204 -45 17 -96 44
-114 61 -28 26 -31 34 -26 70 6 47 29 76 74 95 97 41 213 -16 280 -138 28 -51
56 -65 89 -43 24 16 34 72 34 202 0 89 -8 103 -64 103 -14 0 -51 7 -83 15 -68
18 -178 18 -249 1z"/>
<path d="M2860 3432 c-87 -25 -130 -44 -194 -87 -165 -109 -174 -283 -14 -262
60 8 88 34 119 113 39 95 94 137 153 114 42 -15 59 -63 54 -146 -6 -83 -18
-104 -61 -104 -47 0 -174 -38 -253 -76 -148 -70 -218 -166 -217 -299 0 -104
33 -153 122 -183 71 -24 176 -5 291 53 l67 34 24 -25 c68 -73 179 -71 299 6
44 28 50 36 50 65 0 39 -20 50 -73 40 -69 -13 -80 30 -52 213 44 301 40 412
-18 479 -66 75 -176 99 -297 65z m81 -587 c-18 -127 -63 -180 -153 -180 -42 0
-53 4 -74 28 -40 47 -30 109 26 166 58 58 171 101 198 76 11 -10 11 -28 3 -90z"/>
<path d="M4902 3419 c-133 -23 -291 -118 -370 -223 -87 -114 -122 -217 -122
-350 1 -160 58 -259 187 -323 72 -35 80 -37 176 -37 80 0 116 5 170 23 136 46
244 142 316 281 127 245 75 520 -114 606 -59 27 -166 37 -243 23z m117 -144
c65 -55 74 -205 25 -399 -57 -227 -211 -338 -317 -228 -84 87 -38 423 80 580
53 71 156 94 212 47z"/>
<path d="M5630 3416 c-113 -43 -217 -90 -232 -103 -31 -27 -22 -60 22 -88 31
-19 40 -32 40 -52 0 -24 -19 -150 -65 -431 -15 -94 -31 -125 -80 -153 -39 -24
-52 -53 -33 -76 11 -14 36 -15 200 -10 110 3 195 10 208 17 33 18 23 61 -19
81 -19 9 -38 25 -42 37 -5 12 2 81 16 164 58 352 58 352 118 389 74 45 166 48
188 7 17 -32 13 -98 -21 -300 -38 -228 -42 -240 -91 -279 -41 -32 -51 -67 -25
-88 20 -16 398 0 420 18 33 27 14 63 -46 89 -16 6 -30 22 -34 37 -4 14 3 88
14 163 39 256 44 301 40 374 -6 120 -44 172 -143 199 -52 15 -144 -2 -238 -42
-38 -16 -73 -29 -77 -29 -4 0 -11 16 -14 35 -10 53 -42 65 -106 41z"/>
<path d="M3902 3371 c-73 -6 -92 -16 -92 -52 0 -18 30 -49 48 -49 6 0 14 -11
18 -24 4 -17 -16 -67 -71 -179 -42 -86 -80 -159 -84 -161 -10 -7 -91 265 -91
304 0 24 7 35 35 51 31 18 55 46 55 63 0 2 -7 12 -16 20 -13 13 -46 16 -205
16 -112 0 -198 -4 -210 -10 -34 -19 -25 -69 19 -110 47 -43 63 -83 146 -375
77 -266 78 -270 61 -317 -19 -56 -93 -175 -127 -203 -39 -33 -61 -31 -113 6
-104 75 -236 4 -239 -128 -1 -49 25 -90 75 -116 54 -29 159 -19 235 22 157 83
223 179 539 786 172 331 169 326 244 367 25 14 31 23 31 51 0 23 -6 37 -16 41
-18 7 -136 5 -242 -3z"/>
<path d="M5047 2229 c-62 -15 -148 -60 -194 -102 -84 -78 -136 -177 -187 -362
-16 -55 -35 -106 -44 -113 -9 -7 -46 -21 -83 -32 -72 -22 -99 -44 -99 -81 0
-38 19 -49 81 -49 78 0 82 -7 69 -121 -13 -121 -66 -444 -86 -531 -17 -72 -39
-101 -104 -142 -19 -12 -36 -31 -38 -42 -6 -42 14 -46 245 -42 189 3 223 5
246 21 19 12 27 26 27 47 0 24 -7 33 -40 50 -56 28 -64 49 -51 124 17 91 81
556 81 583 0 13 11 35 25 48 19 20 34 25 74 25 91 0 151 39 151 97 0 19 -6 36
-12 38 -7 2 -50 6 -96 8 -46 3 -88 9 -94 15 -17 17 27 255 60 322 54 109 162
136 162 41 0 -36 50 -82 98 -88 90 -12 168 44 193 138 11 41 10 50 -7 80 -32
55 -104 79 -234 78 -58 -1 -122 -5 -143 -10z"/>
<path d="M8400 2231 c-83 -25 -142 -84 -164 -164 -43 -151 -126 -820 -126
-1017 0 -57 15 -70 77 -70 57 0 77 20 111 112 79 213 105 288 176 498 145 433
175 546 157 587 -22 49 -149 79 -231 54z"/>
<path d="M7222 1923 c-114 -152 -175 -215 -247 -255 -89 -50 -108 -69 -108
-109 0 -38 20 -55 74 -64 26 -5 45 -15 55 -31 17 -25 19 -10 -32 -324 -63
-391 -47 -459 113 -485 90 -14 323 55 382 114 27 27 27 63 1 86 -20 18 -22 18
-66 -3 -61 -30 -114 -29 -144 3 -27 29 -26 61 15 310 15 88 31 191 36 230 12
90 27 105 110 112 81 6 113 18 144 55 29 34 32 60 9 82 -12 12 -37 16 -109 16
-52 0 -96 3 -98 8 -3 4 4 71 16 149 24 166 22 173 -53 173 -47 0 -48 -1 -98
-67z"/>
<path d="M3989 1705 c-20 -7 -61 -29 -91 -49 -30 -20 -61 -34 -69 -31 -8 3
-19 20 -25 38 -14 50 -46 47 -166 -14 -117 -59 -154 -82 -168 -109 -15 -28 -3
-46 40 -63 27 -10 41 -23 46 -41 7 -30 -20 -342 -42 -463 -13 -78 -36 -133
-54 -133 -14 0 -60 -49 -60 -64 0 -37 24 -43 212 -50 194 -8 228 -3 248 34 15
28 -2 55 -51 80 -39 20 -63 57 -54 82 2 7 13 110 24 228 24 261 44 328 103
343 15 4 32 -7 68 -44 41 -42 53 -49 87 -49 31 0 49 8 81 36 90 77 89 225 -2
268 -40 19 -78 19 -127 1z"/>
<path d="M5429 1681 c-120 -39 -182 -76 -264 -156 -110 -109 -167 -235 -181
-407 -17 -199 67 -376 209 -438 152 -67 391 -6 534 136 69 70 95 112 96 160 1
41 -18 64 -54 64 -24 0 -36 -9 -62 -47 -54 -78 -83 -108 -135 -136 -102 -56
-185 -46 -252 30 -49 56 -60 93 -60 204 0 117 0 117 182 134 359 35 390 41
414 88 35 67 3 228 -61 313 -66 86 -206 108 -366 55z m116 -125 c19 -8 44 -30
55 -48 23 -38 27 -110 6 -127 -27 -23 -275 -41 -304 -22 -36 22 61 149 143
187 59 28 56 28 100 10z"/>
<path d="M6395 1700 c-183 -37 -362 -167 -437 -320 -84 -169 -89 -389 -14
-539 33 -63 113 -134 184 -162 87 -34 239 -32 347 5 135 46 236 121 294 218
30 50 26 108 -8 124 -35 18 -62 4 -97 -50 -49 -73 -73 -94 -151 -133 -65 -32
-78 -35 -137 -31 -54 3 -72 9 -103 35 -21 16 -49 52 -62 78 -21 40 -25 62 -25
146 -1 80 2 101 16 115 14 15 57 21 236 35 274 21 317 27 343 47 62 51 29 250
-58 352 -54 62 -120 90 -213 89 -41 -1 -93 -5 -115 -9z m100 -173 c39 -39 62
-109 46 -143 -12 -27 -31 -31 -187 -38 -137 -7 -154 1 -131 56 20 47 81 114
126 138 58 31 107 26 146 -13z"/>
<path d="M2025 1652 c-182 -55 -339 -183 -420 -342 -43 -85 -57 -154 -53 -258
2 -82 7 -106 31 -154 36 -74 87 -123 167 -161 60 -29 73 -31 170 -31 128 0
204 22 312 93 179 117 288 310 288 511 0 151 -74 279 -192 331 -72 31 -217 36
-303 11z m147 -133 c48 -19 71 -84 71 -202 0 -259 -78 -443 -203 -477 -79 -21
-143 8 -182 83 -44 86 -19 326 48 458 67 134 158 180 266 138z"/>
<path d="M1020 1639 c-30 -5 -117 -18 -192 -28 -151 -22 -175 -30 -184 -65 -9
-36 12 -64 54 -76 49 -13 56 -19 76 -58 48 -93 226 -629 226 -679 0 -26 -11
-62 -30 -99 -44 -83 -131 -212 -148 -219 -7 -3 -40 11 -72 31 -100 62 -179 66
-243 13 -63 -52 -85 -136 -52 -199 54 -104 289 -90 452 26 35 25 87 73 115
107 62 74 149 208 168 257 24 62 360 753 393 808 25 42 43 58 85 78 60 28 81
59 63 93 -11 20 -18 21 -199 21 -202 0 -212 -2 -212 -52 0 -22 8 -32 39 -47
57 -30 57 -49 -1 -180 -89 -203 -139 -297 -149 -279 -4 8 -33 89 -64 179 -39
115 -55 176 -53 204 3 37 7 42 56 68 43 24 52 33 52 56 0 15 -5 32 -12 39 -13
13 -85 14 -168 1z"/>
<path d="M2765 1624 c-49 -14 -107 -29 -128 -35 -45 -12 -77 -41 -77 -69 0
-12 15 -29 40 -45 50 -32 50 -24 5 -320 -19 -126 -35 -248 -35 -270 0 -98 44
-162 126 -185 60 -17 139 -2 243 46 41 19 78 34 82 34 5 0 11 -11 15 -25 14
-56 64 -61 202 -19 142 43 160 65 97 121 -22 20 -35 40 -35 55 0 36 57 417 80
533 24 127 26 183 4 192 -18 7 -77 -7 -189 -42 -102 -33 -125 -46 -132 -73 -5
-21 1 -31 30 -55 34 -27 37 -33 37 -80 0 -75 -55 -389 -75 -426 -30 -59 -140
-112 -200 -97 -58 15 -56 67 16 429 48 244 57 321 39 342 -16 20 -38 18 -145
-11z"/>
<path d="M8055 850 c-108 -49 -157 -169 -102 -251 34 -52 80 -71 154 -66 123
9 208 90 208 198 0 62 -21 96 -77 125 -37 19 -134 16 -183 -6z"/>
</g>
</svg>
