<?xml version="1.0" standalone="no"?>
<!DOCTYPE svg PUBLIC "-//W3C//DTD SVG 20010904//EN"
 "http://www.w3.org/TR/2001/REC-SVG-20010904/DTD/svg10.dtd">
<svg version="1.0" xmlns="http://www.w3.org/2000/svg"
 width="1200.000000pt" height="800.000000pt" viewBox="0 0 1200.000000 800.000000"
 preserveAspectRatio="xMidYMid meet">
<metadata>
Created by potrace 1.16, written by Peter Selinger 2001-2019
</metadata>
<g transform="translate(0.000000,800.000000) scale(0.100000,-0.100000)"
fill="#fff" stroke="none">
<path d="M5959 7043 c-28 -139 -34 -194 -28 -221 11 -48 -18 -494 -36 -544
-11 -32 -10 -45 2 -80 18 -54 9 -174 -19 -240 -15 -36 -17 -51 -9 -66 19 -36
12 -81 -20 -128 -17 -25 -37 -48 -45 -51 -19 -7 -18 -23 2 -23 12 0 14 -7 10
-32 -6 -33 -6 -33 10 -10 23 31 44 28 44 -6 0 -35 -16 -52 -50 -52 -50 0 -90
54 -90 121 0 27 -4 49 -9 49 -4 0 -12 28 -15 63 -10 87 -16 106 -31 101 -7 -3
-15 5 -19 19 -19 78 -200 287 -248 287 -20 0 -3 -26 45 -70 95 -87 165 -263
151 -379 -4 -29 -10 -48 -14 -41 -8 12 -22 -88 -21 -150 1 -48 -16 -86 -46
-106 -19 -12 -22 -18 -13 -24 28 -18 -41 -60 -97 -60 -45 0 -128 45 -158 84
-37 49 -44 38 -12 -17 30 -50 111 -134 138 -142 29 -10 23 -22 -28 -59 -32
-23 -69 -39 -110 -47 -88 -18 -80 -33 15 -27 81 6 266 61 329 100 l33 19 -16
-36 c-25 -60 -13 -74 20 -24 51 79 65 89 117 89 40 0 51 -4 72 -30 35 -40 41
-64 27 -105 -18 -53 -117 -109 -217 -120 l-58 -7 31 20 c34 22 51 42 36 42 -5
0 -34 -11 -64 -25 -82 -37 -157 -36 -237 4 -76 38 -81 38 -51 6 30 -32 15 -32
-33 0 -20 14 -43 23 -49 19 -7 -5 -3 -11 13 -17 13 -5 19 -11 13 -14 -17 -6
-154 51 -231 97 -38 23 -90 61 -116 85 -26 23 -47 37 -47 30 0 -7 52 -63 115
-126 126 -125 160 -180 128 -205 -10 -7 -29 -14 -43 -14 -28 0 -90 -34 -90
-49 0 -6 16 -3 36 5 30 13 42 13 66 3 16 -6 33 -19 38 -28 5 -10 6 -69 3 -131
-5 -109 8 -230 25 -230 4 0 7 46 7 103 0 93 2 106 27 148 27 46 74 87 80 70 2
-5 30 2 62 16 49 20 70 24 120 19 34 -3 66 -5 71 -6 6 0 24 2 41 6 19 3 34 1
38 -5 12 -18 -43 -98 -105 -155 -59 -53 -84 -97 -33 -57 23 18 54 28 54 18 0
-7 -38 -113 -53 -147 -8 -19 -29 -71 -47 -115 -40 -96 -70 -139 -113 -162 -18
-9 -26 -18 -19 -20 6 -3 12 -11 12 -18 0 -7 6 -15 12 -17 14 -5 -15 -80 -38
-99 -8 -6 -11 -15 -8 -20 13 -21 -67 -156 -131 -223 -72 -75 -82 -101 -22 -60
21 14 41 23 44 21 8 -9 -85 -190 -114 -222 -15 -16 -39 -37 -53 -46 -31 -21
-22 -33 15 -19 15 6 29 9 31 7 6 -6 -29 -117 -37 -117 -5 0 -13 9 -19 20 -9
16 -8 20 5 20 25 0 17 16 -17 31 -37 16 -45 39 -46 134 l-1 60 16 -30 c24 -43
28 -14 6 42 -14 36 -18 75 -18 158 0 61 4 118 7 127 15 38 98 -20 98 -68 0
-38 13 -1 14 39 1 40 -2 44 -55 84 -56 41 -145 150 -100 122 34 -22 38 1 5 29
-82 70 -100 82 -122 82 -12 0 -37 8 -55 17 -18 9 -45 19 -62 23 -29 6 -29 7
35 38 36 17 80 41 99 53 l34 23 -7 -30 c-6 -28 -6 -28 9 -9 29 37 102 180 110
213 5 24 11 32 22 28 8 -3 16 -6 19 -6 9 0 34 -61 35 -87 2 -27 2 -27 6 -3 3
14 9 30 15 37 7 8 -2 33 -28 80 -20 37 -49 104 -64 148 -26 77 -27 85 -15 148
14 74 10 117 -12 117 -8 0 -11 -5 -8 -11 10 -15 -21 -93 -45 -114 -18 -16 -20
-16 -49 4 -16 12 -38 21 -48 21 -24 0 -51 19 -136 94 -63 55 -101 107 -118
161 -14 42 -9 -31 5 -78 8 -26 12 -47 9 -47 -3 0 -25 16 -49 35 -56 46 -104
142 -111 221 -8 99 56 230 109 222 22 -3 31 -14 50 -63 10 -25 12 -27 15 -10
2 11 0 45 -4 75 -7 45 -12 55 -32 60 -23 5 -22 6 17 50 37 42 42 44 68 35 26
-9 33 -6 64 23 l34 32 -47 0 c-26 0 -47 3 -47 8 0 18 36 55 118 125 114 96
135 110 266 179 125 66 103 70 -55 9 -118 -46 -242 -113 -334 -181 -86 -64
-100 -71 -117 -65 -17 7 -68 -31 -68 -48 0 -22 -279 -287 -326 -309 -24 -12
-44 -26 -44 -30 0 -14 40 -9 79 11 53 28 70 15 49 -36 -9 -21 -24 -62 -34 -92
-19 -63 -40 -100 -106 -193 -26 -38 -45 -68 -42 -68 11 0 77 42 103 64 l23 21
-4 -72 c-2 -40 -9 -78 -15 -84 -8 -8 -31 -5 -90 14 -43 14 -90 28 -105 31 -30
7 -168 -13 -168 -23 0 -4 31 -5 68 -3 122 7 214 -54 278 -184 35 -72 34 -127
-6 -233 -17 -46 -29 -89 -27 -95 3 -10 40 41 51 69 11 30 21 -20 24 -117 6
-165 -26 -228 -113 -231 -24 -1 -34 -5 -31 -13 4 -9 -1 -11 -17 -5 -49 17 -72
130 -46 225 l11 39 24 -29 c25 -31 31 -21 12 21 -9 21 -8 32 5 61 24 49 21 57
-10 28 l-28 -26 -26 31 c-50 61 -67 110 -78 236 -6 66 -14 130 -17 142 -10 35
-25 16 -18 -22 5 -29 -14 -114 -33 -147 -9 -17 -179 196 -189 238 -3 13 -15
41 -25 61 -10 21 -19 55 -19 78 0 51 -15 79 -27 50 -7 -18 -8 -16 -14 10 -4
17 -7 56 -8 88 -1 36 -5 56 -11 52 -26 -16 -1 203 34 303 31 87 89 182 170
279 89 106 169 178 280 252 101 67 63 62 -61 -9 -122 -71 -215 -142 -322 -247
-41 -40 -75 -73 -77 -73 -2 0 1 12 7 26 25 69 -17 16 -95 -116 -14 -25 -54
-85 -89 -135 -77 -111 -91 -116 -153 -49 -24 26 -47 44 -50 41 -3 -3 13 -45
35 -93 53 -113 55 -165 8 -279 -32 -78 -99 -187 -131 -214 -9 -7 -16 -18 -16
-23 0 -13 116 68 135 94 16 22 16 19 8 -52 -4 -41 -7 -102 -5 -136 2 -48 -2
-66 -17 -86 -19 -23 -19 -27 -4 -47 35 -50 -1 -227 -69 -345 -16 -27 -27 -50
-25 -52 5 -5 65 62 84 92 20 32 16 -131 -5 -191 -16 -45 -21 -51 -67 -67 -61
-22 -66 -22 -59 -3 4 10 0 15 -15 15 -11 0 -25 9 -31 19 -17 33 -13 328 6 391
l16 53 23 -29 c28 -33 32 -22 10 29 -8 20 -15 49 -15 64 0 15 -8 50 -18 77
-13 34 -17 59 -12 86 7 38 64 134 94 159 26 21 18 35 -9 17 -31 -20 -61 -21
-69 0 -13 33 -5 86 19 134 30 60 31 69 5 45 -11 -10 -23 -15 -27 -12 -3 4 -1
51 6 105 19 146 -5 321 -56 407 -20 35 -23 11 -7 -66 28 -129 -1 -326 -63
-439 -39 -71 -43 -70 -44 11 -1 89 -3 85 -28 -53 -19 -105 -54 -192 -89 -221
-13 -10 -14 -7 -9 27 8 53 -6 34 -31 -40 -24 -71 -68 -149 -120 -212 l-36 -44
-14 39 c-7 21 -11 56 -8 78 l5 40 -18 -40 c-10 -22 -20 -72 -23 -112 -4 -52
-13 -88 -36 -134 -31 -63 -31 -63 -42 -35 -5 15 -10 30 -10 33 0 3 -11 14 -25
25 -32 25 -85 115 -85 145 0 12 -5 34 -12 50 l-11 28 -6 -30 c-6 -29 -8 -28
-59 55 -62 100 -65 126 -20 144 85 34 226 7 287 -56 26 -26 31 -29 31 -13 0
30 -79 97 -167 143 -116 60 -187 149 -234 292 -30 91 -40 95 -31 14 4 -38 7
-91 7 -119 l0 -50 -33 2 c-19 0 -64 16 -100 35 -80 39 -131 101 -162 194 -11
34 -27 70 -35 80 -13 17 -14 14 -9 -31 4 -27 10 -68 15 -90 4 -22 7 -41 5 -42
-1 -2 -46 38 -100 88 -80 76 -104 106 -139 173 l-41 81 -6 -35 -5 -34 -40 54
c-112 154 -189 299 -216 405 -11 45 -18 60 -18 41 -1 -40 -13 -25 -44 54 -28
72 -40 117 -57 230 -6 41 -20 120 -31 175 -12 63 -20 146 -21 220 l-1 120 -14
-65 c-22 -98 -22 -416 0 -550 9 -58 17 -123 16 -145 -1 -22 7 -62 18 -90 40
-99 62 -161 69 -190 l7 -30 -37 34 c-47 45 -46 33 3 -32 66 -90 125 -198 111
-207 -9 -5 -7 -11 7 -21 11 -8 36 -37 56 -65 20 -28 63 -75 94 -105 32 -30 72
-70 88 -89 l30 -34 -31 24 c-18 14 -61 50 -97 80 -36 31 -97 72 -134 92 -113
60 -296 102 -353 80 -22 -8 -20 -10 25 -16 76 -12 198 -63 262 -110 64 -47
153 -132 153 -147 0 -5 20 -29 44 -54 83 -84 186 -335 218 -530 20 -121 30
-99 23 48 -8 154 -7 156 58 112 41 -28 81 -99 118 -206 19 -58 21 -86 23 -289
1 -224 1 -225 -27 -293 -33 -82 -36 -114 -7 -77 l20 25 0 -25 c0 -65 -75 -247
-116 -281 -17 -13 -17 -13 -1 11 35 53 50 148 44 270 -6 106 -19 185 -35 202
-4 4 -7 -50 -7 -120 -1 -117 -3 -135 -33 -222 -76 -218 -209 -386 -394 -500
-49 -29 -88 -55 -88 -57 0 -9 200 55 220 71 13 10 13 9 0 -9 -43 -59 -136
-153 -168 -171 -21 -12 -46 -38 -59 -64 -13 -24 -40 -66 -61 -94 -73 -98 -154
-247 -198 -364 -13 -34 -24 -66 -24 -70 0 -4 23 31 50 77 79 133 228 321 254
321 7 0 25 14 42 31 36 39 144 110 201 132 29 11 50 14 65 8 22 -8 95 -113
135 -193 22 -45 47 -52 37 -11 -4 16 -15 61 -26 102 -33 123 -12 227 53 262
28 14 57 2 74 -30 10 -21 11 -31 2 -40 -8 -8 -7 -18 6 -40 11 -20 17 -49 16
-88 0 -32 2 -100 6 -150 5 -63 4 -93 -3 -93 -6 0 -31 24 -57 52 -50 57 -53 48
-13 -41 49 -109 89 -228 103 -308 20 -115 20 -114 -17 -62 -45 62 -130 161
-135 156 -2 -2 22 -44 52 -93 87 -137 119 -210 121 -268 1 -43 9 -62 48 -119
25 -38 78 -135 118 -215 39 -81 89 -176 111 -212 38 -62 115 -203 163 -300 24
-47 31 -38 15 17 -8 29 -8 31 7 21 9 -6 44 -42 77 -80 102 -117 336 -315 488
-411 53 -34 270 -147 282 -147 3 0 -45 34 -107 76 -135 91 -240 178 -367 305
-112 111 -271 298 -271 318 0 8 -10 36 -22 63 -16 37 -26 47 -39 43 -14 -5
-29 15 -73 93 -75 134 -77 141 -18 85 44 -42 163 -119 215 -139 33 -12 17 11
-26 38 -103 65 -250 252 -313 398 -34 78 -64 179 -64 214 0 20 0 20 15 0 21
-27 19 -18 -15 75 -25 68 -29 92 -24 132 8 61 7 61 150 -68 134 -123 174 -156
179 -152 2 2 -19 31 -46 64 -122 146 -260 373 -232 382 7 3 -1 27 -18 61 -21
41 -32 81 -39 145 -6 49 -8 93 -4 98 3 6 15 -4 26 -21 30 -50 31 -30 2 51 -28
80 -31 104 -20 162 6 31 10 36 24 28 50 -27 158 -142 223 -238 86 -129 78
-118 85 -111 3 4 -20 57 -52 120 -102 201 -176 352 -196 402 -17 45 -49 176
-43 176 2 0 36 -34 76 -75 41 -43 76 -72 81 -67 5 5 -15 41 -46 83 -103 136
-145 249 -146 388 l0 44 32 -62 c29 -57 48 -76 48 -49 0 6 -11 39 -24 72 -42
104 -60 218 -52 320 6 62 11 85 18 75 6 -9 7 -1 3 26 -4 22 -9 78 -11 125 l-5
85 26 -30 c74 -86 114 -193 116 -304 l1 -66 15 35 c10 24 13 50 9 82 -4 27 -4
48 -1 48 10 0 83 -166 94 -215 15 -66 18 -148 7 -215 -8 -49 -7 -53 7 -42 9 8
19 27 22 43 10 46 23 25 30 -49 21 -224 47 -426 55 -441 8 -12 10 -3 7 34 -8
109 21 412 44 455 6 12 9 12 15 -5 19 -55 66 -145 76 -145 6 0 7 7 3 18 -41
101 -47 131 -48 227 0 61 6 118 15 145 l14 45 8 -47 c4 -27 11 -48 17 -48 5 0
9 21 9 48 0 64 9 95 24 83 9 -7 12 4 12 42 1 35 9 66 25 95 13 24 31 57 40 73
9 15 28 44 43 63 14 19 26 38 26 43 0 4 9 19 19 33 l19 25 8 -29 c7 -29 -1
-178 -12 -230 -5 -22 -4 -27 6 -21 10 6 12 -17 8 -111 -4 -115 -5 -121 -41
-185 -45 -80 -46 -92 -7 -54 16 16 33 25 37 21 14 -13 9 -277 -6 -335 -12 -48
-12 -55 2 -62 19 -11 11 -43 -32 -129 -17 -33 -31 -65 -31 -71 0 -13 41 9 57
30 18 23 17 -151 -1 -256 -12 -64 -24 -97 -60 -156 -69 -113 -64 -124 18 -41
31 30 62 54 69 52 19 -7 55 -127 57 -188 1 -56 27 -139 29 -92 2 54 29 11 46
-76 4 -18 11 -30 15 -27 5 3 14 -5 21 -17 44 -84 116 -177 206 -267 112 -112
154 -132 56 -27 -104 110 -215 313 -228 416 -4 25 -13 75 -21 112 -8 37 -14
77 -14 90 0 20 5 18 40 -22 l40 -45 -16 40 c-28 69 -66 207 -59 214 3 2 14 -4
24 -13 35 -32 44 -7 12 30 -38 43 -43 70 -39 224 l3 125 28 -59 c15 -33 29
-57 32 -54 3 3 -9 61 -26 129 -28 108 -32 141 -32 254 0 192 24 240 116 233
56 -4 87 -48 87 -123 0 -28 -3 -55 -7 -59 -4 -4 -8 -49 -9 -99 0 -71 -7 -110
-27 -172 -15 -44 -27 -86 -27 -92 0 -24 16 -13 38 25 l22 37 0 -77 c0 -85 -14
-167 -38 -213 -8 -16 -39 -61 -69 -99 -29 -38 -51 -71 -49 -74 3 -2 21 9 41
27 99 86 136 39 152 -192 6 -87 8 -97 16 -69 6 17 13 32 17 32 4 0 31 -53 60
-117 30 -65 68 -150 85 -189 33 -72 58 -105 48 -62 -8 31 2 20 69 -77 140
-201 295 -339 511 -455 108 -57 146 -63 45 -7 -35 20 -101 66 -147 103 -86 69
-238 242 -268 304 -9 19 -31 56 -49 81 -31 44 -94 161 -94 174 0 4 5 3 12 -1
7 -5 9 -2 5 7 -94 216 -107 252 -121 337 -16 92 -21 172 -11 172 12 0 124 -60
130 -70 3 -5 13 -10 22 -10 10 0 -9 27 -50 69 -96 99 -109 135 -115 304 -3 88
-1 137 6 137 5 0 13 -11 16 -25 4 -14 11 -25 17 -25 6 0 8 8 5 18 -3 9 -12 50
-21 91 -8 40 -17 77 -20 81 -3 4 -1 63 3 130 11 153 17 160 126 160 113 -1
172 -43 186 -132 l7 -43 12 30 c12 29 10 82 -4 116 -12 31 45 9 66 -25 23 -38
25 -68 4 -60 -19 8 -19 2 0 -43 32 -76 8 -326 -36 -379 -7 -8 -9 -18 -5 -22 4
-4 20 8 34 26 l27 33 -6 -78 c-3 -43 -13 -92 -22 -110 -19 -36 -81 -102 -112
-119 -11 -7 -17 -15 -13 -19 4 -4 32 5 64 19 105 48 130 32 126 -81 -2 -52 2
-82 13 -104 21 -40 29 -31 26 29 -2 52 17 89 41 79 19 -7 165 -175 276 -316
90 -116 123 -144 69 -60 -52 82 -157 290 -157 311 0 20 -18 59 -31 68 -4 3
-17 29 -28 58 -15 37 -17 52 -8 52 21 0 35 -14 43 -44 7 -28 7 -28 23 -9 22
29 58 45 81 38 28 -9 77 -145 51 -145 -9 0 -4 -71 9 -130 l8 -35 1 32 c1 17 5
35 11 38 5 3 51 -78 102 -181 62 -126 94 -181 98 -169 5 14 25 -4 90 -80 96
-112 206 -212 311 -282 75 -51 248 -137 257 -128 2 2 -8 10 -24 17 -16 7 -63
34 -104 61 -85 56 -300 268 -300 296 0 10 -10 26 -21 37 -24 21 -116 154 -126
182 -6 15 -5 15 10 3 26 -21 21 -8 -28 73 -25 41 -54 99 -64 129 -21 59 -41
175 -41 231 0 48 18 47 101 -3 35 -21 66 -37 68 -35 3 3 -23 33 -57 67 -83 84
-112 151 -124 280 -5 54 -8 115 -6 135 l3 37 18 -32 c32 -60 35 -34 7 56 -24
80 -27 104 -27 220 1 125 2 132 25 154 20 19 35 22 99 22 l75 0 37 -42 c38
-42 67 -114 55 -135 -4 -6 -1 -9 7 -6 8 3 16 24 19 48 l5 44 31 -39 c42 -54
54 -95 54 -184 0 -73 -36 -214 -63 -249 -5 -7 -7 -15 -4 -18 3 -4 20 9 36 27
l31 33 0 -40 c0 -105 -57 -212 -135 -253 l-40 -21 35 4 c19 2 57 12 84 22 l49
17 20 -24 c15 -19 18 -33 13 -69 -17 -117 -18 -138 -7 -144 7 -5 11 1 11 14 0
26 18 61 39 77 17 12 40 -21 126 -185 20 -40 43 -72 49 -72 7 0 36 -29 65 -65
67 -83 158 -170 245 -236 89 -67 268 -181 274 -174 3 3 3 6 1 8 -2 2 -34 24
-71 50 -118 83 -318 287 -318 324 0 6 -14 26 -31 44 -36 38 -82 123 -55 100
24 -20 20 0 -14 64 -22 42 -30 71 -30 109 0 49 26 121 44 121 4 0 16 -21 26
-46 25 -63 103 -172 149 -208 54 -43 59 -39 16 11 -104 122 -127 305 -44 356
16 10 19 9 19 -5 0 -16 3 -15 18 3 60 75 198 53 264 -41 27 -38 34 -43 36 -27
2 11 -4 37 -13 58 -8 20 -13 39 -11 41 9 9 110 -50 150 -87 73 -68 134 -222
137 -349 1 -42 2 -43 9 -16 22 88 -3 315 -49 440 -10 28 -22 68 -25 89 -7 34
-5 38 6 28 12 -9 20 -6 40 16 14 15 31 37 37 50 17 32 26 21 46 -52 20 -75 18
-242 -4 -255 -16 -10 -17 -63 -2 -126 17 -72 27 -390 13 -381 -7 4 -12 13 -12
19 0 7 -11 35 -25 62 l-24 50 5 -40 c3 -22 13 -67 21 -100 9 -33 19 -89 23
-125 4 -36 13 -108 20 -160 12 -96 8 -256 -8 -300 -8 -23 -10 -22 -45 24 -20
26 -38 53 -40 59 -2 7 -7 9 -11 6 -3 -3 13 -50 36 -105 24 -58 42 -117 44
-144 1 -25 6 -63 12 -85 6 -22 15 -101 22 -175 6 -74 16 -160 20 -190 20 -123
41 -368 35 -412 -4 -27 -2 -55 5 -67 10 -20 46 -274 52 -376 5 -75 14 -37 33
142 9 89 23 186 31 215 8 29 12 69 9 88 -6 37 25 330 50 472 8 46 15 127 15
180 0 53 5 109 11 125 7 15 13 49 14 74 2 26 20 86 40 135 48 116 53 138 23
100 -13 -16 -33 -41 -44 -55 l-22 -25 -11 39 c-28 100 -7 371 45 579 13 55 22
101 20 104 -6 5 -30 -43 -45 -90 -7 -21 -17 -41 -23 -44 -16 -10 -1 371 18
443 10 39 11 58 4 63 -16 10 -30 117 -26 189 3 34 13 85 22 111 l18 49 53 -56
c30 -30 58 -65 64 -76 10 -18 9 -19 -10 -14 -32 8 -25 -6 19 -42 47 -37 49
-56 20 -149 -11 -35 -20 -87 -19 -115 l0 -52 19 53 c43 119 83 162 160 170 58
5 126 -27 187 -90 56 -58 75 -105 68 -171 l-5 -52 20 40 c28 58 26 96 -10 133
-27 29 -38 52 -25 52 3 0 26 -20 50 -44 36 -35 45 -51 45 -79 0 -19 7 -51 15
-70 8 -20 15 -52 15 -72 0 -61 -31 -177 -64 -240 -39 -75 -147 -190 -231 -246
-36 -23 -63 -45 -60 -47 7 -7 154 76 235 133 84 60 220 179 253 223 11 15 43
50 70 78 27 28 68 87 92 131 56 107 85 153 96 153 14 0 49 -62 49 -88 0 -14 4
-21 11 -16 11 6 10 34 -7 164 -5 37 -2 49 14 64 20 17 23 17 100 -18 44 -20
85 -36 91 -36 22 0 11 18 -19 30 -43 18 -105 92 -124 147 -9 26 -16 76 -16
112 l0 66 22 -37 c20 -35 38 -49 38 -30 0 5 -14 46 -31 93 -29 80 -31 89 -26
194 3 61 9 125 13 144 5 24 3 32 -5 27 -12 -8 -15 13 -5 39 8 19 55 45 84 45
l21 0 -20 -26 c-25 -32 -28 -101 -6 -130 14 -18 14 -17 15 16 1 92 77 141 230
148 86 4 98 2 123 -18 27 -21 27 -22 27 -150 0 -89 -4 -140 -14 -162 -40 -94
-48 -117 -43 -130 3 -8 11 -1 23 19 11 18 23 33 28 33 16 0 0 -231 -20 -280
-29 -74 -82 -146 -139 -192 -30 -24 -54 -46 -55 -51 0 -4 40 13 89 37 49 25
91 42 95 39 23 -24 -28 -236 -80 -332 -20 -36 -49 -80 -65 -96 -36 -39 -38
-57 -2 -24 22 20 25 21 19 5 -11 -33 -93 -149 -125 -180 -17 -17 -31 -37 -31
-46 0 -19 -196 -213 -266 -263 -28 -20 -82 -55 -120 -78 -71 -43 -71 -44 6
-13 195 77 399 228 545 403 42 51 61 67 65 56 5 -13 81 109 176 282 33 59 44
66 44 26 1 -21 3 -24 9 -13 8 15 19 88 24 165 2 23 12 59 23 80 15 33 24 40
44 37 14 -1 35 -14 48 -28 36 -41 29 -79 -29 -164 -62 -92 -163 -269 -157
-275 3 -3 27 28 54 68 129 190 371 371 476 355 22 -3 22 -4 -7 -20 -35 -19
-125 -111 -125 -129 0 -6 15 2 34 18 51 45 115 72 203 85 76 11 82 10 124 -11
66 -35 82 -71 30 -71 -17 0 -42 -10 -57 -24 l-28 -23 23 -8 c13 -4 28 -2 34 4
19 19 85 13 97 -8 6 -13 17 -17 29 -14 26 7 36 -31 26 -95 -4 -26 -9 -62 -11
-81 -8 -78 -99 -229 -192 -318 -25 -24 -41 -43 -37 -43 14 0 123 90 176 148
75 80 239 343 238 382 0 8 -10 -5 -21 -28 -25 -56 -35 -47 -15 15 8 26 18 67
22 91 9 53 48 102 82 102 14 0 38 9 55 21 16 12 31 19 34 17 4 -5 -31 -71
-120 -223 -54 -94 -81 -162 -91 -230 -9 -62 -4 -58 30 25 52 125 149 240 231
275 42 18 47 14 64 -45 5 -19 39 -100 75 -179 36 -80 65 -146 65 -148 0 -2 4
-3 10 -3 5 0 1 20 -10 45 -52 122 -67 289 -31 355 10 19 25 36 32 38 8 1 31
-13 52 -33 20 -19 45 -35 54 -35 14 0 13 3 -5 16 -28 19 -28 34 -1 34 25 0
160 -62 196 -90 87 -68 86 -144 -5 -263 -24 -32 -42 -61 -39 -64 3 -2 35 22
70 55 107 100 144 111 202 61 62 -55 84 -130 50 -175 -16 -22 -20 -48 -5 -39
6 4 10 -6 10 -23 0 -42 -80 -197 -146 -282 -30 -40 -53 -75 -49 -78 12 -13
186 181 236 264 29 46 55 84 59 84 12 0 20 -28 20 -66 0 -23 -11 -48 -35 -80
-44 -57 -48 -90 -7 -51 15 15 32 27 36 27 15 0 -1 -142 -22 -205 -55 -166 -84
-216 -180 -309 -67 -65 -121 -102 -194 -132 -45 -18 -68 -41 -30 -30 9 3 44
12 77 21 33 9 77 23 98 32 20 9 40 13 43 10 13 -13 -89 -157 -111 -157 -7 0
-15 -10 -19 -22 -3 -13 -26 -44 -51 -70 -50 -52 -56 -65 -23 -47 21 11 21 11
-2 -21 -58 -81 -233 -258 -350 -354 -96 -78 -246 -180 -336 -227 -99 -51 -62
-41 81 22 235 104 425 241 654 470 124 125 137 133 114 72 -13 -34 9 -6 43 54
21 38 78 127 128 198 50 72 99 141 107 155 30 47 161 184 212 222 28 21 47 38
42 38 -12 0 -75 -40 -121 -77 -23 -18 -44 -33 -48 -33 -12 0 46 104 96 174 51
70 103 164 96 172 -3 2 -24 -18 -47 -46 -23 -27 -46 -50 -50 -50 -5 0 -2 28 6
63 8 34 18 94 22 132 5 39 14 89 20 113 11 38 14 42 28 30 15 -12 15 -11 2 9
-12 20 -11 25 3 39 25 26 66 10 83 -31 17 -38 8 -103 -25 -201 -35 -101 -20
-97 41 9 23 40 51 82 62 95 85 93 354 -140 507 -440 19 -37 36 -65 37 -64 2 2
-6 34 -18 72 -28 91 -110 263 -154 325 -19 27 -35 55 -35 62 0 22 -80 126 -93
121 -14 -5 -174 153 -164 162 3 3 18 -1 34 -9 39 -21 174 -60 181 -53 7 7 14
3 -83 51 -63 31 -100 59 -172 131 -51 51 -93 98 -93 105 0 6 -18 38 -40 71
-22 33 -40 68 -40 77 0 14 -2 14 -10 1 -7 -11 -19 6 -49 70 -74 159 -106 354
-81 498 6 40 10 76 7 78 -10 10 -38 -94 -49 -183 -9 -72 -9 -121 0 -218 7 -69
15 -133 19 -143 3 -9 -6 -3 -20 13 -14 17 -28 28 -31 25 -2 -3 13 -44 36 -90
22 -47 49 -105 60 -129 l18 -44 -42 7 c-52 8 -107 39 -133 74 -11 15 -36 58
-56 96 -20 37 -39 64 -43 58 -3 -5 5 -43 18 -83 13 -41 23 -76 21 -77 -2 -2
-41 17 -87 43 -266 149 -319 190 -366 285 -24 50 -26 65 -25 165 l1 109 -18
-34 c-20 -39 -44 -165 -35 -180 4 -6 2 -10 -3 -10 -11 0 -58 66 -70 100 -5 14
-12 54 -16 90 -6 61 -5 64 10 45 16 -19 16 -19 10 10 -4 17 -9 77 -13 135 -6
104 -5 106 22 138 17 20 36 32 52 32 26 0 27 -5 8 -55 -4 -11 3 -4 16 15 l25
35 92 3 c70 2 99 -1 124 -14 54 -27 96 -74 114 -126 8 -26 20 -50 25 -53 13
-9 10 61 -6 128 l-14 59 46 20 c25 11 56 18 69 15 13 -2 24 -1 24 4 0 10 74
36 125 44 53 9 180 62 197 83 11 14 11 15 -5 9 -104 -39 -223 -50 -356 -34
-99 12 -118 28 -85 75 25 37 8 38 -40 4 -63 -46 -217 -81 -228 -53 -1 5 -38
12 -81 14 -109 7 -127 21 -127 95 2 140 44 216 133 236 l28 7 -25 -40 c-14
-22 -28 -52 -32 -68 -6 -24 -1 -21 46 30 66 72 114 100 210 122 41 9 100 23
130 31 30 7 77 15 103 17 48 5 49 5 41 -22 -4 -14 -7 -39 -6 -54 1 -16 -14
-75 -33 -132 -22 -66 -35 -122 -34 -152 l1 -48 13 47 c47 172 266 438 361 438
11 0 13 6 9 19 -4 15 8 29 53 64 l59 44 -34 -67 c-31 -63 -90 -257 -81 -266 3
-2 30 48 61 111 88 176 166 285 302 421 135 135 210 180 343 208 41 8 76 17
80 20 3 3 -30 6 -74 6 -133 0 -264 -48 -399 -146 -33 -24 -82 -60 -110 -80
-44 -33 -42 -30 20 29 39 36 74 66 79 67 5 0 34 25 65 56 31 31 71 70 88 88
31 29 45 54 23 41 -5 -3 -10 -3 -10 1 0 11 58 103 111 176 55 76 64 106 19 63
-16 -16 -30 -27 -30 -24 0 8 75 198 98 249 12 25 17 47 11 50 -5 4 -1 42 11
96 50 232 65 517 35 708 -8 55 -16 101 -18 102 -2 2 -3 -65 -3 -149 1 -117 -4
-178 -21 -267 -13 -63 -30 -159 -38 -213 -16 -103 -41 -180 -56 -172 -13 8
-29 -30 -39 -92 -12 -73 -113 -270 -175 -343 -12 -14 -34 -46 -49 -72 -14 -26
-63 -85 -107 -130 l-80 -83 5 53 c3 28 3 52 1 52 -3 0 -25 -39 -49 -87 -49
-98 -82 -134 -171 -187 -88 -53 -95 -50 -95 33 0 38 5 82 10 97 6 15 8 29 5
32 -5 5 -41 -72 -70 -151 -25 -71 -87 -143 -148 -173 -60 -30 -218 -86 -225
-80 -2 3 15 29 37 60 23 30 41 58 41 62 0 3 -26 -17 -59 -45 -112 -97 -277
-145 -331 -96 -26 24 -25 35 3 35 l22 0 -21 18 c-45 36 -58 106 -29 162 9 17
13 30 10 30 -3 0 1 12 9 28 23 43 79 91 128 110 25 9 46 22 46 27 1 13 -35 8
-123 -16 -38 -10 -70 -19 -72 -19 -6 0 -22 73 -27 123 -7 60 12 164 38 215 35
70 28 78 -23 22 l-49 -55 -10 25 c-6 14 -35 90 -65 170 -30 80 -57 143 -60
140 -2 -3 -27 29 -55 70 -64 95 -180 210 -279 277 -76 51 -136 75 -83 32 14
-11 49 -39 78 -62 98 -78 241 -283 242 -345 0 -12 12 -46 27 -75 14 -29 28
-72 29 -97 1 -25 7 -77 14 -116 14 -95 10 -276 -8 -282 -7 -2 -44 28 -83 68
-39 39 -72 70 -74 68 -2 -2 7 -21 20 -43 79 -131 105 -183 105 -210 0 -16 9
-55 21 -85 22 -58 22 -146 0 -159 -14 -9 1 -96 24 -140 8 -17 15 -35 15 -41 0
-21 -21 2 -36 38 -13 34 -18 37 -58 39 -38 2 -138 31 -198 57 -10 5 -18 4 -18
-1 0 -5 40 -35 90 -67 49 -31 100 -70 114 -86 44 -53 80 -139 84 -204 l5 -61
-21 25 -21 25 20 -59 c53 -163 -17 -244 -177 -206 -53 13 -57 16 -94 79 -37
64 -107 147 -117 138 -2 -3 11 -27 30 -54 29 -40 87 -154 87 -170 0 -3 -17 -2
-37 1 -35 6 -37 5 -19 -9 11 -8 28 -15 38 -15 42 0 83 -180 76 -325 -5 -83
-31 -209 -48 -228 -4 -5 -11 11 -14 35 -4 24 -13 54 -20 66 -11 21 -13 10 -13
-80 0 -84 -4 -110 -20 -143 -32 -62 -58 -80 -112 -78 -64 2 -99 18 -119 53
-16 29 -40 36 -34 10 5 -21 -56 29 -79 66 -21 35 -23 87 -3 137 5 13 2 16 -10
11 -12 -5 -21 5 -36 37 -17 39 -20 66 -20 225 0 99 3 184 7 187 3 4 19 -11 36
-34 16 -22 32 -38 34 -35 3 2 -9 33 -25 68 -47 99 -52 130 -52 331 l0 188 23
-6 c23 -7 76 -57 95 -91 6 -10 13 -16 16 -13 4 3 -8 32 -25 65 -18 32 -47 88
-65 123 -45 84 -46 140 -5 182 27 27 35 29 104 29 66 0 75 2 80 20 4 17 0 20
-26 20 -37 0 -137 30 -137 42 0 4 -9 8 -19 8 -31 0 -95 81 -116 146 -16 51
-19 56 -25 34 -6 -23 -8 -21 -26 25 -10 28 -25 50 -33 50 -8 0 -34 32 -58 70
-47 76 -122 169 -130 161 -3 -3 5 -19 17 -35 44 -63 88 -175 94 -240 5 -53 3
-62 -9 -57 -12 4 -11 -3 5 -34 19 -38 26 -90 14 -102 -3 -4 -26 1 -50 9 -52
18 -65 12 -38 -18 18 -20 18 -21 0 -35 -11 -7 -22 -11 -25 -8 -3 4 0 9 7 11 9
4 1 17 -25 43 -42 39 -77 106 -110 205 -11 33 -30 91 -43 128 -12 37 -20 70
-18 73 10 9 74 -25 102 -55 17 -17 34 -31 38 -31 19 0 -18 46 -120 149 -59 60
-111 113 -117 119 -5 7 -38 37 -73 69 -40 35 -62 62 -59 72 2 10 -11 27 -35
43 -21 15 -38 23 -38 18 0 -22 -31 -7 -96 45 -94 74 -318 183 -471 228 -29 9
-53 13 -53 9 0 -4 31 -20 67 -37 137 -61 281 -162 386 -269 l47 -50 -29 -12
c-16 -7 -39 -10 -50 -7 -12 3 -21 1 -21 -4 0 -17 58 -43 95 -43 47 0 68 -12
94 -54 25 -39 26 -46 8 -46 -19 0 -38 -45 -43 -105 l-5 -50 23 44 c35 68 52
73 93 29 38 -41 65 -118 65 -185 0 -24 -12 -76 -27 -116 -23 -60 -41 -85 -104
-149 -42 -43 -81 -78 -87 -78 -7 0 -6 15 4 45 19 55 13 81 -9 39 -50 -97 -161
-191 -245 -209 -29 -6 -37 -2 -74 34 -37 38 -40 45 -35 81 6 47 -7 45 -22 -3
-9 -26 -8 -50 4 -106 8 -40 15 -82 15 -94 0 -57 -120 -256 -170 -282 -17 -9
-30 -20 -30 -26 0 -5 14 -2 30 6 37 19 50 13 51 -23 l1 -27 10 30 c6 17 17 39
24 49 12 18 13 17 21 -10 4 -16 8 -72 8 -125 0 -81 -3 -100 -19 -118 -11 -12
-29 -21 -40 -21 -32 0 -206 -60 -206 -72 0 -6 12 -7 33 -1 17 4 62 8 99 8 57
0 70 -4 92 -24 35 -32 54 -94 36 -116 -9 -10 -10 -33 -6 -78 8 -69 -5 -137
-36 -200 -11 -21 -18 -48 -16 -60 3 -19 7 -17 28 17 l24 40 9 -35 c13 -48 2
-170 -19 -210 -24 -47 -64 -98 -85 -110 -14 -7 -31 -2 -69 18 -54 30 -59 43
-34 93 21 40 35 100 24 100 -4 0 -17 -16 -29 -35 -26 -44 -66 -65 -85 -44 -21
22 -36 76 -42 153 l-7 71 37 -34 c28 -28 36 -31 36 -17 0 10 -8 30 -19 44 -40
57 -51 115 -52 278 0 86 2 158 5 161 2 3 16 -14 30 -36 23 -36 46 -53 46 -35
0 4 -19 41 -42 83 -40 72 -42 81 -46 171 -4 88 -3 93 12 75 20 -26 20 -6 0 45
-23 56 -15 180 14 237 24 46 47 58 98 48 44 -8 44 7 -2 28 -24 12 -47 15 -70
11 l-34 -6 0 52 c0 77 52 150 107 150 28 0 51 18 36 28 -13 8 30 49 137 128
53 39 130 123 130 141 -1 4 -8 -1 -18 -12 -31 -36 -106 -92 -162 -120 -75 -38
-164 -68 -168 -56 -3 10 -55 -7 -104 -34 -14 -8 -34 -15 -43 -15 -14 0 -15 3
-5 15 18 22 -2 19 -52 -6 -57 -29 -140 -30 -198 -1 l-45 23 30 -26 30 -27 -75
6 c-41 4 -98 14 -127 22 -59 19 -123 67 -123 94 0 28 35 103 57 123 40 36 126
18 152 -32 9 -15 6 -20 -12 -26 -22 -7 -22 -8 3 -12 14 -3 35 -14 47 -26 29
-26 35 -20 24 21 -12 39 -8 39 67 8 137 -57 289 -85 307 -56 4 6 -7 10 -26 10
-39 0 -102 30 -146 69 -37 33 -40 41 -15 41 27 0 131 87 163 138 42 66 36 73
-18 20 -57 -56 -105 -78 -168 -78 -39 0 -52 5 -78 32 -20 20 -27 33 -19 36 6
2 12 8 12 13 0 4 -6 6 -14 3 -17 -7 -41 28 -51 74 -4 21 -3 32 5 32 7 0 9 8 5
21 -4 11 -7 50 -6 87 0 39 -3 61 -8 54 -11 -17 -21 7 -21 48 0 109 69 267 152
351 84 84 78 109 -9 40 -69 -54 -124 -120 -163 -193 -18 -35 -41 -70 -51 -78
-12 -10 -22 -41 -29 -90 -7 -41 -15 -97 -19 -125 -8 -50 -19 -85 -27 -85 -3 0
-19 10 -37 22 -18 13 -34 24 -37 26 -3 2 3 9 13 17 16 12 16 13 -7 28 -40 27
-69 100 -62 156 4 30 1 65 -9 97 -15 51 -20 214 -6 248 4 10 2 40 -4 65 -16
61 -39 468 -31 532 5 38 -2 94 -29 232 -20 100 -37 182 -38 183 -1 1 -18 -81
-38 -183z m-51 -1318 c1 -29 0 -29 -13 8 -8 21 -11 45 -8 55 6 14 8 13 14 -8
4 -14 7 -38 7 -55z m312 -125 c0 -5 -12 -11 -27 -15 -35 -8 -62 18 -70 70 l-6
39 51 -44 c29 -24 52 -46 52 -50z m-305 13 c-10 -54 -33 -93 -54 -93 -32 0
-29 22 5 52 17 16 35 39 38 53 10 39 19 29 11 -12z m415 -80 c0 -23 -4 -33 -9
-27 -9 8 -4 64 5 64 2 0 4 -17 4 -37z m21 -75 c11 -20 11 -20 -14 -2 -14 11
-23 22 -20 27 6 10 21 0 34 -25z m-4824 -191 c10 -11 -10 1 -44 27 -34 26 -70
57 -80 69 -10 11 10 -1 44 -27 34 -26 70 -57 80 -69z m1760 -24 c-2 -21 -4 -6
-4 32 0 39 2 55 4 38 2 -18 2 -50 0 -70z m4549 -58 c-4 -17 -13 -40 -21 -51
-13 -17 -13 -14 0 25 8 24 16 64 17 90 l1 46 4 -40 c3 -21 2 -53 -1 -70z
m-4539 -27 c-3 -7 -5 -2 -5 12 0 14 2 19 5 13 2 -7 2 -19 0 -25z m973 -20 c0
-5 -4 -8 -10 -8 -5 0 -10 10 -10 23 0 18 2 19 10 7 5 -8 10 -18 10 -22z
m-2795 -43 c28 -36 51 -69 53 -74 2 -5 -17 1 -41 13 -36 17 -47 29 -57 60 -6
21 -14 44 -17 52 -12 32 15 9 62 -51z m4778 -51 l67 -38 -30 -24 c-17 -13 -37
-37 -45 -52 -17 -33 -20 -96 -5 -105 6 -4 10 5 10 20 0 99 138 151 220 84 17
-14 21 -22 12 -26 -9 -3 -7 -12 8 -30 22 -28 27 -79 8 -85 -10 -4 -23 -42 -44
-128 -4 -17 4 -11 25 22 40 62 48 65 60 21 13 -54 20 -302 10 -358 -5 -26 -29
-90 -53 -141 -25 -52 -42 -94 -38 -94 4 0 25 25 47 55 34 48 40 53 47 35 11
-29 14 -308 5 -357 -10 -51 -21 -54 -42 -12 -24 46 -30 28 -10 -31 13 -40 15
-58 7 -76 -12 -24 -1 -41 18 -29 6 3 10 -3 10 -14 0 -25 -51 -37 -113 -27 -23
4 -57 9 -76 12 -86 12 -180 96 -205 183 -33 114 -29 275 10 357 14 29 14 35 1
56 -30 46 -41 141 -28 251 14 122 40 187 77 187 31 0 31 12 0 26 -17 8 -28 8
-35 1 -7 -7 -17 3 -30 34 -18 39 -21 65 -21 217 l0 173 33 -34 c17 -19 62 -51
100 -73z m1851 -1 c35 -30 40 -31 60 -18 21 14 24 13 43 -7 40 -44 53 -84 53
-163 0 -75 0 -76 -21 -61 -16 11 -28 12 -50 4 -37 -13 -37 -28 0 -28 25 0 33
-7 55 -52 31 -61 35 -153 11 -232 -13 -42 -13 -47 0 -42 12 4 15 -8 15 -72 0
-93 -25 -149 -63 -138 -12 4 -49 14 -82 22 -92 24 -99 35 -103 161 l-4 107 42
-53 c23 -29 44 -50 47 -47 4 3 -5 27 -19 53 -64 118 -84 260 -50 338 10 22 16
48 14 58 -4 18 -4 18 -17 1 -10 -15 -13 2 -17 107 -3 68 -9 133 -13 144 -6 13
3 8 26 -15 19 -19 52 -49 73 -67z m-2235 -83 c1 -85 -17 -191 -34 -209 -4 -3
-15 5 -26 18 -10 13 -19 20 -19 17 0 -20 25 -104 36 -121 30 -47 45 -270 23
-350 -6 -22 -18 -48 -26 -57 -14 -15 -13 -22 8 -65 32 -66 39 -242 14 -329
-29 -103 -61 -137 -135 -146 l-25 -3 3 125 c3 131 -3 190 -18 190 -6 0 -10
-24 -10 -52 0 -62 -24 -119 -71 -172 -30 -35 -36 -37 -71 -32 -25 4 -48 1 -68
-9 -33 -17 -95 -21 -85 -5 4 6 1 17 -5 25 -8 10 -10 28 -5 52 4 21 9 54 11 74
3 32 35 120 89 244 l18 40 16 -45 16 -45 6 96 c8 115 23 165 99 324 56 119 98
175 108 146 11 -31 33 54 27 102 -5 31 -2 59 6 79 l13 31 13 -34 c13 -34 13
-34 9 18 -6 59 13 143 47 217 l22 49 7 -39 c4 -21 7 -82 7 -134z m-1532 64
c26 -33 78 -86 115 -117 52 -45 71 -68 86 -108 21 -58 36 -46 22 17 -5 21 -7
40 -5 42 8 9 77 -41 101 -74 19 -24 27 -50 31 -93 5 -55 3 -64 -27 -111 -18
-28 -44 -59 -58 -68 -23 -15 -25 -15 -37 2 -11 15 -15 15 -22 3 -11 -20 -47
-37 -77 -37 -14 0 -26 -4 -26 -10 0 -5 21 -10 48 -10 l47 0 -35 -22 c-68 -41
-193 -75 -219 -59 -10 7 -14 35 -14 112 1 163 2 184 16 203 12 16 14 16 40 -4
16 -12 30 -20 32 -18 3 2 -17 36 -43 74 l-48 71 -2 148 c-2 168 -8 163 75 59z
m-954 -96 c48 -88 97 -229 97 -279 0 -16 4 -29 9 -29 14 0 24 57 16 98 -6 36
-6 36 41 -28 103 -140 122 -205 88 -303 -13 -38 -20 -47 -40 -47 -18 0 -25 7
-32 33 l-8 32 -8 -28 c-15 -61 -33 -69 -149 -65 -69 2 -110 8 -120 17 -14 11
-17 33 -16 120 0 107 10 195 23 208 4 4 18 -6 31 -22 30 -37 31 -30 4 37 -44
109 -49 144 -39 267 5 64 12 127 16 140 6 21 9 19 24 -22 10 -25 38 -83 63
-129z m-1429 146 c9 -24 2 -26 -12 -4 -7 11 -8 20 -3 20 5 0 12 -7 15 -16z
m5851 -168 c-4 -116 -5 -120 -45 -194 -22 -41 -38 -77 -36 -79 3 -3 17 4 32
16 15 11 31 21 35 21 5 0 9 -72 9 -160 0 -195 5 -189 -152 -196 -93 -4 -108
-2 -148 19 -34 16 -48 31 -56 56 l-11 35 -14 -37 c-7 -20 -16 -37 -20 -37 -14
0 -51 61 -64 104 -15 50 -6 115 24 175 19 36 90 117 134 150 16 13 17 12 7
-13 -13 -34 -13 -116 0 -116 5 0 12 17 16 38 13 70 61 148 146 234 46 46 94
102 108 125 l25 41 7 -32 c4 -17 5 -84 3 -150z m-1807 62 l-1 -113 -6 90 c-6
84 -4 135 5 135 2 0 3 -51 2 -112z m-4238 37 c0 -5 -5 -3 -10 5 -5 8 -10 20
-10 25 0 6 5 3 10 -5 5 -8 10 -19 10 -25z m998 -37 c-2 -6 -10 -14 -16 -16 -7
-2 -10 2 -6 12 7 18 28 22 22 4z m5609 -10 c-3 -8 -6 -5 -6 6 -1 11 2 17 5 13
3 -3 4 -12 1 -19z m-1703 -15 c-10 -40 -14 -41 -14 -5 0 18 5 32 10 32 6 0 8
-11 4 -27z m-4839 -33 c8 -16 15 -37 14 -47 0 -16 -36 49 -38 70 -2 16 9 6 24
-23z m4174 -307 c-1 -159 -4 -223 -10 -193 -7 41 -1 430 7 430 2 0 3 -107 3
-237z m-4089 196 c0 -6 -4 -7 -10 -4 -5 3 -10 11 -10 16 0 6 5 7 10 4 6 -3 10
-11 10 -16z m961 -62 c-13 -13 -15 21 -3 50 6 15 8 13 10 -11 2 -16 -1 -33 -7
-39z m2852 23 c-5 -19 -23 -39 -23 -25 0 9 20 45 24 45 2 0 2 -9 -1 -20z
m3767 -50 c-8 -5 -28 -9 -45 -9 -26 0 -27 2 -10 9 11 5 31 9 45 9 20 1 22 -1
10 -9z m-2125 -379 c-8 -7 -45 36 -45 52 0 5 11 -2 26 -18 14 -15 22 -30 19
-34z m-3715 8 c-7 -11 -14 -18 -17 -15 -3 3 0 12 7 21 18 21 23 19 10 -6z
m675 -9 c-11 -5 -27 -9 -35 -9 -9 0 -8 4 5 9 11 5 27 9 35 9 9 0 8 -4 -5 -9z
m1674 -182 c-1 -104 -4 -132 -10 -103 -14 69 -9 245 7 245 2 0 3 -64 3 -142z
m-3109 102 c0 -5 -4 -10 -10 -10 -5 0 -10 5 -10 10 0 6 5 10 10 10 6 0 10 -4
10 -10z m3225 -49 c-8 -17 -17 -31 -20 -31 -5 0 11 56 21 72 16 25 15 -11 -1
-41z m-2108 19 c51 -30 57 -51 55 -192 -1 -104 -6 -140 -27 -205 -13 -43 -25
-91 -24 -108 0 -29 1 -28 25 18 13 26 26 47 28 47 2 0 2 -44 -1 -97 -5 -116
-24 -182 -65 -229 -32 -36 -51 -45 -41 -17 4 11 3 14 -5 9 -20 -12 -49 12 -72
59 -23 48 -42 215 -24 215 5 0 17 -15 28 -33 29 -51 30 -15 1 65 -34 93 -48
245 -22 235 21 -8 21 -5 2 40 -23 54 -20 115 8 141 35 33 72 38 90 12 17 -24
37 -19 37 8 0 10 -16 24 -38 34 -33 14 -34 16 -12 17 14 1 39 -8 57 -19z
m1873 -1 c0 -6 -4 -7 -10 -4 -5 3 -10 11 -10 16 0 6 5 7 10 4 6 -3 10 -11 10
-16z m-3000 -3 c0 -3 -4 -8 -10 -11 -5 -3 -10 -1 -10 4 0 6 5 11 10 11 6 0 10
-2 10 -4z m6274 -82 c14 -3 37 -19 50 -34 22 -26 23 -36 24 -161 0 -132 0
-135 -39 -238 -22 -57 -38 -106 -35 -108 2 -3 16 13 30 35 44 71 50 65 42 -39
-11 -146 -75 -262 -136 -246 -11 3 -20 0 -20 -6 0 -7 -7 -3 -15 7 -28 37 -17
113 38 256 13 36 27 83 31 105 l6 40 -18 -34 -19 -34 -7 94 c-9 129 -28 283
-36 289 -4 3 -16 32 -27 65 -12 33 -24 68 -28 78 -5 13 11 7 63 -22 38 -22 81
-43 96 -47z m-919 43 l34 -34 -1 -119 c-1 -131 -13 -192 -59 -296 -37 -84 -34
-107 7 -50 16 23 32 42 37 42 16 0 7 -159 -13 -213 -24 -63 -63 -105 -82 -89
-10 7 -17 2 -30 -23 l-16 -33 29 -6 c35 -7 36 -19 5 -69 -26 -43 -35 -39 -31
12 2 25 -5 44 -30 76 -45 60 -67 149 -63 260 l3 90 16 -36 c16 -34 36 -56 44
-47 2 2 -10 44 -26 93 -35 106 -49 222 -29 235 11 7 11 14 2 35 -18 38 -15
116 5 145 28 42 62 57 127 59 31 1 44 -5 71 -32z m-2348 -14 c-3 -10 -5 -4 -5
12 0 17 2 24 5 18 2 -7 2 -21 0 -30z m3566 20 c-7 -2 -19 -2 -25 0 -7 3 -2 5
12 5 14 0 19 -2 13 -5z m-4125 -355 c-1 -13 2 -38 6 -55 7 -33 7 -33 -28 -33
l-37 0 16 30 c8 16 20 41 25 55 12 31 20 32 18 3z m-3558 -2 c0 -7 -9 -16 -21
-19 -20 -5 -20 -5 -3 14 20 23 24 23 24 5z m3380 -190 c0 -2 -12 -11 -26 -21
-25 -16 -25 -16 -14 4 9 17 40 30 40 17z m1556 -134 c-7 -7 -36 80 -35 106 0
17 7 4 19 -38 10 -36 17 -66 16 -68z m1807 37 c10 -18 16 -34 13 -36 -5 -5
-46 47 -46 58 0 19 16 8 33 -22z m-6849 -15 c4 -9 4 -19 1 -22 -3 -3 -5 0 -5
6 0 7 -7 12 -16 12 -8 0 -12 5 -9 10 9 15 22 12 29 -6z m7851 -43 c39 -43 39
-44 7 -22 -30 21 -52 49 -52 67 0 4 1 5 3 3 1 -2 20 -24 42 -48z m-2575 -50
c14 -10 26 -28 28 -40 4 -25 8 -25 42 -6 42 24 50 19 50 -32 0 -30 -6 -53 -17
-65 -9 -11 -16 -32 -15 -47 1 -19 -10 -46 -33 -79 -19 -29 -30 -52 -23 -54 14
-5 -20 -72 -84 -164 -66 -96 -98 -125 -58 -53 44 80 70 167 79 261 7 81 11 84
27 23 l8 -30 4 36 c2 26 -10 71 -42 152 -26 63 -46 118 -46 122 0 12 53 -4 80
-24z m-1994 -25 c3 -8 4 -38 2 -67 l-4 -54 -15 35 c-9 19 -19 54 -23 78 -6 41
-6 42 14 32 12 -6 23 -17 26 -24z m3414 31 c0 -2 -12 -14 -27 -28 -20 -18 -24
-19 -13 -4 18 24 40 42 40 32z m-7105 -37 c-3 -5 -20 -19 -38 -30 l-32 -22 35
31 c35 32 46 38 35 21z m7765 -75 c0 -8 -4 -15 -10 -15 -5 0 -7 7 -4 15 4 8 8
15 10 15 2 0 4 -7 4 -15z m1310 -266 c0 -6 -4 -7 -10 -4 -5 3 -10 11 -10 16 0
6 5 7 10 4 6 -3 10 -11 10 -16z m-480 -73 c0 -12 -43 18 -48 34 -3 8 5 6 21
-6 15 -10 27 -23 27 -28z m500 -73 l25 -14 -25 7 c-14 4 -36 13 -50 21 l-25
14 25 -7 c14 -4 36 -13 50 -21z m-15 -133 c-3 -5 -13 -10 -21 -10 -8 0 -14 5
-14 10 0 6 9 10 21 10 11 0 17 -4 14 -10z m-225 -72 c0 -5 -4 -8 -10 -8 -5 0
-10 10 -10 23 0 18 2 19 10 7 5 -8 10 -18 10 -22z m-4123 -345 c-3 -10 -5 -2
-5 17 0 19 2 27 5 18 2 -10 2 -26 0 -35z m120 -140 c-3 -10 -5 -2 -5 17 0 19
2 27 5 18 2 -10 2 -26 0 -35z m-107 -498 c3 -266 0 -380 -10 -365 -6 9 -10
122 -10 270 1 155 4 249 10 240 4 -9 9 -74 10 -145z"/>
<path d="M9515 4320 c10 -11 20 -18 23 -15 7 6 -18 35 -31 35 -5 0 -2 -9 8
-20z"/>
<path d="M5771 3034 c0 -11 3 -14 6 -6 3 7 2 16 -1 19 -3 4 -6 -2 -5 -13z"/>
</g>
</svg>
