<?xml version="1.0" standalone="no"?>
<!DOCTYPE svg PUBLIC "-//W3C//DTD SVG 20010904//EN"
 "http://www.w3.org/TR/2001/REC-SVG-20010904/DTD/svg10.dtd">
<svg version="1.0" xmlns="http://www.w3.org/2000/svg"
 width="800.000000pt" height="800.000000pt" viewBox="0 0 800.000000 800.000000"
 preserveAspectRatio="xMidYMid meet">
<metadata>
Created by potrace 1.16, written by Peter Selinger 2001-2019
</metadata>
<g transform="translate(0.000000,800.000000) scale(0.100000,-0.100000)"
fill="#fff" stroke="none">
<path d="M3749 7744 c-3 -21 2 -141 7 -165 7 -39 42 -49 169 -49 63 0 115 -3
115 -6 0 -3 -61 -130 -136 -282 l-136 -277 5 -63 c4 -49 2 -60 -8 -52 -18 15
-215 287 -215 298 0 5 12 19 26 33 62 58 75 125 54 287 -18 139 -101 223 -249
252 -46 10 -368 -16 -392 -30 -8 -5 -2 -77 20 -251 17 -134 38 -309 46 -389 8
-80 21 -179 28 -220 16 -96 27 -103 147 -88 47 6 89 14 93 18 5 4 1 44 -7 90
-9 45 -19 120 -23 166 -5 73 -4 84 10 84 17 0 35 -24 138 -185 39 -60 78 -116
87 -122 18 -15 111 -16 192 -3 54 9 365 13 425 6 17 -2 69 -7 118 -11 l87 -7
0 90 c0 65 -4 95 -14 105 -10 10 -53 16 -142 21 -71 4 -130 9 -131 10 -5 5 45
114 158 339 109 218 109 219 109 292 0 46 -5 76 -12 83 -7 5 -80 13 -163 16
-82 3 -207 9 -277 12 -71 4 -129 2 -129 -2z m478 -30 l51 -5 4 -62 c3 -62 3
-62 -139 -355 -79 -161 -143 -297 -143 -301 0 -4 66 -11 146 -14 81 -4 148 -8
150 -9 1 -2 6 -39 10 -82 l7 -79 -54 6 c-30 4 -145 10 -255 13 l-202 7 -4 66
-4 66 143 293 c79 161 143 294 143 296 0 1 -66 6 -147 10 -81 3 -149 9 -152
12 -3 3 -7 39 -9 80 l-4 75 203 -6 c112 -3 227 -8 256 -11z m-801 -29 c61 -18
117 -71 138 -129 22 -59 38 -215 27 -254 -13 -43 -43 -85 -75 -102 -14 -7 -26
-18 -26 -23 0 -6 17 -33 38 -61 93 -123 194 -278 186 -286 -5 -4 -48 -10 -96
-14 l-86 -6 -27 45 c-14 25 -62 99 -105 165 -70 105 -83 120 -107 120 -57 0
-58 -2 -33 -184 13 -92 21 -168 19 -170 -2 -3 -40 -7 -85 -11 l-80 -7 -17 118
c-10 66 -24 187 -32 269 -9 83 -24 218 -35 300 -10 83 -20 166 -22 185 l-3 35
105 11 c154 16 259 16 316 -1z"/>
<path d="M3794 7669 c3 -17 6 -42 6 -54 0 -22 3 -23 160 -30 144 -6 159 -9
151 -23 -11 -21 -117 -241 -217 -451 -63 -130 -74 -161 -74 -206 l0 -52 219
-6 c121 -4 226 -8 233 -9 10 -2 12 10 10 47 -2 28 -7 53 -11 57 -4 5 -75 11
-159 15 -84 3 -152 7 -152 8 0 2 120 253 197 413 24 51 59 119 77 150 26 48
31 65 28 108 l-4 51 -105 7 c-59 3 -164 6 -236 6 l-129 0 6 -31z"/>
<path d="M3128 7667 c-58 -5 -98 -14 -98 -20 0 -6 13 -122 29 -257 16 -135 35
-294 41 -355 7 -60 18 -139 24 -175 l12 -65 60 4 c32 1 60 4 62 6 2 1 -4 45
-12 96 -8 52 -18 129 -22 171 l-7 77 35 6 c72 14 75 10 189 -160 l107 -160 68
4 c38 2 70 4 72 6 2 2 -49 76 -112 165 -64 90 -116 166 -116 170 0 4 18 20 39
34 61 42 75 82 68 190 -8 118 -20 159 -64 207 -61 67 -143 79 -375 56z m242
-105 c46 -23 68 -71 76 -163 6 -66 4 -77 -15 -101 -25 -32 -70 -45 -161 -50
l-64 -3 -17 130 c-26 190 -26 193 14 198 79 10 134 6 167 -11z"/>
<path d="M3222 7553 c-32 -4 -34 -6 -29 -36 3 -18 11 -80 18 -139 l12 -108 51
0 c70 0 124 17 137 42 16 30 4 174 -16 205 -26 40 -69 48 -173 36z m142 -36
c20 -15 35 -73 36 -138 0 -58 -20 -78 -87 -86 l-50 -5 -12 89 c-18 140 -17
141 27 146 20 2 44 4 53 5 8 1 23 -4 33 -11z"/>
<path d="M4464 7708 c-4 -6 -13 -118 -20 -247 -7 -130 -17 -310 -23 -401 -6
-91 -11 -193 -11 -226 0 -73 -4 -70 137 -80 75 -6 93 -4 97 7 3 8 10 113 15
234 6 121 16 299 21 395 18 307 19 293 -10 306 -39 18 -197 28 -206 12z m180
-29 c8 -7 -25 -697 -40 -838 l-6 -53 -79 4 c-43 3 -82 8 -86 11 -5 6 25 580
43 818 l6 76 76 -5 c43 -2 81 -8 86 -13z"/>
<path d="M4496 7583 c-3 -49 -11 -173 -16 -277 -6 -104 -15 -254 -21 -334 -5
-79 -8 -147 -5 -149 2 -3 31 -7 64 -10 l59 -6 12 179 c24 368 30 462 37 565
l6 106 -32 7 c-18 3 -47 6 -65 6 l-32 0 -7 -87z"/>
<path d="M5036 7593 c-97 -195 -356 -783 -356 -810 0 -13 10 -25 28 -31 38
-15 178 -36 195 -29 8 3 29 41 48 86 l34 80 40 -6 c22 -3 60 -11 85 -17 l45
-11 7 -89 c4 -53 12 -94 20 -101 21 -20 208 -59 221 -46 12 12 1 151 -34 456
-11 94 -24 213 -29 265 -20 187 -33 270 -44 279 -11 9 -173 41 -208 41 -12 0
-29 -23 -52 -67z m228 16 c12 -14 113 -945 103 -955 -2 -2 -42 3 -90 13 l-86
16 -7 98 -7 98 -69 16 c-38 8 -89 18 -114 22 l-44 6 -30 -69 c-42 -96 -44 -99
-71 -96 -28 3 -143 24 -147 27 -6 5 196 464 324 735 l55 116 90 -12 c49 -6 91
-13 93 -15z"/>
<path d="M5015 7443 c-43 -93 -125 -274 -181 -403 -114 -262 -112 -243 -17
-255 l48 -7 29 74 c16 40 34 78 40 85 10 12 58 5 242 -32 20 -4 22 -13 29
-104 l7 -99 56 -11 c30 -6 60 -11 65 -11 6 0 8 29 4 78 -20 240 -40 432 -62
605 -14 107 -25 202 -25 209 0 13 -94 38 -142 38 -9 0 -44 -63 -93 -167z m155
-189 c11 -99 20 -194 20 -211 0 -40 -5 -40 -132 -16 -104 20 -102 -3 -11 203
36 80 71 160 79 179 8 19 17 32 20 29 3 -3 14 -86 24 -184z"/>
<path d="M5109 7314 c-12 -27 -41 -94 -65 -148 -25 -54 -43 -101 -40 -103 7
-7 156 -36 161 -31 5 5 -24 320 -30 327 -3 2 -14 -18 -26 -45z m30 -211 c1
-24 -3 -43 -8 -43 -28 0 -71 14 -71 24 0 6 15 44 32 85 l33 75 7 -50 c3 -27 7
-68 7 -91z"/>
<path d="M2415 7626 l-90 -22 -7 -84 c-3 -47 -11 -249 -17 -450 -7 -201 -14
-386 -18 -412 -5 -45 -4 -48 22 -58 22 -8 49 -6 124 11 53 12 99 27 103 32 3
6 4 50 1 98 -7 99 -8 97 87 119 30 6 63 14 73 17 13 3 26 -14 60 -84 40 -83
44 -88 77 -91 41 -4 208 27 216 40 3 5 -1 19 -9 31 -8 13 -58 106 -112 207
-53 102 -151 285 -216 406 -65 122 -119 226 -119 232 0 15 -34 32 -62 31 -13
-1 -63 -11 -113 -23z m158 -68 c19 -35 75 -137 124 -228 50 -91 130 -241 178
-335 49 -93 94 -179 102 -190 7 -11 13 -25 13 -31 0 -9 -138 -44 -172 -44 -4
0 -28 41 -53 90 -25 50 -51 90 -59 90 -8 0 -58 -9 -111 -20 -53 -11 -99 -20
-101 -20 -2 0 -5 -46 -6 -102 l-3 -102 -70 -18 c-112 -28 -105 -34 -105 85 0
56 7 251 15 432 8 182 15 351 15 376 l0 46 63 15 c34 9 79 16 99 17 35 1 38
-2 71 -61z"/>
<path d="M2428 7582 l-68 -15 0 -44 c0 -24 -4 -153 -9 -286 -24 -611 -24 -577
-2 -577 11 0 43 5 71 11 l50 11 0 103 0 104 53 10 c28 6 87 17 130 25 l78 14
47 -93 c51 -104 41 -99 144 -74 l38 10 -26 52 c-45 88 -209 398 -248 467 -20
36 -64 118 -99 182 -39 74 -68 117 -77 117 -8 -1 -45 -8 -82 -17z m188 -407
c35 -71 64 -133 64 -137 0 -6 -86 -28 -172 -43 l-38 -7 0 183 c0 101 3 201 7
222 l6 39 34 -64 c19 -35 64 -121 99 -193z"/>
<path d="M2497 7344 c-4 -4 -7 -80 -7 -169 l0 -162 73 14 c39 8 76 18 80 23 5
4 -25 73 -65 154 -41 81 -77 144 -81 140z m83 -191 c22 -47 38 -88 36 -90 -2
-3 -23 -7 -45 -10 l-41 -6 0 97 c0 53 2 96 5 96 2 0 22 -39 45 -87z"/>
<path d="M5661 7493 c-6 -21 -26 -101 -45 -178 -20 -77 -54 -205 -76 -285
-100 -364 -111 -413 -98 -426 32 -30 472 -154 488 -137 11 11 50 140 50 163 0
25 -5 28 -133 61 -62 16 -117 31 -124 33 -13 5 6 83 129 531 47 173 53 204 41
216 -11 11 -177 59 -205 59 -11 0 -21 -13 -27 -37z m127 -9 c39 -10 72 -22 72
-28 0 -6 -27 -110 -60 -231 -96 -350 -132 -497 -123 -506 4 -4 65 -23 135 -41
71 -18 128 -38 128 -44 0 -17 -32 -117 -42 -130 -16 -21 -438 104 -438 129 0
8 194 742 227 860 3 10 11 16 17 13 6 -2 44 -12 84 -22z"/>
<path d="M5707 7473 c-3 -4 -33 -114 -67 -243 -34 -129 -81 -307 -105 -395
-24 -88 -45 -169 -47 -179 -2 -15 12 -24 82 -48 73 -25 294 -88 311 -88 6 0
33 100 27 105 -2 2 -61 20 -132 39 -70 19 -130 37 -133 40 -6 5 28 140 123
485 35 128 64 239 64 247 0 7 -19 18 -42 24 -24 6 -50 13 -60 16 -9 3 -18 1
-21 -3z"/>
<path d="M1847 7489 c-11 -6 -51 -20 -90 -31 -40 -11 -78 -25 -84 -30 -10 -8
-13 -64 -13 -218 l0 -208 -147 149 c-81 83 -158 152 -171 156 -22 5 -193 -56
-230 -83 -13 -10 -6 -36 56 -200 106 -286 220 -593 253 -686 18 -53 42 -55
150 -12 90 36 91 37 86 68 -2 17 -39 121 -81 230 -42 110 -76 204 -76 210 0 5
17 -10 38 -34 94 -111 165 -186 182 -192 19 -7 133 25 157 44 8 6 10 51 7 151
-2 78 -2 138 1 132 3 -5 36 -102 75 -215 l69 -205 32 -3 c34 -4 194 42 204 58
3 5 -34 115 -84 243 -49 129 -121 330 -161 447 -39 118 -76 220 -82 227 -13
16 -66 17 -91 2z m125 -215 c37 -109 77 -224 89 -254 53 -138 149 -406 149
-417 0 -14 -151 -65 -163 -54 -4 4 -28 66 -52 137 -24 71 -69 199 -99 284
l-55 155 0 -222 -1 -222 -55 -20 c-31 -12 -61 -21 -68 -20 -7 0 -34 26 -62 58
-191 218 -239 270 -243 266 -6 -5 138 -400 205 -561 5 -14 -157 -79 -167 -67
-16 19 -321 846 -318 862 2 8 45 32 97 52 l95 38 45 -39 c54 -45 209 -204 269
-275 l42 -50 0 171 c0 94 3 205 6 245 l7 75 96 31 c53 17 100 30 105 29 5 -1
40 -92 78 -202z"/>
<path d="M1788 7423 l-78 -25 -1 -122 c-1 -66 -4 -183 -8 -259 l-6 -138 -104
116 c-99 110 -260 265 -275 265 -25 0 -156 -64 -156 -76 0 -8 33 -103 74 -212
40 -108 108 -289 149 -401 42 -112 78 -206 81 -209 5 -5 126 37 126 44 0 2
-14 38 -31 81 -17 43 -71 188 -119 323 -48 135 -90 254 -95 265 -4 11 8 2 26
-20 19 -22 59 -67 89 -100 30 -33 101 -112 158 -177 l102 -116 51 16 50 16 -3
278 c-2 152 0 274 4 270 4 -4 31 -79 61 -167 80 -233 174 -495 180 -501 4 -4
116 23 125 31 1 1 -37 105 -84 231 -48 126 -114 314 -148 419 -41 125 -67 190
-77 192 -7 0 -49 -10 -91 -24z"/>
<path d="M6282 7323 c-6 -16 -47 -125 -91 -243 -43 -118 -114 -305 -156 -414
-62 -162 -74 -201 -63 -211 14 -12 339 -156 410 -181 69 -24 73 -22 108 67 28
68 31 82 19 94 -8 7 -68 37 -134 66 -66 29 -121 53 -122 54 -2 1 58 166 63
174 2 2 46 -15 99 -38 135 -58 137 -58 170 36 17 49 24 82 18 91 -4 8 -54 33
-111 55 -56 23 -102 46 -102 52 0 7 47 138 55 152 1 2 54 -20 119 -48 64 -28
124 -49 133 -47 19 3 75 133 71 162 -2 15 -35 33 -128 74 -160 68 -322 132
-336 132 -6 0 -16 -12 -22 -27z m158 -46 c162 -64 295 -125 294 -134 -4 -25
-50 -133 -56 -133 -4 0 -64 25 -134 56 -69 31 -127 54 -128 52 -2 -2 -19 -48
-39 -103 -27 -74 -33 -101 -24 -107 7 -4 55 -24 107 -44 52 -20 99 -40 104
-44 9 -9 -17 -97 -37 -125 -12 -16 -20 -14 -119 29 -58 25 -110 46 -114 46
-12 0 -87 -208 -80 -219 3 -5 62 -33 131 -62 69 -28 128 -56 131 -61 6 -9 -32
-115 -47 -132 -5 -5 -28 -2 -56 9 -73 27 -367 156 -377 165 -8 8 23 94 129
370 18 47 63 164 98 260 36 96 70 188 76 203 6 16 14 26 18 24 5 -3 60 -25
123 -50z"/>
<path d="M6232 7058 c-51 -134 -119 -314 -152 -401 -33 -87 -60 -162 -60 -166
0 -9 81 -47 270 -127 l125 -53 19 50 c11 29 15 53 10 58 -5 5 -66 32 -136 61
-71 29 -128 57 -128 62 0 20 93 258 101 258 4 0 48 -17 96 -39 134 -59 130
-58 148 -15 8 20 15 42 15 48 0 7 -48 31 -107 55 -60 24 -111 46 -114 50 -7 6
73 228 88 241 4 4 62 -16 128 -46 66 -29 124 -52 129 -51 4 2 16 24 26 49 l18
47 -87 37 c-80 35 -294 124 -297 124 0 0 -42 -109 -92 -242z"/>
<path d="M3066 6675 c-72 -25 -126 -96 -126 -165 0 -17 9 -53 20 -79 17 -38
19 -53 10 -75 -17 -47 -12 -92 15 -125 25 -29 25 -31 10 -67 -8 -20 -15 -61
-15 -91 0 -69 27 -120 87 -163 52 -38 75 -78 76 -136 0 -24 4 -41 9 -38 14 9
9 84 -8 119 -8 18 -38 52 -66 76 -78 66 -94 122 -61 226 16 51 16 53 -4 75
-30 34 -36 63 -22 116 10 41 9 52 -5 80 -29 57 -31 112 -4 152 27 40 81 79
120 87 15 3 25 9 22 14 -7 11 -11 11 -58 -6z"/>
<path d="M3187 6654 c-15 -14 -29 -35 -33 -46 -8 -26 25 -72 55 -76 28 -4 27
11 -1 23 -36 16 -35 57 2 94 20 19 26 31 17 31 -8 0 -26 -12 -40 -26z"/>
<path d="M3766 6485 c-3 -9 -6 -31 -6 -49 0 -71 -89 -146 -172 -146 -53 0 -83
-17 -102 -57 -21 -43 -74 -68 -129 -59 -57 9 -110 -9 -146 -49 -37 -43 -40
-84 -10 -126 20 -28 20 -32 5 -63 -21 -44 -20 -59 5 -108 16 -30 20 -53 16
-85 -4 -36 -2 -42 9 -32 20 17 17 79 -6 133 -19 42 -20 48 -5 75 20 39 19 61
-5 91 -24 30 -25 58 -4 88 27 38 71 55 147 53 81 -2 105 10 142 69 21 34 30
39 72 45 76 10 87 13 123 37 45 31 80 83 80 121 l0 30 25 -27 c45 -48 115 -57
147 -18 10 12 10 14 0 8 -21 -13 -89 -9 -112 7 -12 8 -32 29 -44 46 -19 26
-25 29 -30 16z"/>
<path d="M3280 6471 c0 -23 65 -46 89 -31 11 6 5 10 -22 15 -21 4 -40 11 -43
16 -7 12 -24 12 -24 0z"/>
<path d="M3454 6436 c22 -18 62 -21 71 -6 4 6 -6 10 -24 10 -16 0 -38 3 -48 6
-16 5 -16 4 1 -10z"/>
<path d="M3182 6424 c-30 -20 -28 -38 8 -76 39 -40 38 -54 -5 -80 -39 -23 -40
-34 -1 -24 58 14 74 70 31 108 -30 26 -33 58 -5 65 22 6 27 23 7 23 -7 0 -23
-7 -35 -16z"/>
<path d="M3660 6135 c-14 -8 -32 -14 -41 -15 -24 0 -134 -57 -155 -81 -14 -16
-20 -41 -24 -105 -3 -46 -4 -84 -4 -84 1 0 19 7 40 16 31 13 58 15 134 9 90
-6 98 -5 125 16 17 13 34 29 38 36 8 13 47 19 47 7 0 -10 -43 -43 -84 -65 -36
-19 -44 -20 -125 -9 -82 12 -91 11 -134 -8 -28 -13 -52 -31 -59 -46 -13 -30
-5 -44 16 -27 20 17 24 -1 18 -85 -5 -79 4 -152 18 -138 5 5 10 38 12 74 l3
65 45 2 c25 1 36 -1 25 -4 -36 -9 -43 -26 -7 -20 17 4 32 4 32 2 0 -2 -10 -28
-23 -57 -13 -29 -27 -66 -31 -83 -12 -48 -56 -87 -56 -50 0 13 -4 13 -22 3
-13 -7 -26 -17 -30 -22 -18 -25 30 -56 87 -56 19 0 35 -4 35 -10 0 -19 21 -10
46 19 17 21 35 30 64 33 49 4 53 -7 5 -16 -51 -10 -33 -29 21 -23 23 2 55 14
70 26 15 11 36 21 48 21 26 0 86 36 86 51 0 8 -5 7 -16 -2 -17 -14 -99 -16
-181 -4 -51 7 -53 7 -99 -34 -37 -32 -55 -41 -84 -41 -21 0 -43 7 -50 15 -11
13 -8 15 18 15 24 0 39 10 72 50 26 31 50 50 63 50 12 0 41 7 64 16 l44 17 39
-32 c56 -44 80 -40 28 6 -79 69 -71 66 -116 42 -51 -27 -77 -20 -67 19 16 65
17 108 1 121 -9 8 -16 20 -16 28 0 12 -11 14 -50 11 -57 -3 -65 9 -21 35 22
13 52 17 125 17 93 0 96 1 131 31 20 18 37 30 39 28 1 -2 17 -33 35 -69 33
-69 72 -129 82 -130 4 0 10 7 13 16 4 10 -3 23 -20 36 -35 28 -92 158 -68 158
3 0 29 -20 57 -45 28 -25 70 -54 93 -64 25 -12 44 -29 48 -43 9 -35 7 -48 -7
-48 -9 0 -14 -13 -15 -37 -1 -29 -8 -44 -32 -64 -28 -24 -31 -31 -25 -63 4
-20 9 -36 12 -36 15 0 43 23 43 35 0 8 5 15 10 15 6 0 10 5 10 11 0 6 9 22 20
37 12 15 17 29 12 34 -6 6 -6 25 0 47 13 52 -10 108 -51 124 -29 10 -30 13
-36 96 -11 133 -48 174 -195 220 -76 24 -96 25 -130 6z m-145 -395 c-21 -23
-35 -26 -35 -6 0 15 14 24 39 25 11 1 10 -4 -4 -19z"/>
<path d="M3701 5814 c-19 -8 -31 -18 -27 -22 10 -9 146 -9 146 0 0 12 -44 38
-65 38 -11 -1 -35 -7 -54 -16z"/>
<path d="M5317 5802 c-3 -4 -2 -51 3 -103 5 -52 10 -151 10 -221 0 -121 -1
-128 -20 -128 -15 0 -20 7 -20 28 0 15 -3 44 -7 65 -6 36 -7 38 -40 35 -34 -3
-35 -4 -37 -50 -2 -53 -8 -63 -31 -55 -11 5 -15 21 -15 59 0 29 -3 97 -7 151
l-6 97 -39 0 -38 0 0 -126 0 -125 -32 3 -33 3 -5 120 -5 120 -37 3 -38 3 0
-120 c0 -67 -4 -121 -9 -121 -5 0 -12 -12 -15 -26 -5 -17 -12 -24 -24 -22 -13
2 -18 17 -22 62 -4 46 -10 62 -27 73 -21 14 -22 13 -27 -9 -3 -12 -7 -174 -10
-359 l-5 -337 165 -7 c93 -4 330 -2 542 5 301 9 441 9 697 -1 176 -7 347 -13
380 -14 l60 0 -3 264 -3 264 -29 28 c-16 16 -33 29 -39 29 -6 0 -13 11 -17 25
-3 13 -15 27 -25 30 -11 4 -31 17 -47 29 -15 13 -37 26 -49 30 -13 4 -23 12
-23 17 0 16 -17 10 -69 -22 -37 -23 -51 -38 -51 -54 0 -13 -7 -25 -15 -29 -8
-3 -15 -15 -15 -26 0 -11 -4 -20 -10 -20 -5 0 -10 9 -10 19 0 13 -9 21 -30 26
-16 4 -30 13 -30 21 0 9 -11 14 -30 14 -23 0 -30 -4 -30 -20 0 -15 -7 -20 -25
-20 -20 0 -25 -5 -25 -25 0 -20 -6 -27 -30 -31 -23 -5 -30 -12 -30 -30 0 -23
-3 -24 -70 -24 -38 0 -70 3 -70 8 -1 18 -21 149 -26 165 -4 14 -18 17 -86 17
-78 0 -80 -1 -75 -22 3 -13 9 -53 12 -90 6 -57 5 -68 -8 -68 -9 0 -17 14 -21
40 -5 30 -11 40 -25 40 -16 0 -20 10 -25 63 -3 34 -11 127 -18 207 l-13 145
-33 3 c-60 6 -60 7 -46 -134 7 -71 14 -162 16 -201 l4 -73 -33 0 c-38 0 -39 1
-49 140 -3 52 -9 133 -13 180 l-6 85 -42 3 c-22 2 -44 -1 -46 -6z m-297 -738
c0 -101 1 -104 23 -104 42 0 67 -12 67 -32 0 -17 -7 -19 -72 -16 l-73 3 -3
119 c-1 66 -1 125 2 132 2 7 15 9 30 7 26 -5 26 -6 26 -109z m281 77 c26 -26
29 -36 29 -91 0 -119 -60 -177 -144 -139 -73 33 -67 219 8 249 42 17 77 11
107 -19z m239 -69 l13 -77 13 65 c23 109 23 110 44 110 25 0 25 -6 -1 -146
l-22 -114 -33 0 c-30 0 -33 3 -38 40 -3 22 -9 59 -13 83 l-6 42 -8 -35 c-4
-19 -11 -56 -14 -82 -6 -47 -7 -48 -41 -48 -19 0 -34 1 -34 3 0 2 -9 52 -20
112 -25 139 -26 135 9 135 29 0 30 -2 36 -57 11 -100 20 -105 34 -21 9 57 17
78 29 81 29 6 39 -11 52 -91z m200 26 c12 -40 24 -80 27 -88 4 -8 15 24 27 73
19 85 20 87 49 87 19 0 28 -4 25 -12 -3 -7 -18 -64 -34 -125 l-29 -113 -36 0
-36 0 -36 118 c-21 64 -37 120 -37 125 0 4 13 7 30 7 28 0 30 -4 50 -72z m230
-53 l0 -125 -30 0 -30 0 0 125 0 125 30 0 30 0 0 -125z m110 20 l5 -100 43 -3
c38 -3 42 -6 42 -29 0 -23 -3 -25 -31 -19 -17 3 -51 6 -75 6 l-44 0 0 126 0
125 28 -3 27 -3 5 -100z m182 0 c4 -53 9 -99 12 -102 2 -3 23 -7 45 -10 31 -4
41 -10 41 -24 0 -17 -8 -19 -74 -19 -58 0 -75 3 -80 16 -3 9 -6 67 -6 130 l0
115 28 -4 c27 -4 27 -4 34 -102z m258 76 c0 -16 -8 -20 -37 -23 -33 -3 -38 -7
-41 -30 -3 -26 -1 -28 32 -28 32 0 36 -3 36 -25 0 -21 -5 -25 -30 -25 -27 0
-30 -3 -30 -29 0 -28 3 -30 43 -33 35 -2 43 -7 45 -25 3 -22 0 -23 -71 -23
-89 0 -87 -5 -87 153 l0 107 70 0 c63 0 70 -2 70 -19z"/>
<path d="M5219 5120 c-20 -13 -25 -139 -5 -165 13 -18 16 -19 31 -4 17 17 31
104 21 142 -7 28 -26 39 -47 27z"/>
<path d="M3961 5769 c-15 -6 -21 -14 -17 -25 3 -9 6 -33 6 -54 0 -29 4 -39 20
-43 26 -7 37 34 21 78 -14 39 -14 48 -1 40 6 -3 10 -1 10 4 0 13 -7 13 -39 0z"/>
<path d="M3707 5763 c-27 -26 28 -59 68 -41 14 6 25 15 25 19 0 21 -77 39 -93
22z"/>
<path d="M3745 5700 c-18 -8 -17 -9 7 -9 15 -1 30 4 33 9 7 12 -12 12 -40 0z"/>
<path d="M3152 5646 c-25 -32 -35 -86 -23 -119 13 -33 67 -73 125 -93 69 -24
67 -10 -2 21 -103 46 -127 88 -92 161 26 52 22 67 -8 30z"/>
<path d="M3889 5593 c-11 -29 -6 -53 11 -53 7 0 9 8 5 20 -4 11 -2 20 4 20 6
0 11 9 11 20 0 29 -19 25 -31 -7z"/>
<path d="M3930 5503 c0 -5 7 -18 15 -29 12 -16 14 -16 15 -3 0 9 -7 22 -15 29
-8 7 -15 8 -15 3z"/>
<path d="M3990 5471 c0 -22 39 -53 77 -61 29 -7 56 -24 85 -53 l43 -43 -27
-19 c-15 -11 -69 -50 -121 -87 -105 -75 -170 -141 -219 -220 l-33 -53 -3 37
c-4 46 35 162 93 278 25 49 45 91 45 94 0 2 -7 6 -15 10 -10 4 -18 -6 -26 -35
-9 -30 -16 -38 -29 -34 -12 4 -19 -1 -23 -15 -3 -11 -13 -23 -24 -27 -10 -4
-24 -15 -31 -25 -11 -15 -17 -16 -28 -7 -13 10 -18 6 -15 -13 2 -16 -40 -7
-59 12 -11 11 -26 17 -36 13 -9 -3 -20 0 -24 7 -7 11 -11 11 -23 1 -13 -10
-16 -8 -22 9 -4 13 -12 19 -21 16 -10 -4 -14 2 -14 19 0 28 -15 42 -23 21 -7
-17 2 -56 13 -56 4 0 12 -11 18 -25 11 -24 55 -50 78 -47 27 5 144 -148 144
-189 0 -16 -3 -29 -7 -29 -3 0 -32 24 -63 53 -31 28 -103 86 -159 127 -57 41
-107 80 -112 87 -7 8 3 24 35 54 25 23 46 48 46 55 0 19 -29 18 -37 -1 -3 -9
-25 -29 -49 -45 -23 -17 -70 -64 -104 -105 -34 -41 -70 -79 -80 -85 -32 -17
-115 11 -153 52 -32 35 -35 36 -130 43 -118 9 -210 -7 -232 -39 -8 -11 -15
-36 -15 -56 -1 -32 -11 -44 -116 -140 -254 -231 -223 -209 -331 -238 -97 -27
-98 -28 -101 -60 -2 -18 6 -69 17 -115 l21 -83 -20 -74 c-11 -41 -20 -78 -20
-81 0 -4 17 -9 38 -11 20 -3 91 -29 157 -58 66 -28 167 -69 225 -90 58 -20
164 -68 235 -105 118 -61 133 -67 175 -62 61 7 236 66 395 132 157 65 282 102
295 89 20 -20 50 -125 50 -173 0 -46 1 -49 31 -55 17 -3 42 -6 56 -6 21 0 24
-4 21 -27 -5 -42 -40 -55 -123 -48 -59 5 -204 -6 -282 -21 -29 -5 -43 -32 -36
-67 7 -36 23 -35 23 2 0 17 4 32 9 35 5 4 43 9 85 13 67 5 76 4 76 -11 0 -11
15 -20 44 -28 54 -14 52 -30 -1 -17 -44 10 -134 12 -157 3 -33 -13 -14 -20 62
-23 184 -7 183 -7 196 12 7 9 24 17 38 17 22 0 26 -5 31 -42 5 -40 -1 -112
-18 -229 -6 -39 -3 -57 19 -104 14 -32 26 -65 26 -74 0 -30 43 -161 53 -161 6
0 7 13 2 33 -17 79 -32 173 -28 182 4 13 98 41 165 51 43 6 53 3 98 -26 57
-36 70 -55 70 -98 0 -46 37 -248 84 -467 52 -235 59 -282 47 -290 -15 -9 -20
7 -42 127 -11 62 -35 169 -54 238 -19 69 -47 199 -62 290 -26 152 -30 166 -53
177 -33 17 -113 16 -155 -1 -36 -15 -62 -50 -45 -61 5 -3 10 -1 10 5 0 16 79
50 118 50 52 0 92 -26 92 -60 0 -13 -12 -15 -68 -12 -62 4 -71 2 -100 -23 -42
-35 -61 -101 -69 -235 -7 -136 11 -321 47 -468 31 -127 130 -422 163 -487 83
-164 199 -265 304 -265 180 0 201 199 77 718 -19 79 -34 147 -34 150 0 4 11
-16 24 -45 26 -55 49 -73 91 -73 21 0 25 -4 20 -22 -24 -106 -25 -122 -14
-155 7 -21 20 -38 35 -44 29 -11 92 1 124 24 12 8 29 13 36 10 8 -3 14 -1 14
5 0 6 17 16 38 22 67 22 71 43 25 137 -14 29 -26 66 -26 84 -2 27 3 33 28 42
24 8 31 7 40 -8 72 -125 136 -175 220 -175 48 0 56 4 89 38 85 87 104 292 50
563 -3 17 0 26 8 26 25 0 289 137 299 155 18 33 -5 56 -68 68 -32 6 -69 15
-82 21 -23 10 -23 10 -5 30 11 12 35 29 54 39 119 59 461 174 750 251 46 12
80 24 73 26 -6 2 -57 -8 -114 -22 -357 -90 -729 -225 -782 -283 -33 -36 -1
-64 86 -77 25 -4 54 -13 64 -21 17 -13 17 -15 -2 -30 -20 -16 -248 -129 -273
-136 -9 -2 -25 34 -48 112 -57 185 -153 344 -233 384 -101 51 -207 7 -241
-101 -18 -56 -24 -58 -53 -14 -14 21 -49 59 -76 82 -41 35 -51 50 -51 75 0 16
-5 35 -11 41 -8 8 -5 23 9 54 l19 44 8 -45 c9 -53 24 -87 25 -54 0 11 -5 45
-11 76 -11 53 -10 56 30 136 23 45 41 93 41 107 0 31 15 33 31 4 11 -21 0 -38
-23 -39 -5 0 -8 -5 -8 -11 0 -6 12 -9 28 -7 22 2 28 9 30 34 2 24 -4 38 -27
60 -41 39 -40 72 4 130 19 25 35 49 35 54 0 4 -15 11 -34 14 -18 4 -40 14 -49
24 -8 9 -30 67 -47 127 -18 61 -36 117 -40 125 -8 14 -25 117 -50 295 -6 44
-18 107 -27 140 -34 136 -122 266 -199 294 -55 20 -109 57 -124 86 -14 26 -21
29 -81 39 -20 4 -44 15 -54 26 -19 21 -35 26 -35 11z m296 -199 c101 -67 149
-170 184 -400 12 -75 25 -155 30 -177 20 -84 8 -77 -33 19 -22 54 -43 94 -45
88 -2 -6 15 -66 38 -134 23 -68 42 -141 42 -164 1 -53 -36 -134 -96 -207 -26
-32 -68 -90 -93 -130 -25 -40 -48 -74 -50 -76 -2 -3 -17 3 -33 13 -34 20 -36
17 -15 -25 13 -23 14 -37 5 -69 -6 -21 -14 -42 -19 -44 -5 -3 -24 9 -44 28
-44 41 -110 61 -177 52 -55 -7 -60 -1 -30 37 27 35 81 51 141 43 27 -4 49 -4
49 -2 0 15 -65 36 -110 36 -27 0 -50 2 -50 5 0 18 45 88 88 135 27 30 57 70
66 88 19 37 69 72 103 72 12 0 34 5 50 11 26 10 26 11 9 21 -12 7 -34 7 -70 0
-28 -6 -53 -8 -55 -6 -2 2 20 15 50 29 l54 25 -42 -3 c-39 -2 -42 -1 -52 33
-22 76 -34 181 -35 317 -1 123 -3 145 -19 160 -18 17 -18 17 -13 -7 15 -71 14
-74 -34 -81 -25 -4 -58 -12 -73 -18 -16 -6 -51 -11 -78 -11 -35 0 -51 -4 -55
-15 -8 -20 15 -140 30 -161 7 -9 39 -25 71 -35 l59 -18 43 35 43 35 0 -27 c0
-14 10 -67 21 -117 l21 -90 -20 -36 c-11 -20 -23 -51 -27 -69 -4 -20 -31 -60
-66 -100 -64 -72 -99 -133 -99 -174 0 -14 -10 -38 -22 -53 -12 -16 -25 -47
-28 -69 l-5 -41 -72 -3 -73 -3 0 63 c0 42 -7 78 -21 108 -25 55 -23 58 99 89
l89 23 -19 50 c-10 28 -17 56 -15 62 2 6 9 -5 16 -25 6 -20 21 -45 33 -55 17
-16 16 -11 -8 35 -16 30 -35 63 -41 75 -7 12 -13 46 -13 76 0 30 -3 72 -6 93
-6 32 -10 37 -33 37 -55 1 -236 49 -249 67 -33 44 -55 102 -67 177 -8 45 -18
92 -24 106 l-10 25 0 -29 c-1 -28 -1 -29 -21 -11 -24 22 -24 20 -5 -35 8 -23
15 -49 15 -56 0 -8 -24 -30 -54 -50 l-54 -35 -68 42 c-38 23 -95 60 -127 81
-54 37 -58 42 -51 66 4 15 7 44 6 65 -1 33 1 37 23 37 36 0 55 -35 55 -102 0
-32 4 -58 10 -58 6 0 10 11 10 25 0 14 5 25 10 25 6 0 10 -7 10 -15 0 -8 5
-15 11 -15 8 0 10 15 7 45 -5 38 -3 44 8 34 17 -14 18 -5 2 22 -11 17 -10 22
4 30 9 5 40 38 68 74 51 64 52 65 78 51 15 -8 52 -37 82 -64 30 -27 80 -66
111 -88 124 -87 136 -102 178 -234 17 -53 37 -104 46 -115 13 -18 13 -14 -1
30 -64 210 -20 296 243 478 62 42 117 86 123 97 6 11 14 20 19 20 4 0 34 -17
67 -38z m-1344 -112 c9 0 26 -15 37 -34 22 -35 28 -86 10 -86 -5 0 -7 5 -3 11
4 8 -4 9 -27 4 -62 -13 -63 -17 -37 -155 18 -98 118 -434 137 -460 10 -14 21
-48 25 -75 4 -28 14 -72 22 -100 12 -43 12 -51 -1 -64 -25 -26 -43 -3 -86 105
-38 98 -40 100 -68 96 -28 -4 -29 -6 -35 -75 -4 -46 -1 -109 9 -171 18 -119
18 -122 -2 -71 -10 25 -18 92 -22 178 -5 107 -9 140 -21 147 -8 5 -87 33 -175
61 -88 29 -211 71 -273 95 -140 54 -155 55 -184 9 -27 -41 -38 -44 -38 -10 0
16 4 23 13 19 7 -2 22 4 32 16 28 31 76 25 225 -29 204 -75 444 -151 474 -151
16 0 26 5 26 14 0 8 -14 72 -31 143 -39 164 -72 386 -65 441 4 28 14 50 28 63
l23 18 -22 1 c-26 0 -53 -35 -53 -68 0 -15 -5 -22 -12 -19 -9 3 -12 22 -11 58
3 52 2 53 -12 29 -8 -14 -14 -40 -15 -59 0 -29 -2 -32 -16 -20 -12 10 -14 23
-9 58 4 33 3 42 -4 31 -6 -8 -11 -35 -11 -60 0 -41 -1 -43 -16 -28 -13 12 -15
27 -9 66 6 46 9 50 43 61 46 14 91 19 117 15 11 -2 28 -4 37 -4z m135 -49 c17
-26 23 -48 23 -92 0 -63 -6 -69 -46 -42 -22 14 -24 21 -19 52 4 26 0 47 -15
76 -25 49 -25 47 7 43 18 -2 35 -15 50 -37z m38 -199 c206 -135 378 -237 475
-283 50 -24 90 -46 90 -50 0 -5 -6 -6 -14 -3 -22 8 -30 -15 -15 -44 20 -38 31
-43 55 -27 21 13 22 11 39 -51 9 -35 15 -71 11 -79 -10 -27 -36 -16 -53 23
-25 58 -55 115 -76 144 -29 40 -207 145 -226 134 -7 -5 -86 20 -100 31 -3 2 4
9 14 17 18 13 17 14 -12 30 -52 26 -257 173 -304 216 -55 52 -44 46 116 -58z
m-294 66 c37 -10 37 -11 48 -85 6 -40 11 -80 11 -88 0 -19 -34 -23 -218 -30
-136 -5 -152 -3 -145 10 5 9 51 61 102 116 104 111 96 108 202 77z m1279 -109
c11 -71 1 -95 -52 -127 -24 -14 -31 -14 -75 -1 -55 17 -68 37 -79 117 l-7 52
54 0 c31 0 71 8 94 19 22 10 44 15 48 11 4 -4 12 -36 17 -71z m-1532 11 c-29
-33 -64 -76 -78 -94 -15 -21 -36 -36 -52 -38 -16 -3 -28 -2 -28 2 0 9 197 189
208 190 2 0 -20 -27 -50 -60z m432 -72 c0 -5 -8 -8 -18 -8 -13 0 -21 13 -30
45 -20 74 -13 84 18 25 16 -30 29 -58 30 -62z m24 45 c15 -25 25 -51 23 -57
-2 -6 -18 18 -36 52 -37 73 -26 76 13 5z m31 47 c3 -5 3 -15 -1 -21 -6 -11
-23 6 -24 24 0 10 18 9 25 -3z m127 -85 c43 -27 78 -53 78 -57 0 -32 -126 -3
-172 40 -31 28 -34 42 -16 60 17 17 20 15 110 -43z m336 -66 l32 -61 -28 7
c-34 8 -112 53 -112 64 0 9 59 50 71 51 3 0 20 -27 37 -61z m247 -171 c-16 -6
-36 -15 -42 -21 -9 -6 -13 -6 -13 1 0 11 45 30 70 30 8 0 2 -4 -15 -10z m805
-143 c30 -103 47 -130 95 -151 l30 -13 -75 -74 c-85 -83 -129 -104 -249 -114
l-73 -6 38 59 c22 32 63 91 92 129 70 93 93 143 99 215 3 33 8 59 10 56 3 -2
17 -48 33 -101z m-870 91 c0 -3 -4 -8 -10 -11 -5 -3 -10 -1 -10 4 0 6 5 11 10
11 6 0 10 -2 10 -4z m-195 -27 c-58 -23 -169 -49 -205 -48 -14 1 13 9 60 19
47 11 103 25 125 34 60 22 77 18 20 -5z m-731 -158 l28 -11 -7 -68 c-4 -37 -8
-69 -10 -70 -2 -2 -32 7 -67 21 -35 14 -74 28 -88 32 -14 4 -69 28 -122 53
l-98 45 0 62 0 63 168 -58 c92 -32 180 -63 196 -69z m495 105 c-2 -2 -26 -6
-54 -9 -34 -4 -42 -3 -25 3 25 8 87 13 79 6z m-129 -26 c-34 -11 -60 -11 -35
0 11 5 29 8 40 8 16 0 15 -2 -5 -8z m980 -433 c45 -22 45 -22 48 -80 3 -59 -8
-87 -34 -87 -8 0 -14 8 -15 18 -1 11 -3 9 -8 -7 -10 -37 -30 -37 -43 1 l-13
33 -5 -35 c-7 -45 -37 -54 -45 -13 -12 53 -19 58 -23 15 -3 -38 -6 -43 -25
-40 -15 2 -23 11 -25 28 -1 14 -7 50 -13 81 -14 68 -3 94 44 108 43 13 102 4
157 -22z m340 -21 c0 -21 -6 -24 -54 -30 -29 -3 -73 -15 -98 -26 -39 -17 -88
-18 -88 -1 0 3 20 14 45 24 25 11 45 25 45 32 0 13 27 18 118 23 27 2 32 -1
32 -22z m-230 -24 c0 -10 -22 -32 -32 -32 -4 0 -8 9 -8 20 0 13 7 20 20 20 11
0 20 -4 20 -8z m-332 -74 c-3 -20 -9 -23 -45 -24 -24 0 -46 -4 -50 -7 -3 -4
-33 -7 -65 -7 -45 0 -58 3 -58 15 0 12 14 15 64 15 35 0 79 7 97 15 48 20 61
19 57 -7z m286 -106 c-8 -70 -10 -71 -90 -51 -52 13 -41 33 12 23 29 -5 32 -3
38 27 6 30 34 74 43 66 2 -2 0 -31 -3 -65z m-152 -112 c9 -52 17 -110 17 -127
1 -31 -1 -33 -34 -34 -19 -1 -40 -2 -47 -3 -12 -1 -33 105 -40 197 -3 45 21
70 62 65 23 -3 26 -9 42 -98z m158 -30 c17 -42 72 -87 122 -101 32 -10 63 -33
123 -93 125 -126 132 -138 146 -243 8 -61 9 -99 3 -114 -9 -19 -19 -9 -110
112 -55 74 -125 170 -154 214 -30 44 -78 113 -107 154 -50 70 -64 101 -44 101
5 0 14 -14 21 -30z m778 -19 c136 -99 242 -423 242 -743 0 -125 -11 -173 -50
-220 -23 -27 -34 -33 -68 -33 -35 0 -48 7 -80 39 -22 20 -45 49 -53 62 -12 23
-10 27 29 63 46 42 47 47 32 136 -11 66 -7 90 16 99 9 4 18 -3 24 -19 15 -38
27 -30 46 31 13 44 15 60 6 73 -6 9 -18 31 -26 49 -8 17 -26 36 -39 41 -14 5
-42 31 -63 58 -21 26 -76 89 -121 139 -46 51 -83 98 -83 106 0 8 7 35 16 61
30 89 98 111 172 58z m-351 -708 c9 -18 14 -35 10 -39 -10 -11 -44 23 -95 96
-26 36 -94 128 -152 205 -144 190 -160 215 -160 248 0 24 33 -14 190 -224 104
-139 197 -268 207 -286z m263 407 c111 -118 145 -159 139 -164 -2 -2 -32 -1
-67 2 l-62 4 -16 57 c-22 82 -37 112 -83 165 -23 26 -41 49 -41 52 0 18 33
-12 130 -116z m-120 13 c0 -12 -10 -31 -22 -42 -26 -25 -85 -38 -101 -22 -6 6
-9 12 -6 14 57 40 82 64 92 84 10 23 12 24 24 7 7 -10 13 -28 13 -41z m81
-129 c24 -142 24 -210 0 -250 -19 -32 -74 -64 -109 -64 -23 0 -29 12 -38 80
-8 59 2 75 51 84 51 10 45 30 -6 22 -50 -8 -51 14 -1 29 45 13 40 26 -8 19
-50 -8 -54 10 -5 26 19 6 35 15 35 20 0 4 -16 4 -35 0 -19 -4 -35 -4 -35 0 0
5 16 14 35 20 38 13 50 36 13 25 -13 -4 -31 -9 -40 -11 -33 -10 -18 16 20 33
51 23 82 52 82 77 0 14 3 17 11 9 6 -6 19 -60 30 -119z m-429 -107 c30 -38 31
-39 15 -73 -9 -19 -21 -34 -26 -34 -5 0 -15 22 -22 50 -8 33 -29 70 -61 107
-43 52 -68 104 -68 142 0 8 29 -24 65 -70 36 -46 79 -101 97 -122z m-301 150
c35 -24 37 -28 59 -162 6 -38 30 -146 53 -239 25 -104 37 -171 31 -173 -6 -2
-36 -19 -67 -39 -58 -36 -70 -60 -42 -84 20 -16 38 -2 31 25 -5 19 2 28 41 53
45 29 77 36 39 9 -21 -15 -13 -40 19 -61 20 -13 29 -14 51 -4 l26 12 -6 91
c-6 86 -5 88 8 50 15 -43 86 -364 106 -480 17 -99 10 -213 -15 -247 -11 -15
-27 -28 -35 -28 -51 -1 -192 188 -241 322 -30 81 -82 281 -94 358 -4 25 -18
102 -32 173 -21 107 -24 150 -21 271 4 181 16 202 89 153z m540 -100 c5 -27 7
-52 5 -55 -6 -5 -34 89 -41 136 l-5 37 15 -34 c9 -18 20 -56 26 -84z m349 -46
l-34 -28 -18 22 c-10 13 -18 26 -18 29 0 3 23 6 52 6 l52 0 -34 -29z m-104
-115 c-4 -23 -15 -56 -26 -74 -23 -38 -99 -79 -126 -68 -16 7 -10 12 31 31 77
34 113 84 116 158 1 19 3 25 6 13 3 -10 2 -37 -1 -60z m-566 -43 c89 -197 181
-608 184 -815 1 -84 -2 -100 -20 -125 -12 -15 -29 -29 -38 -31 -13 -3 -11 3 8
21 17 18 26 41 32 83 6 50 -1 97 -41 299 -29 144 -67 298 -95 385 -46 139 -68
230 -56 230 3 0 15 -21 26 -47z m664 -9 c12 -88 9 -101 -28 -123 -44 -28 -50
-27 -71 13 -18 34 -18 36 1 71 18 36 67 85 83 85 5 0 11 -21 15 -46z m-282
-99 c34 -29 52 -31 91 -11 26 14 28 14 42 -14 21 -41 19 -55 -10 -68 -34 -16
-33 -17 -49 21 -8 17 -15 26 -15 18 -2 -26 31 -137 61 -204 16 -38 27 -71 25
-74 -8 -8 -53 78 -72 137 -34 105 -38 110 -101 110 -48 0 -55 -2 -45 -14 9
-10 20 -12 42 -6 34 10 39 -4 8 -20 -46 -25 -89 14 -89 80 0 32 9 37 29 18 10
-11 15 -9 27 6 8 11 14 26 14 33 0 19 8 16 42 -12z m-120 -67 c7 -71 41 -102
103 -92 48 7 56 -1 69 -62 6 -28 3 -33 -34 -58 -42 -28 -51 -55 -25 -76 13
-10 15 -9 15 9 0 14 9 25 26 31 35 14 42 12 21 -5 -11 -7 -26 -28 -35 -47 -29
-57 -125 -73 -138 -22 -3 13 -2 59 3 103 7 60 6 93 -4 128 -25 89 -29 108 -25
126 7 34 20 16 24 -35z m-52 -47 c14 -27 13 -74 -2 -69 -21 7 -51 56 -45 72 9
22 34 20 47 -3z m631 -111 c-23 -20 -65 -26 -95 -14 -30 11 -16 19 28 16 25
-2 53 1 63 7 28 16 30 12 4 -9z"/>
<path d="M3010 4396 c0 -38 10 -56 31 -56 24 0 33 21 25 55 -9 35 -56 36 -56
1z m40 -11 c0 -8 -4 -15 -10 -15 -5 0 -10 7 -10 15 0 8 5 15 10 15 6 0 10 -7
10 -15z"/>
<path d="M4041 4881 c-7 -5 -22 -6 -32 -4 -10 3 -19 1 -19 -5 0 -5 -14 -9 -32
-8 -39 1 -48 -22 -24 -59 15 -23 55 -37 41 -15 -3 6 -1 10 4 10 6 0 11 -4 11
-10 0 -5 9 -10 20 -10 11 0 20 7 20 15 0 18 12 19 28 3 15 -15 34 34 26 68 -6
25 -19 30 -43 15z"/>
<path d="M3950 3674 c0 -14 3 -14 15 -4 8 7 15 14 15 16 0 2 -7 4 -15 4 -8 0
-15 -7 -15 -16z"/>
<path d="M4630 2610 c0 -13 30 -13 50 0 11 7 7 10 -17 10 -18 0 -33 -4 -33
-10z"/>
<path d="M4630 2570 c0 -13 40 -13 60 0 11 7 5 10 -22 10 -21 0 -38 -4 -38
-10z"/>
<path d="M3920 5431 c0 -17 5 -31 10 -31 6 0 10 11 10 24 0 14 -4 28 -10 31
-6 4 -10 -7 -10 -24z"/>
<path d="M3845 5373 c8 -35 13 -39 26 -26 15 15 2 53 -18 53 -12 0 -14 -6 -8
-27z"/>
<path d="M3470 5381 c0 -6 4 -13 10 -16 6 -3 7 1 4 9 -7 18 -14 21 -14 7z"/>
<path d="M3576 5367 c-5 -15 -6 -31 -2 -34 11 -11 18 5 14 34 l-4 28 -8 -28z"/>
<path d="M3789 5334 c-9 -24 -11 -25 -22 -10 -11 15 -14 14 -30 -14 -10 -16
-15 -35 -12 -40 9 -15 32 -12 39 5 3 8 12 12 21 9 8 -4 17 1 21 10 3 9 15 16
25 16 25 0 24 26 0 40 -28 14 -30 13 -42 -16z"/>
<path d="M3684 5267 c-9 -24 6 -44 18 -22 7 11 6 21 -1 28 -7 7 -12 6 -17 -6z"/>
<path d="M5483 4713 c-40 -5 -46 -33 -7 -33 27 0 27 0 20 -57 -4 -31 -9 -67
-12 -80 -5 -20 -2 -23 24 -23 29 0 30 1 37 63 10 91 12 97 46 97 22 0 29 5 29
20 0 18 -6 20 -52 18 -29 0 -68 -3 -85 -5z"/>
<path d="M5803 4710 c-13 -5 -23 -14 -23 -19 0 -17 19 -22 41 -10 17 9 24 8
37 -4 14 -14 12 -18 -12 -39 -70 -58 -85 -74 -88 -93 -3 -18 3 -20 75 -23 76
-3 77 -3 77 22 0 23 -4 25 -47 28 l-48 3 35 19 c52 27 70 46 70 72 0 43 -62
66 -117 44z"/>
<path d="M6003 4710 c-33 -13 -56 -56 -57 -106 -1 -55 27 -84 80 -84 93 0 127
159 42 189 -36 13 -36 13 -65 1z m57 -45 c25 -30 -13 -121 -46 -108 -9 3 -14
20 -14 45 0 67 30 99 60 63z"/>
<path d="M5102 4703 c-12 -2 -20 -8 -17 -12 2 -5 -2 -43 -10 -86 -8 -42 -15
-81 -15 -86 0 -5 34 -9 75 -9 68 0 75 2 75 20 0 17 -7 20 -45 20 -38 0 -45 3
-45 20 0 16 7 20 35 20 24 0 35 5 35 15 0 8 -7 16 -15 16 -8 1 -21 2 -27 3 -7
0 -13 10 -13 21 0 17 8 20 48 23 39 3 47 6 47 23 0 17 -7 19 -52 18 -29 -1
-63 -4 -76 -6z"/>
<path d="M5284 4687 c-40 -35 -28 -70 31 -93 25 -9 44 -22 42 -28 -5 -16 -56
-20 -72 -6 -18 15 -45 6 -45 -14 0 -32 78 -47 134 -26 61 23 51 87 -19 110
-20 7 -35 18 -35 27 0 13 9 15 45 11 48 -6 64 4 45 27 -20 24 -94 19 -126 -8z"/>
<path d="M6173 4703 c-26 -5 -29 -13 -11 -31 7 -7 17 -8 29 -2 22 12 49 3 49
-16 0 -8 -22 -30 -49 -49 -45 -32 -61 -52 -61 -75 0 -5 36 -10 80 -12 77 -3
80 -2 80 20 0 19 -5 22 -40 22 -22 0 -40 3 -40 8 0 4 18 18 40 32 94 58 43
126 -77 103z"/>
<path d="M6395 4701 c-36 -15 -58 -50 -62 -98 -4 -40 -1 -51 17 -68 48 -44
140 -14 140 46 0 38 -24 59 -67 59 -30 0 -34 2 -23 15 7 8 28 15 47 15 27 0
34 4 31 18 -4 19 -50 27 -83 13z m41 -106 c7 -18 -13 -45 -33 -45 -19 0 -28
27 -13 45 16 19 39 19 46 0z"/>
<path d="M5613 4559 c-16 -16 -5 -39 17 -39 25 0 35 18 20 35 -15 18 -22 19
-37 4z"/>
<path d="M2234 4038 c-3 -12 -6 -51 -6 -87 0 -60 4 -74 62 -185 50 -96 63
-132 68 -180 5 -54 6 -58 14 -31 13 48 -8 119 -69 234 -56 105 -57 106 -56
188 0 46 -1 83 -3 83 -1 0 -6 -10 -10 -22z"/>
<path d="M2414 3968 c-4 -7 -8 -40 -8 -74 0 -58 3 -67 52 -139 49 -72 52 -81
52 -138 1 -50 3 -58 11 -43 6 10 9 42 7 71 -4 43 -14 66 -54 125 -47 69 -49
75 -49 141 0 38 -1 69 -2 69 -1 0 -5 -5 -9 -12z"/>
<path d="M2117 3758 c-9 -43 9 -95 52 -148 42 -52 61 -95 61 -135 0 -22 4 -34
10 -30 28 17 2 109 -48 173 -41 52 -53 78 -61 131 l-7 46 -7 -37z"/>
<path d="M6200 3536 c-214 -77 -356 -151 -366 -192 -13 -50 26 -67 186 -84
213 -22 250 -80 134 -209 -74 -81 -199 -173 -569 -419 -398 -263 -540 -365
-697 -496 -123 -103 -254 -241 -284 -298 -19 -36 -2 -36 21 0 38 58 144 169
245 256 160 137 335 263 709 510 380 251 477 321 569 412 95 94 113 154 64
204 -34 34 -75 46 -202 60 -120 13 -160 26 -160 50 0 33 120 100 320 177 63
24 117 46 119 49 11 10 -29 1 -89 -20z"/>
<path d="M3200 3339 c-42 -17 -60 -40 -60 -76 0 -28 7 -38 50 -69 54 -39 62
-67 21 -72 -14 -2 -32 5 -46 18 -27 25 -55 21 -55 -9 0 -30 47 -61 92 -61 48
0 88 35 88 78 0 33 -12 50 -57 81 -35 24 -43 58 -17 68 9 3 21 -3 30 -15 27
-38 61 5 36 45 -11 17 -54 24 -82 12z"/>
<path d="M2952 3211 c-51 -132 -56 -165 -25 -169 17 -2 23 3 28 28 12 54 84
69 95 20 7 -28 37 -39 46 -17 3 8 -4 53 -15 100 -12 46 -21 91 -21 98 0 23
-14 37 -40 44 -25 6 -27 1 -68 -104z m72 -43 c-5 -8 -44 -11 -44 -4 0 2 7 21
17 42 l16 39 8 -35 c4 -19 5 -38 3 -42z"/>
<path d="M2714 3288 l-41 -10 -12 -100 c-15 -131 -14 -157 4 -164 22 -9 99 4
121 20 15 12 16 16 5 30 -10 12 -23 14 -52 10 -38 -6 -38 -6 -30 22 5 22 15
30 37 34 37 7 39 34 2 38 -19 2 -28 9 -28 22 0 29 11 50 25 50 8 0 25 4 40 10
22 8 24 13 15 30 -12 22 -24 23 -86 8z"/>
<path d="M2494 3259 c-35 -10 -29 11 -59 -218 -5 -36 8 -61 31 -61 8 0 16 18
20 50 4 28 10 50 15 50 5 0 9 -4 9 -8 0 -19 64 -72 86 -72 34 0 30 19 -12 60
l-35 34 40 34 c33 27 41 40 41 67 0 60 -57 87 -136 64z m86 -58 c0 -11 -12
-29 -26 -40 -32 -25 -59 -28 -50 -5 3 9 6 27 6 40 0 21 5 24 35 24 28 0 35 -4
35 -19z"/>
<path d="M2301 3222 c-5 -10 -25 -58 -44 -108 -47 -123 -51 -154 -17 -154 15
0 22 9 27 31 4 20 14 34 30 40 39 15 50 11 59 -23 10 -34 22 -42 42 -29 11 6
9 30 -10 126 -22 113 -24 119 -51 126 -20 6 -29 3 -36 -9z m33 -134 c-7 -11
-34 -10 -34 1 0 4 5 23 12 42 l12 34 7 -35 c4 -19 5 -38 3 -42z"/>
<path d="M2184 3185 c-8 -19 -19 -58 -25 -87 -17 -87 -23 -87 -29 -3 -4 72 -7
80 -26 83 -18 3 -24 -7 -44 -70 -12 -40 -26 -77 -31 -82 -5 -6 -9 25 -9 76 0
76 -2 86 -19 91 -11 3 -22 2 -25 -1 -3 -3 -6 -61 -6 -128 0 -114 2 -124 21
-134 36 -20 51 -8 72 60 l21 65 6 -42 c7 -48 25 -73 51 -73 23 0 25 2 58 117
35 117 38 134 28 151 -14 21 -27 13 -43 -23z"/>
<path d="M1835 3173 c-80 -17 -80 -17 -72 -38 4 -9 19 -15 38 -15 28 0 31 -3
25 -24 -3 -13 -9 -61 -12 -108 -6 -75 -5 -86 11 -91 27 -11 32 -2 39 70 15
152 16 154 52 169 37 15 41 23 22 42 -14 14 -14 14 -103 -5z"/>
<path d="M1655 3151 c-27 -6 -31 -11 -42 -66 -7 -33 -14 -94 -15 -135 -3 -70
-2 -75 18 -78 19 -3 22 3 28 46 6 50 17 62 56 62 10 0 22 5 25 10 10 16 -15
40 -41 40 -25 0 -28 9 -18 48 5 17 16 24 46 28 32 6 39 10 36 28 -3 23 -38 30
-93 17z"/>
<path d="M1438 3113 c-31 -36 -51 -89 -56 -149 -4 -57 -2 -65 21 -88 36 -36
89 -36 126 2 20 20 31 45 40 92 13 69 6 107 -26 142 -21 24 -85 24 -105 1z
m80 -91 c3 -72 -19 -132 -49 -132 -24 0 -34 37 -25 96 8 60 33 106 54 102 13
-3 18 -16 20 -66z"/>
<path d="M1229 3070 c-43 -42 -37 -75 21 -118 28 -22 45 -42 45 -56 0 -31 -36
-32 -64 -2 -26 28 -51 24 -51 -8 1 -66 97 -90 151 -37 47 48 37 89 -35 136
-28 19 -35 59 -12 68 8 3 21 -4 28 -15 18 -27 48 -18 48 15 0 33 -18 47 -63
47 -29 0 -46 -7 -68 -30z"/>
<path d="M3566 2833 c-16 -43 -36 -99 -45 -126 -12 -35 -19 -45 -28 -36 -6 6
-30 10 -52 7 -23 -2 -41 -2 -41 0 0 8 36 71 67 119 30 44 33 54 23 73 -11 21
-17 22 -77 17 -72 -5 -76 -7 -67 -30 3 -10 20 -17 44 -19 l39 -3 -50 -86 c-68
-117 -57 -138 56 -118 33 6 73 12 89 13 25 1 31 7 38 34 5 17 14 32 21 32 7 0
22 3 33 6 17 5 24 0 32 -25 12 -35 52 -45 52 -13 -1 40 -49 215 -61 223 -32
20 -44 8 -73 -68z m58 -35 c6 -34 5 -38 -14 -38 -17 0 -20 4 -15 23 4 12 9 30
12 40 6 24 9 20 17 -25z"/>
<path d="M3168 2863 c-42 -11 -1 -55 42 -46 17 3 30 2 30 -2 0 -4 -23 -44 -50
-90 -69 -112 -60 -132 52 -114 71 12 73 12 65 34 -4 10 -20 15 -47 15 -22 0
-40 4 -40 8 0 4 21 41 46 82 38 63 44 78 35 97 -9 20 -17 23 -63 22 -29 -1
-61 -3 -70 -6z"/>
<path d="M3076 2852 c-2 -4 -8 -63 -12 -130 -6 -109 -5 -122 10 -128 10 -4 21
-3 26 2 4 5 11 66 15 137 7 124 7 127 -13 127 -12 0 -23 -4 -26 -8z"/>
<path d="M2908 2843 c-29 -5 -27 1 -48 -162 -13 -93 -9 -111 19 -111 15 0 20
10 25 44 6 40 11 46 41 56 88 29 125 115 69 159 -26 20 -47 23 -106 14z m81
-47 c15 -18 2 -47 -31 -70 -33 -23 -38 -20 -38 22 0 56 40 83 69 48z"/>
<path d="M2624 2785 c-40 -40 -30 -81 29 -125 53 -40 62 -70 20 -70 -15 0 -37
10 -50 22 -22 21 -24 21 -41 5 -21 -22 -9 -44 37 -71 28 -16 38 -17 72 -7 79
24 83 106 8 155 -41 28 -48 46 -24 66 16 14 35 6 35 -16 0 -20 27 -18 38 4 20
37 -5 62 -61 62 -27 0 -45 -7 -63 -25z"/>
<path d="M2453 2763 c-3 -10 -21 -56 -39 -103 -37 -96 -42 -120 -31 -137 14
-23 35 -14 42 18 4 19 16 34 32 40 40 15 51 11 58 -21 6 -29 36 -42 49 -22 8
13 -42 225 -56 233 -22 14 -48 10 -55 -8z m37 -88 c0 -14 1 -28 3 -32 1 -5 -8
-9 -20 -11 -20 -3 -21 -1 -11 32 13 42 28 47 28 11z"/>
<path d="M2136 2741 c-10 -16 -27 -244 -19 -251 39 -36 126 2 161 70 52 105 6
190 -104 190 -18 0 -35 -4 -38 -9z m106 -66 c15 -33 -4 -98 -40 -134 l-27 -26
-3 50 c-2 28 -1 69 3 93 5 36 10 42 31 42 16 0 28 -8 36 -25z"/>
<path d="M1946 2687 c-31 -41 -50 -123 -39 -168 5 -18 21 -42 36 -53 22 -16
33 -18 63 -10 57 14 78 51 82 144 4 69 2 80 -17 99 -14 14 -34 21 -60 21 -33
0 -44 -5 -65 -33z m98 -32 c13 -52 -19 -165 -47 -165 -40 0 -49 77 -17 148 22
49 54 58 64 17z"/>
<path d="M1742 2666 c-36 -41 -58 -127 -45 -177 5 -18 21 -42 36 -53 22 -16
33 -18 63 -10 57 14 78 51 82 142 5 90 -10 116 -69 126 -33 6 -40 3 -67 -28z
m93 -49 c8 -43 -15 -137 -37 -150 -41 -26 -62 47 -37 124 15 45 27 59 50 59
13 0 20 -10 24 -33z"/>
<path d="M1558 2654 c-42 -22 -68 -82 -68 -154 0 -51 4 -65 25 -85 53 -54 132
-21 155 65 15 56 -2 78 -51 64 -39 -11 -49 -33 -20 -41 26 -7 27 -34 3 -56
-24 -22 -39 -21 -52 2 -20 39 -3 128 32 163 l20 20 22 -21 c30 -28 36 -27 36
9 0 24 -6 33 -26 40 -33 13 -44 12 -76 -6z"/>
<path d="M3843 2373 c-249 -169 -476 -339 -705 -531 -84 -71 -100 -100 -19
-36 313 249 542 420 768 572 34 23 65 46 68 52 14 23 -18 6 -112 -57z"/>
<path d="M6455 1520 c-3 -5 -10 -33 -15 -62 -5 -29 -19 -102 -30 -163 l-19
-110 20 -17 c31 -26 46 -12 59 57 13 67 21 75 81 75 l26 0 -10 -55 c-9 -58 0
-85 29 -85 19 0 30 29 48 125 44 241 44 245 2 245 -27 0 -41 -29 -52 -110 -6
-48 -6 -48 -51 -55 -25 -3 -47 -5 -49 -3 -2 2 0 20 5 39 20 76 21 98 5 114
-18 17 -40 20 -49 5z"/>
<path d="M6265 1508 c-44 -5 -84 -13 -89 -18 -6 -6 -5 -20 3 -36 10 -22 16
-25 41 -20 36 7 36 15 6 -144 -24 -129 -22 -150 14 -150 27 0 36 18 49 100 7
41 19 105 28 142 14 66 14 66 54 73 41 7 52 28 27 53 -13 13 -19 13 -133 0z"/>
<path d="M5975 1473 c-82 -87 -107 -262 -46 -317 30 -27 93 -32 130 -10 59 35
110 185 91 265 -18 76 -33 89 -104 89 -36 0 -50 -5 -71 -27z m109 -109 c0 -91
-34 -167 -76 -172 -34 -4 -44 25 -34 100 11 83 53 151 90 146 19 -3 21 -10 20
-74z"/>
<path d="M5692 1482 c-12 -8 -72 -271 -72 -317 0 -69 140 -57 218 17 40 40 43
81 7 118 l-25 26 25 24 c33 31 34 88 2 118 -19 18 -35 22 -83 22 -32 0 -65 -4
-72 -8z m115 -68 c7 -19 -31 -53 -59 -54 -21 0 -22 8 -8 44 11 30 57 37 67 10z
m3 -153 c0 -22 -102 -85 -114 -70 -1 2 1 23 6 46 8 37 12 42 41 45 33 4 67 -7
67 -21z"/>
<path d="M5405 1463 c-16 -3 -33 -8 -37 -12 -9 -8 -58 -263 -58 -302 0 -37 30
-53 84 -45 71 11 106 26 106 46 0 30 -23 41 -74 34 l-47 -7 7 29 c10 43 23 54
61 54 22 0 36 6 40 16 8 21 -21 44 -55 44 -21 0 -23 3 -17 33 10 45 9 44 65
51 54 7 71 25 50 51 -12 15 -57 17 -125 8z"/>
<path d="M4654 1446 c-85 -38 -97 -125 -25 -180 14 -11 41 -35 59 -53 28 -27
31 -35 22 -53 -7 -13 -21 -20 -41 -20 -23 0 -34 7 -51 36 -14 25 -27 34 -41
32 -53 -8 -46 -76 12 -115 79 -53 201 -6 201 79 0 42 -17 70 -66 107 -55 42
-68 64 -54 91 17 32 59 26 71 -10 12 -33 30 -38 53 -14 22 22 20 48 -7 79 -27
32 -88 42 -133 21z"/>
<path d="M5097 1453 c-9 -8 -8 -164 2 -266 7 -83 16 -97 62 -97 24 0 31 12 87
133 94 206 100 237 49 237 -21 0 -28 -14 -72 -137 l-50 -138 -6 50 c-4 28 -8
85 -8 127 -1 66 -4 79 -20 88 -23 12 -35 13 -44 3z"/>
<path d="M3970 1423 c0 -16 11 -67 25 -114 23 -81 24 -87 9 -148 -16 -70 -8
-94 30 -89 17 2 25 17 41 84 14 56 34 105 66 155 63 101 61 97 54 120 -13 38
-47 19 -82 -46 -17 -33 -36 -61 -42 -63 -5 -2 -12 18 -16 45 -8 65 -17 77 -54
81 -28 3 -31 1 -31 -25z"/>
<path d="M4937 1443 c-3 -5 -21 -48 -42 -98 -20 -49 -42 -99 -49 -110 -22 -35
-49 -126 -39 -136 4 -4 19 -10 31 -11 19 -2 26 4 37 35 17 49 16 48 70 54 44
5 45 5 45 -21 0 -15 5 -36 10 -47 13 -23 48 -25 56 -4 4 8 -2 84 -11 167 -13
112 -22 156 -33 166 -17 13 -68 17 -75 5z m29 -195 c-6 -4 -19 -8 -28 -8 -18
0 -15 21 13 85 l13 30 6 -50 c4 -32 3 -53 -4 -57z"/>
<path d="M2525 1428 c-15 -43 -75 -301 -75 -322 0 -33 38 -46 57 -20 7 10 13
25 13 33 0 9 16 78 35 155 27 105 33 142 24 152 -14 17 -48 18 -54 2z"/>
<path d="M3798 1433 c-29 -3 -39 -9 -43 -26 -2 -12 -16 -86 -31 -165 -29 -158
-27 -172 31 -172 17 0 57 5 88 11 43 9 57 16 57 29 0 29 -26 42 -75 38 -48 -3
-52 2 -36 45 7 18 20 26 48 32 50 9 55 13 43 36 -7 12 -21 19 -40 19 -33 0
-38 17 -20 64 6 18 17 26 34 26 49 0 86 12 86 29 0 39 -30 46 -142 34z"/>
<path d="M4357 1433 c-9 -8 -7 -71 3 -103 6 -18 8 -7 9 43 1 67 0 73 -12 60z"/>
<path d="M1500 1418 c-47 -5 -89 -13 -94 -18 -6 -6 -5 -19 2 -35 9 -19 19 -25
42 -25 35 0 35 15 -6 -152 -29 -118 -30 -135 -4 -143 31 -10 48 10 60 73 20
100 51 216 62 229 6 7 20 13 32 13 21 0 46 17 46 31 0 13 -31 39 -43 38 -7 -1
-50 -6 -97 -11z"/>
<path d="M2178 1423 c-10 -2 -20 -14 -22 -26 -2 -12 -16 -79 -31 -149 -36
-169 -35 -172 37 -176 68 -4 138 13 138 33 0 31 -31 47 -78 40 l-45 -7 7 33
c7 38 20 49 57 49 34 0 51 18 38 42 -6 11 -21 18 -39 18 -32 0 -37 11 -21 53
8 20 18 25 56 29 55 7 70 18 60 47 -6 19 -14 21 -73 20 -37 -1 -75 -3 -84 -6z"/>
<path d="M2849 1255 c-27 -111 -39 -179 -33 -185 5 -5 20 -11 34 -12 23 -3 26
2 47 95 12 55 24 101 26 103 2 3 8 -28 12 -68 3 -40 11 -79 17 -85 25 -30 45
-13 86 75 l42 87 -7 -55 c-4 -30 -8 -75 -8 -100 0 -42 2 -45 27 -48 32 -4 27
-19 59 192 23 145 23 148 4 162 -33 24 -63 17 -79 -18 -8 -18 -29 -64 -47
-103 l-33 -70 -7 45 c-4 25 -8 64 -8 87 -1 46 -26 73 -67 73 -20 0 -26 -15
-65 -175z"/>
<path d="M3253 1403 c-62 -58 -100 -239 -64 -305 24 -46 79 -60 131 -33 56 29
110 186 96 279 -13 84 -102 116 -163 59z m95 -45 c37 -37 -25 -243 -72 -243
-34 0 -41 28 -27 97 13 64 32 110 59 141 18 20 24 21 40 5z"/>
<path d="M3641 1393 c-6 -21 -16 -72 -23 -115 -6 -42 -15 -75 -19 -72 -4 2
-17 46 -29 97 -22 94 -36 117 -76 117 -25 0 -28 -9 -65 -206 -12 -66 -19 -128
-16 -137 8 -21 53 -22 60 -3 3 8 11 50 17 95 7 45 15 81 19 81 3 0 17 -36 30
-79 27 -91 34 -101 73 -101 34 0 41 15 58 123 6 42 20 107 30 144 21 78 18 93
-21 93 -24 0 -30 -5 -38 -37z"/>
<path d="M1671 1388 c-22 -68 -72 -312 -66 -325 3 -9 16 -13 32 -11 23 3 28
10 39 53 53 221 66 286 61 299 -4 9 -17 16 -31 16 -19 0 -27 -8 -35 -32z"/>
<path d="M1805 1408 c-17 -47 -82 -335 -78 -345 3 -7 18 -13 33 -13 32 0 31
-3 59 123 22 103 31 118 31 55 0 -25 3 -66 6 -92 6 -43 9 -46 36 -46 26 0 32
7 70 91 23 51 44 87 46 80 2 -6 -3 -42 -12 -80 -23 -100 -21 -119 9 -127 14
-4 28 -4 31 -1 3 3 21 81 39 174 31 154 33 169 18 181 -9 6 -29 12 -43 12 -22
0 -32 -11 -68 -77 -68 -129 -68 -129 -76 -35 -6 68 -11 84 -29 97 -26 18 -66
20 -72 3z"/>
<path d="M4428 1363 c-20 -24 -41 -64 -35 -69 6 -6 67 64 67 76 0 15 -15 12
-32 -7z"/>
<path d="M2615 1345 c-35 -34 -31 -60 16 -106 39 -38 41 -42 25 -57 -16 -16
-19 -16 -36 6 -24 29 -50 29 -50 -1 0 -54 89 -78 130 -37 30 30 25 65 -15 109
-23 25 -33 45 -29 55 8 21 34 21 34 0 0 -25 35 -12 38 15 4 29 -12 41 -56 41
-22 0 -41 -8 -57 -25z"/>
<path d="M4270 1362 c0 -14 31 -52 51 -62 27 -15 24 2 -7 39 -25 30 -44 40
-44 23z"/>
<path d="M4322 1248 c-11 -15 -42 -75 -42 -83 0 -24 42 28 62 77 8 21 -5 24
-20 6z"/>
<path d="M4407 1229 c22 -37 51 -64 59 -56 8 7 -22 57 -45 74 -27 21 -33 14
-14 -18z"/>
<path d="M4360 1181 c0 -33 5 -63 10 -66 6 -4 10 18 10 59 0 37 -4 66 -10 66
-6 0 -10 -26 -10 -59z"/>
<path d="M5648 793 c-10 -2 -18 -13 -18 -23 0 -14 9 -20 33 -22 l32 -3 3 -122
3 -123 29 0 30 0 0 125 0 125 36 0 c31 0 35 3 32 23 -3 21 -8 22 -83 24 -44 0
-88 -1 -97 -4z"/>
<path d="M5860 650 l0 -150 85 0 c78 0 85 2 85 20 0 16 -7 20 -40 21 -22 1
-46 2 -52 3 -8 1 -13 16 -13 41 0 40 0 40 43 43 33 3 42 7 42 22 0 15 -9 19
-42 22 -42 3 -43 4 -46 41 l-3 37 55 0 c53 0 56 1 56 25 0 25 -1 25 -85 25
l-85 0 0 -150z"/>
<path d="M6107 780 c-14 -11 -31 -37 -38 -57 -14 -44 -7 -139 15 -181 32 -62
139 -64 171 -2 8 15 11 30 8 34 -13 13 -46 5 -62 -15 -21 -26 -57 -19 -67 13
-11 34 -6 148 6 164 18 20 57 17 70 -5 6 -13 17 -17 30 -14 27 7 25 29 -5 58
-31 32 -91 34 -128 5z"/>
<path d="M6310 651 l0 -151 30 0 c30 0 30 0 30 59 0 33 5 63 11 66 6 4 26 4
45 1 l34 -7 0 -59 0 -60 30 0 31 0 -3 148 -3 147 -27 3 c-27 3 -27 2 -30 -60
l-3 -62 -42 -4 -42 -3 -3 63 c-3 60 -4 63 -30 66 l-28 3 0 -150z"/>
<path d="M3948 782 c-30 -4 -32 -8 -61 -137 l-14 -60 -17 60 c-43 150 -34 135
-83 135 l-43 0 0 -145 0 -145 30 0 30 0 1 103 c0 56 2 98 4 92 2 -5 16 -49 30
-97 23 -77 29 -88 49 -88 21 0 25 8 40 83 26 125 36 127 36 10 l0 -103 25 0
25 0 0 148 c0 113 -3 149 -12 148 -7 0 -25 -2 -40 -4z"/>
<path d="M4125 778 c-2 -7 -21 -69 -41 -137 -20 -69 -38 -131 -41 -138 -4 -9
4 -13 25 -13 26 0 32 5 42 35 11 32 15 35 50 35 35 0 39 -3 50 -35 10 -29 16
-35 41 -35 34 0 36 -12 -20 175 -36 120 -36 120 -69 123 -20 2 -34 -2 -37 -10z
m53 -125 l10 -43 -30 0 c-25 0 -29 3 -23 18 4 9 9 32 12 50 7 40 17 32 31 -25z"/>
<path d="M4310 640 l0 -150 30 0 30 0 0 60 c0 43 4 60 13 60 7 0 26 -27 42
-60 25 -52 32 -60 57 -60 34 0 35 7 3 71 l-26 50 26 30 c64 77 6 149 -120 149
l-55 0 0 -150z m130 81 c5 -11 10 -24 10 -30 0 -18 -31 -41 -56 -41 -22 0 -24
4 -24 45 0 43 1 45 30 45 19 0 33 -7 40 -19z"/>
<path d="M4550 765 c0 -23 3 -25 50 -25 28 0 50 -3 50 -7 0 -3 -25 -53 -56
-111 -30 -57 -53 -110 -50 -118 4 -11 27 -14 95 -14 79 0 89 2 94 19 7 28 1
31 -60 31 -29 0 -53 3 -53 8 0 4 25 49 55 101 30 51 55 104 55 117 0 24 -2 24
-90 24 -89 0 -90 0 -90 -25z"/>
<path d="M4780 640 l0 -150 30 0 30 0 0 150 0 150 -30 0 -30 0 0 -150z"/>
<path d="M4955 778 c-2 -7 -20 -67 -40 -133 -19 -66 -38 -128 -41 -137 -4 -14
1 -18 25 -18 25 0 31 5 41 35 11 32 15 35 51 35 35 0 40 -3 53 -35 12 -27 21
-35 40 -35 15 0 26 3 26 7 0 4 -19 71 -42 150 l-43 143 -33 0 c-18 0 -34 -6
-37 -12z m49 -104 c4 -19 10 -42 13 -50 4 -10 -3 -14 -22 -14 -26 0 -27 2 -21
38 3 20 6 43 6 50 0 27 18 10 24 -24z"/>
<path d="M5140 640 l0 -151 83 3 c76 3 82 5 85 25 3 20 -2 22 -50 25 l-53 3
-3 123 -3 122 -29 0 -30 0 0 -150z"/>
<path d="M5340 640 l0 -150 85 0 c84 0 85 0 85 25 0 24 -3 25 -55 25 l-55 0 0
39 c0 37 1 39 41 44 47 6 54 11 46 32 -4 10 -20 15 -47 15 l-40 0 0 40 0 40
55 0 c48 0 55 2 55 20 0 18 -7 20 -85 20 l-85 0 0 -150z"/>
<path d="M3191 758 c-5 -13 -14 -56 -21 -96 -14 -75 -22 -77 -34 -7 -17 95
-26 115 -51 115 -26 0 -28 -4 -46 -100 -12 -65 -29 -103 -29 -63 0 11 -7 53
-16 92 -16 70 -17 71 -49 71 l-32 0 36 -140 36 -140 31 0 c31 0 32 1 44 68 21
111 25 112 44 18 l19 -86 33 0 c19 0 34 3 34 6 0 3 14 64 30 136 17 71 28 134
24 139 -10 18 -45 9 -53 -13z"/>
<path d="M3287 773 c-2 -5 12 -69 32 -143 l36 -135 31 -3 c31 -3 32 -3 44 65
19 103 25 105 46 17 19 -77 20 -79 52 -82 17 -2 32 -1 32 1 0 5 47 229 55 265
5 19 1 22 -24 22 -34 0 -34 -1 -52 -115 -14 -86 -12 -88 -44 38 -16 64 -19 68
-43 65 -24 -3 -28 -9 -40 -73 -19 -104 -23 -107 -39 -32 -21 101 -29 117 -57
117 -14 0 -27 -3 -29 -7z"/>
<path d="M1490 763 c0 -16 74 -269 81 -279 5 -6 21 -9 36 -7 27 4 30 11 69
149 l41 145 -31 -3 c-30 -3 -32 -5 -57 -103 l-26 -100 -12 45 c-45 168 -41
160 -72 160 -16 0 -29 -3 -29 -7z"/>
<path d="M1752 623 l3 -148 25 0 25 0 3 148 3 147 -31 0 -31 0 3 -147z"/>
<path d="M1896 749 c-18 -14 -26 -30 -26 -53 0 -45 22 -70 84 -96 63 -25 74
-42 46 -70 -26 -26 -32 -25 -69 6 -21 17 -37 23 -51 19 -54 -17 7 -76 84 -83
51 -4 57 -2 86 26 55 56 35 112 -57 153 -62 28 -74 44 -51 67 18 18 45 15 67
-7 12 -12 27 -17 40 -14 56 14 -8 73 -79 73 -33 0 -55 -6 -74 -21z"/>
<path d="M2120 641 c0 -71 3 -136 6 -145 4 -10 18 -16 37 -16 l30 0 -7 77 c-3
42 -6 107 -6 145 l0 68 -30 0 -30 0 0 -129z"/>
<path d="M2222 748 c2 -17 11 -24 34 -26 l31 -3 6 -77 c3 -42 3 -96 0 -119
l-6 -43 37 0 37 0 -3 123 -3 122 33 3 c24 2 32 8 32 23 0 18 -8 19 -101 19
-98 0 -100 0 -97 -22z"/>
<path d="M2566 673 c48 -196 43 -183 79 -183 l33 0 13 80 c7 44 16 80 20 80 3
0 12 -28 18 -62 19 -98 19 -98 55 -98 l32 0 27 118 c15 64 30 127 33 140 6 19
3 22 -24 22 -28 0 -31 -3 -41 -50 -6 -27 -14 -68 -17 -91 -8 -49 -17 -38 -35
46 -16 77 -25 95 -49 95 -20 0 -22 -6 -51 -130 l-12 -55 -20 93 -20 92 -32 0
-33 0 24 -97z"/>
<path d="M3627 544 c-4 -4 -7 -18 -7 -31 0 -21 4 -24 33 -21 27 2 32 7 32 28
0 19 -6 26 -25 28 -14 2 -29 0 -33 -4z"/>
<path d="M5560 520 c0 -27 3 -30 30 -30 27 0 30 3 30 30 0 27 -3 30 -30 30
-27 0 -30 -3 -30 -30z"/>
</g>
</svg>
