<?xml version="1.0" standalone="no"?>
<!DOCTYPE svg PUBLIC "-//W3C//DTD SVG 20010904//EN"
 "http://www.w3.org/TR/2001/REC-SVG-20010904/DTD/svg10.dtd">
<svg version="1.0" xmlns="http://www.w3.org/2000/svg"
 width="1097.000000pt" height="461.000000pt" viewBox="0 0 1097.000000 461.000000"
 preserveAspectRatio="xMidYMid meet">
<rect x="0" y="0" width="1097" height="461" fill="#f8b4d9"/>
<metadata>
Created by potrace 1.16, written by Peter Selinger 2001-2019
</metadata>
<g transform="translate(0.000000,461.000000) scale(0.100000,-0.100000)"
fill="#fff" stroke="none">
<path d="M3859 4548 c-51 -27 -64 -39 -71 -65 -5 -18 -17 -34 -28 -38 -11 -3
-53 -40 -92 -82 -40 -42 -102 -106 -137 -142 -35 -36 -74 -83 -88 -104 -13
-21 -36 -42 -51 -48 -34 -13 -71 -57 -72 -85 0 -27 -55 -96 -93 -119 -16 -10
-36 -33 -44 -52 -8 -20 -35 -56 -61 -82 -70 -70 -138 -159 -168 -217 -14 -28
-37 -57 -50 -63 -13 -6 -24 -17 -24 -24 0 -14 -79 -71 -88 -63 -3 3 3 25 12
49 9 23 16 55 16 71 0 15 9 39 20 53 12 15 20 41 20 62 0 20 8 50 18 66 25 41
102 277 102 313 0 15 7 37 15 48 8 10 15 31 15 46 0 15 9 42 20 61 11 18 19
45 18 58 -1 14 12 45 31 73 27 39 32 55 28 85 -2 21 1 52 9 70 8 19 14 47 14
63 0 30 -1 30 -37 24 -21 -3 -50 -6 -65 -6 -31 0 -104 -67 -114 -105 -3 -12
-16 -27 -29 -33 -38 -17 -105 -83 -105 -102 0 -9 -9 -25 -19 -34 -22 -20 -131
-197 -131 -213 0 -6 -17 -28 -38 -49 -46 -46 -62 -74 -62 -108 0 -17 -12 -34
-35 -53 -20 -15 -56 -64 -82 -108 -25 -44 -53 -84 -62 -89 -32 -19 -61 -56
-61 -77 0 -13 -11 -34 -24 -48 -13 -15 -38 -54 -56 -88 -17 -34 -42 -69 -56
-77 -13 -9 -24 -23 -24 -30 0 -8 -20 -32 -45 -54 -25 -22 -67 -73 -94 -115
-53 -81 -204 -267 -229 -281 -8 -5 -45 -39 -82 -75 -105 -104 -187 -144 -345
-171 -27 -4 -62 -11 -77 -15 -32 -8 -41 12 -30 64 6 27 14 37 42 46 35 12 43
21 59 66 13 36 100 79 161 79 44 0 48 2 69 40 21 39 22 42 6 66 -20 31 -61 47
-100 40 -16 -3 -59 -10 -94 -15 -59 -8 -67 -13 -104 -56 -22 -26 -59 -55 -82
-65 -36 -15 -48 -28 -73 -80 -17 -34 -45 -77 -62 -96 -35 -41 -40 -90 -12
-132 10 -15 36 -53 57 -86 l39 -58 43 6 c30 4 51 1 71 -11 25 -14 36 -15 68
-5 22 6 56 14 76 17 21 3 44 14 51 25 8 11 35 24 65 31 32 6 56 18 62 29 5 10
23 21 40 25 20 4 32 14 36 30 4 18 15 25 46 30 22 4 48 16 58 27 10 11 25 28
35 37 9 9 56 54 104 101 48 47 105 100 128 118 30 23 48 49 62 88 22 56 74
124 97 124 8 0 21 15 30 33 9 17 27 43 40 57 12 14 39 63 59 109 23 55 52 102
81 133 33 36 44 54 39 68 -5 16 -2 20 18 20 18 0 34 12 56 42 17 23 31 49 31
57 0 18 61 113 120 186 22 28 45 68 51 90 13 51 44 94 58 80 11 -11 -3 -66
-45 -173 -13 -34 -24 -71 -24 -82 0 -10 -4 -21 -9 -24 -5 -4 -12 -25 -16 -48
-8 -46 -60 -204 -73 -222 -14 -18 -52 -131 -52 -154 0 -12 -9 -26 -20 -32 -24
-13 -25 -28 -4 -51 15 -17 15 -20 0 -44 -9 -14 -21 -25 -26 -25 -18 0 -10 -67
10 -93 11 -14 40 -33 64 -42 41 -16 45 -16 87 3 24 11 54 23 66 27 34 9 73 45
73 66 0 11 13 27 31 38 17 11 39 30 48 44 9 13 25 37 35 52 11 15 20 35 21 44
0 10 15 33 33 52 117 125 233 266 239 288 3 14 32 57 65 94 37 43 58 77 58 93
0 18 12 32 47 54 26 16 48 28 51 26 7 -7 -19 -79 -39 -108 -11 -14 -19 -30
-19 -36 0 -5 -7 -16 -16 -23 -9 -8 -35 -52 -56 -99 -22 -47 -44 -92 -49 -100
-24 -40 -69 -131 -69 -141 0 -6 -9 -22 -20 -36 -13 -17 -20 -41 -20 -68 0 -26
-6 -48 -15 -55 -8 -7 -15 -23 -15 -37 0 -13 -5 -34 -12 -46 -14 -25 -20 -93
-19 -223 1 -92 15 -148 45 -174 9 -7 16 -25 16 -41 0 -40 39 -75 55 -49 13 21
24 9 19 -20 -8 -39 18 -80 50 -80 14 0 38 -11 54 -25 17 -14 35 -25 41 -25 6
0 28 -9 49 -20 28 -15 65 -22 126 -25 47 -2 95 -6 105 -10 11 -3 25 2 36 15
21 23 43 25 69 5 17 -13 23 -12 55 5 20 10 54 24 76 31 82 24 132 57 159 103
41 71 32 159 -19 172 -31 8 -79 -14 -145 -66 -75 -59 -94 -65 -199 -64 -104 2
-175 17 -206 44 -11 10 -32 20 -47 24 -21 5 -28 12 -28 30 0 14 -16 45 -35 70
-19 26 -35 51 -35 57 0 5 -7 23 -15 39 -12 24 -13 39 -5 76 8 33 7 50 0 59 -8
10 -6 24 8 52 10 21 17 45 15 55 -2 9 10 42 26 74 17 31 31 65 31 75 0 10 7
35 16 56 21 48 26 61 59 156 15 42 31 80 36 82 5 3 14 25 20 48 6 23 16 48 22
56 14 17 59 101 87 161 39 84 63 125 87 151 14 15 43 64 66 110 30 59 52 90
77 107 61 41 79 60 89 99 7 24 23 48 41 61 16 12 33 35 36 50 4 15 20 50 35
79 16 29 29 63 29 77 0 24 -4 26 -39 26 -22 0 -43 5 -46 10 -12 19 -64 10
-126 -22z"/>
<path d="M7398 4145 c-2 -3 -31 -6 -63 -8 -55 -4 -61 -7 -102 -51 -23 -26 -43
-55 -43 -63 0 -9 -9 -26 -19 -37 -26 -28 -18 -74 14 -82 13 -3 35 -19 49 -35
26 -28 63 -38 82 -20 5 5 27 14 48 21 47 15 116 85 116 118 0 28 14 56 41 83
25 25 24 34 -7 58 -25 19 -102 30 -116 16z"/>
<path d="M9084 4075 c-25 -26 -48 -61 -54 -84 -6 -24 -18 -42 -30 -46 -25 -8
-80 -71 -80 -92 0 -9 -18 -38 -40 -64 -22 -26 -45 -59 -51 -73 -7 -14 -15 -26
-19 -26 -3 0 -26 -29 -50 -66 -23 -36 -56 -72 -71 -80 -18 -9 -29 -23 -29 -36
0 -11 -16 -38 -35 -59 -19 -22 -35 -45 -35 -53 0 -7 -11 -21 -25 -30 -16 -10
-25 -26 -25 -42 0 -15 -12 -36 -29 -52 -16 -15 -43 -53 -61 -84 -17 -31 -40
-60 -50 -63 -10 -3 -28 -21 -39 -40 -11 -19 -25 -35 -30 -35 -5 0 -15 -16 -22
-35 -10 -28 -18 -35 -39 -35 -15 0 -35 -9 -46 -21 -28 -31 -84 -51 -121 -44
-29 5 -33 10 -33 37 0 32 55 141 96 190 12 15 25 40 28 56 4 15 25 52 47 81
23 30 47 71 54 92 8 21 30 53 49 70 23 19 40 46 47 72 6 23 17 57 25 75 19 44
18 65 -7 96 -18 22 -28 26 -75 26 -45 0 -58 -4 -76 -25 -23 -27 -58 -34 -58
-12 0 21 -44 57 -69 57 -12 0 -32 5 -44 12 -33 17 -227 19 -252 2 -11 -8 -29
-14 -41 -14 -13 0 -42 -15 -67 -34 -24 -19 -58 -37 -76 -41 -18 -4 -44 -23
-64 -45 -18 -21 -45 -42 -60 -45 -29 -8 -67 -48 -67 -71 0 -8 -18 -23 -40 -34
-51 -26 -74 -60 -65 -99 5 -24 2 -32 -17 -42 -39 -20 -77 -60 -83 -89 -7 -31
-29 -54 -62 -64 -12 -4 -26 -20 -32 -36 -7 -21 -17 -30 -32 -30 -12 0 -48 -16
-80 -36 -32 -19 -64 -32 -70 -28 -6 3 -24 -3 -40 -15 -35 -26 -63 -27 -89 -1
-31 31 -14 84 45 151 18 20 38 54 45 75 7 22 32 60 56 86 24 26 44 53 44 61 0
7 16 28 35 47 19 18 40 50 46 69 7 20 22 49 35 64 13 16 24 37 24 47 0 10 14
31 31 48 26 25 30 36 27 73 -3 43 -3 44 -43 47 -22 2 -48 10 -57 19 -33 30
-58 12 -228 -163 -21 -21 -30 -40 -30 -63 0 -41 -12 -64 -65 -123 -23 -26 -50
-62 -58 -80 -9 -18 -30 -49 -46 -68 -17 -19 -31 -45 -33 -59 -2 -16 -19 -36
-48 -56 -39 -27 -46 -38 -51 -75 -5 -34 -15 -52 -52 -86 -61 -59 -93 -59 -137
-3 -21 26 -38 38 -48 34 -8 -3 -35 4 -60 16 -25 12 -73 25 -106 28 -47 5 -62
10 -64 24 -2 10 4 19 15 23 35 11 48 21 53 44 4 15 17 27 40 35 19 6 40 22 47
35 6 13 29 29 50 36 21 7 39 18 42 25 8 24 63 77 86 83 14 4 32 20 41 39 23
45 44 67 65 67 20 0 89 61 89 79 0 6 8 11 19 11 20 0 71 36 71 51 0 5 15 30
34 56 38 54 47 83 35 105 -13 24 -67 29 -132 14 -32 -8 -67 -11 -78 -9 -10 3
-27 2 -36 -2 -32 -13 -134 -11 -146 3 -16 20 -87 52 -129 59 -28 4 -38 10 -38
24 0 26 -38 49 -81 49 -39 0 -104 -41 -114 -73 -4 -9 -20 -24 -37 -33 -30 -15
-78 -103 -78 -142 0 -18 -44 -67 -92 -103 -23 -17 -28 -28 -28 -63 0 -42 -2
-44 -69 -90 -71 -47 -81 -60 -81 -102 0 -19 -8 -28 -29 -35 -19 -7 -33 -21
-40 -40 -7 -22 -16 -29 -35 -29 -20 0 -29 -8 -40 -35 -8 -19 -21 -35 -28 -36
-7 0 -22 -3 -33 -5 -67 -13 -93 -15 -99 -5 -9 14 12 91 24 91 5 0 14 18 20 40
6 22 14 40 19 40 5 0 21 28 36 63 15 34 48 88 72 120 35 45 47 70 51 105 2 26
13 56 23 67 12 14 18 35 18 65 -1 25 2 59 6 77 9 42 -24 80 -56 63 -14 -8 -30
-8 -55 0 -35 12 -105 10 -135 -4 -18 -8 -49 49 -49 93 0 44 -33 77 -90 91 -45
11 -53 10 -85 -10 -20 -12 -48 -41 -63 -63 -33 -50 -34 -114 -3 -172 12 -22
21 -45 21 -52 0 -6 -18 -27 -40 -46 -47 -40 -100 -114 -100 -140 0 -15 -48
-73 -163 -195 -7 -7 -22 -21 -35 -30 -13 -10 -23 -30 -26 -51 -3 -29 -8 -36
-37 -45 -28 -9 -36 -18 -43 -48 -8 -30 -14 -38 -32 -38 -12 0 -52 -13 -87 -30
-91 -42 -101 -41 -92 13 11 62 35 118 68 156 16 19 41 60 56 90 15 31 41 77
59 104 18 26 40 69 48 96 7 26 27 64 42 83 15 20 35 53 44 74 22 53 42 149 34
162 -12 19 -77 32 -100 20 -32 -16 -66 -50 -83 -81 -13 -27 -16 -28 -32 -13
-10 9 -30 16 -45 16 -15 0 -46 9 -70 19 -23 11 -66 23 -95 27 -45 6 -57 4 -81
-15 -17 -12 -51 -24 -77 -28 -60 -7 -69 -12 -140 -72 -32 -26 -75 -56 -96 -66
-25 -11 -39 -26 -43 -44 -9 -36 -60 -88 -94 -94 -40 -9 -61 -34 -58 -70 3 -28
-3 -35 -46 -64 -55 -36 -66 -49 -66 -80 0 -20 -17 -68 -41 -115 -5 -10 -9 -28
-9 -40 0 -12 -5 -37 -12 -55 -9 -25 -9 -38 -1 -52 7 -10 9 -36 6 -59 -8 -60 1
-81 62 -146 45 -48 59 -57 79 -52 15 4 28 0 36 -9 16 -19 44 -19 74 0 21 14
24 14 36 0 20 -24 66 -19 88 10 12 15 30 25 45 25 13 0 40 13 60 29 20 15 50
34 67 41 16 7 30 15 30 19 0 3 5 13 10 21 7 12 18 4 57 -39 48 -53 49 -54 111
-57 50 -2 64 0 71 14 8 15 14 15 41 5 31 -11 34 -10 80 33 37 35 54 44 69 39
35 -11 54 2 105 70 36 47 59 68 85 76 40 13 61 34 61 61 0 10 22 42 50 71 27
29 50 56 50 61 0 4 11 17 25 28 14 11 25 27 25 37 0 10 9 26 20 36 11 10 20
29 20 41 0 16 10 28 29 38 31 16 41 34 41 72 0 16 8 28 25 36 14 6 28 22 31
34 8 33 32 50 46 36 17 -17 63 -15 78 3 20 24 30 18 30 -17 0 -39 -66 -170
-126 -249 -30 -39 -43 -65 -40 -77 4 -12 -7 -31 -34 -60 -22 -22 -40 -50 -40
-61 0 -11 -5 -32 -12 -45 -9 -22 -8 -29 8 -47 19 -21 19 -22 -3 -36 -28 -19
-29 -54 -3 -78 11 -10 20 -24 20 -31 0 -8 20 -23 45 -35 25 -12 48 -25 51 -30
8 -13 111 -11 134 3 16 11 22 9 35 -7 15 -20 15 -20 30 -1 8 11 15 26 15 33 0
8 13 13 35 13 26 0 49 10 86 40 28 22 54 40 59 40 4 0 17 16 29 35 11 19 26
35 33 35 17 0 85 65 93 88 3 11 17 24 30 30 20 9 25 19 25 46 0 26 5 36 20 41
11 4 27 20 35 36 9 16 27 36 40 45 19 12 25 25 25 50 0 28 5 37 28 47 32 14
42 25 42 51 0 10 15 35 33 56 17 20 37 44 42 54 9 16 13 15 50 -10 35 -25 50
-28 121 -30 115 -2 133 -19 70 -68 -19 -14 -37 -35 -41 -45 -3 -11 -25 -28
-48 -39 -23 -11 -86 -63 -140 -116 -54 -53 -105 -96 -113 -96 -8 0 -38 -23
-67 -51 -29 -28 -70 -63 -92 -78 -56 -37 -84 -72 -85 -104 0 -17 -9 -36 -22
-46 -25 -21 -19 -51 10 -51 10 0 23 -5 29 -11 16 -16 130 -13 178 4 29 10 56
12 100 6 111 -15 123 -21 155 -68 33 -51 31 -56 -32 -87 -92 -45 -115 -53
-183 -58 -73 -6 -124 -15 -214 -37 -40 -11 -60 -22 -79 -46 -17 -24 -33 -33
-52 -33 -28 0 -90 -42 -90 -61 0 -5 -11 -26 -24 -47 -20 -30 -26 -53 -29 -120
-4 -86 3 -108 37 -114 10 -2 23 -17 30 -35 6 -19 28 -43 51 -59 35 -24 51 -27
135 -29 101 -3 150 7 189 37 14 11 37 18 57 16 25 -1 38 5 58 29 15 17 50 47
79 67 86 58 197 171 197 200 0 16 10 32 30 46 25 17 30 28 30 60 0 32 7 46 37
75 26 25 36 43 35 64 0 24 6 34 34 50 20 12 41 36 49 55 23 53 63 57 118 12
24 -20 65 -45 91 -57 42 -18 59 -20 128 -14 68 6 81 10 95 31 13 20 21 23 48
18 29 -5 36 -2 64 34 21 25 46 43 72 51 26 8 44 21 51 37 7 15 19 24 35 24 18
0 23 -5 23 -27 0 -36 8 -47 47 -66 17 -9 34 -26 38 -37 9 -29 33 -50 57 -50
11 0 27 -9 36 -19 13 -15 34 -21 92 -25 41 -2 82 -7 91 -11 9 -3 23 1 32 9 19
19 31 20 58 4 17 -11 23 -10 26 0 8 22 33 41 47 36 8 -3 26 2 40 11 25 16 25
16 83 -42 77 -79 120 -93 200 -68 32 10 85 30 118 45 68 30 91 28 118 -14 10
-14 24 -26 31 -26 8 0 30 -18 49 -41 31 -36 39 -40 65 -35 20 5 33 2 42 -9 16
-19 64 -19 95 1 21 14 26 14 55 -1 38 -20 75 -13 90 15 7 14 21 20 45 20 21 0
44 9 63 25 49 41 91 27 106 -36 4 -17 15 -29 31 -33 13 -3 31 -19 39 -35 20
-38 72 -81 100 -81 12 0 30 -6 41 -14 21 -14 85 -26 165 -30 25 -1 54 -7 65
-13 11 -6 52 -10 92 -10 63 0 75 3 94 23 15 16 34 24 55 24 33 0 132 50 188
96 165 133 196 167 203 224 4 31 0 47 -18 75 -13 19 -32 35 -41 35 -9 0 -43
-25 -75 -56 -83 -81 -172 -154 -187 -154 -7 0 -25 -13 -40 -29 -22 -23 -39
-29 -87 -35 -33 -3 -67 -10 -76 -14 -16 -9 -60 -2 -163 29 -36 11 -80 19 -98
19 -18 0 -46 7 -62 15 -27 14 -30 20 -30 64 0 31 -5 53 -15 61 -8 7 -15 18
-15 24 0 6 6 4 13 -5 20 -25 75 -39 158 -39 43 0 89 -4 104 -10 18 -7 37 -6
68 5 23 8 54 15 69 15 15 0 30 4 33 10 3 5 25 15 48 21 24 6 57 27 80 49 25
26 49 40 70 42 29 3 32 7 39 45 3 22 15 61 26 85 40 92 45 108 38 151 -12 78
-88 197 -125 197 -8 0 -31 11 -50 25 -28 19 -50 25 -102 26 -37 1 -72 -1 -78
-6 -7 -4 -25 -2 -41 5 -24 10 -34 8 -76 -14 -27 -14 -61 -26 -76 -26 -16 0
-41 -12 -60 -29 -38 -33 -90 -66 -130 -82 -28 -11 -83 -89 -94 -133 -3 -13
-18 -36 -34 -51 -16 -15 -44 -57 -62 -93 -34 -66 -116 -146 -141 -137 -11 5
-27 -4 -88 -47 -20 -13 -34 -15 -78 -8 -34 6 -61 6 -73 -1 -31 -16 -57 -2 -64
37 -5 28 -1 42 22 75 16 22 32 45 35 52 3 7 15 31 27 54 12 23 22 49 22 57 0
8 14 31 30 49 17 19 30 39 30 44 0 5 18 27 41 48 22 22 50 58 61 80 11 22 26
46 32 54 6 8 20 36 32 63 11 27 37 67 57 89 20 22 45 56 56 77 10 20 28 46 40
56 12 11 21 27 21 36 0 10 8 28 19 41 10 13 21 34 25 47 4 13 21 36 37 53 16
16 29 40 29 53 0 15 13 35 33 51 43 37 56 62 57 112 0 66 -6 73 -63 73 -47 0
-54 -3 -93 -45z m-4645 -381 c12 -19 21 -41 21 -48 0 -16 -34 -78 -77 -142
-18 -26 -33 -60 -33 -75 0 -21 -12 -38 -51 -71 -28 -23 -57 -56 -65 -73 -33
-67 -47 -87 -112 -145 -49 -44 -72 -59 -88 -56 -11 3 -44 -3 -72 -14 -59 -23
-120 -26 -127 -7 -25 67 29 242 101 329 12 15 27 42 34 60 6 18 25 42 42 53
18 11 35 31 38 45 4 16 14 26 28 28 12 2 35 21 53 43 17 21 36 39 43 39 6 0
29 12 51 27 24 17 60 30 90 34 99 12 101 12 124 -27z m3620 -189 c18 -53 8
-109 -26 -143 -16 -16 -26 -37 -26 -55 0 -19 -9 -34 -29 -48 -21 -16 -28 -28
-28 -55 0 -30 -4 -35 -30 -40 -21 -5 -32 -15 -40 -38 -12 -34 -147 -146 -177
-146 -9 0 -25 -7 -35 -17 -16 -14 -22 -14 -43 -3 -19 10 -30 10 -54 1 -26 -11
-33 -10 -69 14 -22 15 -43 33 -46 41 -7 18 11 109 30 151 8 17 14 35 14 40 0
12 88 124 133 171 18 19 52 48 77 65 25 17 46 34 48 39 2 4 30 13 63 19 33 7
70 20 82 30 17 15 36 18 82 16 l60 -2 14 -40z m1625 -289 c20 -24 36 -50 36
-56 0 -40 -118 -150 -175 -164 -16 -4 -37 -14 -46 -22 -19 -17 -179 -31 -222
-21 -24 7 -40 36 -28 54 3 5 22 19 42 31 19 12 40 32 46 44 6 13 36 36 68 52
31 15 59 34 61 41 6 15 44 31 95 39 20 4 44 15 54 26 10 11 21 20 25 20 4 0
24 -20 44 -44z m-3566 -641 c3 -27 -8 -40 -89 -115 -99 -92 -132 -108 -235
-116 -51 -3 -64 -1 -79 16 -24 27 -14 59 35 108 27 27 46 38 59 35 13 -3 29 6
47 27 24 27 33 31 59 25 16 -4 52 -8 80 -8 46 -2 51 0 70 30 25 40 49 39 53
-2z"/>
<path d="M7756 3384 c-9 -23 -8 -24 14 -24 13 0 20 7 20 20 0 24 -25 27 -34 4z"/>
<path d="M4392 1831 c-72 -5 -87 -9 -103 -30 -10 -13 -19 -30 -19 -38 0 -30
30 -69 70 -92 l42 -23 -4 -157 -4 -156 -28 -3 c-31 -4 -56 13 -56 37 0 10 -11
28 -25 41 -14 13 -25 30 -25 37 0 8 -14 26 -31 40 -17 15 -35 36 -40 47 -5 12
-29 48 -54 81 -24 33 -65 91 -91 129 l-47 68 -66 -7 c-102 -10 -133 -10 -174
-2 -32 7 -40 5 -62 -17 -19 -19 -25 -36 -25 -69 0 -45 18 -70 68 -96 17 -9 21
-17 16 -37 -3 -13 -1 -31 6 -38 8 -10 8 -20 1 -34 -9 -17 -11 -34 -11 -139 0
-25 -8 -56 -20 -75 -24 -40 -25 -60 -4 -104 15 -31 15 -36 0 -59 -9 -13 -16
-35 -16 -49 0 -25 -64 -96 -87 -96 -17 0 -43 -41 -43 -67 0 -13 9 -32 19 -42
18 -18 33 -19 197 -17 160 3 179 5 191 22 27 36 12 75 -44 119 -52 40 -53 40
-47 85 4 25 8 74 11 110 13 194 27 225 74 158 13 -18 36 -45 51 -60 16 -14 28
-37 28 -50 0 -28 23 -52 58 -63 13 -4 27 -18 32 -31 5 -13 21 -29 35 -36 18
-8 25 -19 25 -39 0 -18 9 -34 27 -47 18 -13 27 -29 28 -48 0 -21 6 -29 25 -34
16 -4 31 -19 42 -41 24 -52 42 -64 75 -50 16 6 41 10 57 8 23 -1 32 4 42 23
24 48 39 150 49 340 6 124 11 180 24 300 l14 115 58 57 c34 32 59 65 59 77 0
33 -19 38 -185 55 -16 2 -68 0 -113 -3z"/>
<path d="M5130 1818 c-30 -5 -71 -9 -90 -9 -19 0 -37 -3 -40 -7 -17 -22 -73
-52 -89 -47 -11 3 -24 -1 -32 -11 -8 -10 -36 -35 -63 -56 -70 -56 -146 -163
-146 -208 0 -20 -7 -45 -14 -56 -22 -31 -26 -286 -5 -311 21 -25 64 -94 72
-116 4 -10 26 -26 51 -36 24 -11 47 -24 50 -29 3 -6 23 -16 44 -22 20 -7 53
-23 74 -37 33 -22 47 -25 140 -25 194 -2 267 4 280 20 7 8 31 23 53 33 94 44
195 132 195 169 0 11 11 36 25 56 41 61 54 126 52 256 -2 94 -6 121 -20 136
-9 10 -17 27 -17 38 0 28 -84 143 -125 171 -19 13 -35 28 -35 33 0 4 -15 12
-32 15 -18 4 -42 15 -53 25 -24 21 -190 33 -275 18z m130 -205 c75 -73 84 -83
99 -120 32 -79 15 -265 -34 -363 -56 -110 -169 -160 -247 -108 -53 36 -109
104 -120 145 -19 70 -24 174 -11 200 7 13 10 36 7 52 -4 18 0 32 10 40 9 8 16
27 16 43 0 17 6 31 15 35 9 3 25 23 36 44 11 22 25 39 33 39 7 0 21 9 31 20
17 18 26 20 74 14 45 -5 63 -13 91 -41z"/>
<path d="M3450 1784 c-19 -7 -60 -13 -91 -13 -31 -1 -78 -8 -105 -16 -27 -8
-60 -15 -74 -15 -61 0 -65 -49 -11 -115 l39 -48 -5 -96 c-4 -65 -10 -100 -19
-107 -8 -6 -54 -15 -102 -18 -48 -4 -106 -11 -127 -16 -54 -12 -67 1 -55 55 5
22 14 65 20 95 11 58 45 104 109 149 37 26 42 68 11 96 -16 15 -30 17 -82 11
-35 -4 -106 -10 -159 -15 -53 -5 -105 -14 -117 -20 -11 -6 -34 -11 -49 -11
-37 0 -53 -16 -53 -55 0 -34 27 -69 60 -80 18 -6 20 -13 17 -70 -2 -35 -8 -70
-14 -77 -6 -7 -14 -53 -18 -103 -3 -49 -10 -110 -15 -135 -5 -25 -16 -92 -25
-150 l-16 -104 -55 -51 c-29 -28 -54 -56 -54 -63 0 -6 11 -19 25 -28 20 -13
42 -16 100 -12 41 3 80 10 87 16 9 7 18 6 32 -4 22 -16 72 -19 80 -5 3 5 34
12 68 16 77 8 108 26 108 61 0 33 -33 80 -70 99 -26 14 -28 17 -17 45 9 23 9
35 0 48 -8 14 -8 32 0 68 12 54 23 67 51 60 11 -3 34 1 52 9 17 7 47 14 65 14
19 1 54 3 79 4 l45 2 3 -53 c2 -35 -2 -59 -12 -74 -9 -12 -16 -37 -16 -55 0
-25 -9 -39 -45 -69 -52 -42 -60 -80 -23 -114 33 -31 66 -35 119 -17 26 10 68
17 93 17 25 0 55 5 66 12 15 10 22 9 39 -6 16 -15 29 -17 66 -12 78 12 85 77
15 143 -35 31 -39 41 -39 82 0 135 5 216 16 236 6 11 12 31 12 45 3 75 20 220
30 253 7 22 22 42 35 48 24 11 76 84 76 106 0 7 -9 22 -20 33 -23 23 -76 25
-130 4z"/>
<path d="M5792 1779 c-51 -15 -58 -45 -27 -107 22 -45 30 -52 55 -52 39 0 44
-12 21 -52 -16 -27 -20 -60 -25 -178 -7 -178 -16 -261 -28 -277 -5 -7 -8 -33
-6 -59 2 -38 -1 -48 -17 -58 -51 -28 -87 -60 -96 -84 -10 -24 -7 -30 27 -60
34 -29 43 -32 76 -27 28 5 50 1 84 -15 40 -20 51 -21 84 -11 20 6 51 8 67 5
18 -4 33 -1 37 5 9 13 48 15 62 2 5 -5 91 -12 191 -16 173 -6 182 -6 201 13
24 24 35 83 30 166 -3 56 -5 61 -36 79 -28 17 -37 17 -63 7 -17 -7 -44 -30
-61 -51 -32 -40 -36 -41 -143 -40 -54 0 -145 13 -151 22 -3 5 3 31 12 58 16
43 16 54 4 90 -12 36 -11 43 4 60 11 12 16 31 14 52 -1 19 1 98 6 176 l9 142
51 45 c28 25 59 52 68 60 51 44 -57 133 -129 105 -14 -5 -29 -6 -34 -3 -18 11
-253 13 -287 3z"/>
<path d="M6980 1689 c-24 -5 -58 -15 -75 -23 -16 -8 -49 -20 -72 -27 -24 -7
-43 -15 -43 -19 0 -4 -25 -20 -56 -36 -57 -29 -84 -56 -84 -85 0 -9 -7 -22
-15 -29 -8 -7 -15 -25 -15 -40 0 -15 -7 -33 -15 -40 -35 -29 -66 -242 -40
-276 8 -11 15 -36 15 -56 0 -23 8 -47 24 -65 13 -15 33 -47 45 -71 19 -37 84
-92 110 -92 5 0 14 -7 21 -15 15 -18 121 -69 175 -83 66 -18 119 -22 153 -13
20 6 42 6 61 -2 23 -9 41 -6 97 12 38 12 93 34 123 49 68 33 177 139 186 181
4 17 11 33 16 37 17 10 37 71 32 96 -3 14 3 40 12 58 9 18 13 39 9 48 -4 10
-10 35 -15 57 -21 103 -27 126 -43 149 -9 14 -16 30 -16 37 0 18 -69 92 -154
164 -61 51 -84 65 -101 61 -14 -4 -28 1 -39 13 -14 15 -33 18 -134 18 -64 1
-137 -3 -162 -8z m180 -160 c0 -6 25 -36 56 -66 33 -33 65 -77 80 -111 21 -48
24 -67 21 -148 -2 -71 -7 -98 -21 -113 -9 -10 -19 -37 -21 -59 -5 -54 -28 -95
-72 -129 -49 -37 -122 -39 -173 -4 -36 25 -110 113 -110 131 0 6 -7 21 -15 34
-22 34 -30 152 -15 217 25 110 52 169 98 215 44 43 47 44 109 44 39 0 63 -4
63 -11z"/>
<path d="M2382 1661 c-8 -4 -49 -7 -93 -4 -56 2 -87 -1 -107 -11 -15 -8 -52
-19 -82 -24 -30 -6 -56 -15 -58 -21 -2 -6 -11 -11 -21 -11 -16 0 -30 -9 -91
-57 -15 -13 -32 -23 -38 -23 -25 0 -98 -100 -125 -171 -15 -41 -37 -94 -49
-117 -18 -37 -20 -47 -9 -64 10 -16 10 -23 -3 -36 -19 -22 -20 -148 0 -179 8
-12 14 -32 14 -44 0 -47 100 -153 160 -169 25 -7 59 -19 77 -28 26 -13 34 -13
47 -3 9 8 26 11 40 7 32 -8 190 45 220 73 12 12 29 21 37 21 8 0 42 27 77 59
54 51 62 63 62 94 0 27 -6 39 -21 48 -28 15 -80 4 -109 -24 -14 -12 -51 -39
-84 -61 -49 -31 -63 -36 -78 -27 -10 6 -23 11 -29 11 -6 0 -30 16 -54 36 -61
49 -78 110 -69 237 5 65 12 100 25 119 11 14 19 39 19 55 0 35 44 80 108 113
36 17 53 20 96 15 65 -8 70 -12 82 -54 12 -43 32 -56 76 -47 59 11 67 23 79
119 13 99 4 137 -32 137 -11 0 -28 9 -37 20 -11 13 -22 17 -30 11z"/>
<path d="M1522 1559 c-29 -5 -63 -14 -75 -21 -12 -7 -47 -15 -77 -19 -30 -4
-75 -12 -100 -19 -25 -6 -72 -11 -105 -12 -80 -1 -105 -22 -105 -89 0 -36 6
-55 24 -76 l25 -29 -15 -105 c-21 -147 -35 -265 -38 -330 -2 -31 -9 -65 -15
-77 -6 -11 -11 -31 -11 -44 0 -13 -14 -39 -30 -58 -52 -59 -69 -93 -62 -122 5
-23 48 -34 76 -19 12 7 33 11 47 9 44 -5 119 13 155 37 28 19 40 22 60 15 15
-6 49 -6 87 -1 151 23 213 34 227 41 18 8 33 52 48 133 13 66 4 102 -27 112
-28 9 -76 -19 -90 -52 -14 -35 -78 -63 -159 -70 l-59 -6 -6 64 c-3 35 -3 81 1
102 6 36 11 40 60 56 54 19 62 16 75 -22 10 -27 35 -32 73 -14 22 11 35 26 39
44 4 15 11 38 16 51 5 13 6 34 3 48 -4 14 -1 44 6 68 14 52 3 82 -35 92 -43
11 -75 -4 -91 -41 -16 -38 -40 -55 -78 -55 -34 0 -45 40 -21 76 17 26 17 79 1
114 -5 13 5 18 52 28 96 20 108 17 137 -28 26 -41 44 -48 88 -31 31 12 35 22
49 138 11 89 10 97 -7 109 -21 15 -63 16 -143 3z"/>
<path d="M8130 1551 c-30 -4 -65 -12 -77 -19 -12 -7 -30 -12 -41 -12 -11 0
-31 -9 -45 -20 -14 -11 -33 -20 -44 -20 -22 0 -109 -83 -130 -124 -8 -17 -21
-38 -28 -46 -43 -54 -77 -279 -49 -334 8 -16 14 -44 14 -63 0 -23 8 -41 25
-57 14 -13 55 -59 90 -102 71 -85 135 -134 176 -134 15 0 32 -7 39 -16 36 -43
165 -61 202 -28 16 15 19 14 44 -5 32 -25 71 -27 102 -5 13 9 31 14 41 11 10
-2 29 2 42 9 13 7 36 13 50 14 55 0 68 33 73 177 1 35 7 47 34 70 31 26 33 31
26 71 -8 53 -39 77 -87 70 -31 -5 -60 -2 -192 22 -66 12 -118 14 -146 5 -15
-5 -19 -16 -19 -49 0 -47 27 -91 64 -106 17 -6 21 -16 21 -51 0 -36 -4 -44
-20 -47 -11 -2 -28 -11 -37 -20 -16 -14 -20 -14 -35 0 -10 9 -29 19 -43 23
-53 16 -111 91 -137 179 -16 54 -14 131 8 251 17 90 23 101 89 149 80 59 113
66 149 32 15 -14 36 -26 47 -26 10 0 38 -19 62 -41 31 -30 42 -48 42 -70 0
-22 10 -39 36 -63 31 -28 40 -32 76 -27 22 3 44 13 48 21 14 27 30 135 23 158
-3 13 0 34 7 48 18 32 -2 71 -40 79 -15 3 -37 17 -49 30 -14 17 -31 25 -53 25
-17 0 -40 8 -50 17 -16 14 -24 15 -50 5 -28 -10 -33 -9 -45 8 -12 17 -25 20
-86 19 -40 -1 -97 -5 -127 -8z"/>
<path d="M8761 1459 c-33 -13 -35 -34 -10 -95 16 -38 32 -60 52 -71 25 -12 28
-19 22 -41 -16 -65 -22 -129 -14 -150 5 -13 6 -29 2 -35 -11 -18 -24 -190 -23
-298 2 -102 -2 -111 -52 -123 -69 -16 -77 -69 -16 -120 38 -33 46 -35 102 -34
60 1 165 -14 185 -27 23 -13 123 -24 147 -15 19 8 24 16 24 46 0 31 -8 45 -53
90 -53 53 -54 54 -52 111 1 32 7 75 14 97 8 22 11 55 7 77 -4 22 -2 48 4 59 6
10 11 81 11 157 1 110 4 142 17 156 8 9 21 17 27 17 27 0 65 41 65 70 0 41
-35 64 -132 84 -46 10 -107 25 -137 33 -62 18 -158 23 -190 12z"/>
<path d="M898 1425 c-2 -3 -45 -5 -94 -6 -52 -1 -104 -8 -124 -16 -19 -8 -57
-17 -84 -19 -27 -3 -57 -9 -67 -14 -10 -6 -32 -10 -49 -10 -18 0 -43 -9 -57
-20 -17 -13 -41 -20 -69 -20 -34 0 -47 -5 -63 -26 -12 -15 -21 -36 -21 -48 0
-12 -7 -32 -16 -44 -9 -13 -13 -33 -10 -46 3 -13 -1 -32 -10 -45 -14 -20 -14
-24 0 -46 30 -45 53 -50 98 -19 22 15 53 47 68 69 32 46 75 79 90 70 14 -9 12
-43 -6 -94 -8 -24 -16 -79 -18 -123 -2 -43 -10 -85 -16 -93 -8 -9 -10 -29 -6
-52 3 -21 6 -42 5 -48 0 -5 -3 -48 -6 -94 -5 -85 -5 -85 -54 -140 -58 -66 -66
-109 -24 -137 25 -16 30 -15 128 15 56 18 115 37 131 42 16 5 43 9 61 9 77 0
86 103 14 154 -19 13 -21 21 -16 103 10 166 16 228 28 296 6 37 8 79 5 92 -6
25 41 136 64 150 5 3 23 -4 39 -16 25 -18 29 -26 24 -55 -5 -29 -2 -35 20 -45
14 -6 37 -9 52 -5 46 12 62 38 69 114 4 39 11 84 15 99 5 16 4 38 0 51 -7 18
-16 22 -52 22 -24 0 -46 -2 -49 -5z"/>
<path d="M9333 1346 c-45 -20 -52 -55 -23 -116 13 -27 29 -51 36 -54 11 -4 13
-41 8 -193 -11 -390 -14 -407 -69 -421 -28 -8 -30 -12 -33 -56 -5 -74 18 -92
118 -98 43 -3 86 -10 94 -17 9 -8 28 -11 43 -8 17 3 36 -2 53 -14 25 -19 60
-18 60 2 0 14 22 11 40 -6 18 -16 115 -45 175 -52 22 -3 44 -9 49 -14 13 -12
73 -11 97 1 26 15 45 64 53 142 8 71 -7 119 -40 132 -25 10 -85 -14 -121 -48
-32 -29 -35 -29 -80 -19 -27 7 -69 14 -95 18 -25 3 -51 12 -57 19 -13 15 -21
190 -10 207 5 8 18 7 45 -2 49 -17 64 -28 74 -55 16 -41 146 -51 152 -12 1 7
2 29 4 48 1 19 7 64 12 100 12 77 0 103 -54 126 -38 16 -59 10 -101 -28 -13
-12 -27 -17 -34 -12 -7 4 -29 7 -49 6 l-37 -3 2 103 c1 121 1 121 97 87 88
-30 95 -35 122 -77 25 -40 93 -79 120 -69 9 4 17 25 21 54 3 26 11 71 17 100
9 44 9 56 -6 77 -33 52 -53 58 -437 131 -36 6 -71 15 -77 19 -24 15 -137 16
-169 2z"/>
<path d="M10292 1137 c-16 -17 -30 -23 -47 -19 -20 3 -34 -6 -73 -48 -39 -42
-51 -64 -61 -111 l-14 -59 46 -93 c25 -50 53 -100 64 -109 10 -9 37 -35 60
-57 23 -23 46 -41 52 -41 25 0 109 -82 136 -134 24 -46 27 -60 19 -83 -8 -25
-15 -28 -49 -27 -22 0 -65 5 -95 10 -50 8 -55 12 -60 39 -3 17 -19 58 -34 93
-30 65 -52 80 -98 69 -54 -14 -59 -26 -61 -131 l-2 -97 32 -29 c18 -16 50 -34
72 -40 22 -6 49 -22 59 -35 29 -37 99 -65 144 -58 25 3 44 0 59 -11 29 -20 58
-20 83 -1 11 8 29 15 39 15 25 0 112 57 152 100 29 31 30 32 30 144 0 108 -1
113 -27 145 -17 19 -28 44 -28 62 0 22 -7 32 -30 44 -16 9 -30 20 -30 25 0 5
-24 25 -52 44 -29 19 -64 45 -78 58 -14 13 -43 33 -64 44 -57 27 -79 62 -71
107 6 33 11 37 37 37 28 0 80 -30 105 -60 7 -8 15 -30 19 -47 9 -49 66 -95
112 -91 l37 3 8 69 c12 95 2 150 -30 176 -14 11 -33 20 -43 20 -9 0 -25 8 -34
19 -18 20 -114 55 -181 66 -22 3 -49 9 -60 11 -13 3 -29 -4 -43 -19z"/>
</g>
</svg>
