<?xml version="1.0" standalone="no"?>
<!DOCTYPE svg PUBLIC "-//W3C//DTD SVG 20010904//EN"
 "http://www.w3.org/TR/2001/REC-SVG-20010904/DTD/svg10.dtd">
<svg version="1.0" xmlns="http://www.w3.org/2000/svg"
 width="1096.000000pt" height="249.000000pt" viewBox="0 0 1096.000000 249.000000"
 preserveAspectRatio="xMidYMid meet">
<metadata>
Created by potrace 1.16, written by Peter Selinger 2001-2019
</metadata>
<g transform="translate(0.000000,249.000000) scale(0.100000,-0.100000)"
fill="#fff" stroke="none">
<path d="M1000 2410 c-325 -45 -540 -139 -646 -282 -108 -147 -126 -318 -53
-494 53 -128 138 -203 345 -307 125 -62 289 -118 569 -192 326 -86 405 -115
464 -168 67 -61 76 -162 20 -229 -83 -101 -358 -117 -529 -30 -69 34 -114 98
-132 184 l-13 61 -195 -6 c-107 -4 -288 -10 -402 -14 -238 -7 -221 2 -188
-105 61 -198 158 -332 320 -441 241 -164 681 -258 1066 -228 86 6 192 19 236
27 285 54 503 172 612 332 57 84 83 155 98 275 10 82 9 106 -6 183 -30 154
-85 244 -209 342 -153 121 -359 196 -847 311 -140 33 -271 66 -290 75 -119 52
-159 130 -107 207 35 53 86 73 198 77 187 8 298 -54 331 -185 l10 -43 83 0
c113 0 689 21 693 25 2 2 -4 34 -14 72 -70 283 -315 460 -739 534 -94 17 -172
22 -365 24 -135 2 -274 0 -310 -5z"/>
<path d="M2958 2028 c-2 -194 -2 -692 0 -1106 l2 -752 420 0 420 0 0 450 0
450 318 -2 317 -3 3 -447 2 -448 414 0 414 0 7 83 c3 45 5 541 3 1102 l-3
1020 -417 3 -418 2 -2 -387 -3 -388 -317 -3 -318 -2 -2 387 -3 388 -417 3
-417 2 -3 -352z"/>
<path d="M5810 1625 c0 -501 4 -772 11 -807 30 -148 104 -284 213 -394 68 -67
98 -89 186 -132 114 -57 265 -100 432 -123 120 -17 502 -18 635 -1 455 57 745
243 841 538 40 122 43 205 40 954 l-3 715 -407 3 -408 2 0 -755 c0 -519 -3
-770 -11 -800 -15 -59 -67 -117 -131 -146 -49 -22 -66 -24 -208 -24 -146 0
-158 1 -211 26 -33 16 -68 42 -83 62 -57 74 -56 65 -56 884 l0 753 -420 0
-420 0 0 -755z"/>
<path d="M8690 1275 l0 -1105 1005 0 1005 0 0 245 0 245 -592 2 -593 3 1 195
1 195 464 5 464 5 0 240 0 240 -460 5 -460 5 0 48 c1 26 2 105 3 177 l2 130
568 2 567 3 0 230 0 230 -987 3 -988 2 0 -1105z"/>
</g>
</svg>
