<?xml version="1.0" standalone="no"?>
<!DOCTYPE svg PUBLIC "-//W3C//DTD SVG 20010904//EN"
 "http://www.w3.org/TR/2001/REC-SVG-20010904/DTD/svg10.dtd">
<svg version="1.0" xmlns="http://www.w3.org/2000/svg"
 width="2400.000000pt" height="2400.000000pt" viewBox="0 0 800.000000 800.000000"
 preserveAspectRatio="xMidYMid meet">
<metadata>
Created by potrace 1.16, written by Peter Selinger 2001-2019
</metadata>
<g transform="translate(0.000000,800.000000) scale(0.100000,-0.100000)"
fill="#fff" stroke="none">
<path d="M4066 7859 c-9 -46 -7 -232 3 -247 5 -8 17 -12 27 -10 16 3 20 15 24
73 5 67 6 70 30 70 24 0 25 -3 30 -70 5 -67 6 -70 30 -70 24 0 25 3 28 70 3
98 -10 120 -71 119 l-47 0 0 48 c0 44 -2 48 -24 48 -18 0 -25 -7 -30 -31z"/>
<path d="M3968 7853 c-10 -2 -18 -13 -18 -24 0 -11 -7 -22 -15 -25 -8 -4 -15
-16 -15 -29 0 -13 7 -25 15 -29 11 -4 15 -21 15 -64 0 -67 13 -85 57 -80 35 4
45 37 14 45 -18 4 -21 13 -21 54 0 42 3 49 20 49 15 0 20 7 20 25 0 18 -5 25
-20 25 -16 0 -20 7 -20 30 0 17 -3 29 -7 29 -5 -1 -16 -3 -25 -6z"/>
<path d="M4286 7769 c-46 -54 -31 -140 29 -165 56 -23 124 6 95 40 -9 12 -17
12 -35 4 -18 -8 -28 -8 -40 2 -27 23 -16 30 45 30 l60 0 0 35 c0 82 -101 117
-154 54z m78 -15 c28 -11 18 -34 -14 -34 -32 0 -37 9 -18 28 14 14 12 14 32 6z"/>
<path d="M5322 7732 c-12 -2 -20 -8 -17 -13 8 -12 62 -12 69 0 7 11 -21 18
-52 13z"/>
<path d="M4853 7723 c9 -2 23 -2 30 0 6 3 -1 5 -18 5 -16 0 -22 -2 -12 -5z"/>
<path d="M5162 7721 c-10 -6 -7 -10 13 -15 30 -8 65 0 65 15 0 11 -60 12 -78
0z"/>
<path d="M4460 7688 c0 -21 9 -41 27 -60 47 -49 32 -53 -255 -53 -141 0 -265
4 -274 9 -16 7 -18 3 -18 -31 0 -21 -6 -45 -12 -51 -10 -10 -12 -132 -10 -530
l3 -517 35 -35 34 -35 203 -5 c158 -4 209 -2 233 9 28 12 34 12 60 -7 25 -18
55 -22 219 -32 105 -6 208 -13 230 -15 29 -3 49 2 70 15 32 21 142 28 161 11
7 -7 216 -35 505 -66 37 -4 52 -1 82 19 l37 25 197 -11 198 -12 43 28 43 27
112 -36 c62 -19 117 -35 123 -35 6 0 22 8 35 19 19 15 49 20 149 26 118 7 132
5 257 -24 118 -28 136 -30 160 -18 16 7 51 19 79 26 50 12 53 11 95 -18 l44
-30 119 15 c139 17 203 38 280 89 165 109 238 296 216 547 -20 235 -21 237
-57 291 -101 150 -223 245 -343 267 -132 24 -167 24 -187 1 -24 -29 -41 -27
-120 15 -37 20 -81 43 -96 51 -21 12 -51 14 -115 11 -85 -4 -134 -20 -235 -74
-26 -15 -30 -14 -77 15 -46 28 -58 31 -136 31 -71 0 -90 4 -111 20 -33 25 -63
25 -96 0 -17 -14 -23 -26 -20 -40 7 -27 43 -27 43 0 0 25 25 36 45 20 38 -32
1 -90 -58 -90 -27 0 -28 -1 -13 -22 9 -12 16 -35 16 -51 0 -19 4 -27 13 -24 7
2 12 20 12 42 0 31 4 39 24 47 14 5 31 18 38 28 12 17 26 20 88 20 l73 0 16
-72 c9 -40 19 -84 23 -97 6 -22 4 -23 -20 -17 -20 5 -29 1 -40 -15 -16 -22
-18 -20 -43 26 -18 34 -94 4 -94 -38 -1 -12 -6 -32 -14 -45 -12 -23 -13 -23
-28 17 -13 33 -21 41 -42 41 -16 0 -26 6 -26 15 0 8 -9 15 -20 15 -24 0 -38
26 -22 42 15 15 -3 48 -27 48 -10 0 -26 -9 -36 -20 -23 -25 -32 -25 -45 0 -13
24 9 73 40 90 34 18 22 28 -20 17 -54 -15 -72 1 -47 42 9 16 17 40 17 53 0 25
27 58 47 58 6 0 17 -7 24 -16 11 -14 10 -18 -6 -30 -24 -18 -9 -36 23 -27 26
6 40 48 25 72 -17 27 -59 36 -98 22 -29 -10 -39 -9 -64 4 -45 23 -103 20 -129
-8 -26 -28 -28 -44 -6 -68 17 -19 12 -39 -11 -39 -7 0 -26 11 -42 24 -41 34
-75 41 -112 21 -41 -21 -31 -36 14 -23 38 12 70 -3 61 -28 -3 -8 3 -18 14 -24
59 -32 203 15 169 56 -6 8 -19 14 -29 14 -28 0 -45 27 -30 45 19 23 68 18 95
-10 75 -74 -32 -179 -165 -161 -201 26 -271 38 -324 55 -110 35 -230 70 -306
90 -41 11 -89 25 -106 31 -18 6 -54 10 -80 8 l-49 -3 38 -17 c74 -34 36 -78
-55 -64 l-42 7 25 -20 c14 -11 37 -23 52 -26 84 -21 113 -143 32 -133 -24 2
-31 8 -33 31 -2 19 1 27 12 27 9 0 16 3 16 8 0 14 -38 31 -58 25 -14 -3 -33 7
-64 35 -57 52 -121 88 -188 106 -30 8 -77 24 -105 37 -37 17 -75 23 -150 27
-55 2 -108 9 -117 14 -15 7 -18 4 -18 -24z m272 -134 c15 -8 34 -14 43 -14 30
0 96 -40 93 -57 -6 -32 -35 -39 -67 -15 -16 12 -36 19 -44 16 -8 -3 -19 2 -26
10 -10 12 -17 13 -31 4 -26 -16 -47 -4 -70 42 l-21 41 48 -7 c26 -3 60 -13 75
-20z m532 11 c22 -22 9 -45 -24 -45 -39 0 -48 19 -20 42 27 22 25 22 44 3z
m1882 -66 c42 -25 60 -49 67 -85 3 -18 9 -43 13 -58 5 -23 3 -26 -20 -26 -15
0 -29 -7 -32 -15 -4 -9 -15 -20 -25 -25 -15 -9 -23 -4 -44 30 -33 52 -47 57
-95 35 -33 -15 -44 -16 -70 -5 -34 14 -55 3 -71 -37 -7 -19 -16 -23 -54 -23
-25 0 -45 2 -45 4 0 3 4 16 10 31 7 19 6 32 -5 49 -21 32 -5 73 32 82 15 3 47
17 70 30 78 45 206 51 269 13z m-2096 -14 c17 -18 30 -23 47 -19 18 5 22 3 17
-9 -3 -8 -1 -38 4 -66 9 -49 8 -51 -13 -51 -12 0 -30 -9 -40 -20 -20 -22 -32
-18 -45 16 -10 26 -47 32 -92 15 -24 -9 -24 -9 -21 61 1 39 4 72 6 74 4 4 77
20 103 23 6 1 21 -10 34 -24z m-837 5 c82 -12 138 -39 170 -82 32 -44 38 -74
26 -124 l-11 -42 -59 -6 c-35 -4 -66 -3 -78 4 -13 7 -22 7 -26 0 -12 -19 -22
-10 -34 30 -27 90 -123 96 -157 9 -19 -46 -44 -52 -44 -10 0 17 -8 34 -20 42
-19 13 -20 18 -8 96 l12 82 40 4 c80 7 122 6 189 -3z m425 -11 c10 -15 21 -20
42 -17 26 4 28 2 34 -40 3 -25 6 -59 6 -77 0 -29 -3 -32 -21 -28 -15 4 -27 -1
-40 -18 l-18 -24 -16 38 c-18 44 -32 46 -90 12 -45 -27 -64 -21 -46 13 5 10
13 50 16 90 l8 72 56 0 c46 0 59 -4 69 -21z m866 1 c77 -6 141 -12 142 -13 2
-1 -3 -43 -10 -92 -8 -61 -16 -89 -24 -87 -7 1 -26 -5 -43 -14 -17 -8 -32 -14
-34 -12 -1 2 -8 13 -14 26 -7 13 -21 22 -35 22 -13 0 -29 7 -36 15 -17 21 -44
19 -65 -5 -25 -28 -42 -25 -50 7 -4 16 -11 34 -17 40 -16 19 -53 16 -73 -7
-10 -11 -24 -20 -32 -20 -19 0 -16 47 3 54 14 5 16 16 11 58 l-6 51 72 -7 c40
-3 135 -11 211 -16z m565 -21 l94 2 -7 -68 c-10 -102 -15 -113 -42 -113 -13 0
-24 -4 -24 -9 0 -5 -7 -12 -16 -15 -10 -4 -21 4 -32 24 -24 42 -44 45 -108 16
-31 -14 -64 -26 -73 -26 -9 0 -25 17 -36 38 -19 34 -24 37 -63 36 l-42 -1 0
53 0 53 58 6 c31 3 64 8 72 10 8 2 40 1 70 -3 30 -3 97 -5 149 -3z m1391 -4
c8 -10 30 -15 62 -15 90 0 152 -56 146 -133 -3 -39 -5 -42 -33 -45 -22 -2 -37
4 -55 23 -25 27 -50 31 -97 15 -19 -7 -38 -7 -55 -1 -29 11 -37 6 -61 -32 -24
-37 -64 -35 -59 3 4 37 5 111 1 140 -3 21 0 25 19 22 13 -1 35 7 49 18 30 24
66 26 83 5z m-1172 -131 c-4 -24 -24 -29 -32 -8 -8 20 13 49 27 35 5 -5 7 -17
5 -27z m-974 -27 c10 -57 30 -61 78 -18 l33 29 53 -45 52 -45 41 16 c23 9 44
15 47 12 6 -7 -17 -91 -84 -302 -30 -94 -54 -176 -54 -182 0 -9 24 -11 96 -6
l95 7 -6 -49 c-3 -27 -10 -89 -15 -138 -5 -49 -12 -91 -15 -94 -3 -3 -62 0
-132 6 -71 6 -163 14 -207 18 l-78 7 6 62 c8 81 30 162 100 364 43 126 53 167
44 173 -7 4 -46 5 -87 1 l-74 -6 6 86 c5 75 10 92 34 122 37 47 56 42 67 -18z
m-308 -2 c7 -41 32 -47 63 -14 11 12 26 19 34 16 15 -5 18 -66 33 -538 l7
-207 -74 -12 c-41 -6 -81 -14 -90 -16 -20 -6 -25 65 -35 499 -6 291 -4 307 37
307 13 0 20 -10 25 -35z m2080 -7 c17 -38 23 -43 49 -41 17 1 38 12 48 25 19
22 19 22 33 3 53 -73 30 -241 -42 -304 l-34 -30 26 -17 c42 -28 61 -82 84
-235 12 -79 24 -147 26 -151 3 -4 -3 -11 -13 -16 -23 -12 -163 -46 -167 -41
-2 2 -11 73 -19 156 -14 130 -34 213 -51 213 -3 0 -11 3 -20 6 -14 5 -16 -15
-16 -189 l0 -195 -87 20 c-48 10 -88 20 -89 21 -7 11 -12 725 -4 737 8 12 13
13 29 3 21 -13 34 -4 56 41 9 18 18 20 57 18 26 -2 55 1 65 7 33 19 49 12 69
-31z m-1280 -13 c14 -51 31 -54 119 -20 37 14 71 25 76 25 5 0 15 -16 23 -35
16 -38 31 -43 62 -20 10 8 22 15 27 15 19 0 2 -81 -57 -272 -35 -114 -62 -209
-60 -211 2 -1 44 1 95 6 50 4 92 7 94 5 3 -3 -14 -206 -21 -256 -5 -32 -7 -34
-37 -28 -18 3 -109 8 -204 12 -94 4 -177 10 -183 14 -22 14 9 152 81 366 38
113 69 212 69 220 0 11 -18 14 -85 14 -83 0 -85 1 -81 23 3 12 7 48 10 79 3
31 11 69 16 83 15 38 42 28 56 -20z m-1192 -3 c10 -38 30 -41 56 -9 15 18 20
19 24 7 3 -8 7 -121 8 -250 l3 -235 70 -3 c124 -4 115 8 115 -143 l0 -132
-122 7 c-68 4 -153 9 -190 13 l-68 6 0 291 c0 160 3 327 6 372 6 73 9 83 33
97 36 23 54 17 65 -21z m-446 -79 c3 -101 3 -103 26 -103 37 0 67 31 73 75 l5
40 47 0 c33 0 55 6 75 22 33 27 46 22 46 -16 0 -57 -29 -129 -65 -159 l-35
-28 37 -25 c72 -47 104 -149 83 -268 -14 -82 -40 -124 -93 -155 -56 -33 -115
-40 -252 -31 l-115 7 0 327 0 327 27 -1 c23 0 29 6 38 38 13 45 29 58 70 55
l30 -3 3 -102z m2393 67 c13 -44 32 -51 51 -20 27 42 30 33 63 -161 13 -79 38
-223 54 -319 17 -96 33 -189 36 -207 6 -36 -3 -40 -115 -45 l-65 -3 -10 75
-10 75 -60 0 -60 0 -10 -80 c-11 -91 -4 -87 -115 -60 -40 10 -74 24 -77 32
-10 25 124 693 142 711 11 11 25 -13 30 -53 4 -24 13 -46 21 -49 18 -7 41 28
49 77 6 33 35 67 57 67 4 0 13 -18 19 -40z m1070 -40 c19 7 41 19 50 27 23 19
34 16 63 -18 31 -36 36 -102 10 -117 -18 -10 -11 -32 11 -32 19 0 29 -138 16
-225 -27 -188 -83 -280 -203 -339 -64 -31 -173 -56 -244 -56 -12 0 -14 54 -14
355 0 344 1 355 20 365 11 6 27 26 35 45 15 36 18 38 75 35 19 0 46 3 60 9 22
8 29 5 56 -26 31 -35 33 -36 65 -23z m-1321 11 c13 -25 13 -68 0 -76 -6 -4
-17 9 -24 27 l-14 33 -7 -26 c-3 -14 -5 -29 -4 -35 4 -24 -3 -34 -26 -34 -14
0 -25 4 -25 9 0 5 -3 17 -6 26 -4 10 7 29 35 55 47 45 56 48 71 21z"/>
<path d="M6980 7130 c0 -121 6 -130 55 -87 65 55 43 197 -31 197 -24 0 -24 0
-24 -110z"/>
<path d="M4180 6840 l0 -100 28 0 c39 0 62 20 71 60 15 73 -19 140 -71 140
l-28 0 0 -100z"/>
<path d="M6482 7003 c-17 -180 -18 -173 18 -173 17 0 33 6 36 14 3 8 -2 69
-10 136 -9 67 -16 128 -16 136 0 8 -4 14 -8 14 -5 0 -14 -57 -20 -127z"/>
<path d="M7499 7142 c-8 -331 -8 -419 0 -431 17 -26 52 -1 79 57 30 66 42 218
23 289 -13 48 -51 98 -81 106 -16 4 -20 0 -21 -21z"/>
<path d="M4956 7694 c-5 -12 -14 -15 -39 -10 -30 5 -31 5 -13 -9 32 -25 83
-29 112 -10 20 13 23 19 13 31 -16 19 -65 18 -73 -2z"/>
<path d="M5510 7687 c-25 -6 -71 -11 -102 -11 -70 0 -76 -12 -10 -21 33 -4 58
-1 84 9 57 24 88 21 88 -8 0 -13 -6 -27 -12 -29 -7 -3 -3 -6 10 -6 48 -2 84
37 61 65 -13 16 -55 16 -119 1z"/>
<path d="M5728 7663 c-26 -6 -22 -23 5 -23 12 0 32 -3 45 -6 16 -5 22 -2 22 9
0 23 -30 31 -72 20z"/>
<path d="M5697 7606 c-4 -11 -19 -16 -44 -16 -60 0 -26 -19 51 -28 47 -6 72
-5 83 3 15 11 14 14 -8 28 -39 25 -75 31 -82 13z"/>
<path d="M3057 7003 c-82 -7 -177 -20 -210 -28 -34 -9 -168 -38 -297 -65 -129
-27 -284 -65 -345 -84 -495 -161 -532 -175 -582 -222 -39 -37 -40 -53 -8 -149
28 -87 37 -98 83 -110 25 -6 51 -21 65 -37 13 -16 45 -35 77 -45 38 -13 59
-26 67 -43 19 -37 16 -101 -7 -145 -15 -30 -20 -59 -20 -123 0 -115 -15 -167
-56 -199 -19 -14 -34 -29 -34 -33 0 -18 457 -55 594 -47 105 6 118 9 306 77
129 47 454 130 723 185 157 32 202 37 186 21 -3 -3 -148 -46 -324 -96 -176
-50 -422 -125 -547 -166 -172 -57 -246 -76 -305 -80 -85 -7 -321 8 -528 32
-71 9 -189 16 -261 17 l-130 2 -60 -36 c-32 -20 -72 -39 -87 -43 -35 -8 -67
-59 -67 -106 0 -121 143 -188 330 -155 46 8 85 13 87 11 12 -12 3 -79 -16
-131 -39 -102 -7 -190 94 -265 73 -54 72 -73 0 -138 -43 -38 -74 -55 -138 -76
-246 -80 -419 -213 -442 -338 -17 -90 19 -112 86 -54 45 38 114 60 234 76 129
17 225 40 294 71 35 16 67 29 71 29 3 0 19 -27 35 -60 16 -34 50 -80 76 -105
l48 -45 -48 -64 c-27 -35 -60 -90 -75 -122 -15 -33 -30 -66 -35 -74 -13 -26
-113 -85 -211 -125 -71 -29 -115 -40 -177 -45 -92 -7 -117 -21 -108 -57 5 -22
-2 -28 -87 -67 -129 -60 -180 -76 -245 -76 -45 0 -65 -5 -94 -26 -41 -28 -112
-49 -198 -60 -31 -3 -67 -13 -80 -21 l-25 -16 23 -18 c13 -11 37 -19 55 -19
l31 0 -33 -26 -32 -26 22 -39 c22 -40 44 -49 67 -26 14 12 14 10 -5 -68 -3
-11 2 -29 10 -40 14 -20 15 -19 48 13 19 17 39 32 44 32 17 0 50 -43 63 -80 6
-19 28 -59 48 -88 26 -38 37 -67 41 -102 2 -27 10 -55 18 -61 20 -17 47 -7 54
20 3 14 11 26 17 28 17 6 245 -256 287 -330 29 -53 41 -67 55 -62 13 4 26 -5
45 -30 35 -45 50 -45 43 0 -7 41 -5 42 32 14 36 -26 54 -18 41 17 -14 35 -13
37 10 31 23 -6 45 17 34 35 -10 16 -161 182 -270 298 -45 47 -92 102 -106 122
-13 20 -75 94 -136 163 -144 162 -145 159 63 223 156 49 317 104 483 166 68
25 125 46 126 46 2 0 -4 -27 -14 -59 -11 -32 -22 -98 -26 -145 -8 -96 -7 -97
67 -76 l36 10 6 88 c7 91 36 213 64 266 11 20 19 67 23 137 5 98 8 110 40 163
40 66 91 109 129 109 14 0 51 -4 81 -8 41 -5 74 -2 132 13 72 19 88 20 275 10
l198 -11 100 28 c55 15 142 38 193 50 51 13 105 30 120 38 228 118 264 144
344 247 28 36 82 94 120 129 38 35 77 80 88 100 25 49 40 141 37 223 -1 52 2
71 15 84 23 23 41 8 65 -54 15 -40 18 -77 17 -237 0 -165 -4 -206 -27 -315
-34 -161 -76 -307 -177 -605 -44 -132 -90 -276 -102 -320 -24 -93 -29 -218 -9
-255 24 -44 64 -80 97 -86 43 -8 116 26 145 68 57 80 127 299 194 604 56 259
69 361 69 552 1 94 2 172 3 172 2 0 26 -14 54 -31 42 -27 49 -35 44 -53 -27
-81 -11 -123 67 -172 21 -14 44 -37 50 -52 5 -15 30 -70 53 -122 59 -130 67
-159 66 -248 0 -58 -7 -97 -28 -157 l-28 -80 -83 -41 c-82 -41 -121 -68 -110
-79 3 -3 38 -1 78 6 80 12 170 5 212 -17 15 -8 35 -28 43 -44 19 -36 43 -50
89 -50 35 0 86 -18 86 -30 0 -4 -27 -45 -60 -91 -33 -46 -60 -87 -60 -92 0 -4
10 -5 23 -3 72 16 217 46 221 46 15 0 317 434 360 519 9 17 30 38 46 46 38 20
70 54 70 76 0 10 -21 35 -46 57 -60 51 -56 72 16 72 43 0 50 3 50 19 0 20 -43
61 -64 61 -6 0 -24 7 -41 16 -20 11 -43 14 -69 9 l-40 -6 19 21 c20 22 20 22
0 37 -20 14 -75 14 -122 -2 -18 -6 -21 -4 -16 14 9 34 -33 47 -106 31 -60 -12
-61 -12 -109 19 -27 17 -55 31 -63 31 -23 0 -113 45 -187 94 -39 25 -89 50
-112 55 -23 5 -43 11 -44 13 -1 1 -11 23 -21 47 -18 41 -112 129 -212 200 -18
12 -35 32 -37 44 -2 12 -12 62 -20 110 -28 152 -57 208 -193 376 -39 48 -43
58 -43 107 0 30 -11 87 -25 131 -21 62 -23 79 -13 89 7 7 92 27 188 44 186 33
211 44 244 100 16 27 20 53 20 131 1 89 -1 99 -23 123 -50 53 -104 56 -360 15
l-124 -20 -28 27 c-42 40 -68 131 -73 250 -2 55 -8 109 -14 121 -6 11 -31 30
-55 41 -24 11 -48 26 -53 34 -18 22 -44 182 -44 264 0 60 -4 84 -21 110 -11
19 -26 34 -32 34 -7 0 -52 21 -102 46 -49 26 -106 49 -125 53 -19 4 -102 1
-183 -6z m161 -75 c12 -63 -254 -198 -653 -329 -302 -100 -361 -113 -593 -129
-144 -10 -169 -9 -213 5 -66 22 -112 85 -51 71 117 -26 134 -27 314 -11 189
17 231 24 383 69 50 15 142 41 205 57 63 17 150 47 195 67 78 36 205 109 205
119 0 22 -443 -42 -600 -86 -68 -20 -277 -38 -250 -22 21 13 284 84 410 111
58 12 148 33 200 47 52 13 127 26 165 29 39 2 95 8 125 13 86 14 154 9 158
-11z m-958 -507 c0 -5 -6 -14 -14 -20 -24 -20 -160 -62 -222 -68 -56 -5 -61
-4 -76 19 -14 22 -26 26 -78 30 -33 2 -66 10 -72 16 -9 9 30 12 168 12 98 0
197 4 219 9 54 12 75 13 75 2z m1216 -84 c-25 -38 -115 -84 -246 -128 -165
-54 -487 -135 -624 -156 -85 -14 -110 -21 -114 -35 -6 -25 -25 -29 -160 -35
-127 -6 -149 -15 -123 -47 9 -11 9 -19 -1 -36 -21 -33 4 -41 124 -38 73 2 111
-1 119 -9 19 -19 -22 -30 -154 -42 -65 -6 -122 -13 -127 -16 -6 -3 -10 -15
-10 -26 0 -17 -8 -19 -92 -19 -101 0 -139 11 -97 29 13 5 36 12 52 15 22 5 27
12 27 38 0 18 7 36 17 43 15 11 15 15 4 29 -12 14 -11 20 8 40 l22 24 -22 16
c-13 9 -29 16 -37 16 -26 0 -73 31 -70 47 3 13 35 16 238 18 213 2 252 5 412
33 334 59 609 138 753 216 44 24 88 44 98 45 16 1 16 -1 3 -22z m83 -101 c24
-29 -4 -53 -101 -85 -105 -35 -118 -37 -118 -16 0 8 16 19 38 24 37 10 126 63
138 82 8 14 30 11 43 -5z m-1419 -37 c38 -7 104 -9 162 -6 107 7 128 -3 46
-21 -118 -26 -226 -33 -261 -19 -61 26 -89 78 -33 63 11 -3 50 -11 86 -17z
m1004 -65 c38 -15 7 -32 -104 -58 -140 -33 -255 -56 -279 -56 -59 0 8 27 182
71 100 26 183 48 184 48 1 1 8 -2 17 -5z m506 -353 c82 -60 138 -250 147 -502
7 -189 -7 -268 -73 -408 -38 -80 -56 -105 -128 -175 -50 -49 -94 -102 -110
-134 -27 -53 -67 -87 -116 -98 -84 -20 -105 -28 -138 -58 -28 -26 -69 -44
-167 -75 -192 -62 -235 -67 -412 -48 -81 9 -196 16 -255 16 -115 1 -160 12
-259 62 -58 29 -99 69 -99 98 0 9 -11 40 -25 70 -30 63 -30 62 60 126 72 52
144 82 217 90 111 14 169 36 220 85 l48 46 0 71 c0 58 -5 80 -31 131 -17 34
-43 70 -58 81 -44 31 -112 45 -168 33 -26 -6 -49 -9 -51 -7 -13 12 15 47 52
64 47 23 97 27 145 10 26 -9 33 -19 47 -67 19 -67 69 -120 154 -167 49 -27 64
-30 141 -30 97 0 124 12 213 101 58 58 76 96 76 163 0 55 7 63 70 76 49 11
179 61 218 85 l32 20 -20 40 c-11 22 -24 40 -28 40 -5 0 -37 -12 -73 -26 -215
-88 -241 -91 -305 -35 -72 64 -177 78 -281 39 -43 -16 -75 -39 -126 -89 l-68
-67 -77 5 c-54 3 -93 0 -132 -12 -98 -29 -102 -29 -143 4 -86 68 -219 80 -313
27 -25 -14 -49 -26 -52 -26 -10 0 7 99 22 128 25 49 63 58 185 44 388 -45 411
-44 616 26 83 28 200 60 260 72 201 37 259 52 365 95 94 38 231 85 285 99 36
9 109 -4 135 -23z m-1266 -651 c77 -37 129 -164 94 -229 -20 -38 -33 -35 -53
9 -19 42 -57 80 -81 80 -10 0 -8 -10 6 -42 22 -49 25 -89 8 -106 -20 -20 -37
-14 -70 24 -30 34 -88 72 -88 57 0 -4 7 -26 16 -50 9 -23 14 -49 11 -58 -8
-20 -41 -19 -58 1 -13 16 -69 48 -74 42 -2 -2 2 -22 8 -46 16 -61 0 -74 -56
-44 -62 33 -69 30 -49 -23 15 -41 15 -46 0 -61 -14 -14 -19 -14 -56 5 -64 33
-73 29 -57 -22 13 -44 6 -77 -18 -77 -6 0 -35 12 -64 27 -28 15 -55 25 -58 21
-4 -3 1 -20 9 -37 42 -80 2 -101 -81 -42 -75 55 -87 53 -61 -5 17 -39 18 -48
6 -60 -11 -11 -23 -6 -72 27 -32 22 -61 37 -64 35 -2 -3 1 -19 8 -36 20 -48 2
-59 -61 -37 -54 20 -70 17 -49 -8 10 -12 9 -16 -6 -22 -11 -3 -38 -19 -61 -35
-63 -43 -55 -12 16 64 66 71 162 124 331 185 123 44 128 47 241 161 118 120
389 319 438 322 3 0 23 -9 45 -20z m2461 -1035 c91 -34 175 -71 185 -80 39
-35 26 -61 -85 -170 -85 -84 -105 -109 -105 -132 0 -16 4 -33 10 -39 6 -6 -3
-24 -24 -49 l-33 -39 -46 29 c-159 103 -189 128 -184 149 28 116 37 168 37
206 0 43 -30 206 -45 243 -6 14 7 10 59 -18 36 -20 140 -65 231 -100z m-995
-595 c23 -23 25 -51 9 -83 -23 -43 -66 -50 -99 -17 -26 26 -25 60 1 94 25 31
61 34 89 6z"/>
<path d="M2984 4766 c-41 -41 -45 -82 -11 -121 48 -56 164 -39 192 29 28 68
-17 125 -98 126 -43 0 -54 -5 -83 -34z"/>
<path d="M2754 4700 c-58 -23 -74 -113 -27 -149 37 -30 68 -36 113 -22 118 35
98 182 -23 180 -23 0 -52 -4 -63 -9z"/>
<path d="M2488 4633 c-65 -40 -64 -124 2 -158 74 -38 170 10 170 86 0 74 -101
116 -172 72z"/>
<path d="M2219 4607 c-44 -29 -56 -65 -39 -107 33 -79 165 -78 205 1 47 90
-74 168 -166 106z"/>
<path d="M2967 4145 c-37 -19 -86 -49 -108 -67 -35 -28 -51 -34 -117 -39 -74
-7 -80 -6 -162 31 -204 92 -230 79 -238 -120 -7 -188 21 -224 124 -158 27 17
76 44 109 59 59 27 61 28 118 13 52 -14 63 -14 103 0 52 17 66 14 193 -43 50
-23 100 -41 111 -41 40 0 55 45 54 165 -1 114 -15 187 -41 218 -24 26 -71 21
-146 -18z m-7 -93 c0 -4 -25 -20 -55 -35 -58 -28 -70 -24 -32 10 32 29 87 45
87 25z m-339 -52 c23 -19 23 -19 3 -20 -29 0 -84 20 -84 31 0 17 58 9 81 -11z"/>
<path d="M5960 3678 c-14 -8 -26 -21 -28 -31 -3 -15 6 -17 72 -17 79 0 89 6
58 33 -26 23 -72 30 -102 15z"/>
<path d="M6158 3668 l-23 -23 74 -3 c40 -2 76 0 80 3 3 4 -5 15 -18 26 -32 26
-85 25 -113 -3z"/>
<path d="M5729 3659 c-28 -28 -12 -39 56 -39 76 0 92 20 38 49 -33 17 -71 13
-94 -10z"/>
<path d="M5501 3651 c-6 -10 -7 -21 -4 -25 10 -9 143 -7 143 2 0 40 -120 60
-139 23z"/>
<path d="M3226 3585 c-70 -28 -88 -45 -171 -151 -78 -100 -181 -196 -244 -226
-35 -17 -63 -23 -116 -23 -78 1 -112 14 -205 85 -133 100 -270 141 -470 141
-164 1 -248 -18 -383 -88 -70 -36 -110 -65 -171 -125 l-78 -78 58 -63 c33 -35
113 -121 180 -192 134 -145 169 -204 185 -311 21 -140 -12 -314 -60 -314 -33
0 -44 34 -36 114 3 39 2 82 -3 95 l-9 25 -15 -25 c-9 -13 -35 -58 -58 -99 -51
-87 -83 -122 -104 -114 -25 10 -19 68 13 132 15 31 32 68 36 80 7 23 6 23 -17
8 -13 -8 -37 -36 -52 -61 -29 -46 -59 -58 -70 -29 -12 30 -6 59 24 123 31 66
37 121 13 129 -7 2 -13 -3 -13 -11 0 -16 -28 -43 -36 -34 -3 3 -11 34 -19 70
-7 36 -20 78 -29 94 -16 33 -104 133 -115 133 -11 0 -79 -224 -91 -300 -14
-89 -13 -184 5 -395 16 -194 29 -256 77 -343 78 -145 142 -215 253 -277 210
-118 492 -127 702 -23 90 45 159 118 291 305 126 181 172 232 234 264 57 29
115 27 223 -6 72 -23 110 -29 192 -29 104 -1 116 -8 57 -32 -42 -18 -131 -17
-214 1 -142 31 -222 13 -303 -68 -45 -45 -248 -309 -242 -315 5 -6 107 49 165
88 30 21 94 74 141 119 48 44 98 85 112 90 17 7 43 5 83 -4 83 -20 181 -18
253 4 135 42 296 201 346 342 9 24 22 86 30 138 16 102 26 119 83 145 21 10
43 26 50 37 11 17 9 19 -15 19 -16 0 -136 -20 -268 -45 -132 -25 -315 -57
-408 -72 -147 -24 -169 -25 -182 -12 -15 15 -75 280 -75 332 0 19 7 30 23 37
27 11 268 53 273 47 2 -2 -31 -14 -73 -26 -166 -48 -158 -44 -161 -74 -2 -16
6 -75 18 -130 32 -153 23 -141 89 -133 31 3 92 13 136 21 44 9 167 31 273 50
404 73 577 106 590 110 7 3 12 22 12 47 0 24 7 53 15 65 25 36 119 73 186 73
55 0 60 -2 86 -35 19 -25 43 -40 77 -50 53 -16 81 -13 386 39 200 35 203 35
315 56 55 10 167 31 248 46 91 16 151 32 154 40 6 16 -65 366 -77 378 -5 5
-90 -11 -202 -37 -106 -26 -245 -58 -308 -71 -196 -43 -330 -76 -366 -91 -19
-8 -72 -42 -119 -75 -46 -34 -105 -70 -132 -80 -48 -18 -48 -18 -45 -59 2 -25
-1 -41 -7 -41 -12 0 -25 43 -19 62 3 7 -8 18 -25 25 -42 18 -28 37 31 44 59 8
97 28 190 103 76 61 113 82 185 103 57 17 53 23 -30 48 -76 23 -156 17 -183
-14 -3 -3 -35 -34 -71 -69 l-65 -62 -164 -35 c-91 -18 -203 -43 -250 -54 -103
-23 -264 -58 -383 -81 l-87 -17 6 21 c25 87 98 209 226 377 32 42 58 85 58 96
0 26 -49 69 -115 99 -68 32 -150 32 -229 -1z m2005 -365 c11 -45 17 -91 13
-103 -6 -20 -7 -20 -19 4 -34 64 -57 255 -24 197 5 -9 19 -54 30 -98z m-196
18 c22 -74 32 -177 15 -161 -13 12 -50 152 -50 191 0 40 19 23 35 -30z m-210
2 c9 -15 45 -167 45 -191 0 -28 -16 -23 -28 9 -16 39 -42 146 -42 171 0 22 14
28 25 11z m-175 -138 c19 -78 20 -129 0 -117 -12 8 -53 193 -45 206 12 19 23
-3 45 -89z m-194 21 c3 -16 12 -53 20 -84 8 -31 14 -70 14 -85 0 -24 -2 -26
-13 -14 -18 20 -58 175 -51 195 9 23 23 18 30 -12z m-440 -162 c9 -68 -10 -68
-31 1 -16 57 -19 91 -8 102 11 11 31 -42 39 -103z m297 49 c10 -33 17 -72 17
-87 0 -24 -2 -25 -14 -13 -15 17 -36 95 -36 134 0 45 16 28 33 -34z m-448 -32
c22 -74 32 -177 15 -161 -16 15 -50 138 -50 180 0 49 17 40 35 -19z m-150 11
c11 -17 46 -201 40 -207 -11 -12 -28 18 -46 84 -10 38 -19 83 -19 101 0 32 12
43 25 22z m-115 -118 c23 -96 25 -124 8 -119 -25 8 -67 170 -54 205 11 28 25
2 46 -86z m-165 49 c9 -15 45 -167 45 -191 0 -74 -67 90 -69 169 -1 31 11 42
24 22z m-125 -62 c6 -24 15 -59 20 -79 19 -68 6 -135 -15 -81 -12 31 -45 165
-45 184 0 36 29 18 40 -24z m-761 -5 c5 -10 12 -111 16 -224 l8 -207 -26 -17
c-14 -9 -50 -19 -80 -22 -50 -5 -56 -3 -70 18 -20 31 -42 400 -26 431 14 27
44 37 111 37 45 1 59 -3 67 -16z m620 -1 c15 -29 46 -190 38 -198 -4 -4 -12
-3 -18 3 -13 13 -60 194 -53 205 9 13 23 9 33 -10z m-100 -105 c12 -51 21
-100 21 -109 0 -21 -13 -23 -28 -5 -13 17 -54 195 -47 207 15 24 35 -9 54 -93z
m-141 71 c11 -15 42 -162 42 -201 0 -35 -15 -34 -29 1 -15 39 -41 152 -41 185
0 29 11 35 28 15z m-837 -24 c10 -13 15 -69 18 -229 l3 -212 -27 -21 c-21 -17
-41 -22 -87 -22 -58 0 -59 1 -74 35 -10 26 -14 82 -14 228 0 172 2 196 18 209
34 31 141 38 163 12z m55 -728 c27 -27 34 -42 34 -74 0 -55 -34 -102 -92 -126
-45 -18 -49 -18 -91 -2 -71 27 -96 97 -59 165 23 43 74 71 130 71 37 0 50 -6
78 -34z m-451 -67 c31 -28 35 -36 35 -81 0 -64 -26 -101 -85 -124 -137 -52
-229 104 -121 204 30 27 43 32 86 32 41 0 55 -5 85 -31z"/>
<path d="M2022 2014 c-41 -29 -23 -84 28 -84 49 0 76 52 44 84 -20 20 -43 20
-72 0z"/>
<path d="M1582 1944 c-41 -29 -23 -84 28 -84 14 0 31 5 38 12 19 19 15 66 -7
78 -26 13 -33 13 -59 -6z"/>
<path d="M5844 3582 c-287 -13 -385 -20 -397 -31 -9 -7 -24 -37 -33 -66 -17
-51 -16 -57 6 -152 78 -337 79 -337 109 -365 58 -52 120 -47 315 28 49 19 89
33 90 32 10 -28 28 -44 52 -46 36 -4 74 29 74 63 0 27 18 39 86 60 41 12 44
12 44 -5 0 -25 52 -45 80 -30 24 13 42 53 34 74 -5 14 63 45 132 60 29 7 30 6
26 -27 -3 -28 1 -38 23 -56 34 -26 74 -27 123 -2 45 23 62 56 69 132 12 129
-56 281 -147 330 -37 20 -244 20 -686 1z m480 -104 c13 -19 14 -25 2 -43 -26
-40 -86 -27 -86 19 0 47 57 63 84 24z m-230 -4 c30 -30 10 -74 -34 -74 -40 0
-58 32 -35 66 18 28 46 31 69 8z m-226 -6 c19 -19 15 -66 -7 -78 -11 -5 -24
-10 -30 -10 -16 0 -41 30 -41 50 0 39 52 64 78 38z m-228 -18 c24 -24 25 -38
3 -62 -29 -32 -93 -14 -93 28 0 19 36 54 55 54 8 0 24 -9 35 -20z m498 -163
c-2 -17 -10 -22 -33 -22 -35 0 -45 24 -20 49 22 22 58 4 53 -27z m-187 -55 c6
-17 4 -27 -11 -42 -25 -25 -32 -25 -61 -1 -21 17 -22 22 -11 45 10 23 18 27
43 24 22 -2 34 -10 40 -26z m-238 -53 c30 -42 -16 -94 -62 -70 -23 13 -29 59
-9 79 19 19 55 14 71 -9z"/>
<path d="M4942 3408 c-12 -18 -19 -34 -17 -36 6 -6 85 9 85 16 -1 9 -37 52
-43 52 -3 0 -14 -15 -25 -32z"/>
<path d="M3570 3232 c-42 -52 -99 -139 -100 -153 0 -8 72 5 88 15 7 4 12 15
12 24 0 9 14 41 30 71 54 98 36 124 -30 43z"/>
<path d="M5777 2958 c-53 -23 -57 -41 -9 -46 33 -3 72 25 72 53 0 19 -4 18
-63 -7z"/>
<path d="M5276 2924 c-38 -7 -70 -15 -73 -17 -9 -10 41 -78 73 -97 51 -32 74
-72 85 -148 7 -49 18 -79 41 -112 27 -38 32 -58 40 -135 5 -49 6 -121 2 -160
-16 -168 -20 -369 -9 -470 5 -52 3 -86 -9 -131 -9 -34 -16 -86 -16 -116 0 -48
-4 -58 -29 -80 -24 -22 -34 -47 -62 -162 -19 -79 -41 -145 -52 -157 -27 -29
-78 -24 -155 15 -37 19 -101 44 -142 56 -41 13 -106 36 -145 53 -43 19 -98 33
-145 38 -41 4 -88 10 -105 14 -29 5 -32 2 -75 -72 -25 -43 -57 -109 -72 -148
-46 -116 -86 -158 -223 -237 -66 -37 -136 -76 -155 -85 -40 -18 -119 -20 -151
-2 -12 6 -54 13 -93 14 -53 1 -88 10 -141 32 -43 19 -95 33 -136 36 -50 5 -84
15 -134 42 -42 22 -80 35 -104 35 -76 0 -226 -63 -311 -131 -51 -41 -94 -56
-201 -69 -128 -16 -157 -7 -203 63 -19 29 -71 88 -116 132 -45 44 -92 100
-105 125 -13 25 -35 56 -50 70 -40 38 -55 73 -55 135 0 42 -7 68 -30 112 -17
31 -30 62 -30 69 0 7 -4 15 -8 18 -10 6 -83 -12 -94 -22 -10 -10 57 -264 87
-329 21 -46 23 -59 13 -68 -17 -15 -88 -36 -273 -82 -131 -32 -167 -37 -285
-39 -123 -1 -145 -5 -254 -38 -65 -20 -130 -36 -144 -36 -14 0 -48 -11 -76
-24 -61 -29 -131 -47 -285 -76 -62 -11 -129 -28 -150 -36 -35 -15 -35 -16 -14
-26 17 -8 38 -6 85 7 44 13 100 19 188 20 92 1 138 6 175 20 27 9 69 19 93 21
24 3 65 15 90 28 43 21 98 37 177 50 37 6 259 -21 300 -36 17 -6 61 -13 99
-16 l69 -4 -60 -33 c-34 -19 -82 -36 -113 -40 -30 -4 -77 -19 -105 -34 -27
-16 -74 -34 -103 -41 -28 -6 -54 -16 -57 -20 -11 -18 57 -21 115 -6 34 9 93
16 132 16 39 0 96 6 127 14 34 8 113 14 201 14 120 1 155 4 204 21 65 23 97
26 124 11 9 -5 61 -12 115 -16 61 -4 95 -10 90 -15 -15 -15 -143 -59 -172 -59
-14 -1 -37 -7 -51 -14 l-25 -14 37 -7 c21 -4 60 -2 87 5 28 6 55 9 60 5 19
-11 87 14 157 60 l69 45 93 0 c89 0 94 1 145 35 28 20 61 52 73 72 49 89 150
101 288 34 46 -22 95 -54 110 -71 l26 -31 126 -4 c70 -3 129 -7 131 -9 2 -2
-15 -24 -39 -49 -30 -31 -63 -51 -107 -67 -49 -18 -59 -25 -46 -32 11 -7 30
-4 56 6 22 9 57 16 77 16 28 0 45 7 62 25 31 33 210 98 357 130 18 3 48 22 65
42 18 19 58 47 88 63 58 29 81 56 180 205 88 132 156 195 209 195 11 0 44 -11
73 -24 29 -13 72 -29 96 -36 24 -6 60 -26 81 -45 42 -38 79 -55 119 -55 15 0
113 -28 217 -61 156 -50 209 -62 295 -70 127 -10 233 -25 280 -39 43 -13 183
-13 176 -1 -4 5 -24 12 -45 16 -22 4 -45 13 -51 20 -6 7 -29 16 -51 20 -21 4
-42 12 -45 17 -5 8 20 9 82 5 141 -10 594 -21 594 -14 0 20 -74 41 -165 47
-91 7 -115 13 -275 75 -96 37 -243 84 -325 105 -118 30 -292 92 -324 117 -6 4
29 71 73 140 46 73 69 192 68 353 0 73 4 130 10 137 6 8 8 34 4 65 -3 29 -8
132 -10 228 -7 325 -66 524 -199 672 l-42 46 -69 -14z"/>
<path d="M4110 2864 c-6 -14 -10 -33 -10 -42 -1 -9 -7 -2 -15 16 -19 44 -45
41 -78 -9 -47 -72 -34 -156 34 -213 28 -24 39 -27 93 -25 33 2 93 -3 131 -11
113 -21 137 -13 229 86 71 75 83 84 115 84 35 0 71 17 121 60 l25 21 -25 -5
c-273 -53 -328 -58 -419 -36 -41 10 -62 22 -94 56 -50 53 -91 60 -107 18z"/>
<path d="M1069 2409 c-58 -55 -81 -109 -82 -198 0 -59 5 -85 21 -117 29 -56
68 -102 105 -120 l30 -16 -6 49 c-7 58 -27 306 -30 382 l-2 55 -36 -35z"/>
</g>
</svg>
