<?xml version="1.0" standalone="no"?>
<!DOCTYPE svg PUBLIC "-//W3C//DTD SVG 20010904//EN"
 "http://www.w3.org/TR/2001/REC-SVG-20010904/DTD/svg10.dtd">
<svg version="1.0" xmlns="http://www.w3.org/2000/svg"
 width="2400.000000pt" height="2400.000000pt" viewBox="0 0 800.000000 800.000000"
 preserveAspectRatio="xMidYMid meet">
<metadata>
Created by potrace 1.16, written by Peter Selinger 2001-2019
</metadata>
<g transform="translate(0.000000,800.000000) scale(0.100000,-0.100000)"
fill="#fff" stroke="none">
<path d="M2833 7663 c4 -75 7 -182 7 -238 0 -128 5 -136 95 -146 37 -5 70 -10
72 -12 2 -3 22 -67 44 -143 84 -290 77 -272 111 -290 28 -14 102 -18 562 -25
292 -4 653 -8 802 -8 351 -1 319 -19 396 219 31 96 62 193 70 215 13 39 15 40
65 45 80 8 89 21 97 131 19 302 19 349 1 369 -18 20 -38 20 -1173 20 l-1155 0
6 -137z m159 -25 l3 -73 40 0 40 0 3 73 3 73 32 -3 32 -3 3 -177 2 -178 -35 0
-35 0 0 75 0 75 -39 0 c-46 0 -51 -9 -51 -91 l0 -60 -32 3 c-18 2 -32 6 -30
11 1 4 2 84 2 177 l0 170 30 0 29 0 3 -72z m387 56 c37 -26 61 -90 61 -164 0
-146 -92 -227 -187 -165 -40 26 -56 73 -57 160 -1 66 3 87 23 122 13 22 33 46
45 51 32 16 89 14 115 -4z m205 -51 c10 -38 22 -86 28 -108 l11 -40 18 70 c43
159 36 146 77 143 l37 -3 3 -177 2 -178 -30 0 -30 0 0 97 c0 53 -3 94 -6 91
-3 -4 -14 -39 -24 -78 -10 -39 -20 -73 -22 -75 -2 -2 -15 -1 -30 2 -23 4 -28
13 -45 77 l-18 71 -5 -90 -5 -90 -30 0 -30 0 -3 135 c-2 74 0 154 3 178 6 41
7 42 44 42 l39 0 16 -67z m386 37 c0 -29 -2 -30 -46 -30 l-45 0 3 -42 c3 -42
4 -43 41 -46 35 -3 38 -6 35 -30 -3 -23 -8 -27 -40 -30 -38 -3 -38 -4 -38 -48
l0 -44 45 0 c43 0 45 -1 45 -30 l0 -30 -80 0 -80 0 0 173 c0 96 3 177 7 180 3
4 39 7 80 7 l73 0 0 -30z m210 0 c0 -27 -3 -30 -30 -30 l-30 0 0 -150 0 -150
-35 0 -35 0 0 150 0 150 -30 0 c-25 0 -30 4 -30 23 0 13 3 27 7 30 3 4 46 7
95 7 l88 0 0 -30z m189 15 c45 -23 66 -77 66 -170 -1 -121 -43 -181 -127 -179
-75 2 -112 62 -112 179 0 85 24 152 61 174 26 15 80 13 112 -4z m154 -2 c3
-10 10 -49 17 -88 21 -127 22 -128 44 -10 l21 110 32 3 31 3 17 -98 c26 -154
27 -154 55 25 l12 72 35 0 c34 0 34 -1 27 -32 -4 -18 -19 -98 -33 -178 l-27
-145 -39 0 -40 0 -17 99 c-10 54 -19 101 -22 103 -2 2 -7 -18 -10 -44 -4 -26
-12 -74 -18 -105 l-11 -58 -38 0 c-36 0 -39 2 -48 38 -16 68 -57 313 -52 317
12 13 60 4 64 -12z m439 -83 l37 -95 1 98 0 98 33 -3 32 -3 0 -175 0 -175 -34
0 c-32 0 -34 2 -70 90 l-36 90 -3 -93 -3 -93 -32 3 -32 3 -3 75 c-2 41 0 121
3 178 l7 103 31 -3 c29 -3 33 -9 69 -98z m-1608 -373 c13 -9 16 -20 12 -35 -6
-17 -13 -20 -39 -15 -48 7 -70 -22 -75 -100 -2 -45 2 -71 15 -97 16 -31 23
-35 56 -35 33 0 56 -15 57 -36 0 -10 -50 -29 -76 -29 -38 0 -82 27 -101 63
-28 50 -25 191 4 238 13 20 33 41 45 47 32 15 81 14 102 -1z m211 1 c48 -22
68 -71 68 -168 0 -72 -3 -93 -21 -122 -52 -84 -173 -75 -200 15 -20 63 -23
109 -11 165 20 98 89 145 164 110z m175 -119 c0 -136 8 -169 40 -169 32 0 40
33 40 169 l0 131 30 0 30 0 0 -152 c-1 -105 -5 -158 -13 -169 -37 -48 -115
-53 -158 -10 l-29 29 0 151 0 151 30 0 30 0 0 -131z m288 59 c16 -40 33 -82
38 -93 6 -14 10 8 12 73 l3 93 27 -3 27 -3 3 -172 2 -173 -34 0 c-33 0 -35 2
-61 73 -44 119 -44 119 -44 20 l-1 -93 -29 0 c-27 0 -28 2 -35 61 -8 81 -8
274 1 282 3 4 19 7 34 7 24 0 30 -7 57 -72z m330 40 c3 -25 0 -28 -27 -28
l-31 0 0 -145 0 -145 -35 0 -35 0 0 145 0 145 -30 0 c-25 0 -30 4 -30 23 0 13
3 27 7 31 4 4 46 5 93 4 85 -3 85 -3 88 -30z m172 14 c63 -31 76 -106 29 -167
l-21 -26 20 -52 c11 -29 23 -60 27 -69 6 -15 2 -18 -27 -18 -33 0 -36 3 -63
65 -15 36 -31 65 -36 65 -5 0 -9 -29 -9 -65 0 -65 0 -65 -29 -65 -24 0 -29 5
-35 31 -8 41 -8 213 0 273 l7 46 51 0 c29 0 66 -8 86 -18z m158 -27 c34 -97
31 -96 55 -25 18 53 26 66 46 68 42 6 43 -11 6 -109 -25 -63 -38 -118 -42
-166 -6 -72 -6 -73 -34 -73 -29 0 -29 1 -29 61 0 48 -9 82 -40 160 -49 123
-50 131 -8 127 28 -3 34 -9 46 -43z"/>
<path d="M3286 7628 c-19 -27 -22 -154 -4 -193 9 -20 18 -25 37 -23 31 4 50
49 50 118 0 98 -45 152 -83 98z"/>
<path d="M4290 7640 c-11 -6 -16 -32 -18 -90 -5 -96 9 -140 44 -140 34 0 47
33 47 120 0 105 -24 141 -73 110z"/>
<path d="M3486 7168 c-11 -16 -16 -46 -16 -98 0 -82 16 -120 51 -120 28 0 39
38 39 130 0 58 -4 83 -16 94 -21 22 -40 20 -58 -6z"/>
<path d="M4457 7183 c-4 -3 -7 -26 -7 -50 0 -39 2 -43 24 -43 30 0 37 10 38
51 1 38 -34 64 -55 42z"/>
<path d="M1060 7447 c0 -45 64 -174 149 -301 39 -58 71 -110 71 -116 0 -5 -7
-10 -16 -10 -35 0 -88 46 -155 134 -105 139 -119 154 -119 133 0 -10 5 -38 11
-62 27 -105 -50 -112 -176 -15 -68 53 -90 53 -82 3 3 -21 9 -48 13 -61 6 -21
5 -22 -22 -12 -43 17 -93 53 -100 73 -7 21 -30 23 -37 3 -30 -77 177 -314 365
-419 92 -51 188 -75 391 -97 195 -20 204 -23 401 -134 121 -68 238 -103 443
-132 59 -8 109 -17 112 -19 2 -3 -65 -5 -149 -5 -212 0 -271 16 -450 121 -91
53 -160 73 -350 104 -91 15 -199 35 -240 46 -115 29 -249 100 -327 172 -73 68
-188 203 -243 285 -36 54 -47 61 -56 38 -8 -22 18 -73 104 -201 106 -158 210
-260 317 -313 108 -54 184 -76 419 -123 l200 -39 143 -76 c167 -87 202 -99
337 -115 85 -10 370 -8 441 3 20 3 20 -3 23 -299 l2 -302 425 0 c233 -1 431 2
440 5 8 3 15 17 15 30 0 26 21 32 38 12 5 -7 15 -29 22 -49 12 -32 10 -39 -13
-76 l-26 -41 -83 1 c-76 2 -88 -1 -138 -29 -97 -55 -141 -168 -110 -283 11
-41 66 -111 87 -111 14 0 43 56 43 82 0 13 -9 34 -21 47 -27 29 -19 37 19 17
61 -31 77 -79 42 -123 -51 -65 -78 -266 -48 -354 33 -97 118 -181 245 -243
106 -52 199 -71 338 -70 141 1 242 24 341 80 80 44 166 137 188 200 30 88 15
314 -20 314 -8 0 -34 19 -59 43 -56 54 -60 90 -15 140 31 36 93 59 130 50 31
-8 24 -18 -21 -33 -23 -8 -48 -24 -56 -37 -14 -20 -14 -28 -1 -61 21 -57 67
-82 148 -82 131 0 205 82 204 230 0 84 -15 122 -64 163 -39 33 -88 47 -168 47
l-63 0 20 28 c11 16 48 59 83 97 l64 68 79 -39 c78 -39 80 -39 195 -39 103 0
120 3 167 26 48 24 52 24 56 7 5 -17 23 -18 295 -18 l291 0 3 95 c2 51 2 128
0 169 -3 63 -6 75 -23 79 -17 5 -19 15 -19 106 l0 101 25 0 c19 0 25 5 25 23
l0 22 233 0 c289 0 319 7 537 126 129 70 132 71 356 114 295 56 414 103 532
211 80 73 160 174 231 293 46 75 66 141 43 141 -4 0 -37 -42 -72 -92 -83 -119
-215 -257 -299 -313 -121 -80 -239 -117 -496 -154 -182 -27 -247 -48 -375
-121 -159 -91 -199 -101 -410 -98 -96 2 -168 6 -160 9 8 4 65 12 125 18 207
21 347 67 509 165 99 60 171 83 286 91 124 8 269 32 334 55 190 65 477 341
464 447 -4 33 -24 41 -33 13 -8 -24 -67 -66 -109 -76 -26 -6 -28 -5 -21 12 4
10 13 36 18 56 18 63 0 63 -88 3 -148 -101 -202 -80 -159 63 13 43 -12 21 -80
-68 -81 -107 -159 -180 -192 -180 -13 0 -24 3 -24 6 0 3 33 56 74 118 94 140
149 248 150 293 2 59 -19 48 -67 -34 -74 -127 -393 -543 -418 -543 -17 0 -9
104 16 205 36 140 43 160 86 248 45 90 46 97 20 97 -29 0 -88 -96 -206 -335
-115 -233 -175 -321 -266 -389 -103 -77 -272 -146 -322 -130 -30 9 -39 50 -26
113 14 69 45 131 120 241 65 96 80 136 55 146 -27 11 -79 -32 -242 -199 -170
-173 -220 -211 -249 -187 -15 12 -16 24 -9 85 11 98 11 209 -1 215 -5 3 -27
-26 -47 -65 -61 -113 -124 -158 -171 -122 -47 36 -97 192 -97 304 0 39 -5 75
-10 78 -18 11 -45 -4 -64 -37 -17 -28 -21 -60 -26 -213 -7 -208 -15 -235 -81
-265 -31 -13 -49 -15 -77 -9 -20 5 -73 9 -117 8 -120 -2 -135 -3 -143 -14 -4
-5 -21 -18 -39 -27 l-32 -16 -25 41 c-76 130 -172 154 -372 95 -98 -30 -121
-33 -234 -33 -113 1 -134 4 -221 33 -161 54 -248 41 -301 -43 l-23 -36 -135 3
c-162 4 -182 13 -199 86 -6 26 -10 108 -8 182 2 124 0 139 -21 183 -24 47 -54
73 -72 62 -6 -3 -10 -43 -10 -89 0 -153 -68 -306 -135 -306 -37 0 -95 59 -134
134 -18 36 -39 66 -46 66 -19 0 -25 -50 -15 -121 15 -100 13 -179 -5 -185 -35
-14 -108 43 -261 203 -194 203 -244 237 -244 164 0 -18 24 -61 69 -124 78
-110 110 -176 118 -247 7 -61 -2 -97 -25 -105 -23 -7 -139 28 -207 62 -162 83
-251 191 -383 466 -105 219 -174 327 -209 327 -21 0 -15 -26 18 -84 39 -70 72
-177 100 -327 14 -80 19 -123 12 -130 -19 -19 -352 406 -441 563 -32 56 -52
62 -52 15z m2589 -847 c105 -53 174 -216 174 -410 -1 -276 -134 -464 -288
-406 -195 75 -262 521 -111 743 35 53 101 93 153 93 19 0 51 -9 72 -20z m623
-9 c65 -41 112 -117 149 -236 7 -22 12 -85 11 -141 -1 -204 -72 -367 -184
-425 -127 -65 -265 50 -308 257 -26 124 -8 329 36 417 72 141 192 194 296 128z
m-969 -248 c4 -141 7 -329 7 -418 l0 -162 -77 -7 c-42 -3 -109 -6 -150 -6
l-73 0 -1 38 c0 20 -4 57 -7 82 l-8 45 -28 -77 c-28 -75 -30 -78 -61 -78 -30
0 -33 4 -66 78 l-34 77 -5 -80 -5 -80 -137 -3 -138 -3 0 414 0 414 77 7 c42 3
113 6 158 6 l81 0 24 -77 c12 -43 27 -93 32 -111 5 -18 13 -30 17 -27 5 2 21
52 36 109 l28 105 76 4 c42 1 115 4 162 5 l86 2 6 -257z m1584 229 c46 -24 76
-51 104 -97 l19 -30 0 68 0 67 93 2 c50 1 160 1 242 0 l150 -1 0 -133 0 -133
-92 -3 c-51 -1 -93 -7 -93 -12 0 -5 35 -10 78 -12 l77 -3 0 -120 0 -120 -77
-3 c-70 -3 -78 -5 -78 -22 0 -19 7 -20 99 -20 l98 0 7 -93 c3 -52 3 -108 0
-125 l-6 -32 -249 0 -249 0 -1 68 c0 56 -2 64 -12 47 -7 -11 -30 -38 -53 -61
-71 -71 -194 -92 -317 -54 -111 35 -167 109 -180 242 l-4 47 61 5 c33 4 76 7
95 9 l34 2 -50 32 c-112 72 -159 196 -123 324 21 73 90 147 166 175 59 22 207
14 261 -14z m-1337 -1819 c71 -17 212 -13 264 7 16 6 36 8 44 5 24 -9 -3 -32
-60 -51 -107 -35 -348 0 -348 52 0 11 5 14 18 9 9 -3 46 -13 82 -22z"/>
<path d="M3611 6204 c-45 -58 -51 -166 -14 -242 20 -42 63 -63 91 -46 103 65
85 314 -23 314 -24 0 -39 -7 -54 -26z"/>
<path d="M4216 6207 c-69 -69 -51 -264 28 -292 67 -24 130 91 111 204 -16 96
-87 140 -139 88z"/>
<path d="M2650 6531 l-75 -6 2 -330 c1 -181 2 -345 3 -362 l0 -33 80 0 80 0 0
133 c0 72 3 156 6 185 l7 52 59 -137 c33 -76 66 -154 75 -173 l15 -34 13 24
c8 14 40 92 72 174 l58 149 6 -59 c4 -32 7 -114 8 -181 l1 -123 95 0 95 0 0
283 c0 155 -3 319 -7 365 l-6 83 -111 -3 -111 -3 -49 -167 c-27 -93 -53 -168
-57 -168 -8 0 -89 246 -103 313 -7 30 -2 29 -156 18z"/>
<path d="M4646 6536 c-90 -34 -138 -104 -139 -203 -1 -114 40 -171 170 -237
83 -41 107 -66 107 -111 0 -40 -19 -65 -49 -65 -25 0 -55 29 -55 53 0 15 -13
17 -90 17 l-91 0 7 -37 c20 -112 100 -168 240 -167 98 0 160 31 192 96 32 63
38 141 18 210 -19 67 -52 98 -146 141 -105 47 -139 89 -119 147 16 44 55 51
86 16 13 -15 23 -36 23 -47 0 -17 7 -19 63 -19 34 0 72 3 85 6 21 6 23 11 17
48 -10 57 -34 96 -83 130 -35 25 -52 30 -119 33 -52 2 -91 -2 -117 -11z"/>
<path d="M5067 6524 c-4 -4 -7 -169 -7 -366 l0 -358 200 0 200 0 0 75 0 75
-100 0 -100 0 0 70 0 69 78 3 77 3 3 68 3 67 -81 0 -80 0 0 70 0 70 95 0 96 0
-3 78 -3 77 -186 3 c-102 1 -188 -1 -192 -4z"/>
<path d="M4895 6257 c39 -29 76 -66 97 -97 17 -25 18 -24 15 45 l-2 70 -70 2
-70 3 30 -23z"/>
<path d="M4357 5043 c4 -27 7 -85 7 -129 -2 -114 -45 -204 -141 -295 -156
-147 -382 -201 -635 -152 -49 9 -91 14 -94 10 -4 -3 -1 -27 5 -52 11 -44 10
-47 -27 -103 -22 -31 -51 -80 -65 -107 -30 -61 -72 -194 -63 -203 4 -3 36 8
72 26 35 18 66 32 68 32 3 0 2 -24 -1 -52 -4 -48 19 -233 31 -245 2 -3 22 7
43 21 20 14 41 26 45 26 5 0 8 -17 8 -37 0 -41 25 -156 39 -181 7 -12 16 -3
39 44 17 32 37 68 46 79 14 19 15 15 16 -47 0 -68 -12 -98 -66 -166 -20 -24
-23 -25 -39 -12 -26 21 -52 86 -60 148 -4 28 -9 52 -11 52 -2 0 -23 -13 -46
-30 -22 -16 -49 -30 -59 -30 -20 0 -22 12 -40 190 -6 63 -13 117 -15 119 -2 2
-17 -2 -34 -9 -19 -8 -32 -22 -36 -39 -17 -77 -39 -143 -66 -200 -28 -58 -32
-62 -40 -41 -19 51 -73 102 -172 161 -56 33 -126 81 -155 107 -46 41 -53 52
-56 90 -7 97 -96 187 -270 272 -118 58 -227 89 -346 97 -79 5 -88 4 -108 -16
-50 -50 -3 -133 105 -183 l52 -24 -113 4 c-113 4 -202 -7 -323 -43 -51 -15
-52 -17 -52 -53 0 -33 7 -44 72 -105 94 -87 200 -141 328 -167 114 -24 194
-25 364 -5 71 9 136 13 146 10 22 -7 100 -97 236 -270 193 -247 323 -360 387
-336 15 6 35 27 46 48 21 42 147 170 157 161 11 -12 -33 -264 -93 -533 -29
-130 -36 -182 -37 -275 -1 -108 1 -119 31 -189 18 -41 60 -116 94 -168 l62
-94 -24 -26 c-13 -15 -33 -36 -45 -47 -11 -12 -51 -58 -87 -104 -106 -131
-146 -228 -126 -302 9 -34 53 -88 239 -291 l85 -92 -50 6 c-111 15 -364 37
-423 37 -187 0 -325 -55 -489 -196 -42 -36 -43 -36 -43 -13 -1 21 -4 19 -25
-15 -19 -31 -26 -36 -30 -24 -4 9 -12 15 -19 12 -6 -2 -39 20 -71 50 -33 30
-61 53 -63 51 -2 -2 11 -30 27 -64 l31 -61 -37 0 -37 0 35 -37 c25 -26 29 -34
14 -29 -11 4 -40 11 -65 16 -44 8 -45 8 -84 -36 -22 -24 -43 -44 -48 -44 -5 0
-6 16 -2 35 4 24 2 35 -5 35 -24 0 -70 -30 -98 -64 -27 -33 -80 -63 -91 -51
-3 3 0 11 6 17 18 18 14 30 -8 24 -11 -3 -29 -9 -41 -12 -18 -5 -20 -3 -14 15
11 35 -16 25 -83 -29 l-62 -50 -17 35 c-21 44 -33 45 -34 3 0 -18 -4 -42 -8
-52 -7 -18 -10 -16 -33 15 -14 19 -31 45 -38 58 -12 24 -13 24 -26 6 -8 -10
-17 -33 -20 -52 -8 -40 -22 -41 -74 -7 -40 27 -110 48 -110 34 0 -11 99 -100
111 -100 5 0 9 -4 9 -9 0 -5 -19 -12 -43 -15 -42 -7 -42 -7 -17 -21 14 -8 50
-17 80 -21 30 -4 66 -15 80 -25 47 -35 257 -63 553 -75 160 -6 168 -7 186 -30
12 -15 25 -21 38 -18 12 3 24 1 27 -5 13 -20 91 -12 139 13 39 21 53 24 101
17 31 -4 58 -10 61 -13 6 -6 -26 -22 -97 -48 -32 -12 -58 -25 -58 -30 0 -11
38 -20 90 -20 31 0 41 -3 31 -9 -13 -8 -13 -12 -1 -26 12 -15 29 -17 102 -13
52 2 88 0 88 -5 0 -6 31 -8 78 -4 93 6 708 -9 740 -18 30 -10 28 -31 -5 -49
l-28 -14 49 -7 c26 -4 73 -5 103 -1 63 7 173 -11 173 -28 0 -7 -15 -20 -32
-29 l-33 -16 29 0 c17 -1 68 4 114 11 74 11 86 10 96 -3 22 -31 141 -34 129
-3 -7 18 47 41 149 64 54 12 80 14 87 7 13 -13 149 -18 157 -6 3 5 13 3 24 -3
14 -9 34 -9 83 0 35 7 80 12 98 12 26 0 30 3 19 10 -8 5 -31 10 -51 10 -40 0
-69 24 -52 41 27 27 246 42 270 18 7 -7 29 -9 60 -5 26 4 74 9 106 12 60 6 68
15 40 46 -9 10 -14 21 -11 24 3 3 46 5 94 5 75 1 92 4 107 20 11 12 31 19 55
19 21 0 43 5 49 11 7 7 24 6 58 -2 54 -14 242 -6 259 11 7 7 -5 10 -36 10 -52
0 -98 14 -98 30 0 5 7 10 15 10 13 0 15 7 9 37 l-7 38 39 -34 38 -34 8 37 c8
36 34 96 43 96 2 0 2 -13 -1 -29 -9 -44 28 -100 66 -101 8 0 21 10 29 22 l14
22 8 -21 c7 -19 12 -21 36 -13 15 4 59 11 96 15 93 8 217 34 244 51 19 12 20
17 10 44 -13 34 -21 36 -70 15 -51 -21 -63 -19 -94 15 -14 16 -35 30 -45 30
-30 0 -21 14 44 71 l62 54 -40 7 c-89 16 -142 6 -201 -38 -23 -16 -23 -16 2
27 18 34 24 57 22 99 -2 44 3 62 21 88 13 17 21 32 17 32 -22 0 -93 -49 -158
-110 -71 -66 -77 -70 -72 -43 2 15 7 45 10 65 4 26 16 46 43 69 l37 31 -50 -6
c-78 -10 -133 -42 -168 -98 -16 -26 -32 -48 -35 -48 -2 0 -3 26 0 58 3 40 11
69 27 91 13 18 21 35 17 38 -3 3 -55 -19 -116 -50 -106 -54 -110 -55 -110 -32
0 13 -5 36 -11 52 l-11 28 -16 -35 c-9 -19 -17 -36 -18 -38 -4 -7 -60 33 -107
76 -27 24 -50 42 -53 39 -3 -3 4 -31 15 -63 11 -32 19 -59 18 -60 -1 -1 -31
-16 -67 -34 -36 -18 -73 -39 -82 -48 -17 -14 -18 -13 -18 19 0 19 7 45 16 58
16 23 16 23 -7 16 -32 -11 -68 -34 -78 -53 -7 -12 -14 -5 -35 31 -15 25 -33
51 -41 57 -12 10 -13 4 -9 -37 5 -38 3 -52 -11 -63 -13 -11 -18 -11 -25 -1 -4
8 -16 11 -28 7 -13 -5 -42 4 -81 24 -101 50 -174 62 -358 58 l-163 -3 68 70
c225 232 336 351 362 387 32 43 40 101 20 139 -13 24 -12 24 41 -5 79 -44 151
-59 263 -54 102 5 184 28 231 64 20 15 19 17 -20 47 -96 76 -198 205 -326 411
-12 21 -16 21 53 -8 20 -9 39 -12 42 -7 10 16 26 145 26 211 0 150 -43 290
-112 360 -22 22 -67 54 -99 71 -65 32 -188 54 -255 45 -40 -5 -43 -3 -68 34
-14 22 -26 43 -26 47 1 5 36 29 79 55 186 112 383 277 432 362 54 94 41 126
-156 391 -148 200 -145 195 -204 312 -62 122 -159 274 -209 326 -32 33 -56 44
-177 83 -77 24 -146 47 -154 50 -11 3 -2 18 31 52 116 119 152 269 106 450
-10 39 -13 42 -45 42 l-34 0 8 -47z m-1803 -890 l57 -58 -44 -3 c-52 -3 -98
13 -144 52 -40 34 -41 41 -5 54 56 21 75 15 136 -45z m1735 -81 c22 -98 25
-167 6 -167 -5 0 -25 23 -43 50 -19 28 -40 51 -48 53 -8 2 -14 5 -14 8 0 12
64 154 69 154 4 0 17 -44 30 -98z m-99 -223 c0 -99 -14 -184 -32 -195 -5 -3
-34 11 -65 31 -30 20 -56 35 -58 33 -15 -17 -101 -216 -150 -347 l-28 -74 -18
34 c-39 74 -70 168 -67 206 l3 38 34 -53 c18 -29 37 -50 42 -45 4 4 28 58 54
118 70 169 98 229 112 245 12 13 20 9 58 -35 l43 -50 7 30 c12 54 14 60 30
118 9 31 21 55 26 52 5 -4 9 -51 9 -106z m460 -59 c40 -50 105 -118 145 -151
l73 -62 -32 -42 c-17 -23 -53 -73 -80 -111 -28 -38 -94 -112 -149 -164 -212
-203 -263 -256 -282 -292 l-19 -37 65 -68 c36 -37 98 -113 139 -168 173 -233
215 -275 279 -275 36 0 68 28 77 67 3 16 7 33 8 38 2 6 9 -9 16 -31 17 -57 4
-94 -43 -119 -44 -24 -46 -40 -12 -113 l24 -52 -28 14 c-71 37 -130 98 -207
212 -140 210 -260 355 -357 428 -28 21 -37 36 -37 57 0 41 92 162 187 246 43
37 95 86 116 107 l40 39 -5 284 c-2 156 -1 283 2 283 4 0 39 -41 80 -90z
m-694 -1890 c47 -17 99 -23 255 -29 108 -5 204 -13 214 -18 24 -14 95 -179 95
-223 0 -89 -109 -240 -258 -358 -110 -87 -146 -125 -188 -199 l-33 -59 62 -24
c34 -12 98 -35 142 -51 l80 -27 -70 -1 c-91 -1 -240 31 -309 66 l-54 28 69 94
c38 51 72 104 75 117 7 29 -52 108 -204 270 -114 122 -162 187 -162 221 0 12
10 33 23 47 25 29 189 166 198 166 3 0 32 -9 65 -20z m-856 -802 c0 -37 35
-102 50 -93 6 3 10 15 10 26 0 28 19 61 31 54 5 -4 9 -19 9 -34 0 -15 14 -48
30 -74 45 -71 41 -81 -16 -46 -29 17 -34 18 -34 5 0 -25 -14 -19 -69 30 l-51
46 0 -34 c0 -19 -2 -37 -5 -40 -3 -3 -26 6 -52 18 -25 13 -62 24 -80 24 -20 0
-32 4 -28 10 3 6 30 10 58 10 60 0 72 6 80 40 9 34 44 90 57 90 5 0 10 -15 10
-32z m2070 -159 c28 -29 90 -124 90 -141 0 -4 -34 14 -75 39 -41 26 -78 44
-80 41 -3 -3 -1 -25 4 -49 10 -44 15 -109 7 -109 -2 0 -30 16 -62 35 -76 46
-84 45 -84 -10 0 -25 -3 -45 -7 -45 -5 1 -17 15 -28 33 -11 17 -44 44 -75 60
l-55 29 50 -6 c28 -2 57 -6 65 -8 8 -2 14 4 15 12 1 17 22 16 79 -6 21 -8 40
-13 42 -12 8 8 -32 71 -62 98 -19 16 -34 32 -34 36 0 4 38 4 85 2 47 -3 85 -3
85 1 0 4 -7 17 -16 30 -16 22 -16 23 4 12 11 -6 34 -25 52 -42z m-1651 -59 c6
0 11 17 11 38 1 35 2 36 15 18 38 -51 -1 -131 -45 -91 -16 14 -18 14 -23 0 -8
-19 -37 -19 -63 0 -18 14 -18 14 5 15 25 0 26 12 5 90 -5 21 1 17 39 -22 25
-27 50 -48 56 -48z m111 11 c0 -10 -41 -53 -46 -49 -2 2 2 21 8 41 9 29 14 34
25 26 7 -6 13 -15 13 -18z"/>
</g>
</svg>
