<?xml version="1.0" standalone="no"?>
<!DOCTYPE svg PUBLIC "-//W3C//DTD SVG 20010904//EN"
 "http://www.w3.org/TR/2001/REC-SVG-20010904/DTD/svg10.dtd">
<svg version="1.0" xmlns="http://www.w3.org/2000/svg"
 width="2400.000000pt" height="2400.000000pt" viewBox="0 0 800.000000 800.000000"
 preserveAspectRatio="xMidYMid meet">
<metadata>
Created by potrace 1.16, written by Peter Selinger 2001-2019
</metadata>
<g transform="translate(0.000000,800.000000) scale(0.100000,-0.100000)"
fill="#fff" stroke="none">
<path d="M3862 7583 c-61 -82 -164 -220 -231 -308 -66 -87 -119 -160 -117
-162 1 -2 70 4 152 14 177 19 411 20 619 0 83 -8 151 -13 152 -13 1 1 -48 69
-108 151 -60 83 -135 186 -167 229 -129 180 -172 236 -181 236 -5 0 -59 -66
-119 -147z"/>
<path d="M2595 7457 c-2 -12 -13 -76 -24 -142 -18 -106 -82 -483 -96 -558 l-5
-27 53 29 c28 15 97 48 152 71 55 24 168 74 251 111 145 64 251 103 359 132
l50 13 -165 88 c-91 49 -219 119 -285 156 -285 158 -283 157 -290 127z"/>
<path d="M5230 7427 c-79 -44 -257 -146 -570 -325 l-45 -26 65 -14 c262 -58
445 -122 669 -234 l133 -66 -5 36 c-3 20 -26 136 -52 257 -25 121 -55 266 -67
323 -11 56 -24 102 -27 102 -3 0 -49 -24 -101 -53z"/>
<path d="M3740 7080 c-397 -38 -659 -115 -1058 -311 -240 -119 -406 -231 -638
-431 -427 -368 -751 -873 -914 -1428 -55 -187 -98 -406 -103 -521 l-2 -62 80
-29 c113 -42 279 -84 425 -108 113 -18 564 -49 574 -39 2 2 12 58 21 124 l16
121 -47 89 c-26 50 -63 108 -81 130 -29 34 -33 46 -31 85 3 44 4 45 33 41 92
-11 86 -15 110 79 27 106 64 218 74 225 5 2 11 -26 14 -63 9 -106 33 -158 107
-232 50 -50 89 -77 172 -119 171 -86 231 -155 70 -80 -122 57 -156 67 -285 83
-137 18 -212 31 -239 41 -36 14 -17 -18 52 -87 72 -72 83 -94 53 -100 -13 -2
4 -21 60 -65 42 -34 72 -63 65 -65 -35 -12 87 -88 142 -88 39 0 57 -15 41 -34
-12 -14 -10 -16 18 -16 17 0 31 -4 31 -10 0 -14 149 -12 183 3 18 8 37 29 50
57 19 38 74 90 96 90 4 0 6 -26 6 -57 0 -73 36 -149 83 -178 84 -52 97 -62
100 -84 2 -12 1 -30 -3 -38 -5 -14 -10 -12 -33 9 -15 14 -48 35 -73 46 -39 17
-89 65 -89 87 0 18 -44 104 -51 100 -4 -3 -11 -33 -15 -67 -5 -46 -14 -68 -36
-93 l-28 -33 38 -7 c33 -5 40 -12 60 -55 17 -37 30 -51 50 -56 77 -17 102 -26
102 -34 0 -13 -106 -13 -131 0 -17 10 -19 7 -19 -22 0 -24 12 -48 45 -88 43
-53 45 -57 45 -122 0 -44 7 -85 20 -118 11 -28 20 -71 20 -95 0 -80 -58 -217
-122 -290 l-40 -45 68 -31 c37 -17 83 -33 101 -36 31 -5 33 -4 33 26 0 32 14
42 23 17 10 -26 55 -50 71 -37 10 8 23 7 51 -4 30 -13 46 -14 90 -5 29 6 59
18 66 27 11 13 9 19 -13 37 -57 46 -46 125 45 296 33 63 70 133 81 155 15 29
22 68 26 146 6 88 11 112 29 138 24 33 57 47 89 36 27 -8 32 4 22 50 -5 22 -7
42 -4 44 9 10 74 -64 74 -85 0 -12 -11 -29 -25 -38 -14 -9 -25 -26 -25 -37 0
-12 -8 -23 -19 -26 -26 -7 -31 -22 -41 -120 -11 -102 -25 -133 -105 -223 -86
-98 -125 -176 -125 -249 0 -32 6 -65 13 -75 12 -17 16 -17 43 -4 64 33 144 29
144 -7 0 -9 9 -15 23 -15 38 0 55 -21 59 -75 4 -38 11 -58 31 -77 49 -49 48
-165 -1 -219 -15 -16 -33 -36 -41 -45 -11 -13 -24 -15 -60 -9 -25 3 -58 8 -73
10 -16 1 -31 4 -35 5 -5 1 -18 1 -29 1 -23 -2 -44 39 -44 87 0 24 1 24 54 18
60 -8 107 8 126 43 13 25 13 95 -1 144 -9 33 -13 37 -44 37 -19 0 -80 -9 -137
-20 -124 -24 -157 -25 -273 -12 -100 11 -101 12 -203 59 -40 18 -79 33 -86 33
-29 0 -39 -68 -33 -219 6 -160 13 -190 59 -238 48 -49 113 -67 212 -58 144 14
214 9 306 -21 47 -15 110 -33 140 -40 l55 -14 -85 4 c-47 2 -105 11 -130 20
-57 21 -320 35 -320 18 0 -20 68 -89 104 -106 39 -18 118 -21 147 -5 15 8 31
6 65 -7 59 -22 138 -14 204 22 27 15 50 31 50 36 0 5 29 22 65 38 80 36 148
98 186 170 21 40 27 47 23 25 -12 -58 -43 -115 -90 -165 l-47 -50 54 0 c77 0
144 -34 205 -104 33 -39 72 -70 119 -95 39 -20 95 -52 126 -69 31 -18 106 -48
165 -68 60 -20 113 -40 118 -44 10 -10 -25 -17 -163 -30 -469 -45 -949 76
-1338 337 -54 36 -130 92 -168 123 -96 78 -259 251 -320 339 -50 71 -50 71
-90 66 -107 -13 -582 -17 -702 -6 -115 11 -391 53 -435 67 -27 8 -23 -12 31
-134 176 -397 471 -790 806 -1072 361 -304 857 -551 1304 -650 270 -59 328
-65 656 -65 278 1 323 3 440 24 438 77 819 225 1179 458 348 225 660 533 880
867 148 224 261 455 352 721 43 123 96 322 110 411 l6 40 -54 12 c-256 55
-563 72 -855 46 l-61 -5 -17 -72 c-142 -608 -515 -1076 -1058 -1329 l-37 -17
14 27 c20 39 59 72 156 133 306 192 581 505 690 784 66 169 95 265 115 388 12
73 11 77 -6 77 -29 0 -197 -28 -254 -43 l-50 -12 -12 -68 c-16 -89 -52 -160
-84 -167 -19 -5 -29 -19 -50 -80 -14 -41 -32 -86 -39 -100 l-15 -25 -3 23 c-4
23 -22 31 -22 9 0 -14 -80 -131 -85 -125 -2 2 3 28 11 58 16 58 22 200 9 220
-4 7 -17 -15 -30 -53 -33 -94 -84 -174 -178 -274 -64 -69 -86 -99 -97 -136 -8
-32 -16 -45 -23 -38 -12 12 -15 95 -4 136 l7 30 -34 -38 c-19 -21 -47 -68 -62
-103 -16 -35 -33 -64 -38 -64 -13 0 0 127 20 183 20 60 96 175 163 247 61 66
108 155 117 221 4 27 10 49 14 49 15 0 39 -67 46 -124 l7 -58 18 29 c20 31 44
121 54 201 4 28 10 52 14 52 4 0 21 -24 36 -52 l29 -53 12 83 c9 64 19 95 45
135 18 29 44 72 57 96 25 43 26 44 35 20 5 -13 10 -54 10 -91 l1 -67 46 5 c65
8 68 10 73 41 l4 28 2 -27 c0 -16 7 -28 14 -28 6 0 89 10 182 22 232 30 756
33 935 5 292 -46 546 -136 728 -259 41 -27 75 -48 77 -46 2 1 -6 30 -16 63
-47 151 -63 271 -63 475 0 165 3 208 21 280 23 91 79 224 113 267 11 14 20 29
20 34 0 25 -239 162 -389 223 -339 137 -914 186 -1426 121 -154 -19 -152 -20
-169 13 l-15 27 -1 -40 c-1 -22 -7 -53 -14 -70 l-13 -30 -7 50 c-18 127 -79
282 -158 398 -42 61 -49 68 -41 37 3 -11 3 -20 1 -20 -3 0 -31 37 -63 83 -170
238 -318 376 -577 538 -161 100 -277 181 -302 208 -17 19 -12 18 90 -9 329
-86 648 -266 882 -499 166 -164 299 -346 400 -547 l40 -79 103 6 c277 18 610
7 814 -26 44 -7 82 -11 83 -10 14 13 -94 295 -184 480 -216 444 -513 802 -919
1107 -358 268 -734 441 -1156 532 -236 51 -643 77 -869 56z m405 -190 c60 -29
85 -69 85 -137 0 -44 -5 -58 -30 -86 -16 -19 -43 -40 -60 -47 -16 -7 -30 -15
-30 -19 0 -3 22 -14 49 -24 64 -23 107 -66 116 -116 10 -63 -4 -110 -46 -152
-58 -58 -108 -69 -356 -76 -191 -5 -213 -4 -213 10 0 9 12 22 28 29 l27 13 -2
259 c-1 142 -4 269 -7 282 -5 17 -16 26 -36 31 -23 4 -30 11 -30 29 0 23 2 23
123 27 237 8 331 2 382 -23z m724 -103 l36 -12 22 -329 c20 -298 24 -331 42
-350 13 -14 17 -26 12 -35 -11 -17 -37 -12 -173 30 -79 24 -99 34 -96 47 2 9
12 18 23 20 37 7 45 23 45 88 l0 63 -57 16 c-32 9 -78 23 -102 31 -67 21 -75
19 -104 -35 -32 -58 -33 -72 -7 -96 26 -23 27 -58 3 -51 -10 3 -31 8 -48 12
-70 16 -156 57 -153 72 2 9 13 19 26 22 12 3 36 18 52 34 33 30 339 435 359
474 11 21 18 23 48 17 20 -3 52 -12 72 -18z m-1743 -132 c105 -51 174 -166
182 -303 6 -109 -12 -156 -88 -232 -49 -49 -85 -71 -223 -139 -203 -99 -216
-102 -181 -27 l17 34 -103 218 c-57 121 -112 228 -122 239 -10 11 -31 19 -50
20 -22 0 -34 5 -36 16 -5 27 317 183 418 203 51 9 133 -3 186 -29z m2382 -166
c262 -174 318 -266 236 -391 -40 -63 -98 -82 -192 -64 l-43 8 15 -37 c19 -45
20 -85 2 -191 -8 -50 -9 -90 -4 -104 11 -31 2 -54 -18 -46 -35 13 -144 102
-144 117 0 9 9 68 20 130 27 152 26 159 -13 197 l-34 33 -61 -94 c-34 -51 -62
-98 -62 -105 0 -7 6 -21 12 -32 10 -15 10 -22 0 -32 -9 -9 -37 5 -127 66 -64
43 -114 83 -112 90 2 6 23 13 47 16 l44 5 143 212 c142 212 159 247 128 273
-12 10 -13 16 -4 26 6 8 16 14 21 14 5 0 70 -41 146 -91z m-3109 -186 c28 -32
51 -61 51 -65 0 -4 -10 -14 -23 -22 -20 -14 -27 -13 -69 2 -41 14 -49 15 -73
2 -37 -20 -115 -89 -115 -102 0 -12 129 -158 139 -158 4 0 24 15 44 34 35 32
37 37 31 74 -5 33 -3 42 13 50 16 9 27 2 74 -51 70 -78 73 -85 59 -102 -9 -11
-25 -13 -64 -9 -47 5 -53 4 -80 -25 l-29 -30 51 -58 c27 -32 64 -71 80 -87
l31 -28 29 21 c42 29 91 87 98 115 3 13 0 43 -6 67 -11 40 -10 45 10 61 12 10
26 15 32 12 13 -8 98 -124 98 -134 0 -8 -243 -224 -344 -307 -28 -22 -54 -39
-58 -37 -4 3 -5 24 -2 48 6 40 3 46 -43 102 -98 117 -285 319 -304 328 -12 6
-28 5 -43 -2 -25 -11 -36 -7 -36 14 0 16 371 341 392 343 3 1 29 -25 57 -56z
m2155 -388 c336 -227 451 -319 594 -479 83 -92 136 -166 177 -246 100 -197
111 -407 30 -568 -19 -37 -33 -67 -32 -68 74 -43 120 -64 142 -64 17 0 43 -14
70 -38 24 -21 63 -44 87 -51 70 -21 88 -30 95 -46 8 -22 -24 -88 -58 -121 -16
-15 -29 -34 -29 -41 0 -8 -16 -23 -35 -34 -20 -12 -35 -29 -35 -40 0 -13 -21
-28 -75 -53 -45 -21 -75 -41 -75 -50 0 -17 -14 -22 -87 -31 -34 -5 -53 -12
-53 -20 0 -19 -32 -27 -88 -24 -26 2 -57 -2 -69 -9 -19 -10 -32 -9 -79 7 -55
18 -57 18 -61 0 -5 -17 -8 -17 -72 6 -76 28 -141 87 -141 130 0 36 18 31 75
-18 28 -24 60 -49 73 -56 19 -10 22 -9 22 8 0 18 3 19 26 11 33 -13 34 -13 34
5 0 19 2 19 78 -5 81 -25 107 -25 126 1 9 14 32 24 63 30 79 14 136 39 123 53
-14 18 -2 26 36 26 46 0 67 9 54 25 -7 9 0 15 30 24 39 12 55 31 25 31 -8 0
-15 5 -15 10 0 6 9 10 21 10 26 0 57 16 92 48 40 38 34 48 -29 55 -40 4 -73
16 -108 38 -120 75 -116 74 -201 74 -75 0 -86 -3 -176 -48 -143 -71 -238 -94
-319 -79 l-45 8 45 8 c126 21 321 107 414 183 74 60 128 154 150 265 20 98 20
141 -1 209 l-17 54 -7 -80 c-8 -107 -22 -144 -80 -221 -27 -35 -54 -74 -60
-87 -17 -33 -51 -67 -60 -61 -5 3 -9 14 -9 26 0 16 -9 10 -48 -31 -40 -43 -54
-51 -84 -51 -19 0 -62 -12 -94 -27 -60 -27 -80 -27 -173 3 -23 7 -24 5 -18
-24 6 -27 4 -32 -14 -32 -11 0 -42 11 -69 25 -27 14 -52 25 -55 25 -13 0 -3
-30 25 -73 34 -55 25 -58 -45 -18 -99 57 -128 105 -129 217 -1 48 3 67 18 83
l20 22 15 -52 c9 -28 25 -58 37 -65 19 -13 20 -12 20 36 0 27 4 53 8 57 4 4
20 -7 34 -25 29 -34 42 -40 42 -19 0 7 6 21 13 32 14 17 15 17 34 -2 18 -18
27 -19 94 -11 57 7 94 19 164 55 50 25 98 53 109 62 29 26 53 81 70 164 15 70
15 84 1 143 -18 76 -42 126 -104 214 -70 99 -156 192 -260 277 -195 161 -315
282 -393 396 -39 57 -77 132 -78 152 0 6 39 -28 88 -75 48 -47 140 -121 206
-165z m-397 209 c27 -5 34 -15 61 -87 62 -162 169 -317 376 -545 235 -258 298
-369 280 -489 -8 -53 -33 -87 -87 -115 -35 -18 -61 -22 -162 -23 -66 -1 -133
-7 -148 -14 -40 -16 -41 -14 -22 15 9 14 14 32 11 39 -8 22 -138 84 -209 99
-34 8 -104 18 -156 22 -85 6 -97 10 -117 33 -22 26 -22 26 -58 8 -58 -27 -106
-21 -75 10 11 11 -38 25 -126 36 -16 2 18 5 76 6 70 0 122 -4 155 -14 27 -9
103 -22 169 -30 151 -19 211 -36 305 -87 60 -32 81 -38 105 -33 16 4 70 9 120
12 95 5 105 10 105 56 0 20 7 30 26 37 23 9 25 14 18 43 -19 89 -122 239 -149
217 -6 -5 -33 -13 -59 -16 -44 -6 -50 -4 -81 26 -29 28 -39 31 -76 28 l-44 -3
-3 83 -3 82 -62 67 c-34 38 -105 112 -157 166 l-95 99 -80 -7 c-44 -4 -127
-15 -185 -26 -151 -27 -150 -27 -150 20 0 22 -4 43 -10 46 -5 3 -10 19 -10 34
0 37 -17 51 -62 51 -59 0 -106 -27 -78 -45 22 -13 9 -34 -25 -41 l-35 -6 0
-63 0 -62 -47 -13 c-186 -47 -401 -157 -484 -246 -66 -71 -69 -83 -69 -276 l0
-177 -32 5 c-55 10 -131 49 -167 85 -71 70 -116 209 -104 320 6 57 9 62 62
111 401 367 883 559 1427 567 56 0 115 -2 131 -5z m1973 -154 c33 -41 63 -84
66 -95 3 -11 -29 -121 -71 -245 -42 -124 -74 -232 -73 -242 2 -12 41 15 141
98 139 116 150 131 127 174 -7 13 -5 21 6 31 14 11 20 8 45 -21 88 -106 112
-141 101 -152 -8 -8 -19 -8 -41 1 -37 16 -47 11 -170 -88 -51 -42 -108 -87
-125 -100 -17 -14 -65 -54 -106 -90 -41 -36 -83 -71 -92 -79 -16 -13 -20 -12
-38 9 -11 13 -29 38 -41 56 l-20 32 34 98 c54 151 146 447 142 451 -5 5 -230
-175 -288 -230 -34 -32 -38 -41 -35 -75 5 -60 -20 -51 -84 31 -72 92 -74 110
-15 101 37 -6 47 -2 88 27 94 68 350 281 359 298 6 12 7 28 1 43 -9 24 3 51
20 45 4 -2 35 -37 69 -78z m-2542 -62 c-6 -18 -28 -21 -28 -4 0 9 7 16 16 16
9 0 14 -5 12 -12z m-1652 -173 c62 -48 77 -78 72 -154 l-3 -67 49 14 c42 12
62 13 140 1 50 -8 96 -13 101 -12 6 1 22 5 37 9 47 11 45 -18 -5 -84 -25 -32
-51 -63 -59 -69 -9 -7 -50 -7 -143 3 -71 8 -139 11 -150 8 -22 -7 -65 -43 -65
-55 0 -9 123 -96 157 -112 16 -7 31 -6 53 3 60 25 53 -5 -28 -124 -41 -61 -77
-113 -79 -115 -9 -12 -32 24 -27 44 4 16 -2 31 -23 53 -28 30 -328 234 -392
267 -32 16 -35 16 -61 -4 -24 -17 -30 -18 -40 -6 -10 12 2 35 61 122 153 227
194 275 260 303 37 15 108 3 145 -25z m1869 -26 c-40 -25 -72 -35 -170 -51
-163 -26 -389 -56 -394 -52 -2 2 20 15 50 29 35 15 126 37 254 60 110 20 207
37 215 39 8 2 33 4 54 5 l40 1 -49 -31z m-167 -206 c-13 -27 -17 -28 -158 -45
-80 -10 -233 -29 -340 -42 -107 -13 -196 -22 -198 -21 -7 6 23 55 37 59 9 3
102 17 206 31 105 14 226 30 270 36 151 21 190 24 193 17 2 -4 -3 -20 -10 -35z
m474 -43 c60 -17 75 -75 26 -101 -34 -18 -136 -14 -159 7 -37 34 -15 86 41 97
43 8 54 7 92 -3z m-1621 -262 c36 -70 112 -166 141 -180 18 -8 88 -30 154 -48
l122 -33 48 40 c83 67 157 88 348 97 l99 5 -49 -23 c-33 -15 -77 -25 -137 -29
-97 -7 -167 -32 -226 -82 -37 -32 -70 -95 -71 -135 0 -36 -25 -67 -70 -90 -50
-26 -52 -25 -44 7 6 24 5 26 -17 19 -78 -21 -73 -22 -66 14 7 30 5 32 -16 25
-12 -4 -40 -9 -62 -12 l-40 -5 28 30 28 29 -49 5 c-68 7 -139 52 -177 113 -29
47 -30 51 -30 179 0 119 2 135 24 176 l24 45 13 -62 c7 -34 18 -72 25 -85z
m1083 106 c3 -9 6 -38 6 -65 l0 -49 -34 0 c-22 0 -36 6 -40 16 -11 28 -6 102
7 107 25 11 55 6 61 -9z m-149 -48 c11 -68 5 -81 -38 -84 l-37 -3 0 59 c0 67
3 72 41 72 25 0 28 -4 34 -44z m1081 4 c42 -46 54 -48 101 -19 31 20 35 20 56
5 12 -9 37 -26 55 -37 17 -12 32 -25 32 -31 0 -9 -325 -1 -342 9 -16 9 -8 73
12 93 29 29 46 25 86 -20z m-1236 -45 l0 -65 -35 0 -35 0 0 58 c0 32 3 62 7
65 3 4 19 7 35 7 28 0 28 0 28 -65z m-150 -15 l0 -70 -35 0 -35 0 0 64 c0 67
4 74 48 75 21 1 22 -3 22 -69z m-152 -17 c-3 -66 -4 -68 -30 -71 -28 -3 -28
-3 -28 61 0 71 3 77 37 77 23 0 24 -2 21 -67z m592 -83 c0 -5 -6 -10 -13 -10
-7 0 -46 -16 -86 -35 -41 -20 -75 -34 -77 -32 -9 9 68 70 98 77 48 11 78 11
78 0z m330 -89 c0 -8 -53 -32 -69 -31 -5 1 59 38 67 40 1 0 2 -4 2 -9z m54
-133 c16 -27 -4 -51 -54 -65 -24 -7 -46 -11 -48 -8 -2 2 5 16 17 31 11 15 21
35 21 46 0 15 6 19 26 16 15 -2 32 -11 38 -20z m358 -161 c-3 -47 0 -73 13
-96 22 -44 11 -51 -25 -16 -36 35 -39 77 -10 135 11 22 22 40 23 40 2 0 1 -29
-1 -63z m-792 11 c0 -45 15 -53 50 -28 l32 23 -7 -22 c-8 -25 -1 -26 55 -6 51
18 58 15 36 -17 -27 -39 -21 -45 46 -44 60 1 62 2 72 33 18 52 30 59 64 34 38
-27 65 -27 102 0 35 27 76 21 135 -19 l40 -27 -40 -5 -40 -5 33 -29 c17 -16
32 -33 32 -38 0 -4 -39 -8 -86 -8 l-86 0 6 -24 c4 -15 1 -28 -6 -32 -10 -6
-105 -13 -191 -14 -10 0 -38 -21 -64 -46 -49 -49 -63 -47 -63 9 0 36 -24 35
-47 -3 -9 -16 -21 -30 -25 -30 -14 0 -21 74 -11 112 6 21 7 38 2 38 -4 0 -29
-22 -55 -49 -47 -49 -70 -57 -59 -21 11 34 -16 32 -78 -6 -34 -20 -66 -39 -71
-42 -5 -3 -6 5 -3 18 6 22 4 22 -46 16 -135 -18 -164 -18 -218 -2 -94 28 -103
47 -28 61 27 5 40 2 53 -11 23 -23 85 -21 160 5 71 25 72 25 56 6 -18 -22 6
-20 77 7 74 27 128 80 145 141 13 50 28 62 28 25z m3171 -154 c-2 -139 0 -163
14 -178 15 -15 14 -16 -23 -16 -22 0 -48 3 -56 6 -15 6 -15 8 -2 18 20 15 27
307 8 314 -27 9 -9 23 25 20 l37 -3 -3 -161z m-780 140 c42 -21 69 -83 69
-162 0 -69 -20 -120 -64 -161 -20 -19 -23 -28 -15 -42 17 -33 47 -42 74 -25
30 20 35 20 35 1 0 -24 -45 -47 -87 -43 -31 2 -42 9 -62 41 -16 24 -32 37 -47
37 -61 0 -118 140 -94 230 17 63 45 105 83 124 41 20 70 20 108 0z m949 -50
c0 -21 -4 -25 -22 -22 -15 2 -24 11 -26 26 -3 18 1 22 22 22 21 0 26 -5 26
-26z m-592 -132 c2 -79 6 -104 17 -109 8 -3 15 -9 15 -14 0 -13 -78 -11 -82 2
-3 8 -14 7 -35 -5 -42 -21 -69 -20 -93 4 -17 17 -20 33 -20 105 0 67 -3 87
-15 91 -25 10 -6 24 31 24 l34 0 0 -84 c0 -46 3 -91 6 -100 8 -21 52 -20 76 1
24 21 26 144 3 163 -22 18 -8 32 28 28 l32 -3 3 -103z m243 89 c22 -18 24 -27
24 -105 0 -55 4 -89 13 -97 6 -7 12 -17 12 -22 0 -13 -62 0 -71 15 -6 9 -11 9
-23 -1 -22 -19 -73 -16 -97 4 -44 41 -1 101 80 112 41 6 42 6 39 42 -3 32 -6
36 -35 39 -24 2 -33 -1 -38 -17 -9 -30 -45 -28 -45 3 0 43 98 62 141 27z m497
-38 c2 -25 10 -34 33 -42 42 -14 38 -34 -6 -25 l-35 6 0 -85 c0 -86 6 -102 40
-102 8 0 17 -4 20 -10 3 -6 -13 -11 -37 -13 -61 -4 -73 18 -73 134 0 65 -4 94
-12 97 -9 3 -6 10 10 22 12 9 22 25 22 36 0 35 35 19 38 -18z m-158 -103 c0
-67 4 -110 10 -110 6 0 10 -4 10 -10 0 -13 -15 -13 -63 1 -32 9 -36 12 -24 22
10 8 17 40 21 94 6 77 5 83 -16 97 -22 16 -21 16 20 16 l42 0 0 -110z m-4015
71 c7 -12 -14 -18 -90 -27 -69 -8 -68 3 2 22 59 16 80 17 88 5z m4326 -43 c39
-11 49 -23 27 -30 -10 -4 -8 -23 6 -82 l18 -78 18 30 c44 73 52 93 39 108 -19
23 -7 24 36 4 22 -10 35 -19 28 -19 -11 -1 -90 -124 -132 -208 -27 -55 -51
-68 -96 -53 -35 12 -42 24 -26 48 7 11 12 10 28 -7 l20 -21 26 21 c15 11 27
30 27 41 0 32 -50 210 -66 236 -17 26 -9 27 47 10z m-2895 -160 c-5 -47 -5
-48 24 -48 68 0 107 -35 76 -69 -22 -24 -21 -26 24 -40 49 -14 57 -27 34 -52
-21 -23 -110 -27 -139 -5 -16 12 -17 16 -6 30 12 14 10 16 -10 16 -41 -1 -102
-36 -161 -94 -46 -44 -69 -59 -115 -71 -32 -8 -79 -22 -105 -29 -35 -10 -48
-11 -48 -3 0 25 21 42 92 76 60 30 79 45 105 86 28 43 31 51 17 56 -14 4 -10
10 17 32 27 22 31 29 20 36 -11 7 3 18 55 43 62 30 70 37 84 76 13 39 16 41
28 25 9 -12 12 -34 8 -65z m1084 -67 c0 -27 -43 -51 -87 -49 -37 1 -37 1 -5 5
32 4 42 17 20 26 -7 3 -1 6 13 6 15 1 29 8 33 16 8 21 26 19 26 -4z m866 -66
c-18 -14 -19 -27 -17 -157 1 -111 5 -145 16 -154 22 -17 7 -24 -48 -24 -48 0
-49 1 -34 18 18 20 23 129 9 207 -7 39 -8 37 -41 -75 -34 -116 -53 -153 -70
-135 -5 6 -23 46 -40 90 -57 144 -62 147 -55 20 4 -76 11 -115 21 -127 14 -15
13 -18 -13 -23 -16 -4 -34 -8 -41 -10 -20 -6 -24 8 -7 26 14 15 16 39 12 150
-3 112 -6 133 -22 144 -27 20 -11 35 37 35 l42 0 44 -112 44 -112 39 114 c21
63 40 121 43 128 3 7 23 12 52 12 44 -1 47 -2 29 -15z m664 -109 c0 -28 4 -35
25 -40 32 -8 33 -26 1 -26 -30 0 -36 -16 -36 -90 0 -78 6 -90 42 -90 26 0 29
-2 18 -16 -9 -10 -26 -14 -49 -12 -49 4 -61 32 -61 140 0 58 -4 88 -12 90 -8
3 -4 12 10 26 12 12 22 29 22 37 0 8 9 15 20 15 16 0 20 -7 20 -34z m-452 18
c27 -8 52 -51 52 -91 l0 -29 -70 4 -70 4 0 -31 c0 -44 33 -75 73 -67 17 4 34
12 39 19 5 9 10 9 18 1 19 -19 -36 -54 -85 -54 -36 0 -48 5 -69 31 -46 54 -34
176 21 208 20 12 57 14 91 5z m266 -35 c24 -19 26 -25 26 -106 0 -66 4 -91 17
-105 15 -17 14 -18 -20 -18 -26 0 -37 4 -37 15 0 11 -5 12 -26 5 -64 -25 -114
-3 -114 49 0 38 30 62 85 69 25 2 48 9 51 14 11 17 -6 57 -28 69 -18 10 -24 8
-39 -10 -20 -24 -59 -28 -59 -7 0 44 98 61 144 25z m-3803 -58 c26 -21 21 -34
-17 -45 -28 -8 -70 24 -61 47 9 23 49 21 78 -2z m1488 3 c2 -1 -6 -15 -17 -31
-11 -15 -31 -52 -46 -80 -16 -33 -41 -62 -64 -77 -41 -28 -99 -46 -88 -28 14
23 -99 27 -184 6 l-25 -7 27 29 c26 27 34 29 129 34 95 5 102 7 125 33 30 36
40 73 27 108 l-10 27 61 -5 c33 -3 63 -7 65 -9z m2721 -8 c40 -12 45 -17 48
-45 2 -23 -1 -31 -12 -31 -9 0 -16 5 -16 12 0 20 -32 48 -55 48 -40 0 -38 -29
2 -66 20 -19 40 -34 45 -34 10 0 38 -55 38 -76 0 -27 -30 -54 -59 -54 -14 0
-44 7 -66 14 -34 12 -40 19 -43 45 -4 40 7 39 41 -5 35 -42 70 -44 75 -3 2 21
-8 35 -52 73 -60 51 -72 88 -40 120 19 19 35 20 94 2z m-2885 -26 c4 -6 -1
-22 -10 -36 -13 -19 -23 -24 -47 -22 -42 4 -60 34 -34 54 23 16 82 19 91 4z
m-1035 -97 c29 -37 25 -81 -12 -139 -28 -42 -33 -60 -36 -129 l-4 -80 -25 65
c-38 99 -38 112 -8 174 25 51 26 60 16 100 -18 74 -16 81 19 56 16 -11 38 -32
50 -47z m667 -30 c2 -6 -21 -30 -51 -52 -66 -49 -85 -94 -58 -140 15 -27 14
-30 -6 -65 -26 -44 -28 -83 -7 -133 8 -20 13 -38 10 -41 -2 -3 -21 12 -41 32
-35 35 -36 37 -32 103 3 59 1 68 -15 71 -16 3 -18 10 -12 55 12 89 53 139 137
168 56 19 69 20 75 2z m521 -90 c-3 -55 -1 -70 14 -85 30 -30 19 -94 -29 -171
-14 -22 -22 -41 -20 -43 2 -3 17 0 32 6 15 6 30 8 32 6 7 -7 -47 -102 -71
-125 -12 -11 -38 -27 -58 -35 l-36 -16 25 46 26 47 -34 -6 c-19 -3 -61 -12
-93 -20 -44 -10 -69 -11 -98 -3 -32 9 -45 7 -69 -6 l-29 -17 0 47 c0 46 -2 49
-34 60 -39 14 -51 37 -38 72 5 13 4 39 -2 61 -8 32 -7 41 9 59 28 31 78 27
107 -10 l24 -30 73 9 c61 8 79 15 105 39 17 16 49 39 71 50 33 16 45 31 64 76
12 31 25 56 28 56 3 0 3 -30 1 -67z m242 -71 c37 -168 25 -285 -46 -425 -19
-37 -34 -77 -34 -88 0 -23 -70 -127 -130 -193 -19 -21 -69 -63 -110 -92 -84
-58 -107 -79 -163 -144 -26 -30 -48 -45 -65 -46 -15 -1 -29 -3 -32 -3 -3 -1
-20 -14 -37 -30 -30 -28 -129 -69 -139 -58 -3 3 16 22 42 43 25 22 65 58 87
82 22 23 46 41 53 38 7 -3 35 19 61 49 26 29 82 77 123 105 174 118 270 244
319 421 18 64 21 103 21 251 0 245 11 264 50 90z m2088 -348 c28 -19 28 -53 1
-88 -37 -46 -109 -25 -109 33 0 61 57 91 108 55z m-439 -131 c2 -2 -2 -14 -9
-28 -10 -19 -21 -25 -49 -25 -54 0 -84 -20 -100 -66 -13 -37 -12 -44 5 -80 35
-71 203 -164 300 -166 62 -1 98 17 124 64 25 44 23 97 -5 128 -16 18 -12 70 5
70 4 0 33 -12 64 -26 42 -19 55 -30 52 -42 -57 -189 -88 -250 -147 -294 -111
-83 -272 -54 -401 73 -66 65 -95 139 -84 214 8 51 63 168 100 212 l27 32 57
-31 c31 -17 59 -33 61 -35z m-1505 -245 c-4 -29 -15 -86 -25 -127 -21 -84 -24
-196 -5 -256 l12 -40 13 38 c7 20 16 37 20 37 9 0 31 -170 31 -237 0 -91 -58
-120 -136 -66 -21 14 -54 37 -73 50 -41 28 -55 29 -41 3 15 -27 -4 -26 -62 3
-53 27 -188 138 -182 149 14 22 86 5 183 -42 56 -27 104 -50 106 -50 2 0 -3
16 -11 35 -20 49 -18 51 21 16 35 -30 55 -39 55 -23 0 4 -7 29 -15 56 -22 71
-19 184 5 246 11 28 20 73 20 101 0 52 18 98 53 137 31 34 38 27 31 -30z
m-1890 -144 c31 -7 60 -39 53 -57 -6 -16 -91 -42 -106 -32 -7 3 -11 41 -11 93
l0 87 20 -42 c12 -28 27 -44 44 -49z m3059 4 c2 -7 3 -26 1 -43 -4 -27 5 -38
98 -116 57 -47 149 -123 206 -168 l103 -82 -20 -27 c-40 -56 -57 -65 -108 -58
-27 3 -127 15 -223 26 -96 11 -186 22 -198 25 -13 3 -22 2 -20 -4 6 -18 243
-211 267 -217 13 -4 32 -2 42 4 13 8 20 8 28 -1 7 -9 -7 -31 -53 -82 -35 -39
-68 -66 -72 -62 -5 5 -9 25 -9 45 0 34 -8 43 -165 179 -91 79 -173 145 -182
148 -10 4 -27 1 -39 -5 -25 -14 -46 0 -33 23 5 8 31 38 57 68 l49 53 111 -13
c287 -34 371 -40 356 -28 -2 2 -50 43 -107 91 -140 118 -144 119 -176 105 -45
-21 -49 2 -10 51 20 25 45 57 57 72 24 31 33 34 40 16z m-3589 -177 c82 -82
81 -65 2 -269 -31 -79 -56 -149 -56 -157 0 -9 32 4 93 39 160 91 226 126 236
126 16 0 161 -142 155 -152 -4 -6 -20 -7 -37 -4 -27 5 -36 1 -75 -41 -59 -63
-262 -311 -268 -327 -3 -7 0 -25 5 -40 21 -53 -15 -41 -103 36 -92 80 -103
105 -44 100 33 -3 39 1 81 55 24 32 81 101 125 153 45 51 80 95 78 97 -2 2
-85 -42 -186 -97 l-183 -101 -23 22 c-13 12 -24 27 -24 34 0 6 30 93 66 194
36 101 63 185 61 187 -4 5 -48 -42 -154 -163 -101 -115 -109 -128 -94 -160 8
-18 9 -29 1 -37 -7 -7 -31 10 -80 59 -38 38 -67 72 -64 77 3 5 20 6 38 3 40
-8 39 -8 207 175 162 178 165 183 150 216 -12 27 -7 44 12 44 7 0 43 -31 81
-69z m3125 -325 c9 -10 8 -16 -4 -26 -8 -7 -15 -20 -15 -29 0 -15 222 -334
266 -382 9 -10 30 -19 47 -21 17 -2 32 -7 33 -13 2 -5 -42 -43 -97 -84 -74
-54 -103 -71 -111 -63 -9 9 -8 18 2 36 7 14 10 32 6 41 -3 9 -48 75 -99 147
-50 72 -108 153 -128 182 -33 46 -40 51 -75 52 -55 1 -51 22 16 76 56 45 130
96 141 97 4 1 12 -5 18 -13z m-2425 -207 c105 -51 197 -98 205 -105 13 -12 11
-22 -14 -74 -16 -33 -31 -60 -34 -60 -39 1 -51 14 -51 56 0 31 -6 50 -21 65
-25 25 -108 62 -125 55 -12 -5 -84 -148 -84 -168 0 -5 16 -16 36 -24 37 -16
84 -12 84 6 0 15 40 12 46 -4 5 -13 -61 -166 -72 -166 -22 0 -44 24 -44 50 0
19 -9 35 -26 49 -46 36 -58 29 -103 -69 -22 -50 -41 -95 -41 -99 0 -13 84 -60
120 -67 23 -5 40 0 70 20 44 29 78 34 86 12 6 -15 -66 -148 -77 -144 -74 30
-418 206 -416 213 2 6 15 11 29 13 14 2 33 11 41 20 20 22 207 416 207 435 0
8 -7 20 -15 27 -17 14 -20 50 -4 50 6 0 97 -41 203 -91z m1929 -151 c9 -34 14
-66 11 -70 -10 -16 -48 -8 -80 17 -37 28 -70 31 -119 11 -39 -17 -54 -53 -39
-95 11 -31 41 -47 131 -67 137 -31 153 -37 191 -70 71 -60 77 -160 16 -233
-35 -42 -136 -88 -222 -101 -109 -17 -112 -16 -133 60 -15 50 -16 66 -6 72 24
15 50 7 90 -28 35 -32 44 -36 79 -31 97 13 137 97 74 156 -12 11 -53 28 -92
37 -185 43 -233 70 -255 144 -33 108 46 196 212 239 122 32 124 31 142 -41z
m-1281 -66 c7 -7 12 -38 42 -272 8 -63 20 -158 27 -210 10 -75 17 -99 36 -118
22 -22 31 -52 16 -52 -6 0 -102 19 -230 46 -25 5 -32 34 -8 34 32 0 51 33 47
83 -5 56 -12 61 -112 82 -99 21 -103 20 -128 -24 -28 -49 -28 -76 0 -95 17
-12 19 -19 11 -27 -9 -9 -32 -8 -95 5 -46 10 -89 19 -95 21 -20 6 -4 33 23 39
13 4 38 25 55 49 38 52 177 265 244 376 l50 82 55 -6 c30 -3 58 -9 62 -13z
m772 -24 c3 -7 7 -43 10 -80 l5 -68 -29 0 c-24 0 -32 6 -44 34 -17 42 -42 56
-95 56 l-41 0 1 -47 c0 -27 6 -137 13 -245 13 -202 19 -228 57 -228 12 0 19
-7 19 -19 0 -21 -28 -27 -183 -34 -64 -3 -80 -1 -85 11 -3 9 0 18 6 20 6 2 21
11 32 20 20 17 20 22 10 212 -5 107 -13 218 -16 246 l-6 51 -45 -7 c-52 -8
-68 -22 -80 -70 -7 -27 -15 -36 -35 -38 -30 -4 -38 15 -38 100 0 69 -22 61
230 81 250 19 310 20 314 5z"/>
<path d="M3880 6736 l0 -116 38 0 c99 0 152 41 152 116 0 34 -6 51 -27 74 -24
27 -37 31 -95 37 l-68 6 0 -117z"/>
<path d="M3886 6438 c3 -62 7 -119 10 -125 5 -18 85 -16 133 3 50 20 74 56 74
110 0 81 -56 124 -162 124 l-61 0 6 -112z"/>
<path d="M4722 6613 c-62 -82 -124 -174 -121 -177 6 -6 145 -46 158 -46 12 0
15 169 3 231 l-7 36 -33 -44z"/>
<path d="M2822 6569 c-29 -12 -56 -27 -58 -33 -7 -17 216 -476 231 -476 6 0
35 15 65 33 76 46 103 98 97 190 -9 130 -99 266 -196 295 -52 16 -77 14 -139
-9z"/>
<path d="M5460 6332 c-25 -37 -55 -83 -67 -103 l-23 -37 48 -31 c29 -18 62
-31 81 -31 39 0 86 31 106 70 18 36 19 99 1 122 -15 21 -86 78 -95 78 -3 0
-26 -31 -51 -68z"/>
<path d="M1734 5601 c-32 -19 -84 -80 -84 -97 1 -10 185 -134 200 -134 5 0 22
19 36 42 48 76 26 150 -58 194 -36 19 -57 18 -94 -5z"/>
<path d="M3816 4601 c-62 -41 -52 -69 21 -58 45 8 45 8 32 45 -13 37 -15 38
-53 13z"/>
<path d="M5797 4682 c-37 -41 -44 -199 -11 -263 24 -48 64 -49 99 -1 30 41 34
204 6 250 -24 37 -67 44 -94 14z"/>
<path d="M6412 4494 c-48 -33 -6 -92 44 -59 33 22 34 75 1 75 -12 0 -33 -7
-45 -16z"/>
<path d="M6346 4088 c-29 -42 -21 -58 29 -58 39 0 45 3 45 21 0 55 -46 78 -74
37z"/>
<path d="M6598 3969 c-22 -13 -23 -52 -2 -70 25 -21 69 8 69 46 0 25 -5 30
-25 32 -14 2 -33 -2 -42 -8z"/>
<path d="M3526 1759 c-41 -61 -97 -161 -93 -165 8 -9 143 -32 148 -26 3 4 -1
58 -10 121 l-16 115 -29 -45z"/>
<path d="M1506 6703 c3 -21 22 -195 44 -386 21 -192 40 -350 42 -352 2 -3 33
30 68 73 156 188 353 369 553 507 47 33 86 62 87 65 0 4 -86 20 -330 61 -149
25 -439 69 -452 69 -13 0 -15 -8 -12 -37z"/>
<path d="M6355 6724 c-180 -27 -631 -106 -643 -113 -9 -5 -2 -15 25 -33 21
-14 99 -72 173 -130 135 -105 238 -201 378 -355 41 -46 77 -82 78 -80 10 10
76 643 72 690 l-3 33 -80 -12z"/>
<path d="M6510 5816 c0 -3 28 -47 61 -98 71 -108 210 -387 265 -535 22 -57 41
-103 44 -103 5 0 43 66 162 284 27 49 62 112 77 140 95 171 94 168 22 181 -20
3 -85 17 -146 30 -159 35 -342 74 -400 86 -27 5 -58 12 -67 15 -10 3 -18 3
-18 0z"/>
<path d="M1375 5790 c-49 -10 -207 -41 -349 -69 -143 -28 -261 -53 -263 -55
-6 -5 89 -175 215 -385 57 -96 110 -188 119 -204 8 -16 18 -25 23 -21 4 5 23
54 43 109 87 247 142 361 257 531 39 57 70 106 70 109 0 8 -15 6 -115 -15z"/>
<path d="M846 4643 l-169 -84 34 -35 c50 -52 234 -174 243 -162 5 6 68 359 64
363 -1 1 -79 -35 -172 -82z"/>
<path d="M463 4458 c-90 -44 -163 -84 -163 -90 0 -16 174 -227 185 -224 18 4
92 145 118 224 28 86 44 172 31 171 -5 0 -82 -37 -171 -81z"/>
<path d="M652 4411 c-28 -110 -107 -271 -172 -352 -79 -99 -186 -182 -307
-239 -29 -14 -53 -28 -53 -31 0 -3 28 -42 62 -85 176 -227 458 -441 708 -539
172 -67 461 -128 735 -156 145 -14 571 -14 710 0 61 7 159 19 219 28 108 16
108 16 122 49 8 18 39 59 71 91 112 115 130 203 88 413 -23 113 -33 144 -62
187 -32 47 -35 57 -31 105 5 44 1 59 -19 91 -14 23 -39 45 -61 54 l-37 15 38
30 c30 24 37 37 37 64 0 38 1 37 -55 24 -130 -30 -329 -44 -650 -44 -368 -1
-452 8 -708 70 -235 58 -430 149 -553 259 l-60 53 -22 -87z m265 -376 c54 -22
84 -55 49 -55 -33 0 -38 -38 -34 -239 3 -170 6 -201 23 -236 24 -48 61 -71 99
-61 48 12 56 51 56 274 0 186 -1 200 -20 217 -22 20 -27 45 -7 44 27 -2 131
-45 135 -57 2 -6 -5 -15 -15 -19 -10 -3 -21 -11 -25 -17 -4 -6 -8 -102 -8
-214 0 -217 -5 -243 -52 -276 -31 -22 -101 -20 -148 4 -38 19 -78 64 -96 105
-4 11 -10 127 -13 257 -6 231 -7 237 -30 261 -12 14 -20 31 -16 37 7 12 18 9
102 -25z m591 -162 l52 -14 0 -65 c0 -57 -2 -64 -20 -64 -13 0 -22 10 -29 36
-14 51 -38 74 -77 74 -45 0 -69 -35 -59 -87 5 -29 26 -56 95 -125 91 -90 110
-123 110 -196 0 -46 -23 -95 -53 -115 -34 -22 -118 -22 -180 -1 l-47 16 0 74
c0 66 2 74 19 74 14 0 21 -11 29 -43 15 -57 44 -87 87 -87 41 0 65 29 65 79 0
45 -27 85 -98 148 -73 64 -102 119 -102 195 0 46 5 62 25 87 38 44 69 46 183
14z m321 -43 c116 -19 174 -65 207 -162 46 -137 -6 -317 -105 -368 -43 -21
-76 -25 -193 -22 -81 2 -99 14 -58 40 19 12 20 23 20 247 0 224 -1 235 -20
245 -11 6 -20 15 -20 20 0 13 88 13 169 0z m559 -207 c73 -230 86 -263 107
-263 25 0 17 -27 -10 -34 -13 -3 -52 -9 -85 -13 -64 -6 -77 3 -39 29 21 13 21
17 9 67 l-13 54 -60 -7 c-33 -3 -70 -6 -82 -6 -17 0 -25 -9 -33 -39 -16 -52
-15 -80 3 -87 31 -12 14 -31 -31 -38 -69 -9 -84 -8 -84 9 0 8 4 15 10 15 5 0
14 9 20 21 23 42 131 395 135 439 2 25 4 46 5 48 0 1 19 2 43 2 l43 0 62 -197z"/>
<path d="M1785 3778 c-3 -7 -4 -112 -3 -233 l3 -220 35 -3 c46 -3 92 26 116
74 15 32 19 61 19 154 0 102 -3 119 -23 156 -26 44 -58 68 -110 79 -23 5 -34
3 -37 -7z"/>
<path d="M2241 3615 c-17 -55 -31 -103 -31 -107 0 -9 91 -11 113 -2 12 4 10
19 -10 92 -14 48 -28 93 -33 101 -5 10 -18 -17 -39 -84z"/>
<path d="M7641 4474 c-34 -44 -71 -132 -98 -233 -22 -81 -27 -124 -30 -276 -4
-163 -2 -192 21 -308 36 -184 72 -294 106 -329 56 -55 63 -33 25 82 -88 264
-93 585 -13 805 16 44 40 99 54 122 30 51 31 101 3 137 -26 33 -42 33 -68 0z"/>
<path d="M7026 3493 c-32 -163 -93 -359 -174 -555 -21 -54 -36 -98 -33 -99 18
-1 721 177 721 184 0 6 -256 466 -264 475 -8 8 -177 73 -203 78 l-30 6 -17
-89z"/>
<path d="M550 3133 c-53 -93 -67 -123 -57 -123 2 0 157 -38 345 -85 187 -47
346 -85 351 -85 5 0 -10 42 -33 93 l-44 92 -88 26 c-115 33 -217 77 -326 138
l-88 49 -60 -105z"/>
<path d="M1320 2564 c0 -8 -18 -97 -39 -197 -22 -100 -54 -249 -71 -332 -17
-82 -34 -158 -37 -168 -5 -18 4 -19 209 -13 117 4 276 9 353 12 l140 5 -117
120 c-161 165 -322 384 -400 544 -22 46 -38 58 -38 29z"/>
<path d="M6634 2513 c-100 -175 -273 -398 -419 -543 l-95 -95 352 -10 c235 -7
354 -7 356 0 1 6 -27 141 -63 300 -36 160 -71 314 -77 343 -6 28 -14 52 -18
52 -5 0 -20 -21 -36 -47z"/>
<path d="M5880 1667 c-143 -116 -374 -264 -555 -352 -93 -46 -162 -86 -155
-89 172 -58 359 -123 450 -156 134 -48 230 -80 246 -80 7 0 18 53 28 138 9 75
23 182 31 237 39 278 47 344 43 357 -2 10 -30 -7 -88 -55z"/>
<path d="M2036 1689 c3 -19 9 -56 14 -84 5 -27 16 -106 25 -175 9 -69 22 -172
30 -230 8 -58 17 -131 21 -163 6 -58 6 -58 36 -52 16 4 102 32 191 62 89 30
234 79 322 109 88 30 166 56 174 59 7 3 -74 49 -180 103 -221 111 -449 254
-626 395 -10 7 -12 2 -7 -24z"/>
<path d="M2990 1175 c0 -5 46 -105 139 -300 37 -77 94 -199 126 -272 33 -73
64 -132 68 -133 8 0 120 91 461 374 l169 141 -174 17 c-272 27 -454 64 -671
137 -65 22 -118 38 -118 36z"/>
<path d="M4917 1144 c-201 -78 -470 -132 -750 -150 -59 -4 -106 -10 -105 -15
2 -4 73 -63 158 -131 85 -68 226 -181 313 -252 88 -70 162 -124 167 -120 4 5
43 86 85 179 42 94 90 199 107 235 34 72 128 282 128 287 0 6 -16 1 -103 -33z"/>
</g>
</svg>
