<?xml version="1.0" standalone="no"?>
<!DOCTYPE svg PUBLIC "-//W3C//DTD SVG 20010904//EN"
 "http://www.w3.org/TR/2001/REC-SVG-20010904/DTD/svg10.dtd">
<svg version="1.0" xmlns="http://www.w3.org/2000/svg"
 width="924.000000pt" height="392.000000pt" viewBox="0 0 462.000000 196.000000"
 preserveAspectRatio="xMidYMid meet">
<metadata>
Created by potrace 1.16, written by Peter Selinger 2001-2019
</metadata>
<g transform="translate(0.000000,196.000000) scale(0.100000,-0.100000)"
fill="#fff" stroke="none">
<path d="M3270 1953 c-695 -86 -1494 -416 -2077 -855 l-93 -70 -64 56 -64 57
-68 -3 -68 -3 96 -83 95 -83 -106 -107 c-218 -218 -311 -381 -311 -542 0 -148
82 -236 271 -291 94 -27 374 -37 530 -19 153 17 356 56 346 66 -2 2 -37 -3
-78 -11 -108 -23 -311 -45 -409 -45 -244 1 -422 67 -495 184 -27 44 -30 58
-30 130 0 70 4 90 32 149 18 37 49 93 70 125 38 57 248 282 264 282 4 0 38
-27 76 -60 67 -59 68 -60 131 -60 34 0 62 4 62 8 0 5 -44 47 -99 93 l-98 86
111 82 111 83 3 -176 2 -176 50 0 50 0 0 70 0 70 140 0 140 0 0 -70 0 -70 45
0 45 0 0 125 c0 134 -7 161 -52 201 -39 36 -84 44 -242 44 l-151 0 79 51 c480
308 1134 568 1661 660 169 30 452 33 558 6 328 -82 370 -327 111 -644 -48 -59
-62 -69 -102 -79 -61 -14 -88 -31 -115 -74 -19 -30 -22 -52 -26 -164 l-3 -128
178 4 c212 4 244 14 282 88 19 39 22 60 22 162 l0 118 -130 0 -130 0 81 97
c130 157 201 327 184 437 -21 124 -112 206 -286 257 -64 19 -103 22 -284 24
-115 2 -226 1 -245 -2z m-1506 -933 l20 -20 -137 0 -137 0 0 27 0 26 117 -6
c99 -6 120 -10 137 -27z m2223 -42 c-9 -103 -16 -108 -168 -108 l-119 0 0 63
c0 72 17 104 58 110 15 2 74 5 131 6 l104 1 -6 -72z"/>
<path d="M0 1230 c0 -11 2 -20 4 -20 2 0 11 -3 20 -6 12 -5 16 0 16 20 0 19
-5 26 -20 26 -13 0 -20 -7 -20 -20z"/>
<path d="M166 1198 c-9 -35 -7 -68 4 -68 6 0 10 -9 10 -19 0 -20 -18 -31 -51
-31 -16 0 -19 -7 -19 -45 0 -45 0 -45 35 -45 l35 0 0 -110 0 -110 50 0 50 0 0
140 0 140 145 0 c80 0 145 -4 145 -8 0 -5 -8 -16 -18 -25 -15 -14 -40 -17
-130 -17 l-112 0 0 -46 0 -46 128 4 c186 5 222 32 222 163 l0 65 -204 0 -205
0 6 34 c5 31 3 33 -27 40 -50 10 -57 8 -64 -16z"/>
<path d="M50 1156 l0 -46 40 0 40 0 0 40 c0 36 -3 40 -24 40 -13 0 -31 3 -40
6 -13 5 -16 -2 -16 -40z"/>
<path d="M710 1100 l0 -40 45 0 45 0 0 40 0 40 -45 0 -45 0 0 -40z"/>
<path d="M1930 955 l0 -185 50 0 50 0 0 141 0 141 151 -4 c151 -3 151 -3 175
-31 22 -26 24 -36 24 -138 l0 -110 48 3 47 3 3 83 c4 125 -10 190 -52 229 -19
17 -51 36 -73 42 -21 6 -125 11 -230 11 l-193 0 0 -185z"/>
<path d="M2520 956 l0 -186 45 0 45 0 0 70 0 70 140 0 140 0 0 -70 0 -70 50 0
50 0 0 118 c0 102 -3 124 -22 162 -39 76 -64 84 -270 88 l-178 4 0 -186z m340
74 c43 -23 17 -30 -115 -30 l-135 0 0 27 0 26 115 -6 c63 -3 124 -11 135 -17z"/>
<path d="M3010 1095 l0 -45 80 0 80 0 0 -140 0 -140 45 0 45 0 0 140 0 140 80
0 80 0 0 45 0 45 -205 0 -205 0 0 -45z"/>
<path d="M3460 1100 l0 -40 45 0 45 0 0 40 0 40 -45 0 -45 0 0 -40z"/>
<path d="M4140 955 l0 -185 45 0 45 0 0 130 c0 72 3 130 8 130 41 -1 206 -141
263 -225 22 -32 28 -35 72 -35 l47 0 0 185 0 185 -45 0 -45 0 0 -106 0 -106
-62 54 c-121 105 -218 158 -289 158 l-39 0 0 -185z"/>
<path d="M710 900 l0 -130 45 0 45 0 0 130 0 130 -45 0 -45 0 0 -130z"/>
<path d="M3460 900 l0 -130 45 0 45 0 0 130 0 130 -45 0 -45 0 0 -130z"/>
<path d="M2150 890 l0 -120 50 0 50 0 0 120 0 120 -50 0 -50 0 0 -120z"/>
<path d="M4140 615 l0 -105 25 0 25 0 0 105 0 105 -25 0 -25 0 0 -105z"/>
<path d="M4224 628 c3 -17 6 -50 6 -74 0 -40 2 -44 24 -44 23 0 25 4 28 53 3
45 6 52 26 55 21 3 22 0 22 -52 0 -53 1 -56 25 -56 24 0 25 2 25 64 0 40 -5
68 -13 74 -7 6 -44 11 -81 11 l-68 -1 6 -30z"/>
<path d="M4432 637 c-38 -41 -24 -109 26 -128 39 -15 92 -3 92 21 0 16 -5 18
-28 14 -30 -6 -62 15 -62 40 0 20 29 40 58 41 17 0 28 6 30 18 3 14 -4 17 -46
17 -38 0 -53 -5 -70 -23z"/>
<path d="M4566 544 c-9 -22 17 -49 39 -40 10 3 15 15 13 28 -4 29 -42 37 -52
12z"/>
</g>
</svg>
