<?xml version="1.0" encoding="UTF-8"?>
<svg xmlns="http://www.w3.org/2000/svg" viewBox="0 0 514 483" width="514" height="514">
<g transform="translate(-0.015135,514.037275) scale(0.100000,-0.100000)" fill="none" stroke="none">
  <path fill="#82796F" d="M859 5108 c13 -56 -5 -173 -34 -227 -56 -102 -193 -124 -277 -44
l-27 26 -25 -29 c-50 -57 -46 -126 9 -161 45 -30 138 -31 253 -3 132 32 220
81 334 188 55 51 116 101 136 111 99 50 231 52 385 7 185 -55 307 -24 307 77
0 43 0 43 -52 62 -49 17 -91 19 -534 22 l-482 3 7 -32z"/>
  <path fill="#82796F" d="M3309 5112 c-29 -76 -41 -150 -37 -232 5 -100 25 -145 79 -174 55
-30 109 -16 229 57 195 120 221 128 415 128 135 0 299 -27 375 -63 25 -12 65
-39 90 -61 110 -97 192 -101 373 -17 98 45 212 80 261 80 l46 0 0 155 0 155
-367 0 c-349 0 -369 -1 -409 -20 -70 -34 -105 -36 -168 -7 l-55 26 -411 0
-411 1 -10 -28z"/>
  <path fill="#82796F" d="M630 3391 c-93 -14 -220 -51 -280 -81 -55 -28 -96 -67 -154 -148 -35
-49 -43 -53 -126 -61 l-65 -6 -2 -280 -3 -280 68 -23 c142 -49 166 -53 207
-40 60 20 80 55 77 137 -1 55 2 71 16 85 17 15 22 15 73 -3 110 -38 187 -93
203 -148 8 -26 53 -54 127 -78 130 -43 169 -91 169 -206 0 -70 2 -78 25 -93
13 -9 37 -16 52 -16 24 0 32 8 55 58 15 31 30 68 34 82 16 63 129 132 281 174
265 72 381 115 405 150 13 19 9 54 -8 60 -29 11 -91 6 -135 -11 -34 -13 -78
-17 -189 -17 -157 -1 -150 -3 -275 70 -44 25 -60 29 -125 28 -41 0 -100 -6
-130 -13 -80 -19 -180 -9 -236 24 -24 14 -42 30 -39 35 7 11 157 60 183 60 33
1 102 39 113 64 10 20 9 30 -4 50 -21 32 -54 38 -155 27 -100 -10 -145 -2
-183 35 -48 46 -36 100 29 133 50 25 85 32 215 40 103 7 112 9 134 35 43 50
27 103 -40 137 -34 18 -63 22 -152 25 -60 1 -135 -1 -165 -5z"/>
  <path fill="#82796F" d="M2260 1444 c-14 -2 -59 -9 -100 -14 -41 -6 -105 -18 -142 -26 l-68
-16 0 -43 c0 -71 57 -120 188 -158 45 -14 54 -14 58 -2 18 47 118 74 310 84
162 9 199 19 223 63 14 25 14 29 -5 54 -34 47 -81 57 -269 60 -93 1 -181 0
-195 -2z"/>
  <path fill="#82796F" d="M5122 1233 c-5 -10 -20 -49 -32 -88 -13 -38 -32 -88 -42 -110 -31
-61 -117 -139 -184 -166 -54 -22 -71 -24 -213 -21 l-153 3 -87 -48 c-110 -60
-166 -64 -251 -16 -93 53 -126 57 -217 28 -43 -13 -87 -25 -98 -25 -35 0 -134
29 -204 60 -105 46 -154 54 -217 35 -38 -11 -60 -25 -79 -49 -65 -85 -96 -291
-58 -391 41 -108 131 -123 263 -42 30 19 84 52 120 74 90 55 168 73 323 73 96
0 155 -6 241 -24 130 -28 148 -36 233 -104 34 -28 79 -56 99 -62 60 -20 138
-7 244 40 117 52 240 90 291 90 l39 0 0 380 c0 209 -2 380 -5 380 -2 0 -8 -8
-13 -17z"/>
  <path fill="#82796F" d="M1452 1165 c-75 -18 -132 -60 -160 -118 -33 -69 -47 -72 -237 -52
-88 9 -176 15 -195 14 -32 -4 -35 -7 -38 -41 -2 -21 8 -82 21 -135 20 -82 23
-109 16 -169 -9 -85 -26 -129 -65 -168 -38 -37 -63 -46 -135 -46 -53 0 -63 3
-98 35 l-39 35 -25 -30 c-33 -38 -40 -64 -33 -105 14 -74 127 -95 293 -55 133
32 222 80 321 174 111 104 140 124 214 147 86 27 164 24 298 -12 220 -58 330
-33 330 76 0 36 -3 45 -17 45 -23 0 -114 42 -153 71 -34 26 -88 105 -108 159
-7 19 -16 70 -19 113 l-6 77 -56 -1 c-31 0 -80 -7 -109 -14z"/>
  <path fill="#C2B49A" d="M0 5121 c0 -19 2 -19 53 -5 28 8 57 17 62 19 6 2 -18 4 -52 4 -56 1
-63 -1 -63 -18z"/>
  <path fill="#C2B49A" d="M480 5135 c0 -4 5 -16 11 -27 6 -12 15 -64 20 -117 11 -123 11 -126
35 -152 46 -52 148 -65 215 -27 36 20 44 30 40 51 -1 5 2 6 7 3 13 -8 42 60
48 113 3 25 7 59 9 74 3 15 1 26 -3 23 -4 -2 -7 10 -7 27 l0 32 -187 3 c-104
1 -188 0 -188 -3z"/>
  <path fill="#C2B49A" d="M1831 5125 c44 -24 144 -35 404 -45 276 -10 349 -21 510 -75 126 -42
167 -64 183 -100 10 -22 9 -27 -11 -39 -12 -8 -54 -16 -94 -19 -80 -5 -142
-34 -187 -88 -32 -38 -33 -54 -1 -75 27 -17 33 -48 13 -61 -7 -4 -73 -8 -146
-8 l-134 0 -29 -33 c-47 -52 -36 -110 27 -145 7 -4 68 -18 137 -32 116 -23
249 -65 316 -100 16 -8 85 -56 152 -106 156 -117 202 -138 314 -146 74 -5 85
-8 79 -22 -4 -9 -7 -24 -8 -33 0 -9 -2 -15 -4 -13 -2 2 -21 -6 -41 -19 -20
-12 -51 -28 -69 -35 -17 -8 -46 -29 -62 -48 -24 -27 -30 -43 -30 -81 0 -80 49
-130 183 -188 151 -64 192 -132 208 -338 5 -74 20 -171 33 -224 17 -66 21 -94
13 -97 -7 -2 -61 -19 -122 -39 -60 -20 -119 -39 -131 -42 -28 -8 -76 34 -93
82 -7 22 -23 50 -35 63 -44 49 -69 53 -365 53 -332 0 -475 14 -621 60 -128 41
-173 77 -261 213 -25 39 -55 78 -66 87 -29 27 -130 58 -185 58 -26 0 -48 4
-48 9 0 5 51 30 112 57 97 40 123 47 183 48 57 1 77 -3 108 -22 48 -31 56 -62
28 -117 -23 -47 -26 -67 -11 -96 19 -35 68 -52 132 -46 32 3 73 1 91 -4 38
-10 81 -53 92 -89 11 -38 55 -79 92 -86 59 -11 112 18 196 107 99 103 147 126
290 139 58 5 121 16 140 23 72 31 110 107 84 169 -42 97 -135 114 -414 78
-141 -19 -182 -4 -217 80 -31 75 -30 75 -295 76 -243 1 -316 9 -430 46 -75 24
-134 78 -196 178 -59 95 -74 101 -265 96 -181 -4 -230 -16 -281 -67 -74 -74
-68 -207 13 -250 9 -5 68 -12 130 -15 62 -4 115 -8 117 -10 10 -9 -20 -30 -88
-61 -42 -19 -88 -46 -103 -60 -34 -33 -52 -84 -44 -128 7 -37 56 -85 87 -85
29 0 22 -12 -24 -45 -128 -92 -114 -297 22 -335 20 -6 99 -13 176 -16 77 -3
144 -10 148 -14 15 -14 -40 -46 -129 -75 -72 -24 -96 -37 -133 -74 -25 -25
-51 -55 -57 -65 -9 -17 -26 -21 -120 -26 -112 -7 -171 -24 -209 -60 -11 -10
-38 -21 -60 -23 -22 -3 -1 -3 47 -1 48 1 97 8 109 15 33 17 146 6 195 -19 23
-12 45 -18 49 -14 5 4 5 2 2 -5 -5 -7 11 -20 40 -35 44 -21 60 -23 193 -22
111 0 155 4 189 17 44 17 106 22 135 11 31 -12 9 -84 -25 -84 -6 0 -7 -5 -3
-12 4 -7 3 -8 -5 -4 -6 4 -22 1 -35 -7 -21 -14 -152 -56 -305 -97 -36 -9 -59
-19 -51 -22 8 -2 -3 -17 -30 -39 -65 -50 -118 -106 -136 -140 -45 -87 -33
-247 27 -359 43 -82 140 -171 216 -200 76 -29 175 -36 279 -20 106 17 144 5
191 -60 96 -133 145 -170 222 -170 77 0 127 58 161 188 35 131 77 195 153 234
37 19 51 20 159 13 126 -7 164 -1 228 41 63 40 75 39 95 -6 26 -58 21 -103
-25 -212 -31 -76 -40 -109 -40 -155 1 -103 56 -182 155 -219 68 -26 219 -26
293 -1 102 36 142 91 142 195 0 76 28 121 87 142 38 13 46 12 77 -2 19 -10 53
-43 77 -75 72 -98 119 -142 177 -163 96 -36 164 -24 288 52 95 58 141 67 217
45 28 -8 93 -27 142 -42 50 -14 98 -30 107 -35 15 -9 15 -6 1 35 l-15 45 -113
-2 c-99 -3 -115 -1 -134 16 -28 25 -27 35 10 106 28 53 30 63 20 88 -17 40
-49 56 -85 43 -29 -12 -86 -15 -86 -5 0 3 10 14 22 24 23 18 22 18 -27 14 -28
-3 -82 -10 -122 -16 -82 -12 -118 -6 -133 22 -16 29 -5 53 32 75 18 10 39 25
46 32 12 11 39 20 114 37 31 7 111 94 103 113 -2 8 -1 12 4 9 4 -3 17 4 27 15
18 20 18 20 -6 15 -273 -64 -315 -55 -465 98 -118 120 -147 131 -313 123
l-115 -5 44 44 c43 44 165 114 198 114 10 0 23 -18 34 -45 54 -130 263 -224
332 -149 46 49 28 104 -52 164 -29 23 -53 45 -53 50 0 22 37 8 61 -22 25 -30
32 -33 95 -36 65 -4 110 4 249 42 28 7 85 16 128 20 l77 7 0 -25 c0 -83 217
-111 425 -56 44 12 110 24 148 27 l67 6 0 612 0 611 -29 15 c-16 8 -51 28 -78
44 -41 25 -58 30 -114 30 -56 0 -75 -5 -137 -37 -77 -41 -95 -44 -169 -27 -61
14 -113 -5 -143 -53 -28 -46 -25 -82 9 -120 29 -32 31 -33 105 -31 59 2 76 -1
76 -12 0 -49 -115 -60 -210 -20 -78 33 -118 32 -190 -5 -129 -65 -231 -200
-202 -265 20 -44 53 -51 145 -32 108 23 140 22 223 -7 149 -50 204 -92 204
-154 0 -76 -16 -81 -192 -67 -93 8 -99 7 -151 -19 -39 -19 -71 -46 -112 -95
l-56 -68 -30 28 c-16 15 -42 33 -58 40 -26 11 -28 17 -28 69 0 74 -27 120 -85
145 -91 39 -109 82 -88 210 15 95 39 145 97 200 45 44 81 69 243 173 117 74
153 126 130 186 -13 36 -40 46 -124 46 -80 0 -94 7 -74 40 14 22 41 33 194 79
76 23 117 42 164 77 76 56 86 60 180 75 59 9 80 17 102 40 25 24 27 31 17 56
-15 40 -34 59 -93 88 -28 15 -78 55 -112 90 -54 56 -66 63 -111 70 -102 14
-363 -45 -464 -105 -138 -82 -193 -92 -344 -65 -95 17 -140 19 -166 5 -48 -26
2 47 55 80 19 11 48 23 65 25 56 7 71 15 71 40 0 33 -39 57 -145 89 -128 40
-180 70 -226 135 -35 48 -39 61 -39 113 0 33 4 57 9 54 4 -3 11 32 14 77 3 45
14 108 26 140 l20 57 -757 0 c-658 -1 -754 -3 -731 -15z"/>
  <path fill="#C2B49A" d="M3823 5133 c9 -2 25 -2 35 0 9 3 1 5 -18 5 -19 0 -27 -2 -17 -5z"/>
  <path fill="#C2B49A" d="M4195 5115 c28 -14 59 -25 71 -25 25 0 112 29 119 40 3 4 -50 8 -118
8 l-122 1 50 -24z"/>
  <path fill="#C2B49A" d="M1922 5050 c0 -19 2 -27 5 -17 2 9 2 25 0 35 -3 9 -5 1 -5 -18z"/>
  <path fill="#C2B49A" d="M1348 5003 c6 -2 18 -2 25 0 6 3 1 5 -13 5 -14 0 -19 -2 -12 -5z"/>
  <path fill="#C2B49A" d="M1453 5003 c9 -2 23 -2 30 0 6 3 -1 5 -18 5 -16 0 -22 -2 -12 -5z"/>
  <path fill="#C2B49A" d="M1518 4993 c7 -3 16 -2 19 1 4 3 -2 6 -13 5 -11 0 -14 -3 -6 -6z"/>
  <path fill="#C2B49A" d="M1879 4973 c-13 -16 -12 -17 4 -4 9 7 17 15 17 17 0 8 -8 3 -21 -13z"/>
  <path fill="#C2B49A" d="M1738 4943 c17 -2 47 -2 65 0 17 2 3 4 -33 4 -36 0 -50 -2 -32 -4z"/>
  <path fill="#C2B49A" d="M1079 4847 c-99 -95 -191 -146 -321 -177 -95 -23 -217 -26 -237 -7
-9 8 -12 8 -7 0 4 -8 -14 -13 -61 -18 -192 -18 -249 -39 -401 -143 -49 -34
-52 -38 -52 -80 l0 -44 27 18 c84 55 208 91 340 99 79 4 152 -5 242 -31 19 -6
22 -4 16 7 -5 8 -4 11 1 6 5 -5 9 -14 9 -20 0 -7 21 -19 47 -27 62 -20 88 -45
88 -85 0 -42 -29 -68 -114 -99 -81 -29 -95 -41 -102 -87 -17 -103 66 -140 238
-104 95 20 109 25 103 34 -2 5 6 6 18 4 12 -2 86 19 165 46 l143 51 132 0
c107 0 140 4 173 19 46 21 78 57 94 106 18 53 10 76 -35 99 -34 18 -57 21
-165 21 -107 -1 -138 -4 -214 -28 -48 -15 -95 -27 -103 -27 -24 0 -73 56 -73
83 0 14 9 44 20 68 26 58 25 96 -5 161 -14 30 -22 62 -19 73 3 11 38 53 77 93
39 39 69 72 67 72 -3 -1 -44 -38 -91 -83z m-852 -353 c-3 -3 -12 -4 -19 -1 -8
3 -5 6 6 6 11 1 17 -2 13 -5z"/>
  <path fill="#C2B49A" d="M3898 4888 c-114 -8 -144 -18 -242 -78 l-39 -24 39 -33 c90 -76 261
-144 398 -158 126 -14 298 55 360 143 27 38 28 44 15 58 -9 8 -25 16 -37 17
-11 0 -19 5 -16 9 11 17 -210 65 -326 70 -36 2 -104 0 -152 -4z"/>
  <path fill="#C2B49A" d="M4955 4799 c-49 -17 -94 -35 -100 -41 -6 -6 -4 -7 8 -2 15 5 16 3 8
-19 -17 -44 -24 -189 -12 -252 10 -56 48 -142 76 -175 7 -8 20 -35 28 -59 13
-39 13 -52 0 -108 -17 -75 -12 -107 21 -129 22 -14 27 -14 56 1 34 17 53 54
72 135 6 28 15 50 20 50 4 0 8 142 8 315 l0 315 -47 0 c-27 0 -88 -14 -138
-31z"/>
  <path fill="#C2B49A" d="M3300 4736 c0 -2 8 -10 18 -17 15 -13 16 -12 3 4 -13 16 -21 21 -21
13z"/>
  <path fill="#C2B49A" d="M0 3926 l0 -225 36 -7 c89 -17 257 18 315 65 21 17 22 18 6 96 -21
103 -49 138 -152 191 -44 22 -93 45 -110 52 -16 6 -45 21 -62 32 l-33 22 0
-226z m337 -51 c0 -8 -4 -12 -9 -9 -5 3 -6 10 -3 15 9 13 12 11 12 -6z"/>
  <path fill="#C2B49A" d="M0 3385 c0 -61 2 -67 14 -50 25 37 27 71 6 96 l-19 24 -1 -70z"/>
  <path fill="#C2B49A" d="M643 3393 c9 -2 23 -2 30 0 6 3 -1 5 -18 5 -16 0 -22 -2 -12 -5z"/>
  <path fill="#C2B49A" d="M868 3393 c6 -2 18 -2 25 0 6 3 1 5 -13 5 -14 0 -19 -2 -12 -5z"/>
  <path fill="#C2B49A" d="M528 3373 c7 -3 16 -2 19 1 4 3 -2 6 -13 5 -11 0 -14 -3 -6 -6z"/>
  <path fill="#C2B49A" d="M488 3363 c7 -3 16 -2 19 1 4 3 -2 6 -13 5 -11 0 -14 -3 -6 -6z"/>
  <path fill="#C2B49A" d="M448 3353 c7 -3 16 -2 19 1 4 3 -2 6 -13 5 -11 0 -14 -3 -6 -6z"/>
  <path fill="#C2B49A" d="M813 3193 c20 -2 54 -2 75 0 20 2 3 4 -38 4 -41 0 -58 -2 -37 -4z"/>
  <path fill="#C2B49A" d="M718 3183 c6 -2 18 -2 25 0 6 3 1 5 -13 5 -14 0 -19 -2 -12 -5z"/>
  <path fill="#C2B49A" d="M678 3173 c7 -3 16 -2 19 1 4 3 -2 6 -13 5 -11 0 -14 -3 -6 -6z"/>
  <path fill="#C2B49A" d="M599 3133 c-13 -16 -12 -17 4 -4 9 7 17 15 17 17 0 8 -8 3 -21 -13z"/>
  <path fill="#C2B49A" d="M68 3103 c12 -2 30 -2 40 0 9 3 -1 5 -23 4 -22 0 -30 -2 -17 -4z"/>
  <path fill="#C2B49A" d="M803 2993 c9 -2 23 -2 30 0 6 3 -1 5 -18 5 -16 0 -22 -2 -12 -5z"/>
  <path fill="#C2B49A" d="M708 2983 c7 -3 16 -2 19 1 4 3 -2 6 -13 5 -11 0 -14 -3 -6 -6z"/>
  <path fill="#C2B49A" d="M818 2843 c7 -3 16 -2 19 1 4 3 -2 6 -13 5 -11 0 -14 -3 -6 -6z"/>
  <path fill="#C2B49A" d="M367 2692 c-12 -14 -16 -35 -15 -84 2 -50 -2 -72 -17 -94 -11 -16
-19 -31 -18 -34 2 -7 -28 -10 -92 -9 -77 1 -94 3 -87 13 3 5 -2 6 -12 3 -9 -4
-15 -3 -12 2 6 9 -74 41 -101 41 -11 0 -13 -122 -13 -675 l0 -675 23 0 c34 0
119 -44 148 -76 55 -61 55 -64 -24 -114 -40 -25 -89 -54 -109 -63 l-38 -18 0
-76 c0 -67 2 -74 18 -68 62 24 174 46 281 55 68 6 127 12 131 15 9 5 43 -31
59 -63 7 -13 16 -68 20 -123 4 -54 11 -102 15 -106 3 -4 -6 -20 -21 -37 -20
-23 -21 -25 -4 -9 l25 22 38 -34 c34 -32 44 -35 97 -35 33 0 70 4 83 9 41 16
88 73 103 126 16 58 25 156 14 150 -4 -3 -5 4 -2 14 3 10 -5 54 -16 96 -28
102 -26 178 7 217 50 59 98 73 276 83 106 5 169 19 313 66 151 50 198 93 198
184 0 94 -56 139 -143 115 -24 -6 -79 -39 -126 -75 -101 -77 -160 -108 -257
-135 -40 -11 -114 -38 -166 -60 -120 -51 -160 -53 -201 -6 -20 23 -34 54 -42
90 -8 42 -19 62 -43 82 -28 23 -37 26 -82 20 -28 -3 -69 -12 -91 -19 l-39 -14
-35 40 c-32 36 -42 40 -93 45 -54 4 -57 6 -57 32 0 44 52 104 117 136 57 28
62 29 288 35 205 6 239 10 313 32 142 43 194 92 155 146 -45 60 -115 66 -243
21 -46 -17 -100 -30 -120 -30 -119 0 -190 71 -190 191 0 49 3 60 15 56 8 -4
40 -11 72 -18 82 -17 153 5 222 67 l51 46 0 69 c0 40 -6 81 -14 97 -20 38 -52
65 -67 56 -8 -5 -10 -3 -4 6 6 10 4 12 -8 7 -10 -4 -16 -2 -14 4 2 13 -102 52
-120 45 -7 -3 -12 0 -10 7 1 7 -6 11 -16 11 -10 -1 -16 0 -13 3 6 7 -27 41
-36 36 -4 -2 -5 3 -2 12 12 31 -100 126 -128 109 -6 -4 -8 -3 -4 4 4 6 -15 17
-46 28 -29 9 -58 19 -64 21 -5 2 -18 -5 -27 -15z m262 -136 c-3 -3 -11 5 -18
17 -13 21 -12 21 5 5 10 -10 16 -20 13 -22z"/>
  <path fill="#C2B49A" d="M5079 2280 c-68 -35 -116 -87 -125 -136 -13 -70 25 -106 129 -119
l57 -7 0 146 c0 80 -1 146 -2 146 -2 -1 -28 -14 -59 -30z"/>
  <path fill="#C2B49A" d="M1003 2143 c9 -2 23 -2 30 0 6 3 -1 5 -18 5 -16 0 -22 -2 -12 -5z"/>
  <path fill="#C2B49A" d="M4532 2018 c-7 -7 -12 -21 -12 -32 0 -18 1 -19 20 -1 20 18 27 45 12
45 -4 0 -13 -5 -20 -12z"/>
  <path fill="#C2B49A" d="M4965 1673 c-47 -41 -114 -180 -99 -205 4 -6 2 -8 -3 -5 -6 4 -56
-38 -112 -93 -56 -55 -114 -106 -129 -114 -43 -22 -105 -36 -230 -52 -159 -19
-204 -34 -298 -98 -134 -90 -158 -99 -259 -104 -64 -3 -136 4 -250 22 -88 14
-205 30 -260 35 -108 11 -256 46 -375 89 -74 27 -79 27 -270 23 -444 -9 -472
-8 -560 21 -62 19 -127 57 -150 85 -20 26 -22 34 -15 108 14 148 8 160 -79
159 -69 -1 -134 -37 -176 -99 -31 -45 -70 -172 -70 -227 0 -15 -4 -28 -8 -28
-11 0 3 -151 19 -196 30 -87 122 -196 151 -178 6 4 8 3 5 -3 -9 -15 60 -44
128 -54 33 -5 174 -14 313 -19 273 -11 330 -19 511 -76 96 -31 123 -44 155
-76 38 -37 38 -39 21 -58 -14 -15 -31 -20 -75 -20 -78 0 -145 -25 -196 -75
-50 -48 -54 -68 -19 -91 14 -9 25 -25 25 -35 0 -32 -34 -40 -166 -37 l-125 3
-30 -33 c-47 -52 -36 -110 27 -145 7 -4 69 -18 138 -32 69 -14 150 -34 178
-45 49 -19 77 -20 409 -20 l356 0 41 40 c40 37 92 60 138 60 24 0 41 17 40 40
-1 24 -59 55 -163 88 -54 17 -118 44 -144 60 -51 33 -106 112 -110 157 -4 53
1 86 11 80 6 -4 10 16 10 52 0 32 7 85 15 117 8 32 12 62 9 68 -4 7 -2 8 4 4
7 -4 12 -1 12 7 0 8 13 33 30 55 24 33 41 44 84 57 63 19 112 11 217 -35 70
-31 169 -60 204 -60 11 0 55 12 98 25 90 29 123 25 213 -25 28 -16 67 -31 86
-35 42 -8 122 11 112 27 -4 7 -3 8 4 4 15 -9 55 18 44 29 -4 5 -2 5 5 1 7 -4
30 3 53 14 36 18 55 20 193 18 139 -3 157 -1 208 20 32 12 77 41 102 62 41 36
46 45 49 93 3 28 13 74 24 100 20 51 21 48 -27 165 -12 30 -11 37 10 77 13 24
33 47 45 51 11 4 33 16 49 28 27 20 28 22 25 111 l-3 90 -35 17 c-56 27 -111
32 -135 11z"/>
  <path fill="#C2B49A" d="M2398 1453 c29 -2 74 -2 100 0 26 2 2 3 -53 3 -55 0 -76 -1 -47 -3z"/>
  <path fill="#C2B49A" d="M2243 1443 c9 -2 23 -2 30 0 6 3 -1 5 -18 5 -16 0 -22 -2 -12 -5z"/>
  <path fill="#C2B49A" d="M2598 1443 c7 -3 16 -2 19 1 4 3 -2 6 -13 5 -11 0 -14 -3 -6 -6z"/>
  <path fill="#C2B49A" d="M2168 1433 c7 -3 16 -2 19 1 4 3 -2 6 -13 5 -11 0 -14 -3 -6 -6z"/>
  <path fill="#C2B49A" d="M2098 1423 c6 -2 18 -2 25 0 6 3 1 5 -13 5 -14 0 -19 -2 -12 -5z"/>
  <path fill="#C2B49A" d="M2628 1273 c7 -3 16 -2 19 1 4 3 -2 6 -13 5 -11 0 -14 -3 -6 -6z"/>
  <path fill="#C2B49A" d="M2413 1263 c9 -2 25 -2 35 0 9 3 1 5 -18 5 -19 0 -27 -2 -17 -5z"/>
  <path fill="#C2B49A" d="M2348 1253 c7 -3 16 -2 19 1 4 3 -2 6 -13 5 -11 0 -14 -3 -6 -6z"/>
  <path fill="#C2B49A" d="M5096 1195 c-3 -9 -6 -22 -5 -28 0 -7 5 -1 10 12 5 13 8 26 5 28 -2
2 -6 -3 -10 -12z"/>
  <path fill="#C2B49A" d="M1468 1173 c6 -2 18 -2 25 0 6 3 1 5 -13 5 -14 0 -19 -2 -12 -5z"/>
  <path fill="#C2B49A" d="M873 1013 c9 -2 23 -2 30 0 6 3 -1 5 -18 5 -16 0 -22 -2 -12 -5z"/>
  <path fill="#C2B49A" d="M1259 1003 c-13 -16 -12 -17 4 -4 9 7 17 15 17 17 0 8 -8 3 -21 -13z"/>
  <path fill="#C2B49A" d="M978 1003 c6 -2 18 -2 25 0 6 3 1 5 -13 5 -14 0 -19 -2 -12 -5z"/>
  <path fill="#C2B49A" d="M1058 993 c6 -2 18 -2 25 0 6 3 1 5 -13 5 -14 0 -19 -2 -12 -5z"/>
  <path fill="#C2B49A" d="M1163 983 c15 -2 37 -2 50 0 12 2 0 4 -28 4 -27 0 -38 -2 -22 -4z"/>
  <path fill="#C2B49A" d="M1922 705 c0 -16 2 -22 5 -12 2 9 2 23 0 30 -3 6 -5 -1 -5 -18z"/>
  <path fill="#C2B49A" d="M1348 663 c6 -2 18 -2 25 0 6 3 1 5 -13 5 -14 0 -19 -2 -12 -5z"/>
  <path fill="#C2B49A" d="M1453 663 c9 -2 23 -2 30 0 6 3 -1 5 -18 5 -16 0 -22 -2 -12 -5z"/>
  <path fill="#C2B49A" d="M1713 603 c9 -2 25 -2 35 0 9 3 1 5 -18 5 -19 0 -27 -2 -17 -5z"/>
  <path fill="#C2B49A" d="M1793 603 c9 -2 23 -2 30 0 6 3 -1 5 -18 5 -16 0 -22 -2 -12 -5z"/>
  <path fill="#C2B49A" d="M1074 501 c-93 -91 -183 -139 -317 -171 -94 -23 -216 -26 -236 -8
-11 10 -13 10 -7 1 5 -8 1 -13 -11 -13 -51 -1 -233 -30 -269 -42 -22 -8 -84
-43 -137 -78 l-97 -64 0 -44 0 -44 36 22 c66 42 110 59 192 75 154 31 311 21
404 -26 22 -11 52 -19 65 -16 13 2 22 2 19 0 -3 -3 8 -16 24 -30 16 -13 32
-32 35 -43 6 -18 21 -19 431 -20 l424 0 0 25 c0 40 -65 67 -175 72 -89 5 -132
-2 -287 -42 -63 -17 -69 -17 -93 -1 -46 30 -52 60 -27 131 28 81 28 101 -3
167 -14 30 -22 62 -19 73 3 11 36 50 72 88 37 37 64 67 62 67 -3 0 -41 -36
-86 -79z"/>
  <path fill="#C2B49A" d="M3796 533 c-32 -8 -86 -31 -119 -51 l-61 -35 38 -33 c87 -75 266
-147 401 -160 125 -12 294 54 355 138 17 23 30 45 30 49 0 22 -97 62 -204 84
-140 30 -343 34 -440 8z"/>
  <path fill="#C2B49A" d="M5031 483 c-19 -4 -21 -7 -10 -14 10 -7 6 -8 -12 -4 -30 7 -135 -29
-137 -48 -1 -6 -7 -52 -13 -100 -15 -105 -3 -201 32 -271 l23 -46 113 0 113 0
0 245 0 245 -42 -1 c-24 -1 -54 -4 -67 -6z"/>
  <path fill="#C2B49A" d="M465 459 c-4 -6 -5 -12 -2 -15 2 -3 7 2 10 11 7 17 1 20 -8 4z"/>
  <path fill="#C2B49A" d="M4335 149 c-158 -16 -276 -51 -373 -109 l-66 -40 374 0 375 0 -31 22
c-17 12 -42 37 -54 56 -48 68 -97 84 -225 71z"/>
  <path fill="#B6B6B6" d="M0 5120 c0 -24 -1 -24 80 0 l65 19 -72 0 c-67 1 -73 -1 -73 -19z"/>
  <path fill="#B6B6B6" d="M485 5106 c8 -20 15 -55 15 -78 0 -167 53 -238 176 -238 102 0 168
77 183 212 4 40 5 86 1 103 l-6 30 -191 3 -192 2 14 -34z"/>
  <path fill="#B6B6B6" d="M1820 5130 c8 -6 34 -15 57 -21 40 -11 42 -13 46 -53 l4 -41 1 41 2
41 43 -7 c23 -4 137 -11 252 -15 255 -8 358 -23 523 -76 126 -41 182 -76 182
-113 0 -18 -16 -23 -105 -31 -90 -9 -166 -51 -209 -117 -17 -26 -17 -27 15
-59 30 -31 31 -33 13 -46 -14 -11 -49 -13 -139 -11 -113 3 -122 2 -150 -20
-57 -45 -69 -92 -35 -135 23 -29 76 -47 209 -72 179 -34 310 -93 436 -195 139
-113 201 -142 337 -155 l68 -7 -14 -27 c-9 -17 -43 -43 -93 -70 -90 -48 -115
-80 -116 -146 -1 -75 52 -128 193 -190 143 -62 177 -117 192 -307 5 -68 20
-170 34 -227 25 -106 23 -120 -12 -121 -19 0 -158 -46 -191 -63 -44 -23 -75
-8 -105 52 -40 80 -60 103 -106 123 -42 19 -58 20 -211 13 -296 -12 -631 22
-771 79 -89 36 -122 65 -189 164 -92 137 -116 154 -245 176 l-70 12 104 45
c97 41 111 44 191 44 79 0 90 -2 113 -24 37 -35 41 -57 17 -97 -31 -52 -28
-97 10 -128 18 -16 43 -26 62 -26 173 -3 195 -11 231 -94 29 -66 57 -86 116
-86 59 0 94 22 194 124 75 76 86 84 146 99 36 9 104 21 152 26 137 14 196 54
205 142 6 60 -23 104 -84 131 -49 22 -92 22 -389 2 -111 -8 -128 0 -160 69
-27 60 -64 87 -121 88 -21 1 -117 1 -213 1 -96 -1 -188 1 -205 3 -234 30 -294
62 -375 200 -60 104 -88 115 -274 115 -159 0 -225 -14 -276 -56 -60 -51 -82
-129 -56 -199 27 -69 45 -76 239 -89 32 -3 61 -6 63 -9 7 -7 -36 -31 -91 -52
-68 -25 -88 -39 -120 -85 -50 -72 -34 -141 43 -187 20 -13 32 -23 25 -23 -18
0 -97 -88 -110 -123 -31 -85 -3 -177 68 -224 39 -26 49 -27 194 -33 85 -3 157
-9 162 -13 12 -13 -23 -34 -96 -57 -112 -36 -192 -87 -207 -132 -9 -30 -45
-41 -140 -44 -97 -2 -152 -19 -194 -59 -15 -14 -41 -26 -65 -28 -22 -3 -1 -3
47 -1 48 1 97 8 109 15 38 20 150 6 206 -26 124 -72 116 -70 273 -69 111 0
155 4 189 17 44 17 106 22 135 11 17 -6 21 -41 8 -60 -24 -35 -140 -78 -405
-150 -80 -22 -167 -58 -167 -69 0 -2 24 7 53 20 28 13 63 26 77 29 23 6 22 4
-9 -21 -83 -68 -124 -110 -149 -152 -25 -42 -27 -55 -27 -151 0 -100 2 -109
34 -175 66 -134 160 -219 284 -257 71 -21 73 -21 271 -2 87 9 120 -7 164 -80
108 -178 275 -204 345 -54 13 29 30 78 37 108 18 78 63 162 102 192 59 45 101
53 203 39 105 -15 148 -7 224 40 27 16 55 29 63 29 19 0 48 -62 48 -101 0 -17
-18 -74 -41 -127 -22 -54 -43 -118 -46 -144 -7 -55 14 -125 52 -175 76 -99
298 -127 443 -57 73 36 100 78 108 174 8 87 26 125 67 140 76 26 117 5 186
-95 86 -124 153 -161 276 -153 66 4 80 9 159 58 96 59 163 73 234 51 21 -6 75
-22 122 -36 47 -15 96 -31 109 -36 31 -13 32 -10 19 35 -16 50 -44 61 -124 47
-68 -12 -120 -6 -146 17 -24 20 -23 27 13 98 36 70 34 103 -6 130 -20 13 -32
14 -76 5 -61 -13 -73 -7 -39 20 l25 20 -76 -6 c-42 -4 -94 -10 -115 -15 -60
-14 -81 -12 -110 14 -28 23 -28 24 -10 50 9 15 28 31 42 36 13 5 24 14 24 19
0 10 29 21 107 41 25 6 55 24 73 43 39 42 120 157 94 135 -28 -25 -216 -62
-276 -55 -72 9 -118 38 -219 141 -84 84 -100 96 -153 111 -47 14 -78 16 -149
10 -49 -4 -97 -9 -106 -12 -9 -2 7 17 34 43 42 40 190 123 200 112 1 -2 12
-21 23 -43 53 -105 159 -179 258 -180 44 0 58 4 78 25 54 54 38 106 -53 179
-37 29 -46 40 -34 43 10 2 31 -12 49 -31 45 -50 110 -53 269 -11 66 17 155 34
198 37 68 5 77 4 71 -10 -9 -25 37 -64 97 -81 78 -23 165 -20 307 13 70 16
153 32 185 36 l57 7 0 614 c0 576 -1 615 -17 621 -10 4 -42 23 -72 42 -50 33
-60 36 -130 36 -67 0 -84 -4 -139 -33 -68 -36 -86 -38 -178 -27 -79 10 -114
-7 -145 -71 -22 -47 -22 -47 -3 -83 25 -47 56 -61 139 -61 l69 0 -21 -21 c-34
-34 -97 -36 -177 -4 -99 40 -131 41 -193 8 -71 -38 -154 -109 -192 -163 -34
-49 -41 -103 -18 -134 19 -26 83 -35 142 -19 104 27 210 10 335 -52 57 -29 79
-54 86 -96 4 -25 1 -41 -14 -59 l-19 -24 -106 13 c-160 19 -208 2 -309 -108
l-63 -70 -25 23 c-14 13 -38 30 -53 38 -26 13 -29 19 -30 75 -2 77 -24 108
-97 145 -72 35 -80 48 -80 132 0 184 56 262 281 401 63 39 133 88 156 111 37
35 43 46 43 81 0 30 -7 47 -27 67 -25 25 -32 27 -102 24 -64 -3 -76 0 -79 14
-5 25 33 45 152 78 126 35 151 48 227 107 49 38 67 46 125 54 82 11 121 23
146 46 44 39 5 110 -84 153 -43 21 -80 50 -119 92 l-56 62 -76 4 c-55 3 -110
-3 -204 -23 -128 -27 -157 -37 -268 -97 -33 -18 -75 -39 -92 -46 -38 -16 -153
-17 -227 -3 -98 18 -124 19 -150 6 -30 -16 -33 -9 -11 22 22 32 81 65 133 74
52 10 72 24 72 50 0 26 -35 46 -160 90 -60 21 -122 45 -138 53 -41 21 -100 93
-112 135 -12 45 -13 112 -1 93 5 -8 10 23 14 80 3 55 13 116 26 151 l20 57
-757 0 c-506 0 -752 -4 -742 -10z"/>
  <path fill="#B6B6B6" d="M3823 5133 c9 -2 25 -2 35 0 9 3 1 5 -18 5 -19 0 -27 -2 -17 -5z"/>
  <path fill="#B6B6B6" d="M4195 5114 c28 -13 59 -24 71 -24 27 0 112 29 120 41 3 5 -47 9 -118
8 l-123 -1 50 -24z"/>
  <path fill="#B6B6B6" d="M1378 5003 c23 -2 59 -2 80 0 20 2 1 4 -43 4 -44 0 -61 -2 -37 -4z"/>
  <path fill="#B6B6B6" d="M1308 4993 c7 -3 16 -2 19 1 4 3 -2 6 -13 5 -11 0 -14 -3 -6 -6z"/>
  <path fill="#B6B6B6" d="M1520 4990 c14 -4 34 -8 45 -8 16 0 15 2 -5 8 -14 4 -34 8 -45 8 -16
0 -15 -2 5 -8z"/>
  <path fill="#B6B6B6" d="M1250 4980 c-18 -12 -2 -12 25 0 13 6 15 9 5 9 -8 0 -22 -4 -30 -9z"/>
  <path fill="#B6B6B6" d="M1879 4973 c-13 -16 -12 -17 4 -4 9 7 17 15 17 17 0 8 -8 3 -21 -13z"/>
  <path fill="#B6B6B6" d="M1620 4965 c19 -7 42 -13 50 -13 8 0 -1 6 -20 13 -19 7 -42 13 -50
13 -8 0 1 -6 20 -13z"/>
  <path fill="#B6B6B6" d="M1204 4954 c-18 -14 -18 -15 4 -4 12 6 22 13 22 15 0 8 -5 6 -26 -11z"/>
  <path fill="#B6B6B6" d="M1765 4950 l-80 -6 75 -2 c41 -1 82 3 90 8 8 5 11 9 5 8 -5 -1 -46
-5 -90 -8z"/>
  <path fill="#B6B6B6" d="M1079 4847 c-61 -59 -106 -92 -162 -120 -148 -72 -345 -99 -410 -56
-28 18 -29 18 -10 1 l22 -19 -92 -7 c-163 -11 -197 -24 -364 -131 -62 -40 -62
-40 -63 -87 0 -27 3 -48 6 -48 3 0 19 9 35 20 77 56 221 91 364 91 90 -1 192
-21 230 -45 11 -7 35 -17 52 -20 120 -27 108 -137 -19 -172 -86 -24 -118 -54
-118 -109 0 -66 31 -97 102 -103 54 -4 160 9 223 28 80 24 282 94 300 103 11
6 69 10 131 9 186 -3 261 23 303 106 31 62 33 94 7 114 -74 55 -238 60 -395
13 -47 -14 -97 -25 -113 -25 -38 0 -68 32 -68 74 0 19 9 55 20 81 26 60 25 75
-5 135 -40 78 -35 94 47 177 40 40 70 73 68 73 -3 -1 -44 -38 -91 -83z"/>
  <path fill="#B6B6B6" d="M3898 4888 c-86 -6 -139 -19 -181 -42 -59 -32 -97 -59 -97 -67 0 -14
117 -89 194 -124 229 -105 460 -80 588 65 22 25 45 44 51 42 6 -2 3 6 -8 18
-31 35 -113 67 -220 89 -118 23 -207 29 -327 19z"/>
  <path fill="#B6B6B6" d="M484 4828 l-19 -23 23 19 c21 18 27 26 19 26 -2 0 -12 -10 -23 -22z"/>
  <path fill="#B6B6B6" d="M4955 4799 c-49 -17 -94 -36 -100 -42 -7 -7 -6 -7 4 -2 11 7 13 4 6
-11 -5 -10 -10 -74 -13 -141 -5 -136 5 -181 56 -257 16 -23 37 -64 47 -90 16
-40 17 -54 7 -97 -17 -74 -15 -123 6 -142 50 -45 110 1 145 109 20 64 22 91
25 387 l3 317 -48 0 c-27 0 -87 -14 -138 -31z"/>
  <path fill="#B6B6B6" d="M3271 4804 c0 -11 3 -14 6 -6 3 7 2 16 -1 19 -3 4 -6 -2 -5 -13z"/>
  <path fill="#B6B6B6" d="M456 4784 c-8 -21 -7 -56 2 -71 4 -6 7 11 7 38 0 27 -1 49 -1 49 -1
0 -5 -7 -8 -16z"/>
  <path fill="#B6B6B6" d="M3280 4771 c0 -6 4 -13 10 -16 6 -3 7 1 4 9 -7 18 -14 21 -14 7z"/>
  <path fill="#B6B6B6" d="M3554 4744 c-18 -14 -18 -15 4 -4 12 6 22 13 22 15 0 8 -5 6 -26 -11z"/>
  <path fill="#B6B6B6" d="M4480 4746 c0 -2 8 -10 18 -17 15 -13 16 -12 3 4 -13 16 -21 21 -21
13z"/>
  <path fill="#B6B6B6" d="M4800 4735 c-14 -8 -20 -14 -15 -14 6 0 21 6 35 14 14 8 21 14 15 14
-5 0 -21 -6 -35 -14z"/>
  <path fill="#B6B6B6" d="M3328 4713 c13 -13 28 -23 35 -23 7 0 3 6 -8 12 -11 6 -27 16 -35 22
-9 6 -5 1 8 -11z"/>
  <path fill="#B6B6B6" d="M4740 4710 c-8 -5 -10 -10 -5 -10 6 0 17 5 25 10 8 5 11 10 5 10 -5
0 -17 -5 -25 -10z"/>
  <path fill="#B6B6B6" d="M3448 4693 c7 -3 16 -2 19 1 4 3 -2 6 -13 5 -11 0 -14 -3 -6 -6z"/>
  <path fill="#B6B6B6" d="M4698 4693 c7 -3 16 -2 19 1 4 3 -2 6 -13 5 -11 0 -14 -3 -6 -6z"/>
  <path fill="#B6B6B6" d="M3398 4683 c7 -3 16 -2 19 1 4 3 -2 6 -13 5 -11 0 -14 -3 -6 -6z"/>
  <path fill="#B6B6B6" d="M4618 4683 c12 -2 32 -2 45 0 12 2 2 4 -23 4 -25 0 -35 -2 -22 -4z"/>
  <path fill="#B6B6B6" d="M1729 4613 c-13 -17 -13 -17 6 -3 11 8 22 16 24 17 2 2 0 3 -6 3 -6
0 -17 -8 -24 -17z"/>
  <path fill="#B6B6B6" d="M1935 4590 c10 -11 20 -20 23 -20 3 0 -3 9 -13 20 -10 11 -20 20 -23
20 -3 0 3 -9 13 -20z"/>
  <path fill="#B6B6B6" d="M3628 4583 c6 -2 18 -2 25 0 6 3 1 5 -13 5 -14 0 -19 -2 -12 -5z"/>
  <path fill="#B6B6B6" d="M2000 4536 c0 -2 8 -10 18 -17 15 -13 16 -12 3 4 -13 16 -21 21 -21
13z"/>
  <path fill="#B6B6B6" d="M2100 4445 c13 -14 26 -25 28 -25 3 0 -5 11 -18 25 -13 14 -26 25
-28 25 -3 0 5 -11 18 -25z"/>
  <path fill="#B6B6B6" d="M1632 4440 c0 -14 2 -19 5 -12 2 6 2 18 0 25 -3 6 -5 1 -5 -13z"/>
  <path fill="#B6B6B6" d="M3696 4445 c-9 -26 -7 -32 5 -12 6 10 9 21 6 23 -2 3 -7 -2 -11 -11z"/>
  <path fill="#B6B6B6" d="M3659 4373 c-13 -16 -12 -17 4 -4 16 13 21 21 13 21 -2 0 -10 -8 -17
-17z"/>
  <path fill="#B6B6B6" d="M2272 4240 c0 -14 2 -19 5 -12 2 6 2 18 0 25 -3 6 -5 1 -5 -13z"/>
  <path fill="#B6B6B6" d="M0 3930 c0 -266 -10 -245 110 -244 83 0 174 23 226 57 39 25 43 50
21 135 -27 100 -89 155 -245 213 -18 6 -51 25 -72 40 l-40 29 0 -230z"/>
  <path fill="#B6B6B6" d="M2288 4033 c6 -2 18 -2 25 0 6 3 1 5 -13 5 -14 0 -19 -2 -12 -5z"/>
  <path fill="#B6B6B6" d="M2488 4033 c7 -3 16 -2 19 1 4 3 -2 6 -13 5 -11 0 -14 -3 -6 -6z"/>
  <path fill="#B6B6B6" d="M2573 4033 c15 -2 37 -2 50 0 12 2 0 4 -28 4 -27 0 -38 -2 -22 -4z"/>
  <path fill="#B6B6B6" d="M2718 4033 c12 -2 30 -2 40 0 9 3 -1 5 -23 4 -22 0 -30 -2 -17 -4z"/>
  <path fill="#B6B6B6" d="M3088 3943 c7 -3 16 -2 19 1 4 3 -2 6 -13 5 -11 0 -14 -3 -6 -6z"/>
  <path fill="#B6B6B6" d="M2808 3773 c7 -3 16 -2 19 1 4 3 -2 6 -13 5 -11 0 -14 -3 -6 -6z"/>
  <path fill="#B6B6B6" d="M2973 3763 c9 -2 25 -2 35 0 9 3 1 5 -18 5 -19 0 -27 -2 -17 -5z"/>
  <path fill="#B6B6B6" d="M1128 3723 c6 -2 18 -2 25 0 6 3 1 5 -13 5 -14 0 -19 -2 -12 -5z"/>
  <path fill="#B6B6B6" d="M370 3713 c0 -6 8 -17 18 -24 16 -13 16 -13 2 6 -8 11 -16 22 -17 24
-2 2 -3 0 -3 -6z"/>
  <path fill="#B6B6B6" d="M938 3693 c7 -3 16 -2 19 1 4 3 -2 6 -13 5 -11 0 -14 -3 -6 -6z"/>
  <path fill="#B6B6B6" d="M898 3683 c7 -3 16 -2 19 1 4 3 -2 6 -13 5 -11 0 -14 -3 -6 -6z"/>
  <path fill="#B6B6B6" d="M448 3643 c7 -3 16 -2 19 1 4 3 -2 6 -13 5 -11 0 -14 -3 -6 -6z"/>
  <path fill="#B6B6B6" d="M0 3383 l0 -68 20 25 c22 28 25 61 10 91 -20 36 -30 19 -30 -48z"/>
  <path fill="#B6B6B6" d="M640 3400 l-45 -7 42 -1 c23 -1 45 3 48 8 3 6 5 9 3 8 -2 0 -23 -4
-48 -8z"/>
  <path fill="#B6B6B6" d="M733 3403 c20 -2 54 -2 75 0 20 2 3 4 -38 4 -41 0 -58 -2 -37 -4z"/>
  <path fill="#B6B6B6" d="M859 3397 c5 -5 19 -7 32 -5 20 3 19 5 -9 9 -20 3 -29 2 -23 -4z"/>
  <path fill="#B6B6B6" d="M515 3375 c-54 -17 -33 -18 30 -1 28 8 41 14 30 14 -11 0 -38 -5 -60
-13z"/>
  <path fill="#B6B6B6" d="M921 3386 c2 -2 15 -9 29 -15 24 -11 24 -11 6 3 -16 13 -49 24 -35
12z"/>
  <path fill="#B6B6B6" d="M448 3353 c7 -3 16 -2 19 1 4 3 -2 6 -13 5 -11 0 -14 -3 -6 -6z"/>
  <path fill="#B6B6B6" d="M358 3324 c-39 -21 -35 -28 5 -8 37 19 44 24 31 24 -5 -1 -21 -8 -36
-16z"/>
  <path fill="#B6B6B6" d="M1009 3298 c4 -28 6 -29 9 -9 2 13 0 27 -5 32 -6 6 -7 -3 -4 -23z"/>
  <path fill="#B6B6B6" d="M259 3253 l-24 -28 28 24 c15 14 27 26 27 28 0 8 -8 1 -31 -24z"/>
  <path fill="#B6B6B6" d="M986 3232 l-19 -27 24 22 c12 12 21 24 18 27 -2 2 -13 -8 -23 -22z"/>
  <path fill="#B6B6B6" d="M818 3193 c23 -2 59 -2 80 0 20 2 1 4 -43 4 -44 0 -61 -2 -37 -4z"/>
  <path fill="#B6B6B6" d="M199 3173 c-13 -16 -12 -17 4 -4 9 7 17 15 17 17 0 8 -8 3 -21 -13z"/>
  <path fill="#B6B6B6" d="M681 3179 c-53 -16 -31 -19 29 -4 30 7 44 13 30 13 -14 0 -40 -4 -59
-9z"/>
  <path fill="#B6B6B6" d="M609 3139 l-24 -20 28 17 c15 9 27 18 27 20 0 8 -8 4 -31 -17z"/>
  <path fill="#B6B6B6" d="M43 3103 c15 -2 39 -2 55 0 15 2 2 4 -28 4 -30 0 -43 -2 -27 -4z"/>
  <path fill="#B6B6B6" d="M581 3084 c-1 -25 7 -39 34 -63 20 -17 46 -31 58 -30 17 1 16 3 -9
10 -39 11 -71 46 -77 84 l-4 30 -2 -31z"/>
  <path fill="#B6B6B6" d="M800 3000 l-45 -7 42 -1 c23 -1 45 3 48 8 3 6 5 9 3 8 -2 0 -23 -4
-48 -8z"/>
  <path fill="#B6B6B6" d="M910 2993 c8 -3 22 -11 30 -17 13 -10 13 -9 1 7 -7 9 -21 17 -30 16
-13 0 -14 -1 -1 -6z"/>
  <path fill="#B6B6B6" d="M708 2983 c7 -3 16 -2 19 1 4 3 -2 6 -13 5 -11 0 -14 -3 -6 -6z"/>
  <path fill="#B6B6B6" d="M955 2948 c10 -26 -13 -58 -58 -79 -23 -10 -35 -19 -27 -19 48 0 117
77 91 103 -10 9 -11 8 -6 -5z"/>
  <path fill="#B6B6B6" d="M818 2843 c6 -2 18 -2 25 0 6 3 1 5 -13 5 -14 0 -19 -2 -12 -5z"/>
  <path fill="#B6B6B6" d="M778 2833 c7 -3 16 -2 19 1 4 3 -2 6 -13 5 -11 0 -14 -3 -6 -6z"/>
  <path fill="#B6B6B6" d="M665 2797 c-15 -12 -16 -15 -4 -22 8 -5 10 -4 6 0 -4 5 3 15 15 22
13 7 18 12 12 13 -5 0 -18 -6 -29 -13z"/>
  <path fill="#B6B6B6" d="M680 2766 c0 -3 9 -10 20 -16 11 -6 20 -8 20 -6 0 3 -9 10 -20 16
-11 6 -20 8 -20 6z"/>
  <path fill="#B6B6B6" d="M738 2733 c7 -3 16 -2 19 1 4 3 -2 6 -13 5 -11 0 -14 -3 -6 -6z"/>
  <path fill="#B6B6B6" d="M367 2692 c-12 -13 -16 -35 -15 -84 4 -138 -79 -176 -244 -109 -42
17 -83 31 -92 31 -14 0 -16 -66 -16 -673 l0 -674 42 -12 c67 -20 124 -57 149
-98 22 -35 22 -37 5 -47 -10 -6 -44 -27 -75 -47 -31 -19 -71 -42 -88 -50 l-33
-14 0 -82 0 -83 37 15 c21 7 58 19 83 25 52 14 310 39 327 33 21 -8 53 -88 53
-134 0 -24 5 -71 10 -104 9 -55 8 -61 -14 -85 -45 -48 -58 -97 -36 -130 8 -11
9 -8 4 13 -9 37 1 70 32 106 l26 31 39 -35 c35 -32 45 -35 98 -35 72 0 97 9
135 46 39 39 56 83 65 168 7 60 5 86 -16 166 -26 105 -28 171 -4 213 37 65
130 97 280 97 119 0 356 64 449 122 49 30 72 73 72 135 0 44 -5 58 -31 88 -27
30 -37 35 -76 35 -53 0 -87 -16 -178 -87 -85 -67 -137 -94 -235 -123 -41 -12
-118 -40 -170 -62 -162 -69 -215 -54 -240 69 -17 80 -51 113 -118 113 -27 0
-71 -7 -98 -15 l-49 -15 -23 29 c-25 33 -101 66 -132 58 -31 -8 -35 15 -11 61
52 102 113 122 411 132 180 6 238 12 291 28 80 24 106 37 142 70 35 33 34 63
-3 100 -50 50 -105 51 -235 5 -88 -32 -156 -33 -213 -4 -61 31 -82 71 -82 152
l0 67 43 -15 c51 -18 149 -13 195 11 17 9 49 33 72 55 40 38 40 38 40 112 0
113 -40 161 -169 204 -74 24 -119 52 -127 78 -16 55 -93 110 -203 148 -65 23
-55 23 -74 1z"/>
  <path fill="#B6B6B6" d="M1169 2369 l-24 -20 30 17 c39 24 40 24 28 24 -6 0 -21 -9 -34 -21z"/>
  <path fill="#B6B6B6" d="M5085 2287 c-93 -50 -125 -86 -140 -155 -6 -27 -3 -38 17 -59 35 -38
72 -53 128 -53 l50 0 0 145 c0 80 -3 145 -7 145 -5 -1 -26 -11 -48 -23z"/>
  <path fill="#B6B6B6" d="M1101 2274 c0 -11 3 -14 6 -6 3 7 2 16 -1 19 -3 4 -6 -2 -5 -13z"/>
  <path fill="#B6B6B6" d="M1086 2233 c-6 -14 -5 -15 5 -6 7 7 10 15 7 18 -3 3 -9 -2 -12 -12z"/>
  <path fill="#B6B6B6" d="M4808 2233 c7 -3 16 -2 19 1 4 3 -2 6 -13 5 -11 0 -14 -3 -6 -6z"/>
  <path fill="#B6B6B6" d="M1063 2193 c-3 -10 -8 -22 -11 -27 -3 -5 0 -6 5 -3 11 7 25 47 17 47
-3 0 -7 -8 -11 -17z"/>
  <path fill="#B6B6B6" d="M969 2158 c8 -11 25 -17 45 -17 l31 2 -30 4 c-16 3 -37 10 -45 16
-13 10 -13 10 -1 -5z"/>
  <path fill="#B6B6B6" d="M4860 2090 c-9 -6 -10 -10 -3 -10 6 0 15 5 18 10 8 12 4 12 -15 0z"/>
  <path fill="#B6B6B6" d="M4698 2043 c7 -3 16 -2 19 1 4 3 -2 6 -13 5 -11 0 -14 -3 -6 -6z"/>
  <path fill="#B6B6B6" d="M4543 2027 c-23 -10 -33 -57 -13 -57 9 0 45 59 38 65 -2 1 -13 -2
-25 -8z"/>
  <path fill="#B6B6B6" d="M5098 1973 c7 -3 16 -2 19 1 4 3 -2 6 -13 5 -11 0 -14 -3 -6 -6z"/>
  <path fill="#B6B6B6" d="M4950 1920 c-9 -6 -10 -10 -3 -10 6 0 15 5 18 10 8 12 4 12 -15 0z"/>
  <path fill="#B6B6B6" d="M4571 1883 c7 -12 15 -20 18 -17 3 2 -3 12 -13 22 -17 16 -18 16 -5
-5z"/>
  <path fill="#B6B6B6" d="M4814 1834 c-18 -14 -18 -15 4 -4 12 6 22 13 22 15 0 8 -5 6 -26 -11z"/>
  <path fill="#B6B6B6" d="M4728 1793 c7 -3 16 -2 19 1 4 3 -2 6 -13 5 -11 0 -14 -3 -6 -6z"/>
  <path fill="#B6B6B6" d="M4965 1672 c-35 -25 -85 -111 -100 -174 -4 -15 -26 -44 -49 -64 -22
-20 -73 -67 -112 -104 -60 -57 -82 -72 -137 -89 -36 -11 -94 -23 -129 -26
-188 -18 -274 -46 -368 -118 -63 -48 -116 -73 -185 -87 -64 -13 -82 -12 -340
25 -93 13 -219 31 -280 39 -60 8 -164 31 -230 52 -212 65 -235 68 -491 50
-124 -9 -229 -14 -233 -12 -3 2 -33 5 -66 7 -106 4 -233 53 -274 105 -28 35
-30 114 -3 115 9 0 12 3 5 5 -8 4 -10 21 -6 55 5 43 3 53 -17 74 -44 47 -151
28 -223 -40 -41 -39 -74 -113 -93 -209 l-17 -85 -46 -4 -46 -3 46 -2 46 -2 6
-77 c3 -43 12 -94 19 -113 20 -54 74 -133 108 -159 39 -28 129 -71 152 -71 13
0 18 -11 21 -42 l4 -43 1 41 2 41 43 -7 c23 -4 132 -11 242 -14 294 -10 349
-19 565 -89 99 -32 155 -71 148 -104 -3 -15 -21 -20 -95 -29 -109 -14 -172
-47 -217 -116 -17 -26 -17 -27 14 -58 50 -51 32 -60 -124 -60 l-132 0 -32 -31
c-83 -81 -36 -155 112 -179 39 -6 118 -25 176 -41 l106 -29 362 0 c349 0 362
1 372 20 15 28 91 70 127 70 43 0 78 30 69 58 -9 27 -40 44 -158 83 -125 42
-159 61 -202 111 -39 45 -56 92 -55 148 0 28 2 31 8 15 5 -13 10 16 14 80 9
176 58 273 151 300 63 19 112 11 217 -35 70 -31 169 -60 204 -60 11 0 55 12
98 25 91 29 124 25 217 -28 85 -48 141 -44 251 16 l87 48 153 -3 c142 -3 159
-1 213 21 56 22 187 131 158 131 -18 0 -15 31 13 103 26 69 24 90 -9 155 -31
60 -11 129 47 158 64 33 67 39 67 140 0 105 0 105 -91 129 -45 12 -49 11 -84
-13z"/>
  <path fill="#B6B6B6" d="M2368 1453 c39 -2 105 -2 145 0 39 1 7 3 -73 3 -80 0 -112 -2 -72 -3z"/>
  <path fill="#B6B6B6" d="M2228 1443 c12 -2 30 -2 40 0 9 3 -1 5 -23 4 -22 0 -30 -2 -17 -4z"/>
  <path fill="#B6B6B6" d="M2598 1443 c6 -2 18 -2 25 0 6 3 1 5 -13 5 -14 0 -19 -2 -12 -5z"/>
  <path fill="#B6B6B6" d="M2153 1433 c9 -2 23 -2 30 0 6 3 -1 5 -18 5 -16 0 -22 -2 -12 -5z"/>
  <path fill="#B6B6B6" d="M2083 1423 c9 -2 25 -2 35 0 9 3 1 5 -18 5 -19 0 -27 -2 -17 -5z"/>
  <path fill="#B6B6B6" d="M2005 1410 c-25 -11 1 -11 35 0 20 6 21 8 5 8 -11 0 -29 -3 -40 -8z"/>
  <path fill="#B6B6B6" d="M2716 1398 c10 -14 21 -24 23 -22 3 3 -6 15 -18 27 l-24 22 19 -27z"/>
  <path fill="#B6B6B6" d="M2716 1312 l-19 -27 24 22 c12 12 21 24 18 27 -2 2 -13 -8 -23 -22z"/>
  <path fill="#B6B6B6" d="M2628 1273 c6 -2 18 -2 25 0 6 3 1 5 -13 5 -14 0 -19 -2 -12 -5z"/>
  <path fill="#B6B6B6" d="M2443 1263 c26 -2 68 -2 95 0 26 2 4 3 -48 3 -52 0 -74 -1 -47 -3z"/>
  <path fill="#B6B6B6" d="M2353 1253 c9 -2 23 -2 30 0 6 3 -1 5 -18 5 -16 0 -22 -2 -12 -5z"/>
  <path fill="#B6B6B6" d="M2308 1243 c7 -3 16 -2 19 1 4 3 -2 6 -13 5 -11 0 -14 -3 -6 -6z"/>
  <path fill="#B6B6B6" d="M2244 1224 c-18 -14 -18 -14 6 -3 31 14 36 19 24 19 -6 0 -19 -7 -30
-16z"/>
  <path fill="#B6B6B6" d="M5091 1179 c-6 -18 -11 -37 -10 -43 0 -6 7 7 15 28 8 22 12 41 10 43
-2 2 -9 -10 -15 -28z"/>
  <path fill="#B6B6B6" d="M1435 1170 c-14 -7 -8 -8 20 -3 22 3 42 7 44 9 9 8 -45 2 -64 -6z"/>
  <path fill="#B6B6B6" d="M1319 1103 c-13 -16 -12 -17 4 -4 16 13 21 21 13 21 -2 0 -10 -8 -17
-17z"/>
  <path fill="#B6B6B6" d="M5047 1055 c-24 -50 -20 -58 4 -12 11 22 19 41 17 43 -3 2 -12 -12
-21 -31z"/>
  <path fill="#B6B6B6" d="M1280 1042 c0 -7 -9 -21 -20 -32 -11 -11 -16 -20 -10 -20 13 0 44 49
36 57 -3 3 -6 1 -6 -5z"/>
  <path fill="#B6B6B6" d="M868 1013 c18 -2 45 -2 60 0 15 2 0 4 -33 4 -33 0 -45 -2 -27 -4z"/>
  <path fill="#B6B6B6" d="M983 1003 c9 -2 25 -2 35 0 9 3 1 5 -18 5 -19 0 -27 -2 -17 -5z"/>
  <path fill="#B6B6B6" d="M1068 993 c12 -2 30 -2 40 0 9 3 -1 5 -23 4 -22 0 -30 -2 -17 -4z"/>
  <path fill="#B6B6B6" d="M1163 983 c15 -2 37 -2 50 0 12 2 0 4 -28 4 -27 0 -38 -2 -22 -4z"/>
  <path fill="#B6B6B6" d="M1345 665 c6 -2 51 -5 100 -8 50 -2 79 -1 65 3 -24 8 -186 12 -165 5z"/>
  <path fill="#B6B6B6" d="M1308 653 c7 -3 16 -2 19 1 4 3 -2 6 -13 5 -11 0 -14 -3 -6 -6z"/>
  <path fill="#B6B6B6" d="M1548 643 c7 -3 16 -2 19 1 4 3 -2 6 -13 5 -11 0 -14 -3 -6 -6z"/>
  <path fill="#B6B6B6" d="M1588 633 c7 -3 16 -2 19 1 4 3 -2 6 -13 5 -11 0 -14 -3 -6 -6z"/>
  <path fill="#B6B6B6" d="M1635 620 c11 -5 27 -9 35 -9 9 0 8 4 -5 9 -11 5 -27 9 -35 9 -9 0
-8 -4 5 -9z"/>
  <path fill="#B6B6B6" d="M1810 610 c-35 -7 -35 -7 -5 -9 17 0 37 4 45 9 17 11 11 11 -40 0z"/>
  <path fill="#B6B6B6" d="M1690 606 c0 -2 18 -6 39 -8 22 -2 37 0 35 4 -5 8 -74 11 -74 4z"/>
  <path fill="#B6B6B6" d="M1074 501 c-60 -58 -101 -88 -158 -115 -143 -68 -344 -98 -402 -60
-19 13 -24 14 -22 3 2 -9 -15 -15 -62 -21 -175 -20 -247 -45 -341 -119 -19
-15 -47 -33 -62 -40 -24 -11 -27 -18 -27 -61 0 -26 2 -48 4 -48 3 0 26 13 53
30 71 43 181 71 308 77 120 6 198 -5 261 -37 21 -11 45 -20 54 -20 28 0 79
-39 86 -65 l6 -25 428 0 c381 0 429 2 434 16 11 29 6 35 -51 62 -52 23 -70 26
-163 25 -83 0 -123 -6 -193 -27 -106 -32 -140 -33 -168 -5 -25 25 -22 76 7
151 18 47 18 47 -5 100 -45 100 -43 111 35 189 93 94 78 87 -22 -10z"/>
  <path fill="#B6B6B6" d="M3796 533 c-61 -16 -176 -77 -176 -93 0 -13 113 -88 183 -122 225
-109 465 -85 600 61 23 25 46 45 51 43 5 -2 3 4 -4 13 -55 66 -255 115 -463
114 -85 0 -153 -6 -191 -16z"/>
  <path fill="#B6B6B6" d="M5005 475 c-27 -8 -69 -21 -92 -30 -40 -15 -42 -19 -53 -72 -7 -31
-10 -104 -8 -163 3 -89 7 -114 29 -155 l25 -50 117 -3 117 -3 0 246 0 245 -42
-1 c-24 0 -65 -7 -93 -14z"/>
  <path fill="#B6B6B6" d="M3271 472 c-2 -40 59 -122 92 -122 5 0 -5 10 -24 23 -21 14 -40 39
-51 67 -9 25 -17 39 -17 32z"/>
  <path fill="#B6B6B6" d="M4480 406 c0 -2 8 -10 18 -17 15 -13 16 -12 3 4 -13 16 -21 21 -21
13z"/>
  <path fill="#B6B6B6" d="M4790 390 c-8 -5 -10 -10 -5 -10 6 0 17 5 25 10 8 5 11 10 5 10 -5 0
-17 -5 -25 -10z"/>
  <path fill="#B6B6B6" d="M3510 380 c-9 -6 -10 -10 -3 -10 6 0 15 5 18 10 8 12 4 12 -15 0z"/>
  <path fill="#B6B6B6" d="M4527 369 c7 -7 15 -10 18 -7 3 3 -2 9 -12 12 -14 6 -15 5 -6 -5z"/>
  <path fill="#B6B6B6" d="M4740 370 c-8 -5 -10 -10 -5 -10 6 0 17 5 25 10 8 5 11 10 5 10 -5 0
-17 -5 -25 -10z"/>
  <path fill="#B6B6B6" d="M3448 353 c7 -3 16 -2 19 1 4 3 -2 6 -13 5 -11 0 -14 -3 -6 -6z"/>
  <path fill="#B6B6B6" d="M4698 353 c7 -3 16 -2 19 1 4 3 -2 6 -13 5 -11 0 -14 -3 -6 -6z"/>
  <path fill="#B6B6B6" d="M3398 343 c6 -2 18 -2 25 0 6 3 1 5 -13 5 -14 0 -19 -2 -12 -5z"/>
  <path fill="#B6B6B6" d="M4613 343 c15 -2 37 -2 50 0 12 2 0 4 -28 4 -27 0 -38 -2 -22 -4z"/>
  <path fill="#B6B6B6" d="M1778 293 c7 -3 16 -2 19 1 4 3 -2 6 -13 5 -11 0 -14 -3 -6 -6z"/>
  <path fill="#B6B6B6" d="M1935 250 c10 -11 20 -20 23 -20 3 0 -3 9 -13 20 -10 11 -20 20 -23
20 -3 0 3 -9 13 -20z"/>
  <path fill="#B6B6B6" d="M1660 200 c-6 -11 -8 -20 -6 -20 3 0 10 9 16 20 6 11 8 20 6 20 -3 0
-10 -9 -16 -20z"/>
  <path fill="#B6B6B6" d="M4215 136 c-115 -25 -220 -60 -231 -78 -4 -5 -30 -21 -58 -34 l-51
-24 390 0 c378 0 389 1 363 18 -15 10 -52 45 -81 77 l-54 60 -84 2 c-58 2
-118 -5 -194 -21z"/>
  <path fill="#B6B6B6" d="M2080 122 c0 -4 10 -13 23 -21 22 -14 22 -14 3 8 -20 22 -26 25 -26
13z"/>
  <path fill="#B6B6B6" d="M3692 95 c-17 -37 -14 -45 4 -12 9 16 14 31 11 33 -2 2 -9 -7 -15
-21z"/>
  <path fill="#B6B6B6" d="M3508 3 c7 -3 16 -2 19 1 4 3 -2 6 -13 5 -11 0 -14 -3 -6 -6z"/>
  <path fill="#E6E0CE" d="M73 5118 l-73 -20 0 -309 c0 -170 4 -309 8 -309 5 0 35 18 67 41 134
94 191 114 354 126 l86 6 -32 32 c-47 47 -43 95 13 155 22 24 23 30 14 85 -5
33 -10 79 -10 103 0 23 -7 58 -14 77 l-15 35 -163 -1 c-132 0 -177 -4 -235
-21z"/>
  <path fill="#E6E0CE" d="M1930 5060 c0 -43 -27 -83 -70 -105 -38 -19 -143 -19 -206 0 -156 48
-269 57 -364 29 -72 -21 -92 -35 -182 -123 -89 -86 -93 -101 -53 -181 30 -60
31 -75 5 -135 -38 -88 -17 -155 48 -155 16 0 66 11 113 25 157 47 321 42 395
-13 26 -20 24 -52 -7 -114 -42 -83 -117 -109 -303 -106 -62 1 -120 -3 -131 -9
-18 -9 -220 -79 -300 -103 -63 -19 -169 -32 -223 -28 -71 6 -102 37 -102 103
0 55 32 85 118 109 127 35 139 145 19 172 -17 3 -41 13 -52 20 -67 44 -260 58
-399 29 -96 -20 -117 -28 -183 -68 l-53 -31 0 -108 0 -108 40 -29 c21 -15 54
-34 72 -40 156 -58 218 -113 245 -213 21 -85 18 -110 -21 -135 -69 -44 -207
-71 -288 -55 l-48 9 0 -118 c0 -106 2 -121 20 -139 25 -25 25 -68 0 -100 -17
-21 -20 -41 -20 -131 l0 -107 48 5 c110 10 110 9 165 85 66 91 134 136 258
171 125 35 204 46 324 43 81 -2 110 -7 147 -25 61 -29 84 -63 72 -109 -15 -59
-49 -75 -172 -83 -177 -11 -252 -41 -252 -103 0 -65 70 -100 179 -89 62 6 90
6 138 4 12 -1 31 -15 44 -32 18 -25 20 -35 11 -54 -17 -36 -52 -54 -155 -80
-52 -13 -107 -30 -122 -37 l-27 -15 38 -23 c25 -14 62 -24 102 -28 58 -4 65
-3 90 21 44 42 97 59 196 61 95 3 131 14 140 44 15 45 95 96 207 132 73 23
108 44 96 57 -5 4 -77 10 -162 13 -145 6 -155 7 -194 33 -71 47 -99 139 -68
224 13 35 92 123 110 123 7 0 -5 10 -25 23 -77 46 -93 115 -43 187 32 46 52
60 120 85 55 21 98 45 91 52 -2 3 -31 6 -63 9 -194 13 -212 20 -239 89 -26 70
-4 148 56 199 51 42 117 56 276 56 186 0 214 -11 274 -115 42 -71 81 -115 123
-136 64 -33 118 -47 252 -64 17 -2 109 -4 205 -3 96 0 192 0 213 -1 57 -1 94
-28 121 -88 32 -69 49 -77 160 -69 297 20 340 20 389 -2 61 -27 90 -71 84
-131 -9 -88 -68 -128 -205 -142 -48 -5 -116 -17 -152 -26 -60 -15 -71 -23
-146 -99 -100 -102 -135 -124 -194 -124 -59 0 -87 20 -116 86 -36 83 -58 91
-231 94 -19 0 -44 10 -62 26 -38 31 -41 76 -10 128 24 40 20 62 -17 97 -23 22
-34 24 -113 24 -80 0 -94 -3 -191 -44 l-104 -45 70 -12 c129 -22 153 -39 245
-176 67 -99 100 -128 189 -164 140 -57 475 -91 771 -79 225 10 249 0 317 -136
30 -60 61 -75 105 -52 33 17 172 63 191 63 35 1 37 15 12 121 -14 57 -29 159
-34 227 -15 190 -49 245 -192 307 -141 62 -194 115 -193 190 1 66 26 98 116
146 50 27 84 53 93 70 l14 27 -68 7 c-136 13 -198 42 -337 155 -126 102 -257
161 -436 195 -133 25 -186 43 -209 72 -34 43 -22 90 35 135 28 22 37 23 150
20 90 -2 125 0 139 11 18 13 17 15 -13 46 -32 32 -32 33 -15 59 43 66 119 108
209 117 89 8 105 13 105 31 0 37 -56 72 -182 113 -165 53 -268 68 -523 76
-115 4 -229 11 -252 15 l-43 7 0 -37z m-171 -433 c-2 -1 -13 -9 -24 -17 -19
-14 -19 -14 -6 3 7 9 18 17 24 17 6 0 8 -1 6 -3z m186 -37 c10 -11 16 -20 13
-20 -3 0 -13 9 -23 20 -10 11 -16 20 -13 20 3 0 13 -9 23 -20z m76 -67 c13
-16 12 -17 -3 -4 -17 13 -22 21 -14 21 2 0 10 -8 17 -17z m89 -78 c13 -14 21
-25 18 -25 -2 0 -15 11 -28 25 -13 14 -21 25 -18 25 2 0 15 -11 28 -25z m-473
-17 c-3 -7 -5 -2 -5 12 0 14 2 19 5 13 2 -7 2 -19 0 -25z m640 -200 c-3 -7 -5
-2 -5 12 0 14 2 19 5 13 2 -7 2 -19 0 -25z m36 -195 c-7 -2 -19 -2 -25 0 -7 3
-2 5 12 5 14 0 19 -2 13 -5z m194 1 c-3 -3 -12 -4 -19 -1 -8 3 -5 6 6 6 11 1
17 -2 13 -5z m116 -1 c-13 -2 -35 -2 -50 0 -16 2 -5 4 22 4 28 0 40 -2 28 -4z
m135 0 c-10 -2 -28 -2 -40 0 -13 2 -5 4 17 4 22 1 32 -1 23 -4z m349 -89 c-3
-3 -12 -4 -19 -1 -8 3 -5 6 6 6 11 1 17 -2 13 -5z m-280 -170 c-3 -3 -12 -4
-19 -1 -8 3 -5 6 6 6 11 1 17 -2 13 -5z m181 -11 c-10 -2 -26 -2 -35 0 -10 3
-2 5 17 5 19 0 27 -2 18 -5z m-1855 -40 c-7 -2 -19 -2 -25 0 -7 3 -2 5 12 5
14 0 19 -2 13 -5z m-763 -28 c14 -19 14 -19 -2 -6 -10 7 -18 18 -18 24 0 6 1
8 3 6 1 -2 9 -13 17 -24z m567 -1 c-3 -3 -12 -4 -19 -1 -8 3 -5 6 6 6 11 1 17
-2 13 -5z m-40 -10 c-3 -3 -12 -4 -19 -1 -8 3 -5 6 6 6 11 1 17 -2 13 -5z
m-450 -40 c-3 -3 -12 -4 -19 -1 -8 3 -5 6 6 6 11 1 17 -2 13 -5z"/>
  <path fill="#E6E0CE" d="M3250 4829 c0 -56 18 -103 56 -147 43 -51 64 -62 204 -111 125 -44
160 -64 160 -90 0 -26 -20 -40 -72 -50 -52 -9 -111 -42 -133 -74 -22 -31 -19
-38 11 -22 26 13 52 12 150 -6 74 -14 189 -13 227 3 17 7 59 28 92 46 111 60
140 70 268 97 94 20 149 26 204 23 l76 -4 56 -62 c39 -42 76 -71 119 -92 89
-43 128 -114 84 -153 -25 -23 -64 -35 -146 -46 -58 -8 -76 -16 -125 -54 -76
-59 -101 -72 -227 -107 -119 -33 -157 -53 -152 -78 3 -14 15 -17 79 -14 70 3
77 1 102 -24 20 -20 27 -37 27 -67 0 -35 -6 -46 -43 -81 -23 -23 -93 -72 -156
-111 -225 -139 -281 -217 -281 -401 0 -84 8 -97 80 -132 73 -37 95 -68 97
-145 1 -56 4 -62 30 -75 15 -8 39 -25 53 -38 l25 -23 63 70 c101 110 149 127
309 108 l106 -13 19 24 c15 18 18 34 14 59 -7 42 -29 67 -86 96 -125 62 -231
79 -335 52 -59 -16 -123 -7 -142 19 -23 31 -16 85 18 134 38 54 121 125 192
163 62 33 94 32 193 -8 80 -32 143 -30 177 4 l21 21 -69 0 c-83 0 -114 14
-139 61 -19 36 -19 36 3 83 31 64 66 81 145 71 92 -11 110 -9 178 27 55 29 72
33 139 33 70 0 80 -3 130 -36 97 -64 89 -82 89 198 0 135 -2 244 -5 241 -3 -3
-14 -36 -25 -73 -22 -79 -60 -125 -100 -125 -56 0 -73 54 -48 159 10 43 9 57
-7 97 -10 26 -31 67 -47 90 -51 76 -61 121 -56 257 3 67 8 130 12 139 6 13
-12 8 -76 -20 -131 -58 -222 -50 -312 25 l-29 24 -42 -48 c-157 -180 -464
-175 -729 10 -57 40 -65 43 -82 30 -33 -25 -118 -66 -154 -74 -80 -19 -148 30
-169 119 -12 56 -21 65 -21 21z m403 -246 c-7 -2 -19 -2 -25 0 -7 3 -2 5 12 5
14 0 19 -2 13 -5z m48 -150 c-12 -20 -14 -14 -5 12 4 9 9 14 11 11 3 -2 0 -13
-6 -23z m-21 -47 c0 -2 -8 -10 -17 -17 -16 -13 -17 -12 -4 4 13 16 21 21 21
13z"/>
  <path fill="#E6E0CE" d="M3907 2522 c-12 -3 -3 -14 34 -43 91 -73 107 -125 53 -179 -20 -21
-34 -25 -78 -25 -99 1 -205 75 -258 180 -11 22 -22 41 -23 43 -10 11 -158 -72
-200 -112 -27 -26 -43 -45 -34 -43 9 3 57 8 106 12 71 6 102 4 149 -10 53 -15
69 -27 153 -111 101 -103 147 -132 219 -141 60 -7 248 30 276 55 26 22 -55
-93 -94 -135 -18 -19 -48 -37 -73 -43 -78 -20 -107 -31 -107 -41 0 -5 -11 -14
-24 -19 -14 -5 -33 -21 -42 -36 -18 -26 -18 -27 10 -50 29 -26 50 -28 110 -14
21 5 73 11 115 15 l76 6 -25 -20 c-34 -27 -22 -33 39 -20 44 9 56 8 76 -5 40
-27 42 -60 6 -130 -36 -71 -37 -78 -13 -98 26 -23 78 -29 146 -17 80 14 108 3
124 -47 13 -45 12 -48 -19 -35 -13 5 -62 21 -109 36 -47 14 -101 30 -122 36
-71 22 -138 8 -234 -51 -79 -49 -93 -54 -159 -58 -123 -8 -190 29 -276 153
-69 100 -110 121 -186 95 -41 -15 -59 -53 -67 -140 -8 -96 -35 -138 -108 -174
-145 -70 -367 -42 -443 57 -38 50 -59 120 -52 175 3 26 24 90 46 144 23 53 41
110 41 127 0 39 -29 101 -48 101 -8 0 -36 -13 -63 -29 -76 -47 -119 -55 -224
-40 -102 14 -144 6 -203 -39 -39 -30 -84 -114 -102 -192 -38 -167 -121 -237
-230 -194 -56 21 -110 72 -152 140 -44 73 -77 89 -164 80 -198 -19 -200 -19
-271 2 -124 38 -218 123 -284 257 -32 66 -34 75 -34 175 0 96 2 109 27 151 25
42 66 84 149 152 31 25 32 27 9 22 -36 -9 -166 -71 -200 -95 -17 -12 -31 -34
-35 -53 -8 -38 -43 -115 -64 -139 -20 -25 -62 -22 -90 5 l-24 22 -39 -37 c-21
-21 -53 -45 -70 -54 -46 -24 -144 -29 -195 -11 l-43 15 0 -67 c0 -81 21 -121
82 -152 57 -29 125 -28 213 4 130 46 185 45 236 -5 36 -37 37 -67 2 -100 -36
-33 -62 -46 -142 -70 -53 -16 -111 -22 -291 -28 -298 -10 -359 -30 -411 -132
-24 -46 -20 -69 11 -61 31 8 107 -25 132 -58 l23 -29 49 15 c27 8 71 15 98 15
67 0 101 -33 118 -113 25 -123 78 -138 240 -69 52 22 129 50 170 62 98 29 150
56 235 123 91 71 125 87 178 87 39 0 49 -5 76 -35 26 -30 31 -44 31 -88 0 -62
-23 -105 -72 -135 -93 -58 -330 -122 -449 -122 -153 0 -242 -32 -283 -100
l-18 -31 27 7 c15 4 102 -1 193 -11 92 -10 179 -16 193 -12 18 5 37 25 60 64
29 50 43 62 99 90 62 30 111 41 191 42 l36 1 17 86 c19 96 52 170 93 209 72
68 179 87 223 40 20 -21 22 -31 17 -75 -3 -27 -4 -50 -2 -50 2 0 30 7 62 14
96 24 297 46 422 46 212 0 326 -52 288 -131 -21 -42 -76 -60 -194 -65 -60 -3
-142 -9 -184 -15 -74 -11 -148 -42 -156 -66 -7 -19 106 -21 344 -6 253 16 278
14 488 -51 66 -21 170 -44 230 -52 61 -8 187 -26 280 -39 258 -37 276 -38 340
-25 69 14 122 39 185 87 94 72 180 100 368 118 35 3 93 15 129 26 55 17 77 32
137 89 39 37 90 84 112 104 23 20 45 49 49 64 15 63 65 149 100 174 35 24 39
25 84 13 26 -7 57 -17 69 -24 l22 -12 0 186 0 185 -50 0 c-85 0 -158 54 -146
107 18 77 57 119 150 165 l46 22 0 84 0 84 -57 -7 c-32 -4 -115 -20 -185 -36
-142 -33 -229 -36 -307 -13 -60 17 -106 56 -97 81 6 14 -3 15 -71 10 -43 -3
-132 -20 -198 -37 -159 -42 -224 -39 -269 11 -18 19 -39 33 -49 31z m920 -288
c-3 -3 -12 -4 -19 -1 -8 3 -5 6 6 6 11 1 17 -2 13 -5z m48 -144 c-3 -5 -12
-10 -18 -10 -7 0 -6 4 3 10 19 12 23 12 15 0z m-158 -46 c-3 -3 -12 -4 -19 -1
-8 3 -5 6 6 6 11 1 17 -2 13 -5z m-162 -43 c-19 -37 -35 -40 -35 -8 0 15 8 28
23 34 30 14 31 10 12 -26z m562 -27 c-3 -3 -12 -4 -19 -1 -8 3 -5 6 6 6 11 1
17 -2 13 -5z m-152 -54 c-3 -5 -12 -10 -18 -10 -7 0 -6 4 3 10 19 12 23 12 15
0z m-376 -54 c-3 -3 -11 5 -18 17 -13 21 -12 21 5 5 10 -10 16 -20 13 -22z
m251 -21 c0 -2 -10 -9 -22 -15 -22 -11 -22 -10 -4 4 21 17 26 19 26 11z m-93
-51 c-3 -3 -12 -4 -19 -1 -8 3 -5 6 6 6 11 1 17 -2 13 -5z"/>
  <path fill="#E6E0CE" d="M5127 1452 c-5 -7 -26 -21 -47 -32 -65 -33 -87 -99 -54 -162 33 -65
35 -86 9 -155 -25 -66 -31 -103 -17 -103 8 0 62 123 62 143 0 8 14 41 30 75
29 56 31 67 28 154 -2 53 -7 88 -11 80z"/>
  <path fill="#E6E0CE" d="M1 1051 c0 -72 5 -131 10 -131 5 0 26 10 46 23 21 12 64 37 96 55 31
19 57 37 57 41 0 3 -11 23 -25 43 -24 36 -98 79 -158 94 l-28 6 2 -131z"/>
  <path fill="#E6E0CE" d="M295 815 c-124 -12 -206 -28 -262 -52 l-33 -13 0 -305 c0 -172 4
-305 9 -305 5 0 31 16 57 35 89 63 154 97 212 110 58 13 207 31 229 27 6 -2
-4 13 -23 32 -49 49 -45 95 12 156 22 24 23 30 14 85 -5 33 -10 79 -10 103 0
67 -41 145 -73 141 -7 -1 -66 -7 -132 -14z"/>
  <path fill="#E6E0CE" d="M1930 724 c0 -49 -18 -79 -61 -103 -55 -31 -129 -29 -272 8 -134 35
-225 40 -307 15 -71 -21 -112 -49 -194 -132 -78 -79 -80 -90 -35 -190 23 -53
23 -53 5 -100 -29 -75 -32 -126 -7 -151 28 -28 62 -27 168 5 70 21 110 27 193
27 94 1 111 -2 164 -26 53 -24 58 -29 52 -52 l-6 -25 547 1 548 1 -100 28
c-55 16 -132 34 -171 40 -148 24 -195 98 -112 179 l32 31 132 0 c156 0 174 9
124 60 -31 31 -31 32 -14 58 45 69 108 102 217 116 74 9 92 14 95 29 7 33 -49
72 -148 104 -216 70 -271 79 -565 89 -110 3 -219 10 -242 14 l-43 7 0 -33z
m-133 -430 c-3 -3 -12 -4 -19 -1 -8 3 -5 6 6 6 11 1 17 -2 13 -5z m148 -44
c10 -11 16 -20 13 -20 -3 0 -13 9 -23 20 -10 11 -16 20 -13 20 3 0 13 -9 23
-20z m-275 -50 c-6 -11 -13 -20 -16 -20 -2 0 0 9 6 20 6 11 13 20 16 20 2 0 0
-9 -6 -20z m436 -91 c19 -22 19 -22 -3 -8 -13 8 -23 17 -23 21 0 12 6 9 26
-13z"/>
  <path fill="#E6E0CE" d="M3251 490 c-1 -56 16 -103 55 -148 43 -50 77 -69 202 -111 118 -39
149 -56 158 -83 9 -28 -26 -58 -69 -58 -35 0 -112 -42 -126 -69 -10 -18 -1
-18 194 -20 219 -2 239 1 315 54 78 54 320 110 443 103 l70 -4 54 -59 c85 -93
88 -95 235 -95 l127 0 -27 52 c-25 49 -27 61 -27 178 0 69 3 139 7 156 l7 31
-78 -33 c-135 -59 -215 -56 -300 12 l-43 34 -43 -48 c-162 -180 -461 -176
-727 10 l-64 44 -49 -32 c-74 -48 -144 -68 -192 -55 -52 14 -81 47 -103 117
-17 54 -18 56 -19 24z m445 -407 c-8 -15 -15 -25 -16 -21 0 12 23 58 27 54 3
-2 -2 -17 -11 -33z"/>
  <path fill="#E6E0CE" d="M280 143 c-130 -22 -280 -89 -280 -125 0 -17 22 -18 385 -18 341 0
385 2 385 15 0 23 -44 63 -77 70 -15 4 -40 13 -54 20 -69 38 -250 56 -359 38z"/>
</g>
</svg>