<?xml version="1.0" standalone="no"?>
<!DOCTYPE svg PUBLIC "-//W3C//DTD SVG 20010904//EN"
 "http://www.w3.org/TR/2001/REC-SVG-20010904/DTD/svg10.dtd">
<svg version="1.0" xmlns="http://www.w3.org/2000/svg"
 width="1200.000000pt" height="800.000000pt" viewBox="0 0 1200.000000 800.000000"
 preserveAspectRatio="xMidYMid meet">
<rect x="0" y="0" width="1200" height="800" fill="#f8b4d9"/>
<metadata>
Created by potrace 1.16, written by Peter Selinger 2001-2019
</metadata>
<g transform="translate(0.000000,800.000000) scale(0.100000,-0.100000)"
fill="#fff" stroke="none">
<path d="M5989 7240 c0 -3 -18 -90 -39 -193 -29 -144 -36 -197 -29 -225 11
-48 -18 -494 -36 -544 -11 -32 -10 -45 2 -80 18 -54 9 -174 -19 -240 -15 -36
-17 -51 -9 -66 27 -50 4 -116 -58 -170 -24 -21 -25 -24 -9 -36 11 -8 15 -20
12 -33 -8 -29 13 -38 28 -13 18 28 30 25 26 -7 -2 -23 -9 -29 -34 -31 -47 -5
-84 43 -84 108 0 27 -4 51 -9 54 -5 3 -12 34 -16 68 -9 74 -21 112 -34 103 -5
-3 -12 4 -16 14 -13 42 -104 168 -156 217 -61 57 -94 78 -109 69 -20 -12 -9
-31 45 -78 67 -58 118 -157 142 -272 15 -73 15 -83 1 -115 -17 -37 -30 -120
-29 -183 1 -45 -13 -74 -46 -100 -19 -15 -21 -22 -12 -33 9 -11 5 -17 -24 -29
-20 -8 -49 -15 -64 -15 -45 0 -126 44 -157 84 -19 26 -32 34 -38 28 -21 -21
62 -133 141 -194 l33 -25 -43 -30 c-25 -17 -73 -37 -109 -45 -86 -19 -89 -42
-7 -46 61 -3 147 17 280 67 l78 29 -7 -33 c-8 -45 10 -52 37 -13 12 18 24 35
26 37 1 2 9 -2 17 -8 8 -7 17 -8 20 -3 3 6 -1 15 -9 22 -14 11 -14 15 1 31 23
26 105 26 126 2 44 -50 46 -106 6 -143 -29 -26 -116 -66 -162 -73 l-39 -6 22
23 c34 37 8 42 -58 12 -86 -38 -159 -37 -240 3 -49 24 -67 29 -77 20 -11 -9
-18 -8 -30 1 -12 11 -18 11 -31 -2 -14 -14 -21 -13 -74 8 -84 34 -190 100
-244 151 -35 34 -47 41 -51 29 -7 -18 53 -87 156 -182 96 -90 121 -164 53
-164 -45 0 -112 -47 -99 -69 4 -6 20 -4 42 5 37 16 64 12 88 -12 12 -11 14
-39 10 -141 -6 -137 9 -228 35 -228 11 0 14 22 15 105 1 96 3 109 29 153 15
26 31 48 35 48 4 1 17 3 29 4 12 1 46 12 74 24 41 18 64 22 113 17 33 -3 66
-5 71 -6 6 0 25 3 43 6 17 3 32 3 32 -1 0 -22 -61 -103 -112 -149 -44 -39 -59
-59 -54 -71 5 -15 8 -15 32 4 15 12 31 21 35 21 5 0 -3 -30 -17 -67 -14 -38
-36 -95 -48 -128 -47 -122 -80 -179 -124 -208 l-42 -29 20 -28 21 -29 -20 -40
c-12 -22 -25 -43 -31 -46 -6 -4 -8 -10 -5 -15 3 -5 -10 -42 -29 -82 -24 -51
-54 -94 -101 -141 -44 -45 -65 -73 -61 -83 5 -14 11 -13 41 6 19 12 35 18 35
14 0 -5 -18 -45 -40 -90 -39 -77 -64 -109 -119 -152 -29 -23 -20 -45 15 -36
20 5 24 2 24 -15 0 -25 1 -25 -42 -6 -36 15 -48 43 -48 119 0 24 2 27 15 16
24 -20 30 14 9 63 -17 42 -27 196 -17 264 5 29 7 31 33 22 26 -9 40 -29 54
-73 11 -33 29 -2 29 48 0 44 -2 47 -59 89 -33 24 -67 55 -76 68 -15 23 -15 26
0 37 15 10 13 15 -19 44 -76 70 -102 88 -128 88 -28 1 -126 49 -100 50 8 0 41
16 73 35 66 40 67 40 60 21 -10 -27 15 -26 34 1 32 47 99 176 106 205 11 49
50 8 58 -62 2 -14 8 -25 13 -25 6 0 12 11 13 25 2 14 8 30 14 37 7 8 -2 33
-28 80 -20 37 -49 104 -64 148 -26 78 -27 84 -15 149 15 78 8 121 -21 121 -11
0 -18 -6 -16 -14 4 -20 -26 -97 -43 -111 -11 -9 -21 -7 -44 9 -16 12 -38 21
-48 21 -23 0 -51 19 -133 91 -58 51 -95 104 -114 163 -5 15 -9 17 -18 8 -9 -9
-9 -25 -1 -64 6 -29 10 -54 8 -56 -1 -2 -19 12 -39 31 -46 44 -87 133 -93 205
-11 131 97 279 130 177 26 -81 52 -64 42 29 -6 49 -12 70 -27 80 -19 14 -19
15 10 47 27 30 33 33 58 24 26 -9 33 -7 66 24 20 19 35 39 32 43 -3 4 -23 8
-45 8 -36 0 -39 2 -29 19 13 26 171 159 240 203 30 20 97 57 149 82 68 35 91
50 83 58 -24 24 -307 -93 -437 -181 -33 -22 -82 -56 -110 -76 -28 -20 -57 -33
-66 -30 -18 6 -79 -39 -79 -58 0 -23 -269 -276 -321 -302 -28 -14 -49 -31 -46
-38 6 -20 43 -19 86 2 43 22 59 15 41 -19 -6 -11 -20 -49 -30 -84 -11 -36 -30
-82 -43 -103 -43 -75 -106 -161 -122 -167 -9 -3 -14 -10 -10 -16 8 -12 46 3
103 41 l44 30 -4 -60 c-2 -33 -7 -63 -10 -67 -4 -3 -42 5 -85 19 -106 35 -137
39 -213 24 -45 -8 -65 -17 -65 -27 0 -12 13 -14 71 -12 125 6 208 -48 270
-175 35 -71 33 -126 -6 -232 -34 -92 -34 -127 0 -96 11 10 22 26 25 36 14 44
25 1 25 -99 0 -136 -19 -185 -75 -201 -20 -5 -42 -8 -50 -5 -7 3 -16 1 -20 -5
-33 -54 -69 87 -49 188 l7 32 22 -21 c29 -27 42 -11 25 31 -11 25 -10 36 5 68
23 52 11 70 -23 36 l-26 -27 -22 27 c-47 59 -62 107 -73 232 -13 143 -24 181
-46 163 -11 -9 -14 -23 -9 -46 4 -20 -1 -53 -11 -84 l-17 -52 -25 24 c-40 37
-142 177 -149 204 -3 13 -15 41 -25 61 -10 21 -19 56 -19 78 0 23 -7 50 -15
61 -8 10 -15 15 -15 9 0 -5 -5 -3 -10 5 -5 8 -10 41 -10 72 0 31 -4 60 -10 63
-22 14 -2 192 34 293 65 184 239 387 454 531 55 37 71 61 41 61 -17 0 -220
-120 -269 -159 -25 -19 -84 -70 -131 -112 -73 -66 -87 -75 -95 -61 -9 14 -16
10 -43 -28 -18 -25 -42 -63 -53 -85 -11 -22 -41 -69 -67 -105 -25 -36 -59 -84
-74 -107 -36 -57 -59 -56 -113 4 -32 35 -47 44 -55 36 -8 -8 0 -34 30 -98 50
-107 53 -162 16 -262 -33 -87 -73 -155 -88 -150 -7 2 -24 -2 -38 -11 -15 -8
-34 -12 -43 -9 -25 10 -20 79 9 138 28 54 25 81 -6 53 -18 -16 -19 -16 -19 4
0 12 5 55 11 95 19 126 -14 334 -62 398 -32 42 -41 13 -23 -71 27 -126 0 -321
-59 -434 l-22 -41 -3 50 c-6 111 -24 97 -47 -35 -19 -117 -28 -144 -61 -195
-22 -34 -24 -36 -20 -13 7 30 -6 45 -22 25 -5 -6 -19 -40 -30 -73 -22 -64 -74
-158 -116 -209 l-25 -29 -12 29 c-8 21 -8 44 -2 78 5 26 6 50 1 53 -15 10 -58
-104 -58 -155 0 -55 -20 -128 -44 -162 l-16 -24 -6 22 c-3 12 -17 29 -30 37
-32 22 -75 99 -85 153 -5 25 -14 52 -21 60 -10 13 -14 13 -24 -2 -11 -14 -18
-8 -53 52 -51 86 -52 108 -9 121 91 27 203 4 269 -55 38 -34 56 -31 44 7 -10
31 -90 95 -176 140 -110 57 -177 143 -224 290 -36 112 -59 102 -45 -20 5 -47
10 -98 10 -114 0 -27 -2 -28 -32 -22 -18 4 -61 19 -95 35 -73 35 -122 94 -153
186 -23 70 -49 110 -61 98 -4 -4 -4 -39 2 -77 5 -38 8 -71 5 -73 -2 -2 -40 31
-85 73 -63 59 -91 95 -124 158 -43 83 -60 98 -65 59 -3 -21 -7 -19 -35 20 -97
128 -188 299 -207 392 -15 67 -26 87 -36 61 -5 -13 -13 -2 -29 39 -25 62 -37
110 -55 225 -6 41 -20 120 -31 175 -11 57 -20 152 -22 220 -1 71 -6 120 -12
120 -38 0 -53 -427 -22 -615 9 -58 17 -123 16 -145 -1 -22 7 -62 18 -90 72
-179 78 -202 39 -166 -37 35 -42 7 -7 -38 54 -68 130 -205 120 -217 -6 -7 -1
-18 12 -30 26 -24 111 -134 103 -134 -3 0 -18 8 -32 18 -59 39 -131 72 -207
93 -89 25 -207 31 -226 12 -14 -14 -16 -14 85 -37 137 -32 291 -130 358 -229
16 -22 43 -55 62 -73 72 -70 178 -334 208 -519 12 -74 24 -99 40 -89 7 4 8 53
3 135 -4 71 -4 129 0 129 28 0 79 -49 105 -100 66 -130 72 -164 74 -405 1
-219 1 -220 -28 -297 -29 -79 -30 -122 -1 -98 8 7 15 9 15 4 0 -20 -28 -112
-42 -138 -14 -27 -15 -23 -10 70 6 139 -24 311 -51 294 -5 -3 -9 -61 -11 -130
-2 -112 -5 -135 -34 -220 -75 -217 -196 -372 -382 -488 -90 -56 -111 -80 -65
-74 19 2 116 31 160 48 27 11 -90 -117 -127 -138 -40 -22 -68 -48 -68 -63 0
-7 -24 -46 -53 -86 -94 -132 -167 -265 -214 -388 -36 -95 -14 -98 40 -4 74
128 226 323 252 323 6 0 24 14 41 31 65 70 225 155 263 141 20 -7 82 -96 127
-183 24 -46 46 -61 58 -40 3 5 -6 53 -20 107 -33 128 -28 212 16 256 39 39 65
36 88 -8 8 -15 8 -24 -1 -33 -8 -8 -7 -18 6 -40 11 -20 17 -49 16 -88 -1 -32
2 -98 5 -148 l7 -90 -49 54 c-67 73 -76 57 -30 -48 64 -145 108 -288 108 -355
0 -19 -1 -19 -17 4 -40 60 -126 151 -135 142 -5 -5 14 -45 47 -98 87 -137 119
-210 121 -268 1 -43 9 -62 48 -119 25 -38 78 -135 118 -215 39 -81 91 -181
116 -222 46 -75 85 -146 149 -273 35 -69 60 -81 49 -23 -5 28 5 20 92 -70 143
-149 313 -291 465 -387 90 -58 279 -149 288 -140 4 4 -41 41 -102 81 -61 41
-149 106 -197 146 -159 133 -441 438 -442 477 0 8 -11 39 -25 68 -20 40 -30
51 -43 47 -13 -5 -27 12 -60 71 -23 42 -41 78 -39 79 2 2 26 -13 53 -34 65
-49 171 -105 184 -97 18 11 10 23 -38 54 -101 64 -240 238 -301 374 -44 98
-81 224 -62 213 22 -14 19 16 -10 95 -23 63 -29 92 -24 121 4 21 10 38 14 38
5 0 59 -46 121 -102 62 -57 129 -116 147 -132 56 -47 57 -17 2 49 -125 149
-251 357 -229 379 5 5 0 25 -15 50 -28 48 -41 98 -49 185 l-6 64 21 -27 c12
-15 25 -24 30 -19 9 9 -18 110 -39 149 -14 26 -2 109 16 109 30 0 144 -121
218 -230 43 -63 81 -115 85 -115 23 0 14 31 -37 132 -172 337 -214 434 -228
513 l-7 40 69 -68 c59 -58 70 -66 81 -53 10 12 6 24 -28 65 -96 122 -145 228
-155 336 l-6 70 26 -42 c47 -78 68 -45 31 49 -41 102 -60 211 -54 295 3 41 11
81 17 89 8 8 10 26 5 46 -4 18 -9 64 -12 102 -4 65 -4 69 12 56 54 -45 105
-184 105 -285 0 -35 5 -67 10 -70 13 -8 40 54 40 92 l1 28 16 -30 c51 -95 79
-240 62 -330 -13 -69 -7 -94 17 -74 9 7 20 22 24 34 9 24 10 20 39 -263 12
-106 26 -202 32 -214 17 -31 32 -7 27 44 -6 56 8 283 24 371 l12 69 31 -66
c36 -77 51 -94 65 -80 6 6 0 34 -17 79 -19 54 -26 90 -27 160 0 50 3 104 8
120 l9 30 6 -25 c4 -14 13 -25 21 -25 11 0 16 16 20 60 4 44 9 60 20 60 11 0
15 14 16 56 1 37 10 69 25 98 13 24 31 56 40 72 9 15 28 44 43 63 14 19 26 39
26 44 0 5 7 15 15 22 13 11 15 4 15 -57 0 -38 -5 -95 -11 -127 -8 -43 -7 -61
2 -72 8 -10 10 -46 7 -117 -4 -96 -7 -107 -42 -170 -42 -75 -40 -104 5 -61
l28 27 7 -28 c10 -39 -1 -251 -16 -309 -11 -42 -11 -51 2 -60 18 -14 11 -42
-31 -126 -39 -76 -36 -98 9 -75 l30 16 0 -78 c0 -135 -23 -231 -74 -316 -25
-42 -46 -80 -46 -86 0 -28 25 -17 74 33 30 31 59 56 64 56 15 0 52 -132 52
-184 0 -26 7 -63 16 -84 14 -34 16 -35 28 -19 12 16 15 11 27 -40 8 -32 18
-56 22 -53 5 3 13 -4 19 -15 48 -88 117 -176 210 -269 79 -79 112 -106 120
-98 8 8 -5 29 -49 75 -104 111 -215 314 -228 417 -4 25 -13 75 -21 112 -19 91
-19 93 19 51 41 -44 53 -33 27 25 -11 23 -22 57 -24 75 -5 28 -1 36 35 65 48
38 84 49 103 32 20 -15 35 -91 43 -211 6 -105 16 -128 34 -82 13 35 8 43 100
-164 71 -161 92 -195 112 -188 7 3 31 -23 54 -58 87 -127 229 -271 353 -358
102 -72 260 -153 272 -141 8 8 2 16 -21 29 -65 36 -142 89 -210 146 -70 57
-225 239 -241 283 -5 12 -25 45 -44 72 -49 70 -79 132 -82 167 -1 17 -25 82
-52 145 -50 112 -82 246 -82 335 l0 35 53 -26 c28 -14 60 -33 69 -41 10 -9 25
-13 34 -9 14 5 4 20 -49 75 -93 96 -109 136 -114 291 -4 114 -4 123 10 105 23
-29 39 -9 28 35 -37 147 -40 176 -32 289 9 136 13 141 112 141 114 0 167 -37
179 -124 10 -78 54 -25 46 57 -6 57 14 65 39 16 15 -28 15 -32 0 -43 -16 -11
-16 -15 -1 -50 33 -79 10 -328 -35 -382 -9 -11 -9 -18 -1 -26 9 -9 17 -7 32 7
20 18 20 18 20 -31 -1 -80 -48 -159 -131 -216 -18 -12 -21 -19 -12 -28 9 -10
24 -6 68 14 105 48 127 32 118 -85 -3 -53 -1 -70 17 -98 27 -42 46 -29 41 29
-3 49 6 80 24 80 16 0 151 -154 269 -304 97 -125 102 -130 115 -122 6 4 -2 26
-23 59 -54 85 -156 288 -156 312 0 12 -10 37 -23 56 -29 43 -52 98 -43 106 3
3 13 -11 22 -32 l16 -38 23 26 c30 32 61 42 80 27 21 -18 49 -108 37 -123 -9
-11 0 -133 13 -165 8 -23 25 -2 26 31 0 26 16 1 80 -128 106 -215 108 -218
123 -206 9 8 32 -13 89 -78 89 -105 205 -209 308 -278 84 -57 247 -136 261
-127 12 8 -8 32 -35 40 -81 26 -387 297 -387 343 0 10 -10 26 -21 37 -40 35
-118 161 -108 171 7 7 -5 35 -36 86 -53 88 -79 157 -94 255 -15 95 -14 132 2
132 7 0 42 -18 78 -39 90 -55 99 -37 22 42 -97 97 -129 191 -132 381 l-1 38
18 -22 c36 -45 41 -14 12 80 -25 81 -28 103 -26 220 1 162 3 165 113 165 75 0
76 0 107 -37 33 -38 62 -110 51 -128 -3 -5 -1 -12 5 -15 18 -11 40 16 40 49
l1 31 22 -29 c35 -47 45 -85 46 -171 1 -61 -5 -99 -25 -160 -15 -44 -31 -86
-37 -93 -7 -9 -7 -16 1 -24 7 -7 18 -3 38 17 l27 27 -7 -57 c-11 -99 -54 -168
-128 -206 -21 -11 -36 -24 -32 -30 8 -13 53 -7 118 17 47 17 49 17 63 -2 14
-19 14 -25 -4 -151 -3 -28 -1 -48 7 -58 16 -19 30 -10 30 19 0 13 9 34 19 47
19 23 20 23 33 5 8 -10 41 -68 73 -128 33 -61 67 -113 76 -117 9 -3 41 -35 71
-71 104 -126 226 -229 409 -345 92 -58 119 -69 119 -46 0 4 -31 29 -69 54
-129 89 -321 286 -321 331 0 9 -6 19 -14 22 -25 10 -68 81 -62 102 4 12 -5 41
-24 77 -35 66 -40 133 -14 193 l16 37 18 -46 c26 -65 104 -173 155 -215 58
-47 76 -35 30 19 -57 67 -86 136 -91 219 -5 65 -2 77 16 101 17 21 25 25 35
17 10 -8 17 -6 27 8 52 73 194 50 258 -43 23 -34 35 -44 43 -36 8 8 8 23 0 53
-6 24 -10 44 -8 46 7 7 88 -41 124 -73 45 -41 106 -166 122 -250 6 -33 9 -85
6 -115 -3 -39 0 -62 9 -75 8 -10 14 -28 14 -40 0 -11 7 -45 16 -75 8 -30 19
-86 23 -125 5 -38 14 -113 21 -165 13 -98 7 -277 -9 -293 -5 -5 -22 12 -41 42
-19 28 -37 51 -41 51 -20 0 -15 -25 23 -116 25 -59 42 -117 44 -144 1 -25 6
-63 12 -85 6 -22 15 -101 22 -175 6 -74 16 -160 20 -190 20 -123 41 -368 35
-412 -4 -27 -2 -55 5 -67 11 -21 47 -278 52 -376 3 -48 15 -62 30 -33 3 7 14
86 23 175 9 89 23 186 31 215 8 29 12 69 9 88 -6 37 25 330 50 472 8 46 15
127 15 181 0 65 5 110 15 134 9 20 13 43 10 51 -7 20 11 83 52 180 26 59 33
86 25 94 -7 7 -20 -3 -43 -36 -18 -25 -36 -46 -40 -46 -23 0 -26 241 -3 391 8
57 26 149 40 203 32 133 10 156 -37 39 l-20 -48 7 184 c3 104 12 207 20 238
13 48 12 56 -3 79 -24 37 -24 223 0 277 l16 38 51 -53 c50 -52 60 -70 39 -65
-28 6 -16 -23 21 -53 47 -37 49 -55 20 -148 -21 -68 -27 -157 -10 -167 6 -3
12 0 15 7 34 97 53 137 79 166 63 68 177 49 268 -45 51 -53 70 -102 62 -162
-9 -68 11 -76 37 -15 15 33 20 59 16 88 -5 37 -4 39 9 22 8 -11 14 -34 14 -52
0 -17 7 -48 15 -67 8 -20 15 -52 15 -72 0 -61 -31 -177 -64 -240 -40 -77 -137
-180 -227 -240 -47 -32 -67 -51 -61 -57 13 -13 134 51 242 127 88 62 231 188
264 234 13 17 45 53 72 80 30 30 68 87 97 143 27 51 55 102 63 113 l15 20 15
-20 c8 -11 17 -31 20 -45 11 -52 13 -53 30 -39 16 13 16 26 -2 170 -9 73 8 78
106 34 76 -34 110 -39 110 -16 0 6 -18 20 -39 31 -77 39 -131 134 -131 229 l0
46 20 -25 c14 -19 22 -22 31 -13 9 9 4 32 -20 98 -26 72 -31 100 -31 176 0 50
5 111 12 136 8 34 8 50 0 64 -15 24 -7 44 24 58 38 17 47 13 30 -11 -21 -29
-20 -97 0 -126 19 -28 34 -20 34 19 0 87 69 130 217 137 75 4 98 1 118 -12 25
-16 25 -19 25 -146 0 -88 -4 -140 -14 -162 -42 -98 -48 -118 -42 -135 7 -16
10 -15 33 12 l26 29 -6 -109 c-7 -160 -54 -260 -162 -346 -30 -24 -55 -46 -55
-50 0 -19 22 -13 101 27 l89 44 0 -34 c0 -106 -83 -320 -152 -393 -26 -27 -29
-35 -18 -48 11 -13 7 -24 -23 -68 -20 -29 -50 -66 -67 -82 -16 -16 -30 -36
-30 -45 0 -8 -46 -61 -102 -117 -101 -99 -220 -188 -319 -238 -65 -33 -54 -51
14 -24 222 86 410 220 571 404 42 48 67 70 74 63 9 -9 95 126 177 280 27 49
30 52 37 31 18 -49 42 26 52 166 2 22 10 57 19 78 14 33 20 37 39 32 13 -4 31
-16 41 -27 30 -35 21 -77 -34 -158 -85 -126 -163 -270 -152 -281 7 -7 29 17
68 73 108 155 268 291 388 332 26 9 52 16 57 16 5 0 -16 -24 -46 -52 -61 -58
-78 -83 -68 -99 4 -7 16 -1 33 14 43 41 116 74 192 87 81 14 118 9 160 -21 36
-25 37 -39 4 -39 -14 0 -39 -13 -57 -29 l-33 -29 28 -13 c21 -9 30 -10 39 -1
18 18 79 15 94 -5 7 -10 21 -18 31 -18 15 0 18 -8 17 -50 -3 -165 -62 -292
-198 -427 -63 -62 -42 -72 31 -15 97 75 176 167 248 285 37 62 69 111 71 109
2 -2 -2 -22 -10 -45 -22 -62 -30 -128 -16 -137 7 -4 16 5 23 24 6 17 17 29 23
27 17 -7 25 5 14 19 -20 24 43 136 117 207 39 38 112 80 125 72 4 -3 12 -22
17 -42 12 -43 137 -322 150 -335 5 -5 14 -6 20 -3 6 4 3 22 -9 52 -33 76 -50
158 -50 239 0 76 20 145 42 145 6 0 28 -16 49 -35 22 -19 45 -35 52 -35 26 0
28 14 5 32 -41 32 7 21 96 -20 88 -42 133 -80 142 -121 3 -14 7 -30 8 -36 6
-20 -29 -92 -72 -148 -30 -40 -41 -62 -34 -69 7 -7 31 9 75 50 104 97 144 110
197 66 58 -50 77 -125 43 -173 -13 -19 -14 -28 -5 -42 7 -10 12 -25 12 -33 0
-29 -92 -197 -146 -266 -41 -54 -53 -75 -44 -84 16 -16 187 165 248 264 27 44
52 77 56 73 3 -3 6 -24 6 -45 0 -28 -9 -50 -35 -84 -19 -25 -35 -51 -35 -58 0
-26 14 -25 43 1 l29 28 -5 -70 c-5 -72 -40 -189 -84 -284 -48 -102 -185 -226
-303 -276 -56 -23 -67 -32 -54 -45 10 -10 161 27 204 50 12 6 23 10 26 8 8 -9
-80 -130 -101 -138 -12 -5 -25 -19 -28 -32 -4 -13 -27 -44 -53 -70 -36 -37
-44 -51 -36 -61 9 -10 -10 -37 -86 -119 -181 -196 -400 -369 -590 -463 -101
-51 -116 -77 -24 -43 273 100 515 262 761 509 71 71 120 114 119 103 -7 -45
19 -23 63 52 26 45 64 106 86 135 22 30 68 96 102 147 76 111 175 223 248 276
33 25 50 43 44 49 -10 10 -63 -18 -115 -60 -16 -13 -31 -22 -33 -19 -7 7 33
77 87 151 28 39 58 87 67 107 10 23 23 37 32 35 15 -2 35 24 106 140 25 40 36
49 63 51 37 4 92 -21 155 -71 121 -95 217 -220 313 -408 36 -73 50 -51 23 37
-28 91 -109 263 -154 325 -19 27 -35 55 -35 62 0 22 -89 137 -103 132 -7 -3
-44 27 -82 66 -39 39 -63 69 -55 66 73 -27 182 -57 190 -52 20 12 8 23 -77 65
-71 35 -105 60 -175 131 -49 48 -88 94 -88 102 0 7 -12 29 -26 48 -14 19 -35
53 -46 77 -10 23 -24 40 -29 36 -14 -8 -73 128 -98 226 -29 114 -37 237 -21
328 9 53 9 77 1 85 -15 15 -40 -48 -58 -148 -14 -79 -13 -245 4 -340 6 -37 5
-39 -11 -26 -39 32 -34 -7 13 -104 26 -55 52 -111 56 -124 7 -22 5 -23 -27
-16 -78 17 -118 55 -174 168 -31 60 -38 68 -50 56 -12 -12 -11 -24 6 -79 11
-35 18 -66 16 -68 -2 -2 -37 15 -78 38 -261 147 -301 179 -345 270 -24 49 -27
67 -28 162 0 58 -3 109 -7 113 -10 11 -45 -65 -53 -115 -10 -66 -15 -81 -27
-74 -21 13 -48 92 -50 148 -1 32 -6 60 -11 63 -10 6 2 -111 15 -147 12 -34 59
-100 70 -100 5 0 7 4 3 10 -9 15 15 141 35 180 l18 34 -1 -109 c-1 -100 1
-115 25 -165 47 -95 100 -136 366 -285 46 -26 85 -45 87 -43 2 1 -8 36 -21 77
-13 40 -21 78 -18 83 4 6 23 -21 43 -58 20 -38 45 -81 56 -96 26 -35 81 -66
133 -74 l42 -7 -18 44 c-11 24 -38 82 -60 129 -23 46 -38 87 -36 90 3 3 17 -8
31 -25 14 -16 23 -22 20 -13 -4 10 -12 74 -19 143 -9 97 -9 146 0 218 11 89
39 193 49 183 3 -2 -1 -38 -7 -78 -25 -144 7 -339 81 -498 30 -64 42 -81 49
-70 8 13 10 13 10 -1 0 -9 18 -44 40 -77 22 -33 40 -65 40 -71 0 -7 42 -54 93
-105 72 -72 109 -100 172 -131 97 -48 90 -44 83 -51 -7 -7 -142 32 -181 53
-16 8 -31 12 -34 9 -10 -9 150 -167 164 -162 13 5 93 -99 93 -121 0 -7 16 -35
35 -62 60 -83 173 -341 163 -371 -2 -5 -16 16 -33 48 -119 233 -338 452 -451
452 -37 0 -57 -21 -113 -117 -61 -106 -76 -110 -41 -9 33 98 42 163 25 201
-16 39 -58 57 -80 34 -21 -22 -46 -108 -55 -189 -5 -41 -15 -103 -23 -137 -8
-35 -11 -63 -6 -63 4 0 27 23 50 50 23 28 44 48 47 46 7 -8 -45 -102 -96 -172
-50 -70 -108 -174 -96 -174 4 0 25 15 48 33 54 43 97 70 102 64 3 -3 -13 -18
-34 -34 -42 -30 -173 -170 -201 -213 -8 -14 -57 -83 -107 -155 -50 -71 -107
-160 -128 -197 -48 -87 -56 -89 -28 -8 3 8 -55 -45 -129 -118 -220 -221 -394
-349 -617 -454 -108 -51 -160 -62 -75 -15 72 39 258 170 328 232 121 106 264
254 315 325 23 32 23 32 2 21 -33 -18 -27 -5 23 47 25 26 48 57 51 69 4 13 12
23 19 23 22 0 124 144 111 157 -3 3 -23 -1 -43 -10 -21 -9 -65 -23 -98 -32
-33 -9 -68 -18 -77 -21 -38 -11 -15 12 30 30 73 30 127 67 194 132 96 93 125
143 180 309 21 63 37 205 22 205 -4 0 -21 -12 -36 -27 -41 -39 -37 -6 7 51 24
32 35 57 35 80 0 38 -8 66 -20 66 -4 0 -30 -38 -59 -84 -50 -83 -224 -277
-236 -264 -4 3 19 38 49 78 66 85 146 240 146 282 0 17 -4 27 -10 23 -15 -9
-11 17 5 39 34 45 12 120 -50 175 -58 50 -95 39 -202 -61 -35 -33 -67 -57 -70
-55 -3 3 15 32 39 64 91 119 92 195 5 263 -36 28 -171 90 -196 90 -27 0 -27
-15 1 -34 18 -13 19 -16 5 -16 -9 0 -34 16 -54 35 -21 20 -44 34 -52 33 -7 -2
-22 -19 -32 -38 -36 -66 -21 -233 31 -355 11 -25 15 -45 10 -45 -6 0 -10 1
-10 3 0 2 -29 68 -65 148 -36 79 -70 160 -75 179 -17 59 -22 63 -64 45 -82
-35 -179 -150 -231 -275 -34 -83 -39 -87 -30 -25 10 68 37 136 91 230 89 152
124 218 120 223 -3 2 -18 -5 -34 -17 -17 -12 -41 -21 -55 -21 -34 0 -73 -49
-82 -102 -4 -24 -14 -65 -22 -91 -9 -26 -13 -50 -10 -54 9 -9 28 47 21 59 -4
6 -2 8 4 4 5 -3 13 0 15 6 4 9 6 8 6 -2 1 -39 -163 -303 -238 -382 -59 -64
-129 -123 -136 -116 -2 2 7 17 22 33 90 104 160 228 167 296 2 19 7 55 11 81
10 64 0 102 -26 95 -12 -3 -23 1 -29 14 -12 21 -78 27 -97 8 -6 -6 -21 -8 -34
-4 l-23 8 28 23 c15 14 40 24 57 24 52 0 36 36 -30 71 -42 21 -48 22 -124 11
-88 -13 -152 -40 -203 -85 -19 -16 -34 -24 -34 -18 0 18 90 110 125 129 29 16
29 17 7 20 -105 16 -347 -165 -476 -355 -27 -40 -51 -71 -54 -68 -6 6 95 183
157 275 58 85 65 123 29 164 -13 14 -34 27 -48 28 -20 3 -29 -4 -44 -37 -11
-21 -21 -57 -23 -80 -5 -77 -16 -150 -24 -165 -6 -11 -8 -8 -9 13 0 40 -11 33
-44 -26 -95 -173 -171 -295 -176 -282 -4 11 -23 -5 -65 -56 -87 -104 -198
-204 -300 -271 -90 -59 -242 -138 -265 -138 -7 0 32 30 86 66 104 69 314 266
314 294 0 9 14 29 31 46 32 31 114 147 125 180 6 16 3 15 -19 -5 -36 -33 -34
-15 2 24 16 16 45 60 65 96 52 96 103 308 80 332 -4 3 -46 -14 -95 -39 -49
-24 -89 -41 -89 -37 1 5 25 27 55 51 57 46 110 118 139 192 20 49 36 280 20
280 -5 0 -17 -15 -28 -33 -12 -20 -20 -27 -23 -19 -5 13 3 36 43 130 10 22 14
73 14 162 0 128 0 129 -27 150 -25 20 -37 22 -123 18 -153 -7 -229 -56 -230
-148 -1 -33 -1 -34 -15 -16 -22 29 -19 98 6 130 l20 26 -21 0 c-29 0 -76 -26
-84 -45 -10 -26 -7 -47 5 -39 8 5 10 -3 5 -27 -4 -19 -10 -83 -13 -144 -5
-105 -3 -114 26 -194 17 -47 31 -88 31 -93 0 -19 -18 -5 -38 30 l-22 37 0 -66
c0 -36 7 -86 16 -112 19 -55 81 -129 124 -147 30 -12 41 -30 19 -30 -6 0 -47
16 -91 36 -77 35 -80 35 -100 18 -16 -15 -19 -27 -14 -64 17 -130 18 -158 7
-164 -7 -5 -11 2 -11 16 0 26 -35 88 -49 88 -11 0 -40 -46 -96 -153 -24 -44
-65 -103 -92 -131 -27 -28 -59 -63 -70 -78 -33 -44 -169 -163 -253 -223 -81
-57 -228 -140 -235 -133 -3 2 24 24 60 47 84 56 192 171 231 246 33 63 64 179
64 240 0 20 -7 52 -15 72 -8 19 -15 51 -15 70 0 28 -9 44 -45 79 -24 24 -47
44 -50 44 -13 0 -2 -23 25 -52 36 -37 38 -75 10 -133 l-20 -40 5 52 c7 66 -12
113 -68 171 -61 63 -129 95 -187 90 -77 -8 -117 -51 -160 -170 l-19 -53 0 52
c-1 28 8 80 19 115 29 93 27 112 -20 149 -44 36 -51 50 -19 42 19 -5 20 -4 10
14 -6 11 -34 46 -64 76 l-53 56 -18 -49 c-9 -26 -19 -77 -22 -111 -4 -72 10
-179 26 -189 7 -5 6 -24 -4 -63 -19 -72 -34 -453 -18 -443 6 3 16 23 23 44 15
47 39 95 45 90 2 -3 -7 -49 -20 -104 -52 -208 -73 -479 -45 -579 l11 -39 22
25 c11 14 31 39 44 55 30 38 25 16 -23 -100 -20 -49 -38 -109 -40 -135 -1 -25
-7 -59 -14 -74 -6 -16 -11 -72 -11 -125 0 -53 -7 -134 -15 -180 -25 -142 -56
-435 -50 -472 3 -19 -1 -59 -9 -88 -8 -29 -22 -126 -31 -215 -19 -179 -28
-217 -33 -142 -6 102 -42 356 -52 376 -7 12 -9 40 -5 67 6 44 -15 289 -35 412
-4 30 -14 116 -20 190 -7 74 -16 153 -22 175 -6 22 -11 60 -12 85 -2 27 -20
86 -44 144 -23 55 -39 102 -36 105 4 3 9 1 11 -6 2 -6 20 -33 40 -59 35 -46
37 -47 45 -24 16 44 20 204 8 300 -7 52 -16 124 -20 160 -4 36 -14 92 -23 125
-8 33 -18 78 -21 100 l-5 40 24 -50 c14 -27 25 -55 25 -62 0 -6 5 -15 12 -19
14 -9 4 309 -13 381 -15 63 -14 116 2 126 22 13 24 180 4 255 -20 73 -29 84
-46 52 -6 -13 -23 -35 -37 -50 -20 -22 -28 -25 -40 -16 -11 10 -13 6 -6 -28 3
-21 15 -61 25 -89 46 -125 71 -352 49 -440 -7 -27 -8 -26 -9 16 -3 127 -64
281 -137 349 -40 37 -141 96 -150 87 -2 -2 3 -21 11 -41 9 -21 15 -47 13 -58
-2 -16 -9 -11 -36 27 -66 94 -204 116 -264 41 -15 -18 -18 -19 -18 -3 0 14 -3
15 -19 5 -39 -24 -52 -63 -47 -139 5 -81 35 -150 91 -217 43 -50 38 -54 -16
-11 -46 36 -124 145 -149 208 -10 25 -22 46 -26 46 -18 0 -44 -72 -44 -121 0
-38 8 -67 30 -109 34 -64 38 -84 14 -64 -27 23 19 -62 55 -100 17 -18 31 -38
31 -44 0 -37 200 -241 318 -324 37 -26 69 -48 71 -50 2 -2 2 -5 -1 -8 -6 -7
-185 107 -274 174 -87 66 -178 153 -245 236 -29 36 -58 65 -65 65 -6 0 -29 32
-49 72 -86 164 -109 197 -126 185 -21 -16 -39 -51 -39 -77 0 -13 -4 -19 -11
-14 -11 6 -10 27 7 144 5 36 2 50 -13 69 l-20 24 -49 -17 c-27 -10 -65 -20
-84 -22 l-35 -4 40 21 c78 41 135 148 135 253 l0 40 -31 -33 c-16 -18 -33 -31
-36 -27 -3 3 -1 11 4 18 27 35 63 176 63 249 0 89 -12 130 -54 184 l-31 39 -5
-44 c-3 -24 -11 -45 -19 -48 -8 -3 -11 0 -7 6 12 21 -17 93 -55 135 l-37 42
-75 0 c-64 0 -79 -3 -99 -22 -23 -22 -24 -29 -25 -154 0 -116 3 -140 27 -220
28 -90 25 -116 -7 -56 l-18 32 -3 -37 c-2 -20 1 -81 6 -135 12 -129 41 -196
124 -280 34 -34 60 -64 57 -67 -2 -2 -33 14 -68 35 -83 50 -101 51 -101 3 0
-56 20 -172 41 -231 10 -30 39 -88 64 -129 49 -81 54 -94 28 -73 -15 12 -16
12 -10 -3 10 -28 102 -161 126 -182 11 -11 21 -27 21 -38 0 -27 224 -247 303
-297 37 -24 66 -45 64 -47 -8 -9 -122 49 -194 97 -107 73 -216 172 -313 284
-65 76 -85 94 -90 80 -4 -12 -36 43 -98 169 -51 103 -97 184 -102 181 -6 -3
-10 -21 -11 -38 l-1 -32 -8 35 c-13 59 -18 130 -9 130 26 0 -23 136 -51 145
-23 7 -59 -9 -81 -38 -16 -19 -16 -19 -23 9 -8 30 -22 44 -43 44 -9 0 -7 -15
8 -52 11 -29 24 -55 28 -58 13 -9 31 -48 31 -68 0 -21 105 -229 157 -311 54
-84 21 -56 -69 60 -111 141 -257 309 -276 316 -24 10 -43 -27 -41 -79 3 -60
-5 -69 -26 -29 -11 22 -15 52 -13 104 4 113 -21 129 -126 81 -32 -14 -60 -23
-64 -19 -4 4 2 12 13 19 31 17 93 83 112 119 9 18 19 67 22 110 l6 78 -27 -33
c-14 -18 -30 -30 -34 -26 -4 4 -2 14 5 22 44 53 68 303 36 379 -19 45 -19 51
0 43 21 -8 19 22 -4 60 -21 34 -78 56 -66 25 14 -34 16 -87 4 -116 l-12 -30
-7 43 c-14 89 -73 131 -186 132 -109 0 -115 -7 -126 -160 -4 -67 -6 -126 -3
-130 3 -4 12 -41 20 -81 9 -41 18 -82 21 -91 3 -10 1 -18 -5 -18 -6 0 -13 11
-17 25 -3 14 -11 25 -16 25 -7 0 -9 -49 -6 -137 6 -169 19 -205 115 -304 41
-42 60 -69 50 -69 -9 0 -19 5 -22 10 -6 10 -118 70 -130 70 -10 0 -5 -80 11
-172 14 -85 27 -121 121 -337 4 -9 2 -12 -5 -7 -7 4 -12 5 -12 1 0 -13 63
-130 94 -174 18 -25 40 -62 49 -81 30 -62 182 -235 268 -304 46 -37 112 -83
147 -103 101 -56 63 -50 -45 7 -219 118 -371 254 -516 463 -48 69 -63 84 -68
70 -7 -19 -12 -9 -129 250 -29 64 -56 117 -60 117 -4 0 -11 -15 -17 -32 -8
-28 -10 -18 -16 69 -16 231 -53 278 -152 192 -20 -18 -38 -29 -41 -27 -2 3 20
36 49 74 30 38 61 83 69 99 24 46 38 128 38 213 l0 77 -22 -37 c-22 -38 -38
-49 -38 -25 0 6 12 48 27 92 20 62 27 101 27 172 1 50 5 95 9 99 4 4 7 31 7
59 0 75 -31 119 -87 123 -92 7 -116 -41 -116 -233 0 -113 4 -146 32 -254 17
-68 29 -126 26 -129 -3 -3 -17 21 -32 54 l-28 59 -3 -125 c-4 -154 1 -181 39
-224 31 -36 23 -62 -10 -32 -35 32 -36 20 -4 -89 8 -27 21 -65 29 -83 23 -53
15 -60 -21 -17 -31 36 -35 38 -35 17 0 -13 6 -53 14 -90 8 -37 17 -87 21 -112
13 -103 124 -306 228 -416 98 -105 56 -85 -56 27 -90 90 -162 183 -206 267 -7
12 -16 20 -21 17 -4 -3 -11 9 -15 27 -17 87 -44 130 -46 76 -2 -47 -28 36 -29
92 -2 61 -38 181 -57 188 -7 2 -38 -22 -69 -52 -82 -83 -87 -72 -18 41 36 59
48 92 60 156 18 105 19 279 1 256 -16 -21 -57 -43 -57 -30 0 6 14 38 31 71 43
86 51 118 32 129 -14 7 -14 14 -2 62 15 58 20 322 6 335 -4 4 -21 -5 -37 -21
-39 -38 -38 -26 7 54 36 64 37 70 41 185 4 94 2 117 -8 111 -10 -6 -11 -1 -6
21 11 52 19 201 12 230 l-8 29 -19 -25 c-10 -14 -19 -29 -19 -33 0 -5 -12 -24
-26 -43 -15 -19 -34 -48 -43 -63 -9 -16 -27 -49 -40 -73 -16 -29 -24 -60 -25
-95 0 -38 -3 -49 -12 -42 -15 12 -24 -19 -24 -83 0 -27 -4 -48 -9 -48 -6 0
-13 21 -17 48 l-8 47 -14 -45 c-9 -27 -15 -84 -15 -145 1 -96 7 -126 48 -227
4 -11 3 -18 -3 -18 -10 0 -57 90 -76 145 -6 17 -9 17 -15 5 -23 -43 -52 -346
-44 -455 3 -37 1 -46 -7 -34 -8 15 -34 217 -55 441 -7 74 -20 95 -30 49 -3
-16 -13 -35 -22 -43 -14 -11 -15 -7 -7 42 11 67 8 149 -7 215 -11 49 -84 215
-94 215 -3 0 -3 -21 1 -48 4 -32 1 -58 -9 -82 l-15 -35 -1 66 c-2 111 -42 218
-116 304 l-26 30 5 -85 c2 -47 7 -103 11 -125 4 -27 3 -35 -3 -26 -7 10 -12
-13 -18 -75 -8 -102 10 -216 52 -320 13 -33 24 -66 24 -72 0 -27 -19 -8 -48
49 l-32 62 0 -44 c1 -139 43 -252 146 -388 31 -42 51 -78 46 -83 -5 -5 -40 24
-81 67 -40 41 -74 75 -76 75 -6 0 26 -131 43 -176 20 -50 94 -201 196 -402 32
-63 55 -116 52 -120 -7 -7 1 -18 -85 111 -65 96 -173 211 -223 238 -14 8 -18
3 -24 -28 -11 -58 -8 -82 20 -162 29 -81 28 -101 -2 -51 -11 17 -23 27 -26 21
-4 -5 -2 -49 4 -98 7 -64 18 -104 39 -145 17 -34 25 -58 18 -61 -28 -9 110
-236 232 -382 88 -106 58 -86 -133 88 -143 129 -142 129 -150 68 -5 -40 -1
-64 24 -132 34 -93 36 -102 15 -75 -15 20 -15 20 -15 0 0 -35 30 -136 64 -214
63 -146 210 -333 313 -398 43 -27 59 -50 26 -38 -52 20 -171 97 -215 139 -59
56 -57 49 18 -85 44 -78 59 -98 73 -93 13 4 23 -6 39 -43 12 -27 22 -55 22
-63 0 -20 159 -206 271 -318 117 -116 237 -218 351 -295 49 -33 86 -61 84 -63
-6 -6 -176 81 -243 124 -152 96 -386 294 -488 411 -33 38 -68 74 -77 80 -15
10 -15 8 -7 -21 16 -55 9 -64 -15 -17 -48 97 -125 238 -163 300 -22 36 -72
131 -111 212 -40 80 -93 177 -118 215 -39 57 -47 76 -48 119 -2 58 -34 131
-121 268 -30 49 -54 91 -52 93 5 5 90 -94 135 -156 37 -52 37 -53 17 62 -14
80 -54 199 -103 308 -40 89 -37 98 13 42 26 -29 51 -53 57 -53 7 0 8 30 3 93
-4 50 -6 118 -6 150 1 39 -5 68 -16 88 -13 22 -14 32 -6 40 9 9 8 19 -2 40
-17 32 -46 44 -74 30 -65 -35 -86 -139 -53 -262 11 -41 22 -86 26 -102 10 -41
-15 -34 -37 11 -40 80 -113 185 -135 193 -15 6 -36 3 -65 -8 -57 -22 -165 -93
-201 -132 -17 -17 -35 -31 -42 -31 -26 0 -165 -177 -274 -350 l-22 -35 7 30
c15 72 130 288 207 391 21 28 48 70 61 94 13 26 38 52 59 64 32 18 125 112
168 171 13 18 13 19 0 9 -20 -16 -220 -80 -220 -71 0 2 39 28 88 57 185 114
318 282 394 500 30 87 32 105 33 222 0 70 3 124 7 120 16 -17 29 -96 35 -202
6 -122 -9 -217 -44 -270 -16 -24 -16 -24 1 -11 41 34 116 216 116 281 l0 25
-20 -25 c-29 -37 -26 -5 7 77 28 68 28 69 27 293 -2 203 -4 231 -23 289 -37
107 -77 178 -118 206 -65 44 -66 42 -58 -112 7 -147 -3 -169 -23 -48 -32 195
-135 446 -218 530 -24 25 -44 49 -44 54 0 15 -89 100 -153 147 -64 47 -186 98
-262 110 -45 6 -47 8 -25 16 57 22 240 -20 353 -80 37 -20 98 -61 134 -92 36
-30 79 -66 97 -80 l31 -24 -30 34 c-16 19 -56 59 -88 89 -31 30 -74 77 -94
105 -20 28 -45 57 -56 65 -14 10 -16 16 -7 21 14 9 -45 117 -111 207 -49 65
-50 77 -3 32 l37 -34 -7 30 c-7 29 -29 91 -69 190 -11 28 -19 68 -18 90 1 22
-7 87 -16 145 -22 134 -22 452 0 550 l14 65 1 -120 c1 -74 9 -157 21 -220 11
-55 25 -134 31 -175 17 -113 29 -158 57 -230 31 -79 43 -94 44 -54 0 19 7 4
18 -41 27 -106 104 -251 216 -405 l40 -54 5 34 6 35 41 -81 c35 -67 59 -97
139 -173 54 -50 99 -90 100 -88 2 1 -1 20 -5 42 -5 22 -11 63 -15 90 -5 45 -4
48 9 31 8 -10 24 -46 35 -80 31 -93 82 -155 162 -194 36 -19 81 -35 100 -35
l33 -2 0 50 c0 28 -3 81 -7 119 -9 81 1 77 31 -14 47 -143 118 -232 234 -292
88 -46 167 -113 167 -143 0 -16 -5 -13 -31 13 -61 63 -202 90 -287 56 -45 -18
-42 -44 20 -144 51 -83 53 -84 59 -55 l6 30 11 -28 c7 -16 12 -38 12 -50 0
-30 53 -120 85 -145 14 -11 25 -22 25 -25 0 -3 5 -18 10 -33 11 -28 11 -28 42
35 23 46 32 82 36 134 3 40 13 90 23 112 l18 40 -5 -40 c-3 -22 1 -57 8 -78
l14 -39 36 44 c52 63 96 141 120 212 25 74 39 93 31 40 -5 -34 -4 -37 9 -27
35 29 70 116 89 221 25 138 27 142 28 53 1 -81 5 -82 44 -11 62 113 91 310 63
439 -16 77 -13 101 7 66 51 -86 75 -261 56 -407 -7 -54 -9 -101 -6 -105 4 -3
16 2 27 12 26 24 25 15 -5 -45 -24 -48 -32 -101 -19 -134 8 -21 38 -20 69 0
27 18 35 4 9 -17 -30 -25 -87 -121 -94 -159 -5 -27 -1 -52 12 -86 10 -27 18
-62 18 -77 0 -15 7 -44 15 -64 22 -51 18 -62 -10 -29 l-23 29 -16 -53 c-19
-63 -23 -358 -6 -391 6 -10 20 -19 31 -19 15 0 19 -5 15 -15 -7 -19 -2 -19 59
3 46 16 51 22 67 67 21 60 25 223 5 191 -19 -30 -79 -97 -84 -92 -2 2 9 25 25
52 68 118 104 295 69 345 -15 20 -15 24 4 47 15 20 19 38 17 86 -2 34 1 95 5
136 8 71 8 74 -8 52 -19 -26 -135 -107 -135 -94 0 5 7 16 16 23 32 27 99 136
131 214 47 114 45 166 -8 279 -22 48 -38 90 -35 93 3 3 26 -15 50 -41 62 -67
76 -62 153 49 35 50 75 110 89 135 78 132 120 185 95 116 -6 -14 -9 -26 -7
-26 2 0 36 33 77 73 107 105 200 176 322 247 124 71 162 76 61 9 -205 -137
-385 -349 -450 -531 -35 -100 -60 -319 -34 -303 6 4 10 -16 11 -52 1 -32 4
-71 8 -88 6 -26 7 -28 14 -10 12 29 27 1 27 -50 0 -23 9 -57 19 -78 10 -20 22
-48 25 -61 10 -42 180 -255 189 -238 19 33 38 118 33 147 -7 38 8 57 18 22 3
-12 11 -76 17 -142 11 -126 28 -175 78 -236 l26 -31 28 26 c31 29 34 21 10
-28 -13 -29 -14 -40 -5 -61 19 -42 13 -52 -12 -21 l-24 29 -11 -39 c-26 -95
-3 -208 46 -225 16 -6 21 -4 17 5 -3 8 7 12 31 13 87 3 119 66 113 231 -3 97
-13 147 -24 117 -11 -28 -48 -79 -51 -69 -2 6 10 49 27 95 40 106 41 161 6
233 -64 130 -156 191 -278 184 -37 -2 -68 -1 -68 3 0 10 138 30 168 23 15 -3
62 -17 105 -31 59 -19 82 -22 90 -14 6 6 13 44 15 84 l4 72 -23 -21 c-26 -22
-92 -64 -103 -64 -3 0 16 30 42 68 66 93 87 130 106 193 10 30 25 71 34 92 21
51 4 64 -49 36 -39 -20 -79 -25 -79 -11 0 4 20 18 44 30 47 22 326 287 326
309 0 17 51 55 68 48 17 -6 31 1 117 65 92 68 216 135 334 181 158 61 180 57
55 -9 -131 -69 -152 -83 -266 -179 -82 -70 -118 -107 -118 -125 0 -5 21 -8 47
-8 l47 0 -34 -32 c-31 -29 -38 -32 -64 -23 -26 9 -31 7 -68 -35 -39 -44 -40
-45 -17 -50 20 -5 25 -15 32 -60 4 -30 6 -64 4 -75 -3 -17 -5 -15 -15 10 -19
49 -28 60 -50 63 -53 8 -117 -123 -109 -222 7 -79 55 -175 111 -221 24 -19 46
-35 49 -35 3 0 -1 21 -9 47 -14 47 -19 120 -5 78 17 -54 55 -106 118 -161 85
-75 112 -94 136 -94 10 0 32 -9 48 -21 29 -20 31 -20 49 -4 24 21 55 99 45
114 -3 6 0 11 8 11 22 0 26 -43 12 -117 -12 -63 -11 -71 15 -148 15 -44 44
-111 64 -148 26 -47 35 -72 28 -80 -6 -7 -12 -23 -15 -37 -4 -24 -4 -24 -6 3
-2 48 -36 97 -66 97 -2 0 -7 -15 -11 -32 -7 -33 -80 -176 -109 -213 -15 -19
-15 -19 -9 9 l7 30 -34 -23 c-19 -12 -63 -36 -99 -53 -64 -31 -64 -32 -35 -38
17 -4 44 -14 62 -23 18 -9 43 -17 55 -17 22 0 40 -12 122 -82 33 -28 29 -51
-5 -29 -45 28 44 -81 100 -122 53 -40 56 -44 55 -84 -1 -40 -14 -77 -14 -39 0
28 -29 64 -61 75 -40 14 -43 3 -44 -134 0 -83 4 -122 18 -158 22 -56 18 -85
-6 -42 l-16 30 1 -60 c1 -95 9 -118 45 -134 36 -16 46 -31 31 -52 -8 -11 -9
-10 -4 4 3 11 0 17 -10 17 -12 0 -12 -4 -4 -20 6 -11 14 -20 19 -20 8 0 43
111 37 117 -2 2 -16 -1 -31 -7 -37 -14 -46 -2 -15 19 14 9 38 30 53 46 29 32
122 213 114 222 -3 2 -23 -7 -44 -21 -60 -41 -50 -15 22 60 64 67 144 202 131
223 -3 5 0 14 8 20 23 19 52 94 38 99 -6 2 -12 10 -12 17 0 7 -6 15 -12 18 -7
2 1 11 19 20 43 23 73 66 113 162 18 44 39 96 47 115 15 34 53 140 53 147 0
10 -31 0 -54 -18 -51 -40 -26 4 33 57 62 57 117 137 105 155 -4 6 -19 8 -38 5
-17 -4 -35 -6 -41 -6 -5 1 -37 3 -71 6 -50 5 -71 1 -120 -19 -32 -14 -60 -21
-62 -16 -6 17 -53 -24 -80 -70 -25 -42 -27 -55 -27 -148 0 -57 -3 -103 -7
-103 -17 0 -30 121 -25 230 3 62 2 121 -3 131 -5 9 -22 22 -38 28 -24 10 -36
10 -66 -3 -20 -8 -36 -11 -36 -5 0 15 62 49 90 49 14 0 33 7 43 14 32 25 -2
80 -128 205 -63 63 -115 119 -115 126 0 7 21 -7 47 -30 26 -24 78 -62 116 -85
77 -46 214 -103 231 -97 6 3 0 9 -13 14 -16 6 -20 12 -13 17 6 4 29 -5 49 -19
48 -32 63 -32 33 0 -30 32 -25 32 51 -6 80 -40 155 -41 237 -4 30 14 59 25 64
25 15 0 -2 -20 -36 -42 l-31 -20 58 7 c100 11 199 67 217 120 14 41 8 65 -27
105 -21 26 -32 30 -72 30 -52 0 -66 -10 -117 -89 -33 -50 -45 -36 -20 24 l16
36 -33 -19 c-63 -39 -248 -94 -329 -100 -95 -6 -103 9 -15 27 41 8 78 24 110
47 51 37 57 49 28 59 -27 8 -108 92 -138 142 -32 55 -25 66 12 17 30 -39 113
-84 158 -84 56 0 125 42 97 60 -9 6 -6 12 13 24 30 20 47 58 46 106 -1 62 13
162 21 150 4 -7 10 12 14 41 14 116 -56 292 -151 379 -48 44 -65 70 -45 70 48
0 229 -209 248 -287 4 -14 12 -22 19 -19 15 5 21 -14 31 -101 3 -35 11 -63 15
-63 5 0 9 -22 9 -49 0 -67 40 -121 90 -121 34 0 50 17 50 52 0 34 -21 37 -44
6 -16 -23 -16 -23 -10 10 4 25 2 32 -10 32 -20 0 -21 16 -2 23 8 3 28 26 45
51 32 47 39 92 20 128 -8 15 -6 30 9 66 28 66 37 186 19 240 -12 35 -13 48 -2
80 18 50 47 496 36 544 -7 28 0 81 29 225 21 103 39 184 39 178 1 -5 17 -89
36 -185 27 -133 34 -188 29 -228 -8 -67 15 -472 31 -533 6 -25 8 -55 4 -65
-14 -34 -9 -197 6 -248 10 -32 13 -67 9 -97 -7 -56 22 -129 62 -156 23 -15 23
-16 7 -28 -10 -8 -16 -15 -13 -17 3 -2 19 -13 37 -26 18 -12 34 -22 37 -22 8
0 19 35 27 85 4 28 12 84 19 125 7 49 17 80 29 90 10 8 33 43 51 78 39 73 94
139 163 193 87 69 93 44 9 -40 -83 -84 -152 -242 -152 -351 0 -41 10 -65 21
-48 5 7 8 -15 8 -54 -1 -37 2 -76 6 -87 4 -13 2 -21 -5 -21 -8 0 -9 -11 -5
-32 10 -46 34 -81 51 -74 8 3 14 1 14 -3 0 -5 -6 -11 -12 -13 -8 -3 -1 -16 19
-36 58 -58 159 -40 246 46 54 53 60 46 18 -20 -32 -51 -136 -138 -163 -138
-10 0 -18 -4 -18 -10 0 -18 17 -11 77 33 62 46 105 92 129 138 26 51 4 54 -45
5 -54 -53 -104 -76 -163 -76 -56 0 -89 23 -86 58 2 21 -1 27 -17 27 -24 0 -52
70 -36 89 6 7 8 21 5 32 -3 11 -6 49 -7 84 -1 46 -6 64 -14 63 -32 -7 0 162
50 265 19 39 54 87 89 122 32 31 58 62 58 68 0 69 -180 -88 -249 -218 -19 -36
-43 -72 -52 -80 -17 -14 -25 -50 -48 -215 -10 -72 -16 -79 -51 -53 -26 19 -28
23 -13 33 15 11 14 14 -10 29 -42 28 -71 98 -63 155 4 30 1 65 -9 97 -15 51
-20 214 -6 248 4 10 2 40 -4 65 -16 61 -39 468 -31 532 5 38 -2 94 -29 232
-20 100 -40 186 -46 192 -5 5 -9 7 -10 5z m-4774 -1700 c10 -11 16 -20 13 -20
-3 0 -13 9 -23 20 -10 11 -16 20 -13 20 3 0 13 -9 23 -20z m1856 -486 c-6 -37
-7 -88 -4 -112 5 -34 2 -49 -15 -71 -19 -26 -19 -30 -5 -51 35 -49 -1 -227
-70 -344 -39 -67 -21 -79 31 -22 l42 46 0 -58 c0 -32 -7 -81 -15 -109 -14 -47
-18 -52 -60 -65 -37 -12 -45 -13 -49 -1 -3 7 -14 13 -25 13 -10 0 -22 7 -25
16 -11 28 -6 323 5 370 l12 45 23 -22 c31 -29 41 -7 19 44 -8 20 -15 49 -15
65 0 16 -7 47 -16 68 -9 22 -16 56 -15 77 1 45 27 100 44 94 12 -4 120 64 132
84 14 21 15 1 6 -67z m-91 52 c0 -2 -8 -10 -17 -17 -16 -13 -17 -12 -4 4 13
16 21 21 21 13z m40 -948 c20 -33 28 -126 13 -142 -5 -4 -8 -47 -8 -94 0 -68
-6 -107 -29 -180 -23 -73 -27 -95 -17 -105 9 -9 16 -7 31 13 l20 25 0 -57 c0
-108 -25 -187 -83 -261 -29 -37 -30 -37 -50 -20 -37 34 -47 76 -47 205 l0 123
19 -41 c20 -44 36 -60 45 -45 3 5 -8 65 -26 132 -28 110 -31 139 -31 259 1
184 17 219 101 220 37 0 45 -4 62 -32z m2829 -628 c1 -59 -4 -94 -15 -115 -19
-37 -21 -75 -6 -140 7 -27 15 -117 18 -200 l6 -150 -30 60 c-27 52 -30 64 -22
100 22 92 -2 319 -45 428 -20 49 -35 118 -25 112 9 -6 80 70 81 88 1 6 9 -13
19 -43 12 -35 19 -85 19 -140z m885 -206 c3 -8 2 -12 -4 -9 -6 3 -10 10 -10
16 0 14 7 11 14 -7z m-3851 -50 c-9 -23 -20 -16 -25 16 -4 28 -3 29 13 14 10
-9 15 -22 12 -30z m6208 -41 c-56 -101 -124 -211 -116 -188 12 31 11 60 -1 58
-17 -3 3 96 25 127 10 14 30 26 47 28 16 2 40 12 54 23 14 10 26 19 27 19 1 0
-15 -30 -36 -67z m-3314 -205 c-3 -8 -6 -5 -6 6 -1 11 2 17 5 13 3 -3 4 -12 1
-19z m4650 -306 c27 -17 33 -62 19 -130 -20 -92 -41 -147 -55 -147 -7 0 -30
-20 -52 -45 l-40 -45 7 45 c3 25 10 53 15 62 5 9 9 37 9 62 0 60 21 147 35
144 6 -2 10 2 10 7 0 6 -4 9 -8 7 -5 -1 -7 1 -4 5 2 5 7 16 10 26 7 18 33 22
54 9z m-1837 -147 c-7 -8 -17 -15 -22 -15 -6 0 -5 7 2 15 7 8 17 15 22 15 6 0
5 -7 -2 -15z m-3614 -250 c24 -18 7 -19 -26 0 -16 9 -19 14 -9 15 8 0 24 -7
35 -15z m2084 -35 c-8 -5 -19 -10 -25 -10 -5 0 -3 5 5 10 8 5 20 10 25 10 6 0
3 -5 -5 -10z m-4060 -1280 c8 -5 11 -10 5 -10 -5 0 -17 5 -25 10 -8 5 -10 10
-5 10 6 0 17 -5 25 -10z m5970 -59 c-8 -5 -26 -11 -40 -15 -21 -5 -20 -3 5 9
32 15 60 20 35 6z"/>
<path d="M11089 6820 c-1 -3 -2 -81 -4 -175 -1 -93 -7 -185 -13 -204 -7 -19
-21 -98 -32 -175 -23 -154 -45 -246 -60 -246 -18 0 -41 -48 -50 -105 -12 -74
-112 -271 -175 -345 -12 -14 -34 -46 -48 -71 -14 -26 -58 -80 -97 -120 l-70
-74 2 40 c2 22 -1 42 -7 45 -5 3 -30 -34 -55 -82 -25 -47 -56 -98 -70 -113
-28 -30 -149 -105 -169 -105 -10 0 -12 18 -8 78 3 42 7 84 9 92 1 8 -1 17 -7
20 -11 6 -51 -70 -77 -146 -26 -74 -80 -140 -141 -170 -52 -26 -182 -74 -200
-74 -5 0 7 23 27 50 20 28 34 55 31 61 -4 5 -33 -13 -64 -40 -78 -68 -178
-113 -253 -114 -67 0 -106 21 -66 36 l23 8 -21 18 c-46 37 -58 105 -29 161 9
17 13 30 10 30 -3 0 1 13 9 29 21 40 78 87 123 101 51 17 66 29 53 45 -11 13
-47 9 -147 -19 -34 -9 -55 -11 -59 -4 -3 5 -10 42 -15 81 -11 83 0 151 38 241
34 81 17 92 -38 26 -37 -44 -45 -49 -50 -33 -4 10 -31 81 -59 158 -29 77 -60
147 -69 155 -9 8 -37 44 -62 80 -97 136 -332 333 -377 315 -19 -7 -23 -3 92
-95 31 -25 79 -73 106 -108 60 -74 130 -198 130 -230 0 -12 12 -46 27 -75 14
-29 28 -72 29 -97 1 -25 7 -74 13 -110 15 -90 14 -280 0 -280 -7 0 -43 32 -81
71 -74 77 -105 83 -63 14 79 -131 105 -183 105 -210 0 -16 9 -54 20 -83 23
-60 26 -113 8 -145 -7 -12 -13 -42 -13 -67 l0 -45 -44 3 c-25 1 -77 14 -115
28 -87 30 -98 32 -103 18 -2 -7 41 -41 96 -77 106 -70 137 -106 173 -201 10
-26 18 -65 16 -87 -1 -21 2 -42 6 -46 21 -20 -2 117 -28 171 -40 81 -65 107
-166 172 -50 32 -90 62 -90 67 0 5 8 6 18 1 60 -26 160 -55 198 -57 40 -2 45
-5 58 -39 15 -36 36 -59 36 -38 0 6 -7 24 -15 41 -23 44 -38 131 -24 140 22
13 22 101 0 159 -12 30 -21 69 -21 85 0 27 -26 79 -105 210 -13 22 -22 41 -20
43 2 2 35 -29 74 -68 39 -40 76 -70 83 -68 18 6 22 187 8 282 -7 39 -13 91
-14 116 -1 25 -15 68 -29 97 -15 29 -27 63 -27 75 -1 62 -144 267 -242 345
-29 23 -64 51 -78 62 -53 43 7 19 83 -32 99 -67 215 -182 279 -277 28 -41 53
-73 55 -70 3 3 30 -60 60 -140 30 -80 59 -156 65 -170 l10 -25 49 55 c51 56
58 48 23 -22 -26 -51 -45 -155 -38 -215 5 -50 21 -123 27 -123 2 0 34 9 72 19
88 24 124 29 123 16 0 -5 -21 -18 -46 -27 -49 -19 -105 -67 -128 -110 -8 -16
-12 -28 -9 -28 3 0 -1 -13 -10 -30 -29 -56 -16 -126 29 -162 l21 -18 -22 0
c-28 0 -29 -11 -3 -35 54 -49 219 -1 331 96 33 28 59 48 59 45 0 -4 -18 -32
-41 -62 -22 -31 -39 -57 -37 -60 7 -6 165 50 225 80 61 30 123 102 148 173 29
79 65 156 70 151 3 -3 1 -17 -5 -32 -5 -15 -10 -59 -10 -97 0 -83 7 -86 95
-33 89 53 122 89 171 187 24 48 46 87 49 87 2 0 2 -24 -1 -52 l-5 -53 80 83
c44 45 93 104 107 130 15 26 37 58 49 72 62 73 163 270 175 343 10 62 26 100
39 92 15 -8 40 69 56 172 8 54 25 150 38 213 17 89 22 150 21 267 0 84 1 151
3 149 2 -1 10 -47 18 -102 30 -191 15 -476 -35 -708 -12 -54 -16 -92 -11 -96
6 -3 1 -25 -11 -50 -23 -51 -98 -241 -98 -249 0 -3 14 8 30 24 45 43 36 13
-19 -63 -53 -73 -111 -165 -111 -176 0 -4 5 -4 10 -1 22 13 8 -12 -23 -41 -17
-18 -57 -57 -88 -88 -31 -31 -60 -56 -65 -56 -5 -1 -40 -31 -79 -67 -62 -59
-64 -62 -20 -29 28 20 77 56 110 80 135 98 266 146 399 146 44 0 77 -3 74 -6
-4 -3 -39 -12 -80 -20 -133 -28 -208 -73 -343 -208 -136 -136 -214 -245 -302
-421 -31 -63 -58 -113 -61 -111 -9 9 50 203 81 266 l34 67 -59 -44 c-45 -35
-57 -49 -53 -64 4 -13 2 -19 -9 -19 -95 0 -314 -266 -361 -438 l-13 -47 -1 48
c-1 30 12 86 34 152 19 57 34 116 33 132 -1 15 2 40 6 54 8 27 7 27 -41 22
-26 -2 -73 -10 -103 -17 -30 -8 -89 -22 -130 -31 -96 -22 -144 -50 -210 -122
-47 -51 -52 -54 -46 -30 4 16 18 46 32 68 l25 40 -28 -7 c-89 -20 -131 -96
-133 -236 0 -74 18 -88 127 -95 43 -2 80 -9 81 -14 11 -28 165 7 228 53 48 34
65 33 40 -4 -33 -47 -14 -63 85 -75 133 -16 252 -5 356 34 16 6 16 5 5 -9 -17
-21 -144 -74 -197 -83 -51 -8 -125 -34 -125 -44 0 -5 -11 -6 -24 -4 -13 3 -44
-4 -69 -15 l-46 -20 14 -59 c16 -67 19 -137 6 -128 -5 3 -17 27 -25 53 -17 51
-60 99 -113 126 -46 23 -199 23 -225 -1 -17 -15 -18 -15 -18 0 0 30 -46 20
-75 -15 -28 -33 -28 -33 -20 -143 3 -60 7 -122 8 -137 1 -15 6 -23 10 -19 5 5
4 35 -2 67 -6 32 -11 90 -11 129 0 79 22 125 61 125 22 0 23 -4 8 -32 -21 -38
7 -42 29 -4 l21 36 91 0 c130 0 192 -35 225 -129 42 -121 74 -67 41 71 l-14
57 43 16 c23 9 51 15 61 14 11 -2 31 4 45 14 14 9 52 22 85 28 108 20 257 94
226 113 -4 3 -37 -4 -73 -15 -70 -22 -193 -29 -294 -16 -102 12 -111 20 -79
66 12 16 13 26 5 34 -8 8 -23 2 -55 -21 -64 -46 -196 -77 -221 -53 -6 5 -44
12 -86 14 -42 3 -87 10 -99 17 -22 12 -23 16 -17 100 6 95 21 136 63 169 24
19 54 28 54 16 0 -2 -9 -23 -21 -45 -12 -22 -18 -48 -15 -57 5 -13 17 -5 57
40 61 69 112 99 199 120 36 8 88 21 115 28 28 6 76 15 107 18 55 6 58 6 51
-14 -4 -11 -6 -33 -5 -48 1 -16 -14 -76 -34 -134 -25 -74 -34 -119 -32 -151 4
-58 19 -57 34 2 24 92 103 222 199 324 52 55 100 88 158 106 13 4 16 12 12 25
-4 14 3 25 25 41 17 12 33 20 35 18 2 -2 -5 -24 -16 -48 -32 -70 -72 -231 -61
-242 12 -12 8 -18 77 121 86 171 165 282 295 412 130 130 206 176 337 202 39
8 76 18 82 22 25 15 -5 25 -77 25 -90 0 -190 -26 -276 -70 -66 -35 -81 -33
-40 5 76 68 103 101 98 117 -5 18 35 87 108 186 24 32 37 60 34 69 -5 13 -9
13 -23 2 -15 -13 -16 -11 -9 14 3 15 26 73 50 130 24 56 40 106 36 112 -4 6 0
48 11 95 31 141 50 321 50 467 -1 139 -23 329 -41 347 -6 6 -10 8 -11 6z
m-1548 -2787 c-12 -20 -14 -14 -5 12 4 9 9 14 11 11 3 -2 0 -13 -6 -23z"/>
<path d="M7014 6169 c-8 -14 -9 -13 92 -63 114 -55 180 -98 276 -177 125 -104
138 -133 64 -134 -16 0 -31 -5 -33 -11 -6 -19 61 -54 104 -54 42 0 61 -11 86
-48 14 -22 14 -25 -3 -42 -32 -32 -53 -141 -30 -155 6 -3 19 14 30 40 11 25
27 48 36 52 25 9 70 -46 88 -108 23 -76 20 -130 -11 -211 -22 -57 -42 -87 -95
-142 -37 -39 -69 -68 -72 -65 -3 3 0 22 6 42 8 27 8 41 1 48 -8 8 -19 -1 -39
-32 -69 -110 -148 -176 -232 -194 -28 -6 -37 -2 -68 29 -30 30 -35 41 -32 73
4 51 -13 56 -35 11 -17 -35 -17 -40 -1 -126 16 -84 16 -93 1 -134 -37 -97
-108 -199 -167 -239 -34 -23 -17 -43 20 -24 38 20 40 19 40 -9 0 -28 18 -45
25 -24 2 7 10 27 16 43 l12 30 9 -45 c12 -59 5 -185 -12 -205 -7 -8 -22 -15
-34 -15 -27 0 -193 -55 -211 -70 -9 -7 -19 4 -40 42 -23 41 -30 69 -33 132 -3
54 -1 77 6 72 21 -13 24 16 7 61 -34 89 -3 266 50 279 11 3 35 4 54 2 49 -4
49 17 1 42 -29 15 -51 19 -71 15 -29 -7 -29 -6 -29 41 0 76 32 115 115 141 20
6 29 15 28 27 -1 20 31 51 123 119 67 49 149 141 139 157 -4 6 -29 -10 -62
-40 -58 -53 -140 -100 -230 -131 -29 -10 -55 -14 -58 -9 -6 9 -58 -9 -107 -35
-31 -17 -42 -19 -33 -5 13 21 -25 21 -66 0 -58 -30 -140 -31 -196 -2 -42 22
-67 16 -36 -9 14 -12 16 -12 8 0 -6 11 -4 13 11 6 94 -39 143 -40 216 -4 46
24 65 25 48 4 -10 -12 -9 -15 5 -15 9 0 29 7 43 15 49 27 101 44 104 34 8 -23
195 60 266 118 24 20 45 33 48 31 9 -9 -40 -61 -95 -102 -108 -79 -151 -120
-138 -128 15 -10 -8 -28 -36 -28 -55 0 -107 -73 -107 -150 l0 -52 34 6 c23 4
46 1 70 -11 46 -21 46 -36 2 -28 -51 10 -74 -2 -98 -48 -29 -57 -37 -181 -14
-237 20 -51 20 -71 0 -45 -15 18 -16 13 -12 -75 4 -90 6 -99 46 -171 23 -42
42 -79 42 -83 0 -18 -23 -1 -46 35 -14 22 -28 39 -30 36 -3 -3 -5 -75 -5 -161
1 -163 12 -221 52 -278 11 -14 19 -34 19 -44 0 -14 -8 -11 -36 17 l-37 34 7
-71 c6 -77 21 -131 42 -153 19 -21 59 0 85 44 12 19 25 35 29 35 11 0 -3 -60
-24 -100 -25 -50 -20 -63 34 -93 38 -20 55 -25 69 -18 21 12 61 63 85 110 21
40 32 162 19 210 l-9 35 -24 -40 c-21 -34 -25 -36 -28 -17 -2 12 5 39 16 60
31 63 44 131 36 200 -4 45 -3 68 6 78 18 22 -1 84 -36 116 -22 20 -35 24 -92
24 -37 0 -82 -4 -99 -8 -21 -6 -33 -5 -33 1 0 12 174 72 206 72 11 0 29 9 40
21 16 18 19 37 19 118 0 53 -4 109 -8 125 -8 27 -9 28 -21 10 -7 -10 -18 -32
-24 -49 l-10 -30 -1 27 c-1 36 -14 42 -51 23 -16 -8 -30 -11 -30 -6 0 6 13 17
30 26 50 26 170 225 170 282 0 12 -7 54 -15 94 -12 56 -13 80 -4 106 15 48 28
50 22 3 -5 -36 -2 -43 35 -81 37 -36 45 -40 74 -34 84 18 195 112 245 209 22
42 28 16 9 -39 -10 -30 -11 -45 -4 -45 6 0 45 35 87 78 63 64 81 89 104 149
15 40 27 92 27 116 0 67 -27 144 -65 185 -41 44 -58 39 -93 -29 l-23 -44 5 50
c5 60 24 105 43 105 18 0 17 7 -8 46 -26 42 -47 54 -94 54 -37 0 -95 26 -95
43 0 5 9 7 21 4 11 -3 34 0 50 7 l29 12 -47 50 c-105 107 -249 208 -386 269
-36 17 -67 33 -67 37 0 4 24 0 53 -9 153 -45 377 -154 471 -228 65 -52 96 -67
96 -45 0 5 17 -3 38 -18 24 -16 37 -33 35 -43 -3 -10 19 -37 59 -72 35 -32 68
-62 73 -69 6 -6 58 -59 117 -119 102 -103 139 -149 120 -149 -4 0 -21 14 -38
31 -28 30 -92 64 -102 55 -2 -3 6 -36 18 -73 13 -37 32 -95 43 -128 11 -33 31
-84 45 -114 28 -59 88 -124 106 -114 6 3 2 -3 -9 -14 l-20 -21 -35 25 c-19 14
-48 39 -64 57 -20 21 -26 25 -21 11 4 -11 10 -75 13 -143 2 -68 7 -120 10
-117 7 7 3 181 -5 215 -6 24 -5 23 38 -10 24 -18 51 -42 60 -53 15 -18 17 -18
41 -3 23 15 26 15 40 -1 34 -39 48 -83 48 -148 0 -60 -2 -65 -18 -56 -22 12
-86 -13 -80 -31 3 -7 18 -15 34 -18 64 -11 95 -155 59 -273 -13 -42 -13 -49 0
-54 21 -7 20 -124 -1 -164 -12 -24 -20 -30 -37 -25 -12 4 -51 14 -87 24 -80
21 -90 38 -90 146 l0 80 36 -43 c49 -57 68 -41 32 26 -64 118 -85 261 -49 338
12 28 15 48 10 63 -5 12 -11 22 -13 22 -3 0 -2 -10 3 -22 5 -15 2 -35 -10 -63
-36 -77 -15 -220 49 -338 14 -26 23 -50 19 -53 -3 -3 -24 18 -47 47 l-42 53 4
-107 c4 -126 11 -137 103 -161 33 -8 70 -18 82 -22 38 -11 63 45 63 138 0 64
-3 76 -15 72 -13 -5 -13 0 0 42 24 79 20 171 -11 232 -22 45 -30 52 -55 52
-37 0 -37 15 0 28 22 8 34 7 50 -4 21 -15 21 -14 21 61 0 79 -13 119 -53 163
-19 21 -22 21 -45 6 -32 -21 -43 -7 -12 16 24 18 24 19 6 39 -27 30 -14 36 38
18 24 -8 47 -13 50 -9 12 11 6 64 -10 95 -11 21 -13 32 -6 35 8 2 9 25 6 65
-6 63 -51 176 -94 238 -12 16 -20 32 -17 35 8 8 83 -85 130 -161 24 -38 50
-70 58 -70 8 0 23 -22 33 -50 18 -46 20 -48 26 -25 6 22 9 17 25 -34 21 -65
85 -146 116 -146 10 0 19 -4 19 -8 0 -12 100 -42 137 -42 26 0 30 -3 26 -20
-5 -18 -14 -20 -80 -20 -69 0 -77 -2 -104 -29 -41 -42 -40 -98 5 -182 18 -35
47 -91 65 -123 17 -33 29 -62 25 -65 -3 -3 -10 3 -16 13 -19 34 -72 84 -95 91
l-23 6 0 -188 c0 -201 5 -232 52 -331 16 -35 28 -66 25 -68 -2 -3 -18 13 -34
35 -17 23 -33 38 -36 34 -4 -3 -7 -88 -7 -187 0 -159 3 -186 20 -225 15 -32
24 -42 36 -37 12 5 15 2 10 -11 -20 -50 -18 -102 3 -137 23 -37 84 -87 79 -66
-6 26 18 19 34 -10 20 -35 55 -51 119 -53 54 -2 80 16 112 78 16 33 20 59 20
143 0 90 2 101 13 80 7 -12 16 -42 20 -66 3 -24 10 -40 14 -35 17 19 43 145
48 228 7 145 -34 325 -76 325 -10 0 -27 7 -38 15 -18 14 -16 15 19 9 20 -3 37
-4 37 -1 0 16 -58 130 -87 170 -19 27 -32 51 -30 54 10 9 80 -74 117 -138 37
-63 41 -66 94 -79 155 -37 228 40 181 193 -8 27 -13 52 -12 55 2 7 -11 15 -14
10 -1 -2 6 -28 15 -60 9 -31 16 -74 16 -96 0 -83 -72 -119 -184 -92 -50 12
-55 16 -89 74 -43 75 -115 152 -129 138 -6 -6 2 -26 25 -58 19 -27 47 -75 61
-107 l26 -58 -29 6 c-16 3 -32 2 -35 -4 -8 -12 32 -41 55 -41 36 0 74 -185 66
-319 -5 -93 -24 -181 -38 -181 -5 0 -9 7 -9 15 0 23 -30 78 -38 70 -4 -4 -7
-53 -8 -110 -1 -88 -4 -108 -25 -146 -33 -60 -64 -74 -135 -59 -47 10 -59 17
-76 46 -21 35 -32 41 -43 24 -10 -16 -41 5 -65 46 -18 28 -21 44 -16 77 12 80
12 82 -5 79 -11 -1 -22 11 -33 38 -13 32 -16 78 -16 218 l0 177 33 -39 c46
-55 55 -32 18 46 -46 98 -51 131 -51 325 0 177 1 181 20 176 20 -5 49 -35 82
-83 11 -18 19 -22 27 -14 8 8 3 26 -20 70 -17 32 -47 88 -65 123 -43 80 -46
140 -9 176 21 22 33 25 100 25 69 0 76 2 84 23 12 31 8 34 -47 39 -27 3 -69
15 -94 26 -24 12 -49 22 -56 22 -21 0 -75 76 -96 136 -15 41 -26 58 -37 56
-11 -1 -19 9 -26 30 -6 21 -15 32 -25 30 -10 -1 -31 23 -58 68 -54 90 -129
175 -143 161 -6 -6 -2 -20 12 -40 43 -60 90 -176 95 -234 2 -31 1 -56 -2 -56
-20 3 -21 -5 -2 -41 11 -21 20 -53 20 -69 l0 -30 -47 16 c-43 15 -47 15 -59
-1 -11 -16 -14 -16 -32 5 -35 37 -66 109 -127 299 -10 30 -20 61 -22 68 -9 22
47 -7 89 -46 39 -37 67 -37 47 0 -6 11 -59 69 -118 128 -58 60 -113 116 -121
125 -8 8 -41 39 -73 67 -37 32 -57 57 -55 69 4 23 -75 82 -90 67 -13 -13 -33
-1 -114 65 -101 82 -485 247 -504 216z m166 -854 c-7 -9 -15 -13 -18 -10 -3 2
1 11 8 20 7 9 15 13 18 10 3 -2 -1 -11 -8 -20z m-350 -1180 c19 -11 33 10 22
31 -9 17 -5 20 27 23 94 11 169 6 190 -13 26 -23 45 -81 35 -104 -5 -9 -9 -57
-9 -107 -1 -57 -7 -105 -17 -130 -9 -22 -22 -54 -29 -71 -7 -17 -9 -40 -5 -50
7 -18 9 -17 32 9 20 24 25 26 30 12 11 -29 -4 -161 -22 -196 -24 -47 -62 -96
-80 -103 -19 -7 -104 41 -104 58 0 7 9 30 19 52 41 86 23 138 -23 65 -25 -39
-61 -61 -76 -44 -14 15 -29 73 -36 136 l-7 62 31 -29 c28 -26 32 -27 38 -11 4
10 1 27 -6 39 -48 74 -54 100 -60 241 -3 77 -4 153 -2 169 l4 29 18 -31 c10
-16 24 -33 30 -37z"/>
<path d="M5887 5788 c-3 -10 0 -34 8 -55 13 -37 14 -37 13 -8 0 17 -3 41 -7
55 -6 21 -8 22 -14 8z"/>
<path d="M6123 5655 c8 -52 35 -78 70 -70 15 4 27 10 27 15 0 4 -23 26 -52 50
l-51 44 6 -39z m67 -59 c-25 -12 -45 6 -56 48 l-7 29 42 -34 c40 -32 41 -34
21 -43z"/>
<path d="M5904 5625 c-3 -14 -21 -37 -38 -53 -34 -30 -37 -52 -5 -52 21 0 44
39 54 93 8 41 -1 51 -11 12z m-15 -69 c-7 -14 -18 -26 -26 -26 -19 0 -16 10 9
37 26 28 33 24 17 -11z"/>
<path d="M6317 5543 c-3 -16 -1 -32 4 -37 5 -6 9 4 9 27 0 44 -6 48 -13 10z"/>
<path d="M6317 5483 c-3 -5 6 -16 20 -27 25 -18 25 -18 14 2 -13 25 -28 35
-34 25z"/>
<path d="M1403 5363 c10 -12 46 -43 80 -69 34 -26 54 -38 44 -27 -10 12 -46
43 -80 69 -34 26 -54 38 -44 27z"/>
<path d="M6230 5342 c-14 -2 -33 -11 -44 -20 -21 -19 -56 -95 -56 -122 0 -27
64 -75 123 -94 57 -17 206 -33 195 -21 -4 4 -39 9 -77 11 -115 6 -231 58 -231
104 0 26 34 103 52 118 23 18 83 18 112 -2 30 -19 32 -29 11 -46 -19 -15 -10
-30 17 -30 12 0 32 -9 44 -21 29 -27 45 -17 37 22 l-6 30 39 -17 c147 -64 306
-93 333 -61 14 18 4 27 -31 27 -38 0 -85 21 -125 54 -18 15 -33 24 -33 19 0
-19 101 -76 144 -80 61 -7 48 -23 -19 -23 -55 0 -150 25 -247 66 -75 31 -79
31 -67 -8 11 -41 5 -47 -24 -21 -12 12 -33 23 -47 25 l-25 5 23 9 23 10 -20
26 c-24 29 -64 46 -101 40z"/>
<path d="M3283 5275 c0 -38 2 -53 4 -32 2 20 2 52 0 70 -2 17 -4 1 -4 -38z"/>
<path d="M7832 5249 c-1 -26 -9 -66 -17 -90 -13 -39 -13 -42 0 -25 19 25 28
71 22 121 l-4 40 -1 -46z"/>
<path d="M3292 5170 c0 -14 2 -19 5 -12 2 6 2 18 0 25 -3 6 -5 1 -5 -13z"/>
<path d="M4250 5153 c0 -13 5 -23 10 -23 13 0 13 11 0 30 -8 12 -10 11 -10 -7z"/>
<path d="M1413 5146 c3 -8 11 -31 17 -52 10 -31 21 -43 57 -60 24 -12 43 -18
41 -13 -6 17 -103 138 -112 139 -4 0 -6 -6 -3 -14z m87 -98 c0 -4 -11 -3 -25
4 -20 9 -45 53 -45 77 0 8 69 -72 70 -81z"/>
<path d="M6120 4978 c0 -152 3 -178 21 -217 13 -31 23 -41 30 -34 7 7 18 7 35
-1 31 -14 31 -26 0 -26 -37 0 -63 -65 -77 -187 -13 -110 -2 -205 28 -251 13
-21 13 -27 -1 -56 -39 -82 -43 -243 -10 -357 25 -87 119 -171 205 -183 19 -3
53 -8 76 -12 62 -10 113 2 113 27 0 11 -4 17 -10 14 -19 -12 -30 5 -18 29 8
18 6 36 -7 76 -20 59 -14 77 10 31 21 -42 32 -39 42 12 9 49 6 328 -5 357 -7
18 -13 13 -47 -35 -22 -30 -43 -55 -47 -55 -4 0 13 42 38 94 24 51 48 115 53
141 10 56 3 304 -10 358 -12 44 -20 41 -60 -21 -21 -33 -29 -39 -25 -22 21 86
34 124 44 128 19 6 14 57 -8 85 -15 18 -17 27 -8 30 9 4 5 12 -12 26 -82 67
-220 15 -220 -84 0 -15 -4 -24 -10 -20 -15 9 -12 72 5 105 8 15 28 39 45 52
l30 24 -67 38 c-38 22 -83 54 -100 73 l-33 34 0 -173z m143 51 l39 -21 -30
-31 c-16 -18 -35 -42 -41 -54 -15 -30 -14 -88 2 -102 18 -14 27 -4 27 31 0 73
105 120 184 83 25 -12 34 -21 27 -28 -7 -7 -4 -18 9 -35 24 -29 26 -65 5 -82
-8 -7 -15 -20 -15 -29 0 -10 -7 -39 -16 -65 -24 -69 -4 -82 31 -22 15 25 31
46 35 46 19 0 34 -295 19 -374 -5 -27 -29 -91 -53 -142 -29 -61 -41 -96 -34
-100 6 -4 16 0 22 8 42 56 66 82 70 77 9 -9 11 -312 2 -347 l-8 -34 -20 32
c-30 50 -45 25 -23 -40 13 -40 15 -58 6 -76 -9 -20 -7 -26 11 -38 21 -15 21
-15 -6 -22 -25 -6 -49 -4 -155 12 -85 12 -170 87 -195 173 -33 114 -29 275 10
357 14 29 14 35 1 56 -30 46 -41 141 -28 251 13 115 34 169 70 177 14 3 26 11
28 17 5 15 -53 43 -65 31 -6 -6 -15 6 -26 32 -12 31 -16 75 -16 195 l0 155 47
-36 c25 -19 64 -44 86 -55z"/>
<path d="M5833 5084 c-34 -74 -53 -158 -47 -217 4 -52 4 -52 -9 -18 l-13 34
-13 -31 c-8 -20 -11 -48 -6 -79 6 -48 -16 -133 -27 -102 -10 29 -52 -27 -108
-146 -76 -159 -91 -209 -99 -324 l-6 -96 -16 45 -16 45 -18 -40 c-54 -124 -86
-212 -89 -244 -2 -20 -7 -53 -11 -74 -5 -24 -3 -42 5 -52 6 -8 9 -19 5 -25
-10 -16 52 -12 85 5 20 10 43 13 68 9 35 -5 41 -3 71 32 47 53 71 110 71 172
0 28 4 52 10 52 15 0 21 -59 18 -190 l-3 -125 25 3 c74 9 106 43 135 146 25
87 18 263 -14 329 -21 43 -22 50 -8 65 8 9 20 35 26 57 22 80 7 303 -23 350
-11 17 -36 101 -36 121 0 3 9 -4 19 -17 11 -13 22 -21 26 -18 28 29 45 241 27
343 l-7 39 -22 -49z m27 -119 c0 -87 -7 -138 -26 -195 -4 -12 -9 -10 -23 9
-11 15 -21 20 -25 13 -8 -13 12 -99 30 -127 30 -47 45 -270 23 -350 -6 -22
-18 -48 -26 -57 -14 -15 -13 -22 8 -64 18 -38 24 -70 27 -156 5 -113 -5 -173
-39 -245 -21 -43 -30 -50 -88 -63 l-33 -8 7 131 c4 88 3 142 -4 160 -18 46
-35 27 -42 -45 -4 -44 -14 -79 -31 -109 -39 -67 -61 -83 -102 -75 -24 5 -45 2
-65 -9 -17 -8 -38 -15 -49 -15 -25 0 -46 42 -38 75 4 15 9 46 11 69 4 40 48
164 82 230 l15 30 14 -33 c7 -18 18 -30 22 -27 5 3 12 49 15 103 6 111 21 158
96 318 59 124 78 150 97 134 23 -19 46 54 38 122 -6 56 8 91 19 48 4 -13 10
-18 18 -14 7 5 10 24 6 56 -6 47 9 128 35 192 18 46 28 12 28 -98z"/>
<path d="M4262 4965 l2 -148 48 -71 c26 -38 46 -72 43 -74 -2 -2 -16 6 -32 18
-26 20 -28 20 -40 4 -14 -19 -15 -40 -16 -203 0 -77 4 -105 14 -112 26 -16
151 18 219 59 l35 22 -47 0 c-27 0 -48 5 -48 10 0 6 12 10 26 10 30 0 66 17
77 37 7 12 11 12 22 -3 12 -17 14 -17 37 -2 14 9 40 40 58 68 30 47 32 56 27
111 -4 43 -12 69 -31 93 -24 33 -93 83 -101 74 -2 -2 0 -21 5 -42 14 -63 -1
-75 -22 -17 -15 40 -34 63 -86 108 -37 31 -89 84 -115 117 -83 104 -77 109
-75 -59z m69 53 c30 -36 82 -89 116 -117 46 -39 66 -63 79 -99 9 -26 21 -51
25 -56 14 -16 28 30 19 67 l-8 37 30 -18 c52 -30 79 -75 85 -141 5 -55 3 -64
-27 -111 -39 -61 -68 -81 -82 -55 -9 15 -12 15 -34 -6 -13 -12 -41 -25 -61
-28 -47 -8 -51 -33 -8 -42 l30 -6 -45 -20 c-65 -29 -151 -46 -164 -33 -13 13
-12 271 1 295 8 14 12 13 37 -6 49 -39 48 -7 -2 67 l-48 71 -2 138 c-1 76 0
136 2 134 2 -2 28 -34 57 -71z"/>
<path d="M3296 5079 c-4 -13 -11 -76 -16 -140 -10 -123 -5 -158 39 -267 27
-67 26 -74 -4 -37 -13 16 -27 26 -31 22 -13 -13 -23 -101 -23 -208 -1 -87 2
-109 16 -120 10 -9 51 -15 120 -17 116 -4 134 4 149 65 l8 28 8 -32 c7 -26 14
-33 32 -33 20 0 27 9 40 47 34 98 15 163 -88 303 -47 64 -47 64 -41 28 8 -41
-2 -98 -16 -98 -5 0 -9 13 -9 29 0 50 -49 191 -97 279 -25 46 -53 104 -63 129
-15 41 -18 43 -24 22z m148 -319 c14 -45 26 -94 26 -110 0 -32 16 -48 32 -32
5 5 12 28 15 51 l6 40 30 -42 c83 -114 103 -192 73 -277 -14 -39 -48 -49 -54
-15 -7 39 -20 36 -42 -9 l-22 -46 -93 0 c-52 0 -106 5 -121 10 l-27 11 5 143
c3 79 8 148 12 155 5 8 14 3 28 -14 33 -42 42 -16 17 46 -49 123 -52 155 -33
345 l5 51 59 -113 c32 -62 70 -149 84 -194z"/>
<path d="M1942 5070 c7 -10 14 -18 15 -16 6 6 -9 36 -18 36 -5 0 -4 -9 3 -20z"/>
<path d="M7770 5047 c-14 -23 -62 -79 -108 -125 -85 -86 -133 -164 -146 -234
-4 -21 -11 -38 -16 -38 -13 0 -13 82 0 116 10 25 9 26 -7 13 -44 -33 -115
-114 -134 -150 -30 -60 -39 -125 -24 -175 13 -43 50 -104 64 -104 4 0 13 17
20 37 l14 37 11 -35 c8 -25 22 -40 56 -56 40 -21 55 -23 148 -19 157 7 152 1
152 196 0 88 -4 160 -9 160 -4 0 -20 -10 -35 -21 -15 -12 -29 -19 -32 -16 -2
2 14 38 36 79 40 74 41 78 45 194 2 66 1 133 -3 150 l-7 32 -25 -41z m26 -134
c-5 -123 -6 -126 -46 -201 -28 -51 -38 -78 -31 -85 7 -7 16 -6 28 5 43 37 43
37 43 -126 0 -185 8 -175 -142 -182 -84 -3 -108 -1 -144 16 -35 15 -46 25 -50
50 -9 44 -21 45 -42 4 l-19 -37 -20 34 c-63 103 -41 219 62 323 25 25 46 46
47 46 2 0 3 -26 3 -57 0 -45 3 -58 15 -58 9 0 19 17 26 45 19 77 63 150 125
209 34 31 76 77 96 104 19 26 39 44 44 41 6 -3 8 -57 5 -131z"/>
<path d="M5989 5058 c-2 -13 -2 -63 2 -113 l6 -90 1 113 c2 107 -1 138 -9 90z"/>
<path d="M1740 5035 c0 -5 5 -17 10 -25 5 -8 10 -10 10 -5 0 6 -5 17 -10 25
-5 8 -10 11 -10 5z"/>
<path d="M2736 4964 c-4 -10 -1 -14 6 -12 15 5 23 28 10 28 -5 0 -13 -7 -16
-16z"/>
<path d="M8361 4964 c0 -11 3 -14 6 -6 3 7 2 16 -1 19 -3 4 -6 -2 -5 -13z"/>
<path d="M6650 4938 c0 -36 4 -35 14 5 4 16 2 27 -4 27 -5 0 -10 -14 -10 -32z"/>
<path d="M1801 4933 c2 -21 38 -86 38 -70 1 10 -6 31 -14 47 -15 29 -26 39
-24 23z"/>
<path d="M5987 4648 c-3 -106 -2 -213 2 -238 6 -30 9 34 10 193 0 130 -1 237
-3 237 -1 0 -6 -87 -9 -192z"/>
<path d="M1890 4811 c0 -5 5 -13 10 -16 6 -3 10 -2 10 4 0 5 -4 13 -10 16 -5
3 -10 2 -10 -4z"/>
<path d="M2868 4787 c-12 -29 -10 -63 3 -50 6 6 9 23 7 39 -2 24 -4 26 -10 11z"/>
<path d="M5710 4761 c-12 -24 -13 -34 -1 -27 9 6 22 46 15 46 -2 0 -8 -9 -14
-19z"/>
<path d="M9435 4710 c-17 -7 -16 -9 10 -9 17 0 37 4 45 9 12 8 10 10 -10 9
-14 0 -34 -4 -45 -9z"/>
<path d="M7320 4383 c0 -16 37 -59 45 -52 3 4 -5 19 -19 34 -15 16 -26 23 -26
18z"/>
<path d="M3640 4345 c-7 -9 -10 -18 -7 -21 3 -3 10 4 17 15 13 25 8 27 -10 6z"/>
<path d="M9496 4341 c-3 -4 5 -18 18 -30 29 -27 47 -10 20 20 -19 21 -30 24
-38 10z m34 -16 c20 -24 6 -28 -15 -5 -10 11 -13 20 -8 20 6 0 16 -7 23 -15z"/>
<path d="M4295 4330 c-13 -5 -14 -9 -5 -9 8 0 24 4 35 9 13 5 14 9 5 9 -8 0
-24 -4 -35 -9z"/>
<path d="M5986 4259 c-8 -43 -7 -166 3 -214 6 -29 9 -1 10 103 0 78 -1 142 -3
142 -2 0 -6 -14 -10 -31z"/>
<path d="M2870 4250 c0 -5 5 -10 10 -10 6 0 10 5 10 10 0 6 -4 10 -10 10 -5 0
-10 -4 -10 -10z"/>
<path d="M6116 4242 c-10 -16 -26 -72 -21 -72 9 0 36 62 32 73 -2 8 -6 7 -11
-1z"/>
<path d="M3962 4222 c22 -10 38 -24 38 -34 0 -27 -20 -32 -37 -8 -18 26 -55
21 -90 -12 -28 -26 -31 -87 -8 -141 19 -45 19 -48 -2 -40 -26 10 -12 -142 22
-235 29 -80 28 -116 -1 -65 -11 18 -23 33 -28 33 -18 0 1 -167 24 -215 23 -47
52 -71 72 -59 8 5 9 2 5 -9 -10 -28 9 -19 41 17 41 47 60 113 65 229 3 53 3
97 1 97 -2 0 -15 -21 -28 -47 -24 -46 -25 -47 -25 -18 -1 17 11 65 24 108 21
65 26 101 27 205 1 84 -3 135 -11 150 -16 30 -69 62 -101 61 -22 -1 -21 -3 12
-17z m89 -81 c6 -130 -4 -249 -26 -320 -26 -80 -31 -126 -15 -136 5 -3 16 7
24 22 17 31 18 26 16 -66 -1 -35 -10 -88 -21 -116 -21 -55 -52 -94 -63 -76 -4
6 -13 8 -20 5 -36 -14 -75 69 -84 175 l-5 76 26 -30 c39 -45 44 -12 12 77 -29
78 -48 237 -27 224 19 -12 23 12 7 50 -21 50 -20 117 3 136 33 30 64 32 83 7
15 -20 19 -21 33 -10 9 7 16 23 16 35 1 21 1 21 20 -3 11 -13 21 -35 21 -50z"/>
<path d="M5860 4231 c0 -5 5 -13 10 -16 6 -3 10 -2 10 4 0 5 -4 13 -10 16 -5
3 -10 2 -10 -4z"/>
<path d="M2860 4209 c0 -5 5 -7 10 -4 6 3 10 8 10 11 0 2 -4 4 -10 4 -5 0 -10
-5 -10 -11z"/>
<path d="M8995 4203 c4 -10 16 -45 28 -78 11 -33 23 -62 27 -65 8 -6 27 -160
36 -289 4 -51 10 -87 14 -80 4 8 4 41 0 74 -5 33 -14 112 -20 175 -7 63 -17
120 -21 126 -12 15 -49 124 -43 124 3 0 35 -16 71 -35 36 -19 72 -35 79 -35 7
0 21 -11 32 -24 17 -22 19 -42 20 -158 0 -131 0 -134 -39 -237 -51 -134 -40
-155 29 -55 10 16 12 5 7 -66 -11 -142 -65 -236 -133 -227 -24 3 -27 8 -30 43
-3 42 12 102 52 205 27 72 36 131 22 139 -5 3 -11 -2 -13 -10 -4 -13 -3 -13 7
0 17 24 1 -55 -27 -130 -55 -143 -66 -219 -38 -256 8 -10 15 -14 15 -7 0 6 9
9 20 6 61 -16 125 100 136 246 8 104 2 110 -42 39 -14 -22 -28 -38 -30 -35 -3
2 13 51 35 108 39 103 39 106 39 238 -1 125 -2 135 -24 161 -13 15 -36 31 -50
34 -15 4 -58 25 -96 47 -52 29 -68 35 -63 22z"/>
<path d="M8105 4202 c-56 -19 -85 -60 -85 -124 0 -26 5 -59 12 -73 9 -21 9
-28 -2 -35 -20 -13 -6 -129 29 -235 16 -49 28 -91 26 -93 -8 -9 -28 13 -44 47
l-16 36 -3 -90 c-4 -111 18 -200 63 -260 25 -32 32 -51 30 -76 -4 -51 5 -55
31 -12 31 50 30 62 -5 69 l-29 6 16 33 c13 25 20 30 30 23 19 -16 58 26 82 89
20 54 29 213 13 213 -5 0 -21 -19 -37 -42 -41 -57 -44 -34 -7 50 46 104 58
165 59 296 l1 119 -34 34 c-27 27 -40 33 -71 32 -22 -1 -48 -4 -59 -7z m125
-31 c29 -28 29 -29 28 -147 -1 -131 -13 -192 -59 -296 -40 -90 -32 -120 17
-63 l34 40 0 -72 c0 -116 -55 -236 -94 -204 -12 10 -18 6 -31 -23 -10 -20 -20
-36 -24 -36 -12 0 -38 53 -55 109 -9 30 -16 88 -16 128 l0 74 24 -28 c43 -49
48 -18 15 82 -36 108 -47 196 -29 229 9 18 9 29 1 44 -6 11 -11 43 -11 71 0
55 32 106 73 114 65 13 99 7 127 -22z m-73 -837 c2 -6 -5 -22 -16 -35 l-20
-24 2 38 c1 26 6 37 16 35 8 -2 16 -8 18 -14z"/>
<path d="M5882 4175 c0 -16 2 -22 5 -12 2 9 2 23 0 30 -3 6 -5 -1 -5 -18z"/>
<path d="M9428 4183 c6 -2 18 -2 25 0 6 3 1 5 -13 5 -14 0 -19 -2 -12 -5z"/>
<path d="M5310 3825 c-5 -14 -17 -39 -25 -55 l-16 -30 37 0 c35 0 35 0 28 33
-4 17 -7 42 -6 55 2 29 -6 28 -18 -3z m14 -47 c5 -24 3 -28 -14 -28 -23 0 -24
1 -8 35 13 29 13 29 22 -7z"/>
<path d="M1746 3821 c-17 -19 -17 -19 3 -14 12 3 21 12 21 19 0 18 -4 18 -24
-5z"/>
<path d="M5110 3619 c-11 -20 -11 -20 14 -4 30 20 32 25 11 25 -8 0 -19 -9
-25 -21z"/>
<path d="M6671 3608 c-1 -26 28 -113 35 -106 1 2 -6 32 -16 68 -12 42 -19 55
-19 38z"/>
<path d="M8480 3561 c0 -11 41 -63 46 -58 6 6 -29 67 -38 67 -5 0 -8 -4 -8 -9z"/>
<path d="M1635 3530 c-3 -5 1 -10 9 -10 9 0 16 -5 16 -12 0 -6 2 -9 5 -6 7 7
-5 38 -15 38 -5 0 -12 -4 -15 -10z"/>
<path d="M9470 3526 c0 -18 22 -46 52 -67 32 -22 32 -21 -7 22 -22 24 -41 46
-42 48 -2 2 -3 1 -3 -3z"/>
<path d="M6860 3455 c0 -4 20 -59 46 -122 32 -81 44 -126 42 -152 l-4 -36 -8
30 c-16 61 -20 58 -27 -23 -9 -94 -35 -181 -79 -261 -40 -72 -8 -43 58 53 64
92 98 159 84 164 -7 2 4 25 23 54 23 33 34 60 33 79 -1 15 6 36 15 47 11 12
17 35 17 65 0 51 -8 56 -50 32 -34 -19 -38 -19 -42 6 -2 12 -14 30 -28 40 -27
20 -80 36 -80 24z m78 -31 c12 -8 22 -23 22 -34 0 -28 16 -33 49 -15 17 8 32
15 36 15 13 0 4 -85 -12 -102 -9 -11 -16 -32 -15 -47 1 -19 -10 -46 -33 -79
-19 -29 -30 -54 -25 -57 6 -4 1 -23 -11 -48 -21 -39 -89 -147 -94 -147 -2 0 8
28 22 61 14 34 30 93 37 133 8 47 14 65 19 53 10 -28 27 -10 27 28 0 27 -43
152 -87 254 -7 16 28 8 65 -15z"/>
<path d="M4906 3398 c4 -24 14 -59 23 -78 l15 -35 4 54 c4 63 0 76 -28 91 -20
10 -20 9 -14 -32z m32 -34 c4 -59 -5 -54 -17 10 -6 34 -5 46 3 43 6 -2 12 -26
14 -53z"/>
<path d="M8345 3432 c-5 -4 -17 -16 -25 -27 -11 -15 -7 -14 13 4 24 22 32 31
25 31 -2 0 -7 -4 -13 -8z"/>
<path d="M1220 3379 l-35 -31 32 22 c29 19 50 40 41 40 -2 0 -19 -14 -38 -31z"/>
<path d="M9006 3325 c-3 -8 -1 -15 4 -15 6 0 10 7 10 15 0 8 -2 15 -4 15 -2 0
-6 -7 -10 -15z"/>
<path d="M10310 3071 c0 -5 5 -13 10 -16 6 -3 10 -2 10 4 0 5 -4 13 -10 16 -5
3 -10 2 -10 -4z"/>
<path d="M9802 3020 c5 -16 48 -46 48 -34 0 5 -12 18 -27 28 -16 12 -24 14
-21 6z"/>
<path d="M10300 2927 c14 -8 36 -17 50 -21 l25 -7 -25 14 c-14 8 -36 17 -50
21 l-25 7 25 -14z"/>
<path d="M10300 2780 c0 -5 6 -10 14 -10 8 0 18 5 21 10 3 6 -3 10 -14 10 -12
0 -21 -4 -21 -10z"/>
<path d="M10090 2723 c0 -13 5 -23 10 -23 13 0 13 11 0 30 -8 12 -10 11 -10
-7z"/>
<path d="M5982 2380 c0 -19 2 -27 5 -17 2 9 2 25 0 35 -3 9 -5 1 -5 -18z"/>
<path d="M6102 2240 c0 -19 2 -27 5 -17 2 9 2 25 0 35 -3 9 -5 1 -5 -18z"/>
<path d="M5980 1630 c0 -148 4 -261 10 -270 16 -25 15 483 0 510 -6 9 -9 -85
-10 -240z"/>
</g>
</svg>
