<?xml version="1.0" standalone="no"?>
<!DOCTYPE svg PUBLIC "-//W3C//DTD SVG 20010904//EN"
 "http://www.w3.org/TR/2001/REC-SVG-20010904/DTD/svg10.dtd">
<svg version="1.0" xmlns="http://www.w3.org/2000/svg"
 width="1200.000000pt" height="800.000000pt" viewBox="0 0 1200.000000 800.000000"
 preserveAspectRatio="xMidYMid meet">
<rect x="0" y="0" width="1200" height="800" fill="#000"/>
<metadata>
Created by potrace 1.16, written by Peter Selinger 2001-2019
</metadata>
<g transform="translate(0.000000,800.000000) scale(0.100000,-0.100000)"
fill="#fff" stroke="none">
<path d="M5984 7238 c-5 -7 -25 -95 -45 -196 -28 -139 -35 -192 -28 -220 11
-48 -18 -494 -36 -544 -11 -32 -10 -45 2 -80 18 -54 9 -174 -19 -240 -15 -36
-17 -51 -9 -66 27 -50 3 -117 -58 -169 -24 -20 -25 -22 -10 -40 9 -10 14 -24
12 -31 -3 -7 1 -19 7 -27 8 -10 9 -15 2 -15 -24 0 -52 53 -52 99 0 26 -4 51
-9 56 -5 6 -13 43 -19 84 -8 52 -17 81 -32 95 -11 12 -42 55 -69 96 -47 73
-143 174 -189 199 -18 10 -27 10 -38 0 -23 -19 -17 -33 41 -82 67 -58 118
-157 142 -272 15 -73 15 -83 1 -115 -18 -38 -30 -121 -29 -187 1 -35 -5 -49
-34 -81 -24 -27 -31 -42 -24 -49 12 -12 -38 -33 -78 -33 -44 0 -120 40 -153
82 -29 35 -34 38 -47 25 -13 -13 -13 -18 0 -43 24 -46 81 -114 126 -149 l41
-33 -38 -25 c-21 -13 -65 -30 -98 -37 -32 -7 -66 -19 -74 -27 -13 -13 -12 -16
7 -32 15 -13 19 -21 11 -29 -23 -23 -234 88 -310 164 -32 32 -46 40 -55 32 -7
-6 -13 -16 -13 -23 0 -7 52 -64 115 -127 104 -103 155 -175 138 -192 -4 -3
-17 -6 -30 -6 -30 0 -72 -21 -97 -49 -15 -16 -16 -24 -7 -35 10 -12 17 -12 51
1 36 14 42 14 64 -1 25 -16 25 -16 19 -133 -6 -126 7 -222 33 -244 27 -23 37
5 38 113 1 90 4 108 25 146 14 23 27 43 30 43 3 1 16 3 28 4 12 1 46 12 74 24
50 22 60 23 184 11 6 0 23 2 39 6 l28 7 -23 -43 c-13 -23 -52 -67 -86 -98 -65
-57 -72 -69 -51 -90 9 -9 16 -8 30 5 28 25 31 10 8 -48 -12 -30 -32 -81 -45
-114 -41 -109 -78 -176 -104 -193 -60 -37 -63 -42 -40 -73 l20 -28 -20 -40
c-12 -22 -25 -43 -31 -46 -6 -4 -8 -10 -5 -15 3 -5 -10 -42 -28 -82 -25 -52
-53 -91 -101 -138 -68 -68 -75 -80 -53 -98 10 -9 19 -7 35 4 30 21 28 6 -13
-73 -39 -75 -123 -162 -137 -140 -11 17 -10 69 1 63 5 -3 15 1 22 10 10 13 9
24 -7 67 -12 35 -19 82 -20 142 -2 102 3 135 21 135 16 0 45 -33 45 -52 0 -9
6 -21 14 -27 21 -17 38 11 40 65 1 45 0 46 -61 90 -69 49 -92 79 -74 97 18 18
14 23 -59 87 -46 39 -79 60 -96 60 -14 0 -39 7 -56 16 l-31 16 49 28 c44 25
51 26 65 13 15 -13 20 -11 41 19 35 47 108 184 108 203 0 8 4 15 10 15 13 0
30 -34 30 -63 0 -31 22 -51 38 -35 7 7 12 21 12 33 0 12 5 26 11 32 8 8 1 29
-26 79 -21 38 -50 105 -65 149 -26 78 -27 84 -15 149 14 73 8 114 -17 130 -20
12 -50 -8 -42 -29 6 -15 -31 -105 -43 -105 -4 0 -19 9 -33 20 -14 11 -34 20
-45 20 -59 1 -235 176 -235 235 0 7 -6 18 -14 24 -23 19 -40 -12 -32 -59 8
-54 -7 -51 -45 8 -59 94 -73 186 -40 273 34 89 83 119 96 60 3 -16 14 -36 24
-45 16 -15 20 -15 30 -2 16 20 4 141 -15 157 -19 16 -17 33 7 54 16 16 25 17
48 8 25 -9 31 -6 69 31 46 46 43 66 -10 66 -15 0 -28 4 -28 9 0 13 164 151
230 193 30 20 96 56 147 81 50 26 94 51 97 56 3 5 -1 14 -9 21 -13 11 -30 8
-98 -14 -150 -50 -281 -120 -452 -241 -29 -20 -56 -33 -66 -30 -18 6 -89 -48
-89 -68 0 -21 -261 -267 -310 -292 -57 -29 -66 -40 -50 -60 17 -21 44 -19 92
6 38 19 40 20 33 2 -4 -10 -18 -49 -31 -88 -35 -102 -117 -239 -164 -272 -11
-8 -18 -18 -15 -23 3 -4 -12 -4 -33 1 -46 11 -177 -8 -193 -28 -22 -26 6 -38
81 -34 123 5 204 -50 262 -178 29 -62 26 -114 -12 -220 -30 -82 -32 -94 -18
-107 13 -14 18 -12 42 16 l26 32 0 -101 c0 -129 -17 -176 -67 -190 -19 -5 -40
-8 -48 -5 -7 3 -16 1 -20 -5 -11 -19 -23 -12 -34 20 -12 35 -15 127 -5 154 6
14 8 14 24 0 15 -14 18 -14 30 0 10 12 10 21 0 45 -11 26 -10 37 5 70 15 33
16 42 5 55 -12 14 -16 13 -40 -10 l-27 -26 -33 53 c-27 43 -35 69 -42 138 -23
220 -34 256 -70 223 -14 -12 -17 -24 -12 -46 7 -31 -13 -117 -27 -117 -13 0
-129 150 -147 190 -8 19 -24 53 -34 76 -10 22 -18 59 -18 83 0 31 -6 48 -25
67 -20 20 -25 35 -25 79 0 30 -4 57 -10 60 -22 14 -2 192 34 293 31 87 89 182
170 278 84 101 145 155 271 241 70 48 78 61 52 77 -9 6 -47 -10 -123 -54 -119
-68 -156 -96 -282 -208 -65 -59 -85 -72 -96 -63 -11 9 -20 4 -44 -25 -16 -20
-42 -59 -58 -88 -15 -28 -48 -80 -73 -116 -26 -36 -57 -82 -70 -102 -30 -51
-53 -49 -107 9 -40 44 -45 47 -60 32 -15 -16 -13 -23 25 -104 32 -68 41 -100
41 -141 0 -81 -77 -271 -106 -260 -7 3 -20 -2 -31 -9 -10 -8 -26 -15 -35 -15
-28 0 -23 70 8 131 20 40 23 54 13 65 -9 11 -15 12 -25 3 -17 -14 -17 -12 -3
84 20 133 -15 339 -67 404 -20 25 -24 26 -38 13 -14 -14 -14 -23 0 -90 11 -54
14 -100 10 -161 -10 -133 -76 -340 -76 -237 0 41 -21 66 -38 45 -6 -7 -18 -55
-26 -107 -17 -97 -42 -180 -55 -180 -4 0 -12 5 -17 10 -16 16 -38 -16 -62 -86
-22 -66 -69 -151 -108 -197 l-23 -27 -6 33 c-4 19 -2 50 3 70 8 28 7 39 -3 47
-27 23 -71 -79 -78 -180 -2 -36 -12 -82 -20 -103 l-16 -37 -40 39 c-46 45 -76
100 -84 155 -8 48 -34 81 -53 65 -10 -8 -20 1 -44 38 -36 58 -46 91 -32 105 6
6 40 13 76 15 82 6 154 -16 206 -63 32 -29 39 -32 50 -20 6 8 9 24 5 35 -10
34 -100 106 -185 150 -62 33 -89 54 -119 94 -46 62 -72 112 -96 187 -22 69
-43 96 -62 78 -10 -11 -11 -32 -3 -98 15 -131 15 -133 -18 -126 -15 4 -55 20
-88 35 -72 34 -110 81 -148 186 -29 80 -54 112 -72 93 -10 -10 -11 -28 -5 -73
5 -33 7 -61 6 -63 -2 -2 -35 27 -75 64 -53 51 -82 88 -110 144 -45 89 -62 107
-80 85 -10 -12 -15 -11 -34 13 -76 93 -177 288 -196 377 -15 66 -25 86 -43 79
-22 -8 -53 92 -77 246 -6 41 -20 120 -31 175 -13 65 -20 142 -20 217 0 84 -3
119 -13 127 -10 8 -16 8 -24 -1 -38 -48 -50 -427 -19 -618 10 -58 17 -123 16
-145 -1 -22 4 -53 11 -70 7 -16 23 -57 35 -90 12 -33 26 -69 30 -80 8 -19 8
-19 -12 -2 -18 15 -22 16 -33 2 -10 -12 -7 -21 19 -53 52 -66 130 -206 121
-216 -6 -6 6 -26 29 -51 21 -23 44 -52 50 -63 10 -19 3 -17 -52 13 -81 44
-205 78 -288 79 -108 2 -132 -44 -31 -59 67 -10 191 -60 246 -99 64 -45 134
-112 151 -145 7 -14 29 -41 49 -59 72 -67 178 -329 208 -517 13 -80 32 -112
56 -93 12 10 13 34 7 136 l-7 124 32 -18 c35 -21 75 -91 111 -195 19 -58 21
-86 23 -289 1 -210 0 -228 -21 -275 -23 -54 -24 -53 -41 39 -12 60 -38 104
-54 88 -5 -5 -10 -67 -12 -138 -2 -116 -5 -138 -34 -224 -75 -217 -195 -370
-375 -480 -101 -62 -113 -73 -94 -88 13 -11 90 6 162 34 28 11 -60 -86 -98
-108 -39 -22 -77 -59 -77 -74 0 -6 -24 -45 -53 -85 -94 -132 -167 -265 -214
-388 -21 -57 -22 -66 -9 -79 13 -13 18 -9 43 33 88 152 242 355 268 355 6 0
24 14 41 31 62 67 221 154 260 143 18 -5 79 -94 125 -182 24 -47 44 -61 61
-44 14 14 23 -2 76 -140 32 -82 62 -192 62 -225 0 -2 -27 28 -60 66 -70 82
-74 85 -89 67 -9 -10 1 -33 44 -102 87 -137 119 -210 121 -268 1 -43 9 -62 48
-119 25 -38 78 -135 118 -215 39 -81 89 -176 111 -212 36 -59 96 -169 166
-305 29 -56 40 -61 57 -27 11 23 13 21 68 -42 97 -110 332 -306 479 -399 32
-21 108 -62 169 -93 96 -48 113 -54 125 -41 12 12 -1 24 -102 92 -64 42 -156
110 -203 150 -165 137 -430 426 -433 470 -1 37 -53 120 -73 120 -13 0 -30 20
-55 65 l-35 64 39 -31 c22 -17 70 -48 108 -68 55 -30 70 -35 82 -25 23 19 19
27 -42 68 -32 22 -81 64 -110 94 -133 142 -275 432 -234 481 8 10 3 35 -21
100 -25 69 -29 93 -22 118 l9 31 114 -104 c180 -163 180 -163 196 -147 12 12
6 23 -36 74 -122 145 -251 357 -230 378 5 5 -4 34 -21 65 -35 69 -57 213 -28
187 15 -13 19 -13 29 -2 8 11 5 31 -15 88 -14 41 -26 81 -26 89 -3 34 3 80 10
80 25 0 140 -125 212 -230 44 -66 85 -120 89 -120 5 0 14 6 20 14 10 12 1 37
-45 128 -165 324 -207 416 -223 490 l-10 41 63 -62 c61 -61 63 -61 80 -42 17
19 16 21 -22 70 -91 115 -145 226 -155 321 l-7 55 20 -33 c21 -34 36 -37 53
-11 7 11 2 35 -16 80 -41 104 -60 211 -54 297 3 41 10 79 16 85 14 14 14 53 0
78 -5 11 -9 43 -7 72 l3 52 27 -41 c37 -58 68 -165 68 -239 0 -74 19 -102 43
-63 8 13 18 33 22 46 9 30 11 27 35 -41 31 -87 41 -182 29 -255 -9 -48 -8 -66
1 -77 11 -14 15 -14 30 0 25 23 30 19 30 -25 0 -89 41 -395 56 -418 30 -45 41
-13 42 120 1 120 17 302 28 320 3 5 17 -14 30 -41 32 -64 50 -79 69 -60 12 12
11 23 -9 79 -28 76 -41 173 -31 230 6 34 9 39 21 29 26 -21 44 7 44 68 0 31 4
52 9 48 16 -9 25 17 27 71 1 32 10 66 25 93 13 24 31 56 40 72 9 15 27 43 41
61 14 18 27 40 31 48 10 27 7 -105 -4 -164 -8 -43 -7 -61 2 -72 8 -10 10 -46
7 -117 -4 -96 -7 -107 -42 -170 -31 -56 -36 -70 -26 -83 12 -13 16 -12 35 6
12 11 25 20 30 20 11 0 -2 -266 -16 -318 -9 -32 -9 -46 0 -55 18 -18 13 -44
-26 -122 -30 -61 -34 -77 -24 -89 10 -11 18 -13 31 -6 29 16 30 14 30 -57 0
-126 -24 -223 -74 -306 -51 -84 -53 -89 -31 -107 13 -11 24 -3 70 45 31 32 59
55 62 51 16 -15 43 -125 43 -171 0 -59 27 -121 51 -117 12 2 18 -8 23 -37 3
-22 14 -46 24 -53 10 -7 40 -47 67 -88 27 -43 97 -124 162 -189 105 -105 116
-113 130 -98 15 15 11 21 -45 81 -113 121 -212 311 -232 443 -6 37 -14 85 -19
107 l-9 38 27 -26 c22 -22 30 -24 39 -14 8 10 6 24 -8 54 -35 81 -35 98 5 132
36 33 76 49 94 38 14 -9 30 -95 37 -206 8 -108 21 -137 47 -100 13 19 19 9 87
-144 65 -148 107 -216 122 -201 3 3 35 -35 72 -84 132 -178 298 -322 491 -426
86 -46 109 -54 121 -44 20 16 6 30 -69 73 -104 59 -221 160 -307 268 -45 55
-85 111 -90 124 -5 12 -25 45 -44 72 -49 70 -79 132 -82 167 -1 17 -25 82 -52
145 -35 80 -56 143 -66 208 -17 95 -20 142 -11 142 7 0 95 -47 117 -62 13 -9
20 -9 32 2 15 11 9 20 -49 80 -87 91 -106 137 -113 273 -4 92 -2 107 10 102
25 -10 38 17 29 56 -37 146 -40 175 -32 287 5 81 12 116 22 123 23 14 143 10
183 -6 39 -17 66 -58 66 -103 0 -40 19 -56 42 -35 10 9 18 22 18 30 0 24 16
13 28 -20 28 -79 3 -323 -39 -374 -10 -11 -9 -17 4 -30 13 -13 19 -14 31 -3
14 11 16 8 16 -26 -1 -70 -42 -136 -127 -201 -26 -20 -27 -23 -11 -38 15 -16
20 -16 73 9 101 46 118 35 108 -72 -6 -60 8 -104 40 -130 23 -19 40 11 41 70
1 28 6 53 12 55 13 4 136 -136 258 -291 106 -137 111 -142 130 -127 13 11 11
19 -18 64 -54 85 -156 288 -156 312 0 12 -12 40 -26 61 -15 21 -23 36 -19 32
4 -4 23 6 42 23 19 16 42 29 51 27 22 -4 57 -98 44 -118 -11 -19 4 -159 20
-178 10 -12 15 -11 28 6 16 19 19 14 85 -122 83 -169 103 -200 119 -187 8 7
34 -16 87 -78 143 -164 305 -291 473 -369 69 -33 92 -40 103 -31 11 10 11 15
-3 30 -9 10 -26 21 -38 25 -80 25 -376 287 -376 333 0 10 -10 26 -21 37 -40
35 -118 161 -108 171 7 7 -5 35 -36 86 -53 88 -79 157 -94 255 -13 84 -14 122
-3 122 5 0 37 -18 73 -39 56 -34 66 -38 79 -25 13 12 7 22 -47 77 -91 93 -117
154 -128 301 -6 81 -5 88 9 77 12 -10 19 -11 30 -2 12 10 9 26 -14 101 -25 81
-28 103 -26 222 1 130 1 133 26 146 16 8 49 12 89 9 58 -3 67 -6 91 -35 28
-34 55 -106 46 -121 -3 -5 1 -14 9 -21 13 -10 19 -9 35 5 11 10 20 25 20 34 0
13 2 13 14 1 44 -48 49 -195 10 -315 -15 -44 -31 -86 -37 -92 -6 -9 -5 -18 3
-28 11 -14 15 -14 37 1 l25 16 -7 -44 c-14 -89 -55 -147 -135 -191 -28 -15
-30 -20 -19 -33 15 -18 49 -15 122 12 72 25 74 20 50 -144 -4 -33 -2 -47 12
-62 21 -24 45 -11 45 24 0 12 6 31 14 41 13 18 14 17 29 -6 8 -13 40 -69 69
-124 30 -55 63 -104 74 -109 10 -5 39 -34 64 -65 97 -120 240 -242 423 -358
77 -48 103 -60 114 -52 7 6 13 15 13 19 0 5 -35 33 -77 63 -138 96 -313 276
-313 320 0 9 -8 22 -18 29 -35 26 -63 72 -58 94 4 14 -5 43 -24 79 -21 40 -30
71 -30 104 0 80 22 122 36 67 9 -37 105 -166 156 -209 40 -33 50 -38 63 -27
13 11 10 18 -20 53 -57 66 -86 136 -91 217 -4 56 -2 77 11 97 12 18 20 22 28
14 7 -7 20 -2 44 19 66 58 177 34 239 -52 33 -47 37 -49 52 -34 13 13 14 23 6
55 l-11 40 38 -20 c66 -33 104 -75 142 -156 43 -92 61 -176 54 -253 -3 -39 0
-62 9 -75 8 -10 14 -28 14 -40 0 -11 7 -45 16 -75 30 -107 59 -402 50 -503
l-8 -78 -23 33 c-55 77 -52 75 -69 57 -15 -14 -13 -24 26 -115 24 -58 42 -117
44 -144 1 -25 6 -63 12 -85 6 -22 15 -101 22 -175 6 -74 16 -160 20 -190 20
-123 41 -368 35 -412 -4 -27 -2 -55 5 -67 12 -24 50 -302 50 -371 0 -26 5 -51
12 -58 19 -19 48 15 48 55 0 58 31 295 46 356 8 32 12 72 9 90 -6 33 25 326
50 469 8 46 15 127 15 181 0 65 5 110 15 134 9 20 13 43 10 51 -7 20 11 83 52
180 29 67 33 85 23 97 -15 18 -24 13 -60 -36 -26 -37 -28 -38 -34 -16 -11 43
-6 255 10 358 8 57 26 149 40 203 18 74 21 102 13 112 -14 17 -25 10 -50 -30
l-20 -31 6 150 c4 83 13 176 21 208 12 52 12 60 -3 83 -21 32 -24 211 -5 266
l13 36 41 -44 c35 -38 39 -46 27 -60 -12 -15 -8 -21 29 -53 49 -42 51 -57 22
-149 -23 -74 -26 -154 -6 -171 18 -15 28 -1 50 66 44 135 123 175 234 119 96
-49 147 -130 136 -214 -5 -37 -2 -51 10 -61 13 -11 18 -8 36 21 11 18 20 40
21 48 2 31 38 -67 39 -103 0 -63 -30 -178 -64 -242 -40 -77 -128 -170 -215
-229 -81 -54 -86 -60 -66 -76 40 -33 421 236 517 366 13 17 46 53 73 82 28 28
68 85 90 129 22 43 48 91 59 107 l19 28 13 -23 c7 -13 13 -34 14 -45 0 -35 24
-47 45 -24 18 20 18 32 -1 168 -9 66 2 69 97 27 61 -28 87 -35 98 -28 27 17
18 36 -27 61 -69 38 -122 127 -122 204 0 26 2 29 16 18 12 -11 18 -11 31 2 14
15 13 24 -16 103 -26 72 -31 100 -31 176 0 50 5 111 12 136 8 35 8 50 -1 65
-13 21 -9 33 20 49 19 9 19 9 10 -10 -18 -33 -13 -96 10 -125 17 -21 24 -24
35 -15 8 6 14 25 14 41 0 81 61 118 206 126 139 7 136 10 132 -156 -3 -115 -7
-146 -27 -192 -33 -80 -35 -88 -21 -105 11 -14 15 -14 33 2 20 18 20 17 14
-77 -8 -145 -58 -247 -162 -329 -59 -47 -61 -51 -44 -68 9 -9 31 -2 90 28 43
21 81 39 84 39 11 0 4 -51 -20 -145 -26 -104 -78 -210 -127 -262 -26 -27 -29
-35 -18 -48 11 -13 7 -24 -23 -68 -20 -29 -50 -66 -67 -82 -16 -16 -30 -36
-30 -45 0 -8 -44 -59 -97 -111 -97 -95 -181 -160 -278 -214 -95 -53 -97 -55
-85 -70 10 -12 20 -11 63 6 198 77 348 177 507 338 69 69 132 126 140 126 8 0
32 28 53 63 54 90 136 233 140 246 3 8 9 7 20 -2 13 -11 18 -10 30 10 14 23
30 110 28 158 -1 13 6 46 15 73 14 41 19 47 37 41 64 -18 62 -77 -4 -174 -28
-41 -76 -119 -106 -173 -50 -88 -54 -100 -41 -114 14 -13 18 -11 44 24 159
218 231 287 373 358 74 38 79 31 22 -29 -54 -58 -58 -65 -39 -84 9 -9 18 -7
37 12 43 40 116 73 191 86 81 14 124 8 160 -20 l25 -20 -23 0 c-12 0 -39 -15
-59 -34 l-37 -33 28 -18 c23 -15 32 -16 47 -7 28 18 74 14 93 -7 10 -11 25
-17 33 -14 17 7 17 2 -2 -156 -10 -80 -95 -220 -188 -311 -40 -38 -45 -46 -33
-59 12 -12 23 -7 73 32 94 74 179 167 239 262 31 50 54 83 51 74 -17 -51 -18
-106 -3 -118 13 -11 18 -8 36 21 11 18 20 29 20 24 0 -5 7 -3 15 4 11 9 12 16
5 25 -33 40 111 229 199 262 30 11 31 11 41 -25 13 -52 137 -324 155 -341 11
-11 17 -12 29 -2 12 10 11 19 -9 69 -35 87 -48 160 -44 250 3 59 9 86 21 98
16 16 19 15 58 -19 43 -40 61 -45 79 -24 8 10 7 17 -2 26 -13 13 42 -8 113
-44 124 -63 133 -145 32 -278 -40 -53 -43 -60 -29 -74 13 -14 22 -9 80 45 101
94 142 109 191 71 54 -42 72 -121 39 -168 -13 -19 -14 -28 -5 -42 7 -10 12
-25 12 -33 0 -29 -92 -197 -146 -266 -51 -67 -54 -74 -40 -89 15 -14 24 -8
112 82 52 54 117 132 145 175 l49 77 0 -37 c0 -28 -9 -50 -35 -84 -38 -49 -42
-63 -23 -82 9 -9 17 -7 36 11 l25 22 -6 -60 c-5 -64 -43 -186 -84 -273 -48
-101 -175 -218 -293 -267 -25 -10 -52 -25 -60 -32 -12 -11 -12 -15 0 -28 13
-13 25 -12 100 9 47 13 94 28 105 32 16 6 18 5 10 -7 -6 -8 -23 -33 -39 -56
-15 -22 -36 -43 -47 -46 -10 -3 -24 -18 -29 -34 -6 -15 -32 -49 -57 -75 -36
-37 -44 -50 -35 -61 9 -11 -8 -34 -81 -114 -174 -189 -397 -365 -577 -454
-107 -54 -113 -58 -99 -75 13 -16 70 3 224 76 210 98 392 230 592 428 94 93
113 109 124 96 16 -20 31 -6 75 74 33 59 189 289 258 381 44 58 126 140 182
183 49 36 53 43 40 56 -13 13 -19 12 -53 -8 -21 -13 -48 -32 -60 -43 -13 -11
-23 -15 -23 -9 0 9 20 41 118 182 13 19 28 45 33 58 5 13 13 21 18 18 12 -8
40 26 91 112 41 68 49 77 78 80 110 11 315 -193 441 -438 43 -84 54 -96 69
-77 10 11 7 30 -9 83 -28 91 -110 263 -154 325 -19 27 -35 55 -35 63 0 22 -95
141 -111 139 -8 -2 -39 22 -68 51 l-54 55 83 -26 c73 -22 84 -23 97 -10 9 8
13 19 10 24 -3 5 -45 29 -94 53 -70 35 -105 60 -170 126 -46 46 -83 89 -83 97
0 8 -10 27 -22 42 -12 16 -34 51 -49 79 -15 28 -31 50 -37 49 -15 -3 -66 120
-91 217 -29 114 -37 237 -21 329 10 63 10 75 -3 88 -13 14 -17 13 -31 -8 -32
-50 -50 -150 -51 -284 0 -71 3 -149 8 -172 6 -34 4 -41 -6 -37 -8 3 -19 -1
-25 -8 -8 -10 0 -37 35 -108 68 -142 68 -142 35 -134 -72 18 -106 52 -161 161
-36 72 -43 78 -64 55 -15 -16 -15 -23 2 -80 l19 -63 -56 32 c-32 17 -73 42
-92 54 -19 12 -67 40 -106 63 -81 47 -126 94 -157 161 -16 37 -20 68 -21 151
-1 140 -15 160 -56 81 -10 -21 -22 -61 -26 -90 -4 -28 -10 -51 -14 -51 -13 0
-40 79 -40 118 0 21 5 43 11 49 7 7 7 27 0 69 -25 132 -8 244 35 244 12 0 13
-4 3 -21 -9 -17 -8 -25 4 -37 14 -14 18 -11 37 21 l22 37 89 0 c128 0 185 -32
214 -120 32 -97 83 -99 72 -2 -3 26 -9 66 -13 88 -6 41 -6 42 30 54 19 6 43
10 53 9 10 -2 30 4 44 14 14 9 52 22 85 28 126 23 265 99 231 127 -10 8 -30 6
-78 -9 -71 -23 -193 -29 -299 -16 -79 10 -89 18 -65 53 15 24 16 28 1 42 -14
14 -19 13 -60 -16 -64 -46 -204 -79 -221 -52 -3 6 -24 10 -45 10 -48 0 -70 8
-64 24 2 6 -7 23 -20 35 -21 20 -28 22 -41 11 -14 -12 -13 -16 12 -42 l27 -28
-33 11 -34 12 6 88 c6 92 22 138 59 163 35 25 40 19 18 -21 -23 -44 -25 -57
-7 -72 11 -8 24 2 61 44 59 68 110 98 206 120 41 9 98 23 126 31 28 8 67 14
86 14 35 0 35 -1 35 -42 1 -24 -15 -89 -33 -145 -36 -107 -43 -183 -20 -202
17 -15 31 2 41 49 26 124 196 356 295 401 73 34 75 36 73 58 -2 12 5 25 17 31
24 13 25 13 1 -41 -11 -24 -29 -82 -41 -128 -18 -72 -19 -86 -7 -98 18 -19 23
-13 92 125 84 168 165 281 289 407 126 126 203 172 334 198 83 17 108 32 91
53 -18 21 -151 18 -234 -6 -39 -11 -92 -31 -119 -45 -27 -14 -51 -23 -54 -21
-2 3 7 10 20 17 35 16 99 94 92 113 -6 15 37 87 109 184 31 43 38 59 29 71 -5
9 -15 15 -21 14 -11 -3 8 51 59 167 16 37 25 69 20 75 -4 5 0 48 11 95 31 141
50 321 50 467 -1 144 -22 326 -43 350 -25 30 -32 -8 -34 -175 -1 -92 -6 -182
-12 -201 -7 -19 -21 -98 -32 -175 -27 -182 -36 -214 -71 -253 -15 -18 -31 -50
-34 -70 -10 -67 -24 -109 -56 -169 -47 -88 -100 -176 -124 -204 -12 -14 -33
-45 -47 -70 -14 -25 -54 -74 -87 -110 -58 -61 -61 -63 -56 -34 4 20 1 35 -8
42 -19 16 -35 -3 -85 -103 -22 -44 -51 -90 -63 -102 -26 -23 -139 -93 -151
-93 -12 0 -10 115 2 146 8 19 7 30 -1 40 -23 28 -50 -13 -99 -146 -42 -116
-93 -160 -253 -215 -70 -25 -72 -24 -30 33 20 26 22 36 13 47 -11 13 -21 7
-70 -35 -91 -79 -193 -118 -295 -112 -27 2 -28 3 -13 19 16 15 15 19 -12 50
-35 39 -40 95 -15 143 9 17 13 30 10 30 -3 0 1 13 9 29 20 39 67 77 113 91 21
7 46 19 56 28 15 14 16 17 2 32 -17 19 -43 16 -152 -14 l-52 -14 -5 31 c-20
129 -14 183 31 291 21 51 23 61 10 73 -12 12 -19 8 -54 -31 -42 -48 -53 -55
-53 -34 0 31 -106 286 -129 313 -15 17 -46 55 -68 86 -62 84 -178 194 -269
255 -88 58 -96 61 -113 40 -10 -12 -5 -20 25 -43 86 -66 134 -111 178 -165 55
-68 126 -194 126 -226 0 -12 12 -46 27 -75 14 -29 28 -72 29 -97 1 -25 7 -77
14 -116 6 -40 9 -116 8 -170 l-3 -99 -73 74 c-63 65 -75 73 -87 60 -12 -12
-11 -19 10 -54 79 -131 105 -183 105 -210 0 -16 9 -54 20 -83 24 -61 26 -120
6 -148 -10 -13 -13 -33 -9 -61 4 -34 3 -43 -9 -43 -27 0 -167 39 -199 55 -29
15 -33 15 -47 1 -21 -20 -18 -23 106 -106 88 -59 99 -71 129 -130 31 -59 57
-155 38 -138 -5 4 -14 3 -20 -2 -10 -8 -8 -23 6 -67 24 -72 24 -134 1 -163
-24 -29 -109 -38 -167 -17 -32 11 -47 25 -72 69 -18 31 -53 77 -79 103 -41 42
-47 46 -61 33 -13 -14 -11 -21 21 -65 28 -39 76 -132 76 -148 0 -2 -8 -1 -18
2 -10 2 -24 -2 -31 -10 -10 -12 -7 -19 15 -36 15 -12 33 -21 41 -21 33 0 68
-177 60 -310 -3 -52 -10 -108 -15 -124 l-8 -29 -23 38 c-34 57 -46 35 -47 -88
-1 -84 -5 -110 -23 -145 -28 -55 -57 -66 -128 -52 -43 9 -56 17 -68 40 -19 37
-32 45 -50 30 -11 -9 -19 -6 -40 16 -33 36 -40 66 -27 123 10 46 1 78 -19 65
-5 -3 -16 10 -24 30 -11 26 -15 77 -15 201 l0 167 26 -32 c24 -27 29 -30 41
-17 13 13 11 23 -15 78 -47 99 -52 131 -52 317 0 197 5 207 66 122 38 -54 45
-58 63 -36 8 10 4 27 -20 72 -18 32 -47 88 -65 123 -37 69 -45 133 -20 167 12
15 30 20 97 24 76 5 85 7 96 30 17 33 3 47 -56 52 -26 3 -68 14 -92 25 -24 11
-51 23 -60 26 -26 9 -65 67 -83 124 -15 46 -45 89 -46 67 -1 -5 -9 7 -18 26
-10 19 -24 34 -32 33 -9 -2 -31 25 -54 63 -22 37 -62 91 -89 121 -44 48 -52
52 -65 39 -13 -13 -12 -18 7 -45 32 -45 87 -170 94 -212 3 -21 0 -47 -7 -61
-11 -21 -10 -30 5 -59 19 -36 25 -79 10 -79 -4 0 -22 5 -40 11 -24 9 -35 8
-47 -2 -14 -12 -19 -10 -38 13 -23 29 -78 163 -100 243 -8 28 -17 60 -21 73
-6 19 -4 21 11 16 11 -4 36 -23 56 -42 31 -29 40 -33 52 -23 23 19 8 41 -108
157 -56 55 -113 114 -127 130 -15 16 -50 49 -79 73 -36 31 -50 49 -47 62 6 24
-85 93 -101 77 -13 -13 -33 -1 -114 65 -74 60 -301 167 -445 210 -45 14 -53
14 -64 1 -16 -20 -9 -26 96 -77 115 -56 182 -99 274 -176 92 -77 117 -107 96
-115 -8 -3 -22 -3 -30 0 -16 6 -45 -12 -45 -27 0 -21 76 -59 117 -59 31 0 48
-6 63 -22 25 -27 25 -29 0 -71 -26 -44 -37 -122 -20 -142 17 -20 28 -11 50 41
11 24 26 44 34 44 37 0 86 -112 86 -197 0 -74 -47 -177 -113 -247 -57 -60 -58
-60 -52 -28 7 33 -9 67 -26 56 -5 -3 -24 -29 -43 -57 -66 -101 -131 -154 -213
-172 -28 -6 -37 -2 -64 25 -27 27 -31 36 -26 70 9 73 -34 70 -62 -3 -9 -22 -7
-50 6 -117 19 -101 14 -123 -54 -239 -39 -65 -55 -84 -108 -125 -25 -20 -27
-26 -16 -40 12 -14 16 -14 42 0 27 14 29 13 29 -5 0 -26 23 -44 38 -29 7 7 12
19 12 27 0 14 1 14 10 1 11 -17 12 -132 1 -170 -5 -19 -16 -26 -46 -32 -34 -6
-141 -40 -197 -63 -44 -18 -91 183 -53 225 17 19 17 22 0 66 -23 61 -17 186
11 235 19 31 25 34 67 34 47 0 74 15 62 34 -13 22 -87 53 -111 47 -23 -6 -24
-4 -24 37 0 60 41 116 85 117 28 0 67 29 61 45 -5 14 34 53 115 112 31 23 78
67 104 97 39 47 45 59 35 71 -11 13 -20 8 -68 -36 -57 -52 -140 -99 -229 -130
-29 -10 -55 -14 -58 -9 -5 8 -49 -6 -101 -31 -15 -8 -27 -8 -41 1 -16 10 -27
9 -63 -10 -59 -30 -141 -31 -197 -2 -33 17 -43 19 -52 8 -7 -9 -7 -16 1 -24
31 -31 -165 14 -214 50 -34 23 -35 48 -5 108 25 52 63 66 116 44 34 -14 38
-25 16 -44 -19 -16 -2 -40 28 -40 11 0 31 -10 44 -21 19 -18 25 -20 38 -9 10
8 13 20 9 33 -5 16 -3 19 12 14 11 -4 64 -22 119 -42 117 -40 201 -47 228 -17
21 24 5 42 -37 42 -33 0 -108 33 -127 57 -11 13 -9 18 16 36 59 42 117 102
142 144 21 36 23 46 12 59 -11 13 -18 9 -58 -30 -25 -25 -63 -52 -83 -61 -74
-30 -170 -12 -154 30 8 21 -10 46 -29 39 -18 -7 -39 64 -24 82 6 7 8 18 4 24
-3 6 -6 41 -6 79 0 49 -4 73 -14 81 -19 16 -19 42 1 126 23 101 70 188 136
252 61 60 67 72 43 92 -13 10 -22 8 -55 -15 -61 -42 -161 -154 -194 -215 -16
-30 -39 -66 -52 -80 -21 -24 -32 -68 -50 -210 -3 -19 -7 -46 -10 -59 -5 -22
-6 -23 -24 -6 -14 13 -17 22 -10 30 7 8 1 20 -21 39 -43 39 -62 90 -55 146 4
29 1 64 -9 96 -15 51 -20 214 -6 248 4 10 2 40 -4 65 -16 61 -39 468 -31 532
5 38 -2 94 -29 232 -35 178 -52 225 -71 195z m46 -221 c23 -116 29 -170 24
-207 -7 -55 13 -452 26 -515 5 -23 5 -44 0 -51 -6 -6 -7 -14 -3 -18 4 -3 6
-51 4 -105 -2 -68 2 -115 14 -155 10 -34 14 -68 10 -87 -11 -47 3 -94 40 -143
24 -32 30 -47 22 -55 -8 -8 -15 -6 -28 5 -40 36 -36 -57 5 -95 17 -16 30 -20
50 -15 36 9 41 21 19 47 -18 22 -18 22 3 5 11 -10 23 -18 27 -18 13 0 31 46
38 95 22 154 32 201 44 208 8 4 30 39 50 76 20 38 53 88 73 111 39 46 132 123
139 116 3 -2 -22 -31 -54 -64 -67 -67 -114 -157 -137 -256 -20 -83 -20 -126
-2 -151 7 -11 14 -44 15 -73 0 -29 3 -57 6 -62 3 -5 0 -12 -5 -15 -18 -11 -1
-65 36 -122 44 -67 68 -83 122 -83 56 0 108 22 156 68 l39 37 -20 -35 c-25
-42 -130 -130 -154 -130 -55 0 -4 -65 86 -110 36 -18 38 -20 14 -20 -32 0
-142 33 -223 67 -72 30 -88 26 -76 -18 l9 -32 -24 23 c-13 13 -22 26 -20 30 6
10 -32 58 -58 72 -34 18 -87 11 -115 -14 -26 -25 -62 -98 -62 -128 0 -28 74
-85 133 -103 68 -21 192 -33 201 -19 4 7 17 7 38 1 40 -11 102 -2 152 23 21
11 35 15 31 9 -13 -22 28 -23 68 -3 30 15 45 18 54 10 12 -10 17 -4 14 16 -1
5 8 6 19 3 40 -10 197 56 275 117 22 17 33 22 25 12 -8 -11 -40 -38 -70 -60
-105 -77 -159 -128 -153 -142 3 -9 -2 -14 -17 -14 -30 0 -74 -33 -100 -75 -16
-26 -20 -47 -18 -87 l3 -53 47 0 c25 0 50 -3 54 -7 4 -5 -3 -8 -15 -8 -63 0
-102 -67 -109 -186 -3 -52 0 -89 8 -103 9 -17 9 -26 -1 -37 -8 -9 -10 -43 -7
-102 4 -79 8 -94 46 -167 24 -44 37 -72 30 -61 -38 54 -51 67 -60 58 -5 -5 -9
-80 -9 -166 1 -163 12 -221 52 -278 28 -39 23 -46 -11 -13 -26 25 -30 26 -36
11 -15 -39 14 -184 44 -218 22 -26 40 -22 78 16 39 39 42 32 14 -26 -11 -23
-20 -48 -20 -56 0 -8 -8 -20 -17 -27 -15 -11 -15 -16 4 -61 48 -111 73 -187
58 -174 -19 16 -22 8 -29 -90 -6 -83 -31 -165 -75 -246 -16 -30 -25 -56 -21
-59 24 -15 201 249 185 276 -4 5 7 30 24 56 19 28 30 57 29 74 -1 15 6 36 15
47 22 24 24 110 3 118 -8 3 -28 -1 -44 -10 -28 -14 -30 -14 -35 4 -3 13 -1 17
10 13 18 -7 85 64 115 120 18 35 22 59 23 139 0 115 -12 139 -44 87 -26 -42
-28 -21 -2 29 30 62 43 130 35 199 -4 45 -3 68 6 78 19 22 -2 83 -40 120 -25
24 -41 30 -92 33 l-63 5 50 18 c28 9 62 18 76 18 14 1 36 13 50 27 22 24 24
33 24 132 -1 70 -6 115 -14 131 l-14 25 -19 -28 c-15 -20 -23 -24 -33 -16 -11
9 -5 24 31 75 24 34 58 93 76 131 34 73 34 58 2 234 l-6 35 20 -30 c10 -17 34
-43 52 -58 26 -23 39 -27 64 -21 61 13 129 59 185 126 31 36 57 65 59 64 1 -2
-2 -15 -7 -29 -25 -65 33 -34 126 67 42 46 66 84 86 135 31 80 34 134 11 210
-15 53 -75 131 -99 131 -7 0 -26 -15 -41 -32 -15 -18 -25 -25 -21 -15 4 10 7
25 7 33 0 8 12 26 26 39 l26 24 -22 36 c-30 48 -57 65 -105 65 -23 0 -50 7
-61 16 -10 8 -14 13 -8 10 7 -3 28 1 48 9 l36 15 -27 36 c-57 71 -221 198
-338 261 -74 40 -67 41 27 4 138 -55 283 -132 352 -187 48 -38 76 -54 89 -50
24 6 67 -21 67 -42 0 -9 75 -91 168 -182 168 -168 241 -245 172 -184 -44 38
-90 58 -103 45 -6 -6 -1 -34 13 -78 13 -37 32 -95 43 -128 31 -95 68 -165 105
-202 19 -19 31 -37 28 -40 -8 -9 -82 45 -101 73 -17 27 -41 23 -29 -5 4 -9 9
-72 13 -141 5 -111 8 -125 23 -122 16 2 16 -1 -2 -40 -12 -26 -20 -65 -20
-100 0 -62 37 -192 70 -245 29 -48 16 -40 -21 12 -20 27 -36 42 -42 36 -5 -5
-7 -54 -5 -109 4 -124 16 -141 116 -167 97 -25 103 -24 129 14 19 28 23 47 23
110 0 44 -5 82 -11 88 -9 9 -9 20 0 44 6 17 11 62 11 99 0 83 -39 170 -80 180
-24 6 -25 6 -3 12 12 3 30 0 41 -8 11 -7 22 -10 26 -7 13 14 6 154 -10 186
-22 43 -65 88 -77 80 -6 -4 -7 -1 -3 6 5 7 0 21 -10 32 -21 23 -18 23 34 5 29
-11 43 -11 51 -3 16 16 14 63 -4 97 -9 18 -11 31 -5 35 23 14 -1 129 -45 220
-48 100 -26 82 47 -39 23 -37 50 -73 60 -80 11 -6 28 -30 38 -54 10 -23 24
-41 31 -40 7 2 17 -12 22 -30 13 -42 79 -117 120 -137 53 -24 118 -45 143 -45
13 0 24 -4 24 -10 0 -6 -30 -10 -71 -10 -67 0 -73 -2 -105 -34 -58 -58 -46
-120 56 -291 l23 -40 -34 32 c-19 18 -46 34 -59 35 l-25 3 -3 -189 c-3 -200 5
-252 49 -334 l20 -37 -24 28 c-41 48 -47 24 -47 -177 0 -155 3 -187 19 -222
10 -23 24 -45 30 -49 8 -4 9 -23 5 -56 -6 -42 -3 -54 19 -88 14 -21 40 -49 56
-61 29 -20 36 -19 32 5 -1 6 12 -7 29 -27 24 -29 41 -39 84 -48 60 -12 90 -5
122 31 35 39 51 80 59 154 5 39 10 61 12 50 9 -45 13 -50 27 -34 22 24 48 139
54 234 5 102 -16 234 -47 298 -11 22 -18 44 -16 48 6 9 -41 114 -68 154 -16
23 -17 27 -4 16 10 -8 30 -35 44 -60 15 -25 36 -59 47 -76 11 -16 21 -34 21
-40 0 -15 46 -148 55 -160 8 -10 26 -150 38 -295 6 -62 11 -84 21 -82 15 3 11
-12 -30 -117 -56 -142 -48 -245 18 -233 80 14 137 109 148 248 4 46 4 91 1
100 -6 15 -10 14 -33 -7 -23 -21 -25 -22 -19 -4 5 11 18 47 31 80 20 53 23 78
23 194 -1 132 -1 134 -30 166 -15 18 -39 36 -53 39 -30 8 -158 77 -152 82 2 2
18 -1 36 -7 18 -6 55 -9 84 -6 42 4 56 10 84 41 27 29 33 44 33 80 0 25 -5 57
-10 72 -7 19 -7 30 1 40 19 23 5 116 -25 179 -37 75 -72 114 -151 165 -36 23
-65 44 -65 45 0 2 26 -5 58 -15 32 -10 79 -21 105 -25 38 -6 48 -12 53 -30 3
-13 14 -31 25 -41 16 -15 19 -15 25 -1 3 8 -2 29 -11 46 -26 52 -35 119 -19
149 20 38 17 93 -6 154 -11 29 -20 67 -20 83 0 26 -47 121 -97 195 -10 14 4 6
33 -21 76 -70 82 -73 99 -59 18 15 21 188 4 290 -6 36 -12 85 -13 110 -1 25
-15 68 -29 97 -15 29 -27 63 -27 75 0 30 -71 159 -122 223 -23 27 -68 76 -102
108 l-61 59 50 -33 c76 -50 201 -175 257 -259 28 -41 52 -73 55 -70 5 5 66
-145 104 -257 30 -88 39 -92 84 -41 21 24 34 34 30 23 -43 -106 -49 -134 -48
-216 1 -52 8 -101 17 -123 17 -40 14 -40 116 -10 64 19 82 17 35 -5 -54 -24
-136 -113 -123 -133 0 -2 -6 -17 -15 -35 -22 -43 -21 -101 2 -139 14 -24 16
-35 8 -43 -8 -8 -4 -18 15 -38 40 -40 118 -36 218 9 41 19 81 42 89 52 8 9 24
22 35 28 18 10 16 5 -8 -26 -41 -55 -24 -61 75 -27 191 66 250 117 305 264
l23 62 0 -68 c1 -85 13 -92 89 -51 83 44 149 108 187 183 28 54 34 61 35 39 0
-15 4 -29 9 -32 13 -8 166 156 198 212 14 26 36 58 48 72 61 72 163 270 175
341 11 67 19 91 31 83 16 -10 47 78 64 181 8 55 23 141 32 190 9 50 21 131 28
180 l12 90 3 -75 c6 -188 -11 -381 -46 -543 -9 -39 -17 -92 -19 -117 -2 -26
-25 -98 -54 -168 -28 -68 -48 -128 -45 -134 3 -5 17 1 32 14 14 13 2 -8 -25
-47 -76 -105 -115 -173 -108 -185 6 -10 -146 -169 -163 -170 -15 -1 -154 -137
-146 -143 5 -3 56 30 112 72 57 43 131 92 165 109 77 39 189 72 242 71 l40 -1
-49 -13 c-111 -31 -175 -74 -306 -205 -132 -132 -194 -214 -279 -370 -39 -70
-50 -86 -46 -60 9 45 52 156 77 197 10 17 15 33 11 36 -12 7 -128 -88 -128
-104 0 -8 -20 -24 -45 -36 -84 -41 -219 -199 -291 -342 -37 -73 -36 -62 5 62
19 56 34 118 35 137 0 19 2 46 3 60 3 24 1 25 -52 22 -30 -2 -77 -9 -105 -17
-27 -7 -84 -21 -125 -30 -95 -22 -122 -36 -187 -98 -59 -56 -65 -55 -28 3 13
21 21 41 16 44 -19 12 -81 -17 -115 -54 -43 -48 -50 -71 -50 -174 -1 -73 1
-80 25 -98 18 -14 48 -21 100 -24 41 -3 78 -10 84 -15 23 -23 168 6 220 45 52
39 60 42 42 15 -9 -13 -17 -29 -17 -36 0 -20 42 -42 90 -47 25 -2 70 -7 100
-11 49 -6 161 4 217 20 10 3 -2 -4 -27 -16 -25 -11 -75 -27 -112 -35 -37 -8
-82 -21 -100 -29 -18 -7 -49 -16 -68 -19 -19 -4 -49 -15 -67 -25 l-31 -20 13
-58 c8 -32 14 -69 14 -83 0 -20 -3 -17 -15 15 -18 48 -65 100 -116 126 -29 15
-58 19 -127 19 -54 0 -93 -4 -97 -11 -4 -8 -9 -8 -17 0 -21 21 -55 11 -86 -24
-29 -33 -31 -41 -31 -113 1 -42 5 -96 9 -119 6 -29 5 -41 -3 -40 -15 3 -8
-118 9 -160 19 -46 66 -104 79 -100 6 3 10 10 8 16 -3 15 18 142 27 158 3 6 6
-27 7 -75 0 -73 5 -96 27 -142 47 -98 109 -146 375 -295 92 -52 111 -50 89 6
-8 19 -17 48 -21 64 -5 24 -1 20 22 -20 62 -112 118 -157 197 -159 26 -1 41
-5 38 -12 -2 -6 3 -16 11 -23 24 -20 31 7 8 32 -11 12 -36 60 -57 107 -21 47
-44 94 -51 105 -8 11 -14 24 -14 29 0 6 7 0 16 -13 27 -37 32 -12 18 89 -14
105 -16 221 -5 290 6 40 8 33 14 -55 3 -55 16 -138 28 -185 23 -91 88 -242
110 -256 19 -12 89 -117 89 -133 0 -23 193 -206 244 -231 66 -33 42 -37 -36
-6 -39 16 -66 22 -72 16 -12 -12 153 -182 170 -176 12 5 84 -91 84 -112 0 -7
16 -34 35 -61 20 -27 57 -96 84 -153 56 -118 69 -154 52 -144 -6 4 -11 12 -11
17 0 5 -28 51 -62 102 -113 168 -288 317 -373 317 -38 0 -70 -31 -115 -113
-18 -32 -34 -56 -36 -55 -2 2 6 33 17 68 27 86 29 149 6 183 -22 34 -62 45
-86 23 -25 -22 -53 -114 -62 -201 -4 -38 -14 -98 -22 -133 -18 -76 -8 -86 39
-41 57 55 43 24 -47 -101 -61 -85 -102 -167 -88 -175 6 -4 19 1 30 11 42 37
16 -2 -41 -63 -33 -35 -68 -76 -77 -91 -10 -15 -59 -86 -109 -157 -50 -72 -99
-146 -108 -164 -10 -18 -23 -30 -30 -28 -7 3 -71 -54 -142 -125 -202 -203
-372 -332 -575 -433 -89 -45 -84 -39 45 50 55 38 131 95 170 129 148 126 349
346 340 371 -5 12 31 60 105 142 55 60 96 132 82 146 -8 8 -20 6 -43 -5 -37
-17 -98 -32 -98 -24 0 3 14 13 30 21 39 20 134 105 183 165 69 82 136 258 144
376 6 83 -5 98 -45 63 l-26 -24 18 30 c10 17 27 39 37 51 12 13 19 35 19 60 0
42 -20 81 -37 71 -5 -3 -32 -43 -60 -89 -28 -46 -88 -121 -133 -168 l-81 -85
48 65 c96 129 166 295 133 315 -7 4 -5 14 5 28 19 27 19 80 1 116 -20 39 -92
101 -117 101 -33 0 -79 -29 -143 -89 l-60 -56 37 50 c117 157 87 243 -117 335
-73 33 -112 36 -110 8 1 -13 -6 -10 -28 12 -38 38 -51 38 -80 -2 -20 -29 -23
-44 -23 -133 0 -55 3 -113 7 -130 10 -41 -69 128 -82 174 -5 20 -15 45 -22 54
-13 17 -16 17 -52 2 -74 -31 -198 -169 -227 -254 -6 -18 -14 -30 -16 -27 -10
10 29 104 78 191 119 208 129 229 120 238 -6 6 -21 2 -39 -12 -17 -11 -41 -21
-55 -21 -36 0 -83 -58 -92 -112 -4 -24 -14 -65 -22 -91 -11 -34 -13 -51 -5
-59 7 -7 2 -23 -18 -52 -15 -22 -49 -76 -75 -118 -44 -72 -172 -224 -182 -215
-2 3 18 33 44 68 53 71 102 170 108 221 2 18 7 58 10 89 9 64 -6 104 -34 96
-10 -2 -23 4 -30 14 -13 22 -70 26 -101 7 -10 -7 -23 -9 -27 -4 -12 12 27 36
59 36 61 0 44 53 -27 89 -40 20 -56 22 -106 17 -84 -10 -140 -29 -196 -66
l-48 -32 35 37 c19 20 52 48 73 61 65 42 21 59 -70 28 -100 -34 -267 -167
-368 -294 l-27 -35 27 50 c16 28 52 86 81 130 30 44 54 86 54 93 0 6 5 11 10
9 6 -1 23 20 38 46 26 47 26 48 8 62 -10 8 -24 16 -30 18 -7 3 -7 9 3 20 7 9
18 14 23 11 17 -11 67 48 88 103 22 60 28 207 9 219 -6 3 -22 -6 -35 -22 -27
-34 -31 -26 -8 18 44 84 56 142 60 282 l4 138 -40 40 c-39 40 -42 41 -95 35
-60 -6 -89 -22 -116 -64 -21 -31 -26 -112 -8 -144 8 -15 7 -24 -2 -35 -18 -22
-5 -136 29 -236 16 -49 27 -88 26 -88 -2 0 -12 17 -21 37 -10 21 -22 38 -28
38 -6 0 -11 -39 -13 -90 -4 -112 18 -200 64 -261 19 -24 34 -49 34 -54 0 -15
-16 -12 -31 6 -23 28 -60 37 -80 18 -20 -18 -52 -104 -48 -131 5 -38 -13 -112
-26 -107 -8 3 -25 -17 -45 -53 -114 -203 -156 -272 -166 -269 -6 3 -48 -38
-92 -89 -105 -121 -204 -204 -336 -284 -110 -66 -152 -79 -68 -21 61 43 272
251 272 268 0 8 20 36 45 64 52 58 119 164 111 177 -3 4 14 43 38 85 65 114
115 316 86 350 -10 13 -21 11 -83 -20 l-72 -35 42 35 c49 42 102 121 129 191
14 39 19 76 19 164 0 122 -10 146 -40 94 -18 -32 -12 -12 18 62 17 40 22 76
25 186 l3 136 -31 27 c-28 23 -40 26 -109 26 -140 0 -227 -42 -256 -125 l-14
-40 -1 46 c0 31 6 54 20 71 21 28 18 38 -14 38 -56 0 -115 -71 -86 -104 8 -11
9 -25 1 -53 -6 -21 -11 -79 -11 -130 0 -77 5 -106 29 -173 31 -83 33 -102 6
-50 -23 44 -35 28 -35 -44 0 -90 24 -150 85 -213 28 -29 50 -53 49 -53 -1 0
-32 14 -68 31 l-67 31 -26 -23 c-26 -25 -26 -26 -7 -154 l6 -40 -23 34 c-13
19 -29 36 -35 38 -16 5 -42 -33 -100 -143 -26 -49 -70 -114 -99 -144 -28 -30
-60 -66 -71 -80 -32 -44 -161 -156 -242 -213 -147 -102 -155 -103 -58 -4 104
104 145 174 170 284 20 90 20 134 1 180 -8 19 -15 51 -15 71 0 29 -9 44 -49
84 -47 47 -80 57 -66 19 3 -9 -16 5 -42 30 -67 65 -124 92 -183 87 -62 -6
-104 -39 -140 -112 -35 -69 -39 -48 -10 46 28 90 26 111 -14 146 -26 23 -31
32 -20 36 21 8 5 35 -66 108 l-59 60 -16 -38 c-9 -22 -20 -57 -25 -79 -12 -55
-4 -200 13 -235 12 -24 13 -36 1 -80 -16 -64 -24 -432 -9 -440 6 -3 18 11 27
30 22 42 22 32 3 -39 -44 -168 -60 -500 -26 -561 l14 -24 33 38 33 38 -35 -87
c-20 -48 -37 -108 -39 -134 -1 -25 -7 -59 -14 -74 -6 -16 -11 -72 -11 -125 0
-53 -7 -134 -15 -180 -25 -143 -56 -436 -50 -469 3 -18 -1 -58 -9 -90 -8 -32
-20 -108 -27 -170 -7 -62 -15 -110 -19 -108 -4 2 -12 57 -20 122 -7 65 -19
138 -27 161 -9 27 -12 59 -8 82 6 36 -16 292 -35 410 -5 30 -14 118 -21 195
-6 77 -18 159 -24 182 -7 23 -10 52 -8 65 3 14 -9 59 -27 104 -17 43 -34 86
-37 94 -3 8 10 -3 30 -25 l35 -40 11 29 c19 48 24 204 11 306 -7 52 -16 124
-20 160 -4 36 -15 94 -24 128 -10 35 -16 66 -13 68 3 3 8 -8 12 -23 8 -34 24
-55 36 -47 22 13 4 349 -22 431 -8 26 -7 39 7 65 26 50 31 194 9 273 -23 87
-37 97 -68 48 -31 -49 -53 -68 -62 -53 -3 6 -11 8 -16 4 -12 -7 -2 -62 22
-129 26 -71 59 -247 58 -308 l-1 -52 -9 44 c-15 78 -78 198 -129 245 -54 51
-148 102 -161 89 -6 -6 -3 -24 6 -46 22 -53 19 -56 -17 -13 -59 72 -168 98
-236 56 -18 -11 -36 -19 -40 -18 -17 3 -43 -16 -62 -48 -39 -62 -17 -190 51
-294 17 -25 19 -31 6 -21 -28 22 -107 140 -124 185 -23 60 -32 69 -51 54 -50
-42 -56 -150 -13 -232 16 -30 27 -55 23 -55 -20 3 -21 -4 -6 -33 9 -18 31 -51
48 -73 17 -22 38 -53 46 -70 8 -16 72 -88 143 -158 94 -95 115 -120 80 -96
-121 82 -207 155 -284 241 -46 50 -100 108 -120 127 -20 20 -47 56 -59 81 -12
25 -43 80 -67 122 -43 75 -46 77 -66 63 -12 -8 -27 -25 -35 -37 -13 -22 -13
-22 -8 7 20 106 19 120 -6 150 -27 31 -18 32 -133 -9 -16 -6 -15 -4 3 6 64 39
122 158 122 252 0 42 -9 50 -32 29 -23 -20 -23 -21 7 67 28 81 34 201 14 261
-15 42 -77 121 -90 114 -5 -4 -9 -18 -10 -33 -1 -26 -2 -26 -12 6 -6 19 -29
55 -53 80 l-42 47 -75 0 c-69 0 -78 -2 -105 -28 -28 -27 -28 -28 -29 -155 -1
-98 3 -141 18 -191 23 -76 23 -77 4 -61 -25 20 -29 -12 -18 -144 11 -150 37
-214 121 -299 l57 -58 -59 35 c-102 62 -116 50 -98 -88 14 -110 39 -187 88
-267 21 -36 33 -66 30 -76 -7 -18 77 -154 119 -193 14 -13 25 -31 25 -40 0
-23 176 -208 251 -264 86 -64 58 -57 -48 12 -120 79 -222 170 -326 291 -48 55
-93 98 -100 96 -7 -3 -39 51 -82 142 -92 191 -102 208 -119 194 -11 -10 -15
-3 -18 35 -2 25 0 48 4 50 13 8 9 30 -13 89 -27 73 -53 86 -104 56 -43 -25
-45 -25 -45 -6 0 18 -37 38 -56 31 -12 -4 -11 -14 6 -57 12 -29 30 -63 40 -77
11 -14 20 -35 20 -47 0 -20 108 -242 132 -272 6 -7 8 -13 5 -13 -4 0 -33 35
-66 78 -79 101 -221 262 -244 276 -27 16 -57 -24 -57 -78 0 -30 -3 -37 -10
-26 -6 8 -9 49 -8 91 3 64 0 80 -16 98 -24 26 -56 27 -106 1 -22 -11 -41 -20
-43 -20 -2 0 16 21 41 46 58 61 80 113 82 194 2 87 3 86 -20 65 -19 -18 -19
-17 0 54 25 88 27 241 5 295 -11 27 -12 35 -3 34 22 -5 20 37 -4 72 -22 32
-73 57 -83 40 -3 -5 -1 -20 5 -35 5 -14 10 -41 10 -58 l-1 -32 -15 35 c-34 78
-90 110 -195 110 -57 0 -72 -4 -95 -23 -26 -23 -28 -30 -36 -146 -4 -68 -6
-127 -3 -131 3 -4 11 -37 18 -73 13 -58 12 -64 -2 -63 -14 1 -16 -17 -15 -139
1 -169 12 -203 107 -303 34 -37 53 -60 42 -51 -32 27 -125 70 -135 64 -32 -20
8 -239 71 -387 28 -65 48 -122 44 -127 -7 -13 45 -116 91 -183 19 -27 39 -60
44 -72 16 -43 171 -226 244 -288 93 -79 97 -83 61 -65 -52 26 -165 113 -232
179 -83 80 -135 142 -207 245 -33 48 -62 80 -70 77 -8 -3 -24 24 -46 73 -89
205 -130 285 -144 280 -11 -4 -15 10 -20 61 -21 206 -63 253 -158 175 -28 -24
-25 -18 18 37 63 79 78 110 93 178 13 65 15 199 1 207 -5 3 -16 -8 -25 -26
-27 -51 -26 -28 2 56 20 62 27 101 27 172 1 50 5 95 9 99 11 11 8 103 -4 127
-36 69 -101 88 -159 47 -42 -30 -53 -78 -53 -225 0 -118 9 -177 39 -290 5 -18
4 -18 -11 3 -9 12 -21 20 -26 17 -13 -8 -11 -267 2 -302 5 -15 22 -40 37 -55
27 -30 21 -39 -9 -12 -24 21 -41 9 -33 -24 12 -52 36 -127 50 -162 l15 -35
-29 35 c-27 31 -31 33 -37 17 -7 -16 9 -118 37 -247 21 -95 121 -277 209 -378
23 -26 2 -6 -47 43 -49 50 -109 124 -134 164 -25 40 -55 86 -67 101 -13 15
-23 35 -23 44 0 35 -29 87 -47 84 -15 -3 -19 7 -24 62 -6 76 -34 173 -54 190
-17 14 -55 -10 -104 -65 -17 -20 -31 -33 -31 -30 0 4 21 40 46 82 36 59 48 92
60 156 15 90 19 263 5 271 -4 3 -16 -3 -26 -14 -34 -38 -34 -20 -1 48 40 79
46 103 28 125 -11 13 -11 24 -1 59 8 25 13 103 13 185 1 158 -6 182 -46 147
-17 -15 -15 -8 12 41 32 55 34 66 38 172 3 70 1 118 -6 125 -7 9 -7 29 -2 58
14 70 12 184 -3 204 -13 18 -15 17 -35 -12 -12 -16 -22 -33 -22 -37 0 -3 -12
-22 -26 -41 -15 -19 -34 -48 -43 -63 -9 -16 -26 -48 -39 -71 -13 -23 -24 -61
-25 -85 -1 -23 -5 -41 -10 -38 -10 6 -27 -41 -28 -80 l-1 -32 -7 30 c-18 85
-54 -21 -54 -160 0 -68 6 -114 17 -144 9 -24 15 -46 13 -48 -2 -2 -12 18 -22
44 -22 60 -35 77 -48 64 -17 -17 -36 -133 -43 -260 -8 -145 -16 -135 -33 39
-20 213 -23 229 -37 241 -11 9 -16 6 -22 -12 -19 -51 -21 -53 -14 -14 18 106
-1 220 -59 342 -41 87 -55 104 -66 77 -4 -11 -12 4 -25 46 -11 35 -27 75 -36
89 -31 49 -85 110 -94 105 -12 -8 -10 -149 3 -178 9 -19 9 -29 1 -39 -6 -7
-14 -56 -18 -108 -5 -77 -2 -110 15 -183 12 -49 30 -109 41 -134 29 -65 17
-63 -15 2 -15 31 -31 53 -36 50 -11 -7 -11 -71 0 -152 12 -78 63 -183 136
-281 31 -40 54 -75 52 -77 -2 -3 -36 30 -76 71 -39 42 -75 73 -80 71 -11 -7
12 -118 38 -185 20 -49 185 -385 200 -406 10 -14 31 -65 27 -65 -2 0 -24 32
-50 70 -25 39 -63 89 -84 112 -56 62 -154 140 -163 131 -5 -5 -13 -32 -19 -60
-8 -44 -6 -59 10 -95 21 -46 26 -73 11 -64 -41 26 -30 -159 14 -251 15 -29 23
-57 20 -63 -16 -26 106 -232 214 -360 60 -71 38 -57 -80 52 -108 100 -159 139
-169 133 -4 -3 -10 -27 -14 -54 -5 -38 -1 -63 17 -114 16 -44 21 -69 14 -76
-7 -7 -6 -28 1 -65 33 -162 152 -366 293 -501 82 -78 82 -79 34 -51 -71 41
-143 97 -161 124 -11 17 -19 21 -26 14 -7 -7 3 -35 33 -89 70 -128 89 -155
105 -149 14 5 54 -62 54 -92 0 -17 77 -114 188 -236 92 -102 254 -251 352
-324 100 -74 104 -79 42 -48 -71 36 -151 87 -247 160 -92 69 -291 241 -302
261 -18 31 -135 145 -144 140 -5 -4 -6 -12 -3 -18 5 -8 4 -9 -3 -2 -6 6 -33
53 -61 105 -27 52 -67 124 -89 160 -22 36 -72 131 -111 211 -39 81 -94 180
-121 221 -36 54 -48 81 -44 96 9 37 -16 106 -78 213 -62 107 -55 115 13 17 24
-34 45 -55 50 -50 16 16 -21 189 -64 300 -22 59 -44 112 -48 117 -27 39 -16
45 19 10 56 -54 66 -42 56 72 -4 48 -7 114 -6 146 1 39 -5 68 -16 88 -13 22
-14 32 -6 40 15 15 -8 63 -37 79 -28 15 -53 5 -89 -35 -43 -50 -51 -133 -21
-244 24 -87 22 -113 -5 -62 -40 78 -109 173 -131 181 -17 7 -37 5 -67 -7 -57
-22 -165 -93 -201 -132 -17 -17 -35 -31 -42 -31 -16 0 -132 -132 -197 -226
-28 -40 -52 -72 -55 -70 -10 11 115 234 186 331 25 33 51 74 58 92 8 19 27 38
48 48 38 18 189 183 180 197 -3 5 -10 5 -17 0 -16 -12 -167 -64 -167 -57 0 1
28 19 62 40 222 136 400 427 416 680 6 82 7 86 13 45 20 -124 2 -298 -36 -357
-8 -12 -11 -24 -6 -27 13 -9 47 34 84 109 56 112 75 241 31 204 -10 -8 -6 10
13 57 28 69 28 70 27 291 -1 199 -3 228 -23 290 -34 105 -80 183 -128 217 -67
47 -77 35 -71 -82 4 -69 3 -85 -3 -57 -43 195 -138 422 -207 492 -20 21 -48
56 -63 77 -65 95 -228 204 -359 241 l-55 15 58 -6 c145 -14 289 -76 404 -174
115 -97 121 -101 127 -91 4 5 -35 52 -87 103 -51 51 -109 114 -127 141 -18 26
-38 47 -43 47 -5 0 -6 7 -3 16 6 16 -52 125 -102 194 -15 19 -19 29 -10 22 20
-16 32 -1 23 31 -8 26 -39 111 -68 182 -11 28 -19 69 -18 92 0 24 -6 84 -14
135 -20 120 -29 366 -17 443 l10 60 1 -62 c0 -34 10 -106 20 -160 11 -54 25
-132 31 -173 17 -113 29 -158 57 -230 28 -71 41 -92 53 -85 4 3 11 -12 15 -32
13 -72 114 -254 213 -386 42 -55 61 -64 62 -29 1 9 16 -13 35 -49 26 -50 58
-89 136 -163 57 -53 106 -93 110 -89 5 5 4 26 -1 48 -17 72 -10 95 10 37 44
-122 121 -195 247 -232 66 -20 77 -6 69 95 l-6 80 24 -58 c52 -125 121 -203
226 -258 43 -22 95 -56 117 -74 l38 -35 -64 33 c-52 26 -78 32 -134 34 -74 2
-133 -15 -143 -42 -10 -25 3 -55 56 -138 42 -66 53 -77 65 -67 13 10 15 8 15
-14 0 -36 31 -94 80 -151 22 -25 40 -52 40 -59 0 -8 6 -19 14 -25 24 -20 77
103 85 197 l7 77 13 -40 c7 -22 17 -44 21 -48 17 -18 148 171 164 236 5 20 12
27 21 23 30 -11 90 94 110 193 7 36 14 56 14 44 1 -27 15 -37 29 -20 81 100
131 342 100 490 -17 76 -9 77 16 2 28 -86 39 -228 26 -332 -13 -98 -9 -129 15
-119 12 4 11 -3 -5 -34 -22 -43 -26 -100 -10 -131 12 -22 49 -25 70 -6 8 6 6
1 -6 -13 -83 -102 -101 -161 -72 -236 10 -27 18 -61 18 -76 0 -15 5 -39 10
-54 9 -24 9 -25 -5 -14 -13 11 -18 7 -32 -26 -15 -33 -18 -68 -17 -224 1 -102
3 -198 6 -215 2 -16 0 -35 -5 -42 -5 -7 -6 -17 -2 -23 8 -14 35 6 32 23 -1 7
7 11 19 10 11 -1 43 6 70 15 66 23 87 65 92 185 5 109 -6 126 -42 68 -33 -51
-44 -54 -17 -3 61 111 90 276 58 322 -15 21 -14 25 5 51 16 22 20 37 15 71 -3
23 -1 80 5 126 8 58 8 86 0 94 -7 7 -13 4 -21 -11 -6 -11 -31 -34 -56 -51
l-44 -30 49 71 c103 150 135 291 86 387 -13 26 -31 64 -39 84 l-15 37 43 -45
c68 -71 71 -69 201 118 28 40 61 91 72 113 11 22 28 49 37 60 9 11 14 15 11 8
-4 -6 -2 -14 3 -17 5 -4 43 26 83 67 89 89 192 170 278 222 81 48 93 53 55 23
-198 -154 -353 -346 -411 -510 -35 -99 -58 -298 -35 -312 4 -3 11 -37 14 -76
7 -82 13 -96 33 -79 12 10 14 4 14 -33 0 -24 9 -60 19 -81 10 -20 22 -48 25
-61 6 -26 84 -133 152 -210 46 -51 52 -50 74 19 21 67 27 60 34 -42 7 -105 24
-152 79 -218 21 -26 33 -33 40 -26 18 18 28 12 16 -10 -6 -12 -8 -30 -6 -41 4
-15 3 -17 -8 -8 -22 18 -38 -25 -42 -110 -6 -104 11 -135 95 -174 35 -17 62
-36 62 -45 0 -11 -6 -9 -24 8 -29 27 -57 22 -98 -17 -22 -20 -28 -35 -28 -70
0 -24 5 -53 11 -64 8 -15 8 -26 -1 -44 -17 -31 -7 -153 18 -224 32 -90 34 -96
17 -67 -28 48 -40 28 -39 -65 1 -101 25 -161 80 -203 l36 -27 34 33 c49 47 71
115 77 237 3 56 1 105 -4 108 -5 3 -18 -10 -29 -28 -26 -43 -25 -30 5 65 21
66 26 101 27 208 2 149 -5 167 -82 207 -28 14 -37 22 -24 22 31 0 65 29 85 74
14 31 19 65 19 143 0 140 -20 188 -54 126 -23 -42 -19 -21 10 54 34 89 34 148
0 217 -49 100 -115 160 -211 193 l-40 13 45 -5 c25 -3 80 -17 123 -31 72 -24
80 -25 95 -10 17 16 29 123 18 152 -6 16 -8 15 -29 -3 -12 -10 -35 -28 -52
-38 l-30 -18 19 29 c10 16 28 43 40 59 39 53 63 100 80 156 10 30 25 71 34 93
15 36 15 39 -2 52 -16 11 -24 10 -57 -6 -21 -11 -44 -20 -51 -20 -7 1 4 10 25
21 43 23 327 297 327 316 0 16 46 47 59 38 14 -8 31 2 116 65 88 65 212 133
323 176 47 19 88 34 91 34 3 0 -27 -18 -67 -40 -97 -53 -124 -72 -230 -163
-132 -111 -150 -147 -75 -147 l36 0 -26 -20 c-18 -14 -34 -18 -54 -14 -26 5
-35 0 -71 -41 -43 -49 -46 -65 -11 -65 14 0 19 -7 19 -27 0 -16 3 -39 5 -53 3
-14 2 -18 -1 -10 -12 28 -37 50 -56 50 -28 0 -76 -57 -99 -120 -28 -74 -22
-150 21 -236 30 -61 104 -139 133 -139 13 0 13 2 2 50 l-7 30 20 -30 c19 -29
132 -134 182 -168 13 -9 33 -17 43 -17 10 0 32 -10 49 -21 l29 -21 25 23 c13
12 29 37 36 56 7 18 16 33 20 33 7 0 5 -22 -12 -103 -10 -47 27 -167 85 -271
20 -37 34 -70 30 -74 -4 -4 -10 -1 -13 7 -8 24 -52 63 -65 58 -6 -2 -17 -21
-23 -43 -17 -58 -90 -188 -99 -174 -5 8 -14 6 -33 -7 -15 -10 -58 -34 -97 -53
-38 -19 -69 -40 -68 -45 1 -6 15 -13 30 -16 15 -3 42 -13 60 -22 18 -9 41 -17
52 -17 22 0 146 -89 137 -98 -3 -2 -12 0 -19 6 -8 7 -17 9 -20 6 -12 -12 55
-96 109 -137 39 -31 54 -49 54 -67 0 -24 0 -24 -15 -3 -21 29 -70 46 -85 28
-18 -22 -23 -202 -7 -262 9 -35 10 -51 3 -50 -7 1 -11 -26 -10 -81 1 -85 17
-122 52 -122 11 0 12 -3 3 -14 -9 -10 -7 -19 8 -37 24 -30 34 -21 55 50 17 60
14 75 -16 65 -14 -4 -8 7 20 36 49 50 139 227 124 242 -7 7 -21 3 -44 -13
l-33 -23 20 25 c10 13 41 47 67 74 46 48 114 177 103 194 -2 5 1 14 9 20 7 6
21 29 31 50 16 36 16 41 1 62 -15 22 -14 24 23 55 38 33 73 95 117 209 82 215
83 222 41 211 -14 -3 -5 11 30 47 70 73 99 123 82 143 -9 11 -22 14 -43 10
-17 -4 -35 -6 -41 -6 -5 1 -38 3 -71 6 -49 5 -72 1 -112 -16 -28 -12 -57 -20
-64 -17 -21 7 -66 -31 -94 -78 -16 -28 -29 -70 -34 -112 -7 -55 -8 -43 -5 67
2 75 -1 143 -6 153 -15 25 -67 49 -92 42 -17 -5 -19 -4 -7 4 8 6 26 11 40 11
14 0 36 9 49 19 l23 18 -19 44 c-12 25 -49 72 -89 109 -37 36 -82 81 -99 100
l-30 35 37 -32 c86 -74 307 -178 330 -155 8 8 17 7 34 -5 27 -17 51 -9 34 12
-7 8 12 2 42 -12 70 -33 149 -33 225 2 57 26 73 26 23 0 -46 -24 -27 -38 38
-30 65 8 150 46 192 85 17 16 30 26 30 23 0 -2 5 -1 10 2 8 5 8 11 1 19 -6 7
-8 16 -5 19 12 12 -6 57 -37 92 -27 31 -37 35 -79 35 -50 0 -68 -14 -123 -90
-17 -25 -17 -24 -3 12 18 46 11 53 -28 29 -51 -31 -247 -92 -306 -97 l-55 -3
41 11 c42 10 134 73 141 95 3 6 -8 18 -24 27 -33 17 -86 67 -115 110 l-22 31
25 -22 c42 -38 117 -66 162 -60 51 7 93 38 90 66 -2 12 2 21 7 21 19 0 45 55
47 100 2 59 14 132 23 145 20 26 20 112 1 188 -27 105 -72 186 -137 247 -58
55 -66 67 -33 49 65 -34 168 -159 210 -254 10 -23 25 -45 33 -48 9 -4 16 -30
21 -76 4 -39 11 -74 16 -77 5 -3 9 -24 9 -48 0 -41 30 -97 62 -118 23 -14 64
-8 82 11 25 27 18 76 -10 75 -39 -1 -45 28 -13 65 20 25 30 30 33 20 24 -67
27 -72 38 -61 12 12 2 98 -13 107 -5 4 -9 20 -9 36 0 17 -5 39 -11 51 -8 15
-6 30 9 66 28 66 37 186 19 240 -12 35 -13 48 -2 80 18 50 47 496 36 544 -7
28 -1 77 23 197 17 87 32 158 33 157 1 -1 16 -72 33 -159z m160 -1410 c0 -18
-33 -1 -41 21 -8 22 -8 22 16 5 13 -10 25 -22 25 -26z m-340 18 c0 -8 -7 -15
-16 -15 -14 0 -14 3 -4 15 7 8 14 15 16 15 2 0 4 -7 4 -15z m-39 -337 c22 -37
19 -80 -7 -109 -36 -39 -187 -93 -155 -55 9 10 8 16 -4 26 -13 10 -26 8 -74
-14 -83 -37 -158 -37 -235 0 -59 28 -59 28 -30 37 33 9 243 77 260 84 7 3 10
-5 7 -20 -3 -13 2 -28 10 -36 13 -10 20 -6 42 24 20 26 31 33 40 25 9 -7 16
-6 24 4 9 10 8 16 -4 26 -26 21 1 40 56 40 45 0 51 -3 70 -32z m-559 -130 c-9
-9 -15 -9 -24 0 -9 9 -7 12 12 12 19 0 21 -3 12 -12z m-1222 -45 c0 -61 -8
-66 -71 -44 -30 11 -47 20 -39 20 8 1 35 15 60 31 25 16 46 29 48 29 1 1 2
-16 2 -36z m-971 -68 c-4 -33 -5 -79 -2 -103 5 -34 2 -49 -15 -71 -19 -26 -19
-30 -5 -51 35 -49 -1 -227 -69 -344 -23 -38 -26 -51 -17 -63 10 -12 18 -8 52
24 l39 38 -5 -66 c-2 -36 -11 -79 -18 -94 -19 -38 -63 -50 -107 -29 l-34 16 4
181 c2 100 7 188 11 195 7 11 12 10 27 -3 15 -14 19 -14 30 0 10 12 9 22 -4
55 -9 22 -16 53 -16 69 0 16 -7 46 -16 67 -9 22 -16 55 -16 74 2 45 22 92 36
87 7 -3 39 14 71 38 33 23 61 41 61 41 1 -1 -2 -28 -7 -61z m5062 -39 c15 -18
17 -18 41 -2 28 18 33 15 62 -41 20 -39 22 -145 4 -142 -28 3 -47 -2 -69 -20
-20 -16 -21 -21 -10 -35 7 -9 24 -16 38 -16 54 0 82 -152 49 -262 -13 -40 -13
-48 0 -59 18 -14 19 -117 2 -154 -9 -20 -17 -25 -32 -20 -12 3 -50 13 -84 22
-74 19 -82 31 -82 126 l0 61 33 -32 c30 -29 35 -31 47 -17 11 13 9 23 -13 63
-63 117 -83 260 -48 337 18 41 18 59 -5 85 -7 9 -14 49 -16 97 l-3 82 35 -27
c19 -15 42 -35 51 -46z m-6054 -568 c-2 -13 -4 -5 -4 17 -1 22 1 32 4 23 2
-10 2 -28 0 -40z m1975 -409 c-1 -105 -6 -141 -27 -206 -13 -43 -25 -89 -25
-104 0 -33 19 -52 37 -38 10 9 13 1 13 -44 0 -84 -54 -212 -74 -178 -4 6 -13
8 -20 5 -32 -12 -76 92 -76 178 0 30 1 30 19 14 16 -15 19 -15 31 -1 11 13 9
29 -14 95 -36 103 -45 193 -22 219 16 17 16 22 2 56 -19 45 -21 119 -3 133 30
24 57 24 77 0 l20 -23 23 26 c33 39 41 15 39 -132z m3008 148 c34 -17 57 -80
40 -112 -9 -16 -10 -41 -5 -80 7 -62 -6 -137 -36 -197 -22 -43 -24 -69 -7 -86
9 -9 17 -7 36 11 l25 22 -6 -81 c-5 -80 -18 -120 -60 -176 -28 -38 -43 -41
-88 -15 -44 25 -46 31 -23 77 28 54 34 98 17 112 -13 10 -19 7 -39 -17 -43
-55 -54 -65 -67 -65 -15 0 -32 50 -43 125 l-7 50 25 -22 c19 -18 27 -20 36
-11 17 17 15 36 -7 66 -37 53 -50 115 -51 243 -1 68 -1 128 -1 133 1 5 12 -1
26 -14 21 -19 27 -21 40 -10 9 7 14 19 11 26 -11 29 136 45 184 21z m1176 -12
c24 -24 24 -27 20 -162 -4 -143 -6 -154 -72 -311 -16 -38 -16 -44 -2 -58 13
-14 18 -12 42 16 l26 32 0 -61 c0 -63 -29 -160 -55 -181 -11 -9 -18 -10 -29
-1 -15 12 -27 2 -39 -32 -4 -10 -13 -17 -20 -15 -21 7 -56 128 -57 197 0 64 0
64 20 46 18 -16 22 -17 35 -4 12 12 10 26 -16 104 -36 108 -47 196 -29 229 9
18 9 29 1 44 -19 35 -14 116 9 145 21 27 40 33 103 36 28 1 44 -5 63 -24z
m-5211 -15 c16 -30 21 -121 8 -134 -5 -4 -8 -47 -8 -94 0 -68 -6 -107 -29
-180 -27 -86 -28 -94 -13 -109 14 -14 18 -14 33 -2 16 13 17 9 11 -56 -3 -38
-11 -87 -17 -107 -11 -39 -71 -133 -85 -133 -4 0 -17 13 -29 28 -18 24 -22 45
-24 140 l-4 112 22 -28 c19 -24 25 -27 37 -15 11 12 9 32 -16 134 -35 143 -44
241 -32 352 11 101 25 122 87 122 38 0 45 -4 59 -30z m6082 -10 c31 -16 62
-30 69 -30 31 0 42 -43 42 -175 0 -127 0 -131 -39 -234 -35 -90 -38 -106 -26
-118 12 -12 18 -10 42 18 l27 33 -7 -70 c-8 -81 -47 -177 -78 -193 -12 -6 -33
-10 -46 -9 -23 2 -23 5 -18 63 3 33 19 94 36 136 41 101 55 167 40 185 -6 8
-15 11 -19 9 -9 -6 -11 4 -30 185 -7 58 -20 123 -30 145 -23 50 -33 85 -25 85
3 0 31 -13 62 -30z m-5469 -24 c9 -19 8 -27 -4 -36 -11 -10 -14 -9 -14 8 0 11
-3 27 -6 36 -10 26 12 18 24 -8z m-2010 -65 c-15 -58 -16 -59 -17 -10 -1 32 3
46 13 46 11 0 11 -8 4 -36z m8629 -293 c-3 -8 -6 -5 -6 6 -1 11 2 17 5 13 3
-3 4 -12 1 -19z m-1330 -50 c-3 -8 -6 -5 -6 6 -1 11 2 17 5 13 3 -3 4 -12 1
-19z m-3078 -176 c1 -52 -4 -96 -13 -115 -8 -18 -16 -39 -19 -47 -2 -8 -8 3
-11 25 -4 22 -18 74 -32 115 -13 42 -24 82 -24 90 0 8 17 31 38 53 l37 38 12
-38 c6 -21 12 -76 12 -121z m-879 -2 c0 -5 -2 -10 -4 -10 -3 0 -8 5 -11 10 -3
6 -1 10 4 10 6 0 11 -4 11 -10z m-3366 -112 c12 -16 13 -25 4 -35 -9 -11 -8
-21 5 -43 11 -19 17 -48 16 -87 -1 -32 2 -94 5 -138 l7 -80 -40 45 c-21 25
-45 45 -53 45 -23 0 -51 130 -43 203 10 94 63 142 99 90z m5354 -25 c5 -37 27
-46 61 -28 l31 16 0 -37 c0 -20 -8 -46 -19 -60 -11 -13 -17 -33 -14 -43 3 -10
-3 -34 -13 -52 l-18 -34 -7 45 c-4 25 -25 89 -46 142 l-40 97 31 -13 c19 -7
32 -21 34 -33z m-200 -151 c-3 -29 -4 -27 -19 20 -16 49 -16 49 3 30 13 -13
18 -29 16 -50z m2324 -24 c-74 -135 -88 -145 -85 -64 2 61 24 96 63 96 16 0
32 5 35 10 3 6 9 10 11 10 3 0 -8 -24 -24 -52z m-3233 -163 l1 -80 -20 33
c-17 27 -18 39 -10 75 5 23 10 69 11 102 l2 60 7 -55 c5 -30 8 -91 9 -135z
m1110 69 c-7 -8 -7 -14 0 -19 7 -4 1 -24 -15 -57 -27 -53 -40 -60 -25 -12 5
16 12 45 15 65 4 22 12 36 21 36 11 0 12 -4 4 -13z m3482 -420 c8 -10 13 -36
12 -61 -2 -52 -43 -194 -54 -188 -4 3 -24 -14 -43 -37 l-36 -42 6 35 c4 18 11
42 15 51 5 9 9 37 9 63 0 54 19 137 30 130 4 -3 13 2 19 9 8 10 9 16 1 21 -5
3 -10 13 -10 21 0 19 34 18 51 -2z"/>
<path d="M7575 5860 c-4 -6 -3 -16 3 -22 6 -6 12 -6 17 2 4 6 3 16 -3 22 -6 6
-12 6 -17 -2z"/>
<path d="M5895 5627 c-8 -20 -28 -46 -45 -58 -23 -18 -27 -26 -19 -41 24 -45
79 1 94 79 10 52 -11 66 -30 20z"/>
<path d="M6077 5593 c-4 -6 0 -18 7 -28 8 -11 16 -14 19 -8 4 6 0 18 -7 28 -8
11 -16 14 -19 8z"/>
<path d="M6317 5573 c-12 -22 -16 -63 -7 -68 8 -5 8 -11 1 -19 -8 -9 -3 -18
19 -34 34 -26 46 -15 23 18 -10 15 -16 39 -14 61 2 34 -12 60 -22 42z"/>
<path d="M5646 5481 c-4 -5 -2 -12 3 -15 5 -4 12 -2 15 3 4 5 2 12 -3 15 -5 4
-12 2 -15 -3z"/>
<path d="M5985 5390 c-4 -6 -3 -16 3 -22 6 -6 12 -6 17 2 4 6 3 16 -3 22 -6 6
-12 6 -17 -2z"/>
<path d="M1386 5382 c-6 -10 31 -46 106 -106 53 -42 73 -34 25 11 -63 58 -125
104 -131 95z"/>
<path d="M3276 5343 c-9 -10 -7 -131 3 -137 4 -3 6 -16 4 -30 -3 -13 0 -27 6
-30 14 -9 25 19 16 42 -4 9 -6 47 -5 84 1 61 -7 87 -24 71z"/>
<path d="M7827 5293 c-4 -3 -7 -25 -7 -48 0 -24 -7 -61 -14 -83 -17 -49 -5
-64 21 -26 29 45 29 187 0 157z"/>
<path d="M4245 5168 c-4 -10 -4 -26 0 -35 4 -10 7 -85 7 -167 l1 -148 44 -65
c37 -54 40 -62 20 -48 -25 16 -26 15 -41 -7 -17 -26 -28 -186 -18 -271 6 -61
23 -71 94 -56 53 11 174 64 184 81 3 5 -4 12 -16 15 -20 5 -20 6 7 23 19 12
32 14 40 7 19 -15 58 16 99 78 35 52 36 58 31 115 -6 69 -34 115 -97 156 -44
30 -63 25 -54 -14 6 -27 6 -27 -14 4 -11 16 -46 52 -79 80 -71 59 -185 197
-178 216 3 8 -1 22 -9 33 -14 19 -15 19 -21 3z m115 -199 c0 -4 31 -32 69 -64
54 -44 74 -67 87 -103 26 -70 35 -78 56 -52 12 15 15 30 11 52 l-6 30 26 -16
c40 -27 59 -63 64 -127 5 -53 3 -63 -26 -108 -36 -55 -54 -67 -71 -45 -11 12
-17 10 -42 -11 -16 -14 -42 -25 -58 -25 -15 0 -34 -7 -41 -16 -11 -14 -10 -19
8 -34 22 -17 22 -18 -30 -33 -29 -9 -66 -19 -83 -22 -31 -6 -31 -6 -36 42 -3
26 -4 75 -3 108 2 33 4 77 4 98 1 40 14 47 43 20 16 -15 20 -15 33 -2 13 13 9
23 -33 85 l-48 71 -1 123 -2 124 39 -45 c22 -24 39 -47 40 -50z"/>
<path d="M1406 5161 c-3 -5 2 -31 12 -59 15 -45 23 -54 65 -75 58 -30 69 -18
30 31 -16 20 -42 54 -59 74 -30 39 -39 44 -48 29z m65 -88 c13 -16 12 -17 -3
-4 -17 13 -22 21 -14 21 2 0 10 -8 17 -17z"/>
<path d="M6117 5153 c-4 -3 -7 -83 -7 -177 0 -146 3 -177 19 -212 21 -45 36
-60 46 -44 4 6 10 8 15 5 5 -3 0 -15 -11 -26 -33 -33 -48 -81 -60 -188 -13
-108 -2 -203 28 -249 13 -21 13 -27 -1 -56 -39 -82 -43 -242 -10 -357 26 -91
128 -180 220 -194 146 -22 198 -14 192 28 -2 15 -9 21 -20 19 -16 -2 -16 0 -7
22 9 18 9 33 0 56 -9 29 -9 31 5 20 22 -19 32 -3 44 75 12 82 0 329 -17 346
-8 8 -19 0 -38 -30 -15 -22 -29 -41 -31 -41 -1 0 13 34 32 75 45 98 53 146 48
285 -5 146 -11 196 -25 221 -11 21 -11 21 -35 -2 l-24 -23 6 35 c4 19 13 38
21 42 18 11 17 57 -2 84 -8 12 -12 28 -9 36 3 9 -7 24 -28 38 -67 48 -176 25
-215 -44 -7 -12 -12 -16 -13 -9 0 24 21 56 57 88 l36 31 -74 43 c-41 24 -88
58 -105 77 -17 18 -34 30 -37 26z m166 -143 c6 0 -3 -15 -20 -32 -40 -43 -53
-69 -53 -111 0 -40 29 -74 48 -55 7 7 12 24 12 39 0 43 37 78 90 85 50 6 104
-9 97 -29 -2 -6 4 -23 14 -36 23 -29 24 -64 4 -81 -8 -7 -15 -20 -15 -29 0
-10 -7 -39 -16 -65 -15 -43 -15 -49 -1 -63 14 -14 18 -11 46 32 l30 47 5 -34
c11 -66 14 -285 5 -332 -5 -27 -29 -90 -53 -141 -32 -67 -41 -96 -33 -104 17
-17 22 -14 59 34 l35 44 6 -119 c3 -66 3 -143 0 -171 l-6 -50 -22 21 c-19 18
-24 19 -34 6 -10 -12 -10 -25 4 -67 13 -38 15 -57 7 -74 -8 -17 -7 -26 6 -40
16 -16 14 -17 -43 -12 -142 14 -186 30 -242 89 -74 78 -94 323 -37 444 14 29
14 35 1 56 -30 46 -41 141 -28 249 13 117 31 169 59 169 24 0 46 25 37 40 -8
13 -55 34 -71 31 -23 -3 -34 64 -34 205 l0 142 66 -44 c36 -24 71 -44 77 -44z"/>
<path d="M5827 5094 c-29 -57 -61 -179 -53 -200 3 -8 2 -12 -4 -9 -10 6 -40
-45 -40 -70 0 -9 -10 -29 -21 -44 -12 -16 -18 -34 -14 -40 8 -15 24 -5 35 23
8 20 9 19 9 -6 1 -35 -8 -58 -23 -58 -25 0 -67 -59 -117 -165 -69 -147 -88
-206 -96 -294 -5 -56 -8 -69 -15 -52 -15 40 -22 29 -95 -149 -32 -78 -37 -101
-42 -169 -1 -19 -4 -21 -15 -12 -16 14 -19 11 -53 -61 -12 -25 -19 -49 -15
-52 8 -8 67 -7 76 1 4 4 22 6 41 5 18 -2 47 4 64 13 22 11 43 14 67 9 30 -5
40 -2 66 22 44 43 79 108 89 167 5 34 6 3 2 -86 -6 -156 -2 -169 50 -157 72
16 103 51 132 154 25 87 18 263 -14 329 -21 43 -22 50 -8 65 8 9 20 35 26 57
22 81 7 303 -23 350 -7 11 -16 34 -20 52 -6 26 -4 31 11 29 33 -2 48 65 48
226 0 173 -10 198 -48 122z m12 -267 c-9 -46 -14 -54 -23 -42 -17 24 -11 162
10 230 l19 60 3 -95 c2 -52 -2 -121 -9 -153z m-68 -44 c-9 -16 -10 -14 -11 12
0 21 3 26 11 18 8 -8 8 -16 0 -30z m36 -119 c30 -52 44 -270 22 -349 -6 -22
-18 -48 -26 -57 -14 -15 -13 -22 8 -65 34 -71 40 -244 10 -342 -23 -75 -54
-111 -97 -111 l-24 0 3 140 c2 119 0 141 -15 156 -27 27 -48 2 -48 -58 0 -55
-18 -106 -56 -155 -22 -29 -30 -33 -72 -31 -26 1 -61 -5 -79 -12 -27 -12 -34
-12 -48 0 -13 11 -15 23 -10 55 4 22 8 56 11 76 3 32 66 205 80 218 2 3 12 -5
20 -18 27 -38 41 -10 47 97 6 111 21 160 100 324 54 115 70 138 82 118 4 -6
11 -8 16 -4 13 7 39 71 40 98 1 13 6 5 12 -19 7 -22 17 -49 24 -61z m-447
-895 c0 -6 -4 -7 -10 -4 -5 3 -10 11 -10 16 0 6 5 7 10 4 6 -3 10 -11 10 -16z"/>
<path d="M3289 5083 c-6 -15 -15 -80 -19 -144 -10 -120 -4 -165 34 -253 14
-33 14 -37 1 -26 -36 30 -53 -39 -54 -211 -1 -140 1 -143 148 -147 l108 -4 25
31 c20 23 27 27 32 16 3 -8 16 -15 29 -15 13 0 28 -5 34 -11 8 -8 15 -4 26 12
19 26 12 46 -9 28 -12 -9 -11 -4 1 31 23 65 19 120 -13 181 -38 72 -123 189
-133 183 -4 -2 -6 -28 -3 -57 4 -49 3 -47 -21 33 -14 47 -55 143 -90 213 -36
71 -65 134 -65 142 0 27 -20 26 -31 -2z m78 -165 c54 -106 93 -219 93 -268 0
-61 52 -61 65 1 l7 30 19 -25 c69 -88 92 -175 67 -257 -11 -40 -38 -54 -38
-20 0 10 -6 24 -14 30 -16 13 -18 10 -46 -44 -15 -29 -17 -30 -95 -33 -44 -2
-95 0 -112 3 l-33 6 0 98 c0 54 3 119 6 145 l7 47 22 -21 c19 -18 24 -19 34
-6 9 11 7 25 -10 67 -40 101 -47 144 -42 249 3 55 9 100 12 100 3 0 30 -46 58
-102z"/>
<path d="M1927 5094 c-3 -4 1 -17 10 -31 20 -30 41 -16 24 16 -12 21 -23 26
-34 15z"/>
<path d="M7760 5048 c-19 -29 -69 -88 -112 -130 -74 -74 -123 -149 -139 -213
l-7 -30 -1 32 c-1 17 3 43 9 57 18 47 -9 38 -74 -27 -129 -128 -154 -254 -71
-362 30 -40 45 -44 52 -15 7 25 15 25 31 -1 7 -11 33 -29 56 -40 60 -26 236
-20 275 9 26 19 26 21 29 177 1 98 -1 162 -8 169 -7 7 -19 3 -40 -12 l-29 -22
41 76 41 77 1 143 c1 89 -3 147 -10 154 -7 7 -20 -5 -44 -42z m26 -134 c-5
-124 -6 -127 -46 -202 -37 -67 -39 -77 -26 -90 14 -14 17 -14 34 1 10 9 22 17
25 17 4 0 7 -65 7 -144 0 -128 -2 -145 -17 -151 -10 -3 -62 -8 -116 -11 -120
-5 -175 12 -184 57 -9 48 -29 56 -51 20 -16 -27 -21 -29 -31 -17 -7 8 -19 35
-26 59 -23 76 9 179 77 248 l33 33 3 -41 c6 -77 54 -80 68 -4 12 66 62 148
129 212 35 34 76 79 91 101 15 21 29 38 31 38 2 0 1 -57 -1 -126z"/>
<path d="M5984 5076 c-3 -9 -6 -26 -6 -38 0 -13 -1 -113 -1 -223 -3 -430 -1
-465 23 -450 13 8 13 712 0 720 -6 4 -13 -1 -16 -9z"/>
<path d="M1736 5042 c-9 -15 12 -54 25 -47 12 8 11 18 -4 40 -10 12 -16 14
-21 7z"/>
<path d="M8446 5031 c-4 -5 -2 -12 3 -15 5 -4 12 -2 15 3 4 5 2 12 -3 15 -5 4
-12 2 -15 -3z"/>
<path d="M2730 4971 c-7 -14 -7 -22 1 -27 14 -8 43 21 35 35 -11 17 -24 13
-36 -8z"/>
<path d="M8354 4976 c-4 -10 -2 -22 4 -28 8 -8 13 -7 18 6 4 10 2 22 -4 28 -8
8 -13 7 -18 -6z"/>
<path d="M6647 4974 c-11 -11 -8 -62 3 -69 11 -7 18 7 22 44 3 24 -12 38 -25
25z"/>
<path d="M1797 4943 c-4 -6 2 -33 13 -59 15 -34 24 -44 32 -36 6 6 8 22 4 35
-8 34 -41 73 -49 60z"/>
<path d="M1885 4821 c-10 -17 15 -45 29 -31 7 7 5 15 -6 26 -11 11 -18 13 -23
5z"/>
<path d="M2861 4791 c-12 -22 -14 -54 -4 -64 12 -13 33 15 33 44 0 35 -16 46
-29 20z"/>
<path d="M9432 4719 c-29 -11 -20 -29 14 -29 32 0 66 18 59 31 -8 11 -42 11
-73 -2z"/>
<path d="M6126 4711 c-4 -5 -2 -12 3 -15 5 -4 12 -2 15 3 4 5 2 12 -3 15 -5 4
-12 2 -15 -3z"/>
<path d="M7316 4391 c-8 -12 6 -42 29 -61 12 -10 19 -10 27 -2 8 8 3 19 -19
42 -19 19 -33 27 -37 21z"/>
<path d="M4282 4335 c-47 -21 -32 -37 21 -21 42 12 56 29 27 33 -8 1 -30 -4
-48 -12z"/>
<path d="M5982 4283 c-9 -23 -9 -242 0 -266 18 -44 28 2 28 133 0 131 -9 177
-28 133z"/>
<path d="M7296 4261 c-4 -5 -2 -12 3 -15 5 -4 12 -2 15 3 4 5 2 12 -3 15 -5 4
-12 2 -15 -3z"/>
<path d="M6107 4239 c-9 -13 -17 -33 -19 -44 -5 -35 16 -31 37 7 15 28 17 40
8 49 -8 8 -15 5 -26 -12z"/>
<path d="M7806 4251 c-4 -5 -2 -12 3 -15 5 -4 12 -2 15 3 4 5 2 12 -3 15 -5 4
-12 2 -15 -3z"/>
<path d="M5855 4241 c-4 -7 -2 -17 3 -24 6 -7 12 -25 14 -42 4 -40 23 -29 22
13 -2 37 -27 72 -39 53z"/>
<path d="M8255 4220 c-4 -6 -3 -16 3 -22 6 -6 12 -6 17 2 4 6 3 16 -3 22 -6 6
-12 6 -17 -2z"/>
<path d="M9415 4190 c-8 -13 20 -24 41 -16 20 8 9 26 -16 26 -10 0 -22 -5 -25
-10z"/>
<path d="M9215 4181 c-7 -12 12 -24 25 -16 11 7 4 25 -10 25 -5 0 -11 -4 -15
-9z"/>
<path d="M1741 3826 c-13 -13 -19 -26 -14 -29 14 -8 53 12 53 27 0 26 -16 26
-39 2z"/>
<path d="M6126 3771 c-4 -5 -2 -12 3 -15 5 -4 12 -2 15 3 4 5 2 12 -3 15 -5 4
-12 2 -15 -3z"/>
<path d="M5575 3651 c-7 -12 12 -24 25 -16 11 7 4 25 -10 25 -5 0 -11 -4 -15
-9z"/>
<path d="M1506 3641 c-4 -5 -2 -12 3 -15 5 -4 12 -2 15 3 4 5 2 12 -3 15 -5 4
-12 2 -15 -3z"/>
<path d="M5106 3628 c-22 -32 -9 -41 25 -17 16 11 27 25 24 30 -10 16 -33 10
-49 -13z"/>
<path d="M6667 3633 c-13 -12 -7 -58 14 -102 28 -63 42 -41 21 36 -18 65 -25
77 -35 66z"/>
<path d="M8475 3570 c-7 -12 7 -40 33 -63 29 -27 36 -5 11 37 -21 37 -33 44
-44 26z"/>
<path d="M1631 3536 c-9 -10 -6 -17 13 -30 29 -18 42 -6 26 24 -13 23 -23 25
-39 6z"/>
<path d="M9465 3530 c-9 -15 18 -53 54 -79 46 -33 44 -11 -4 42 -26 28 -46 43
-50 37z"/>
<path d="M4896 3441 c-9 -14 12 -112 30 -138 22 -35 34 -19 34 46 0 43 -5 62
-17 73 -28 24 -41 29 -47 19z"/>
<path d="M8338 3437 c-25 -21 -39 -45 -30 -51 5 -3 21 8 36 23 27 28 22 52 -6
28z"/>
<path d="M1215 3386 c-22 -19 -34 -35 -28 -39 6 -4 27 8 48 27 22 19 34 35 28
39 -6 4 -27 -8 -48 -27z"/>
<path d="M9000 3331 c-7 -13 -7 -22 0 -26 13 -8 30 3 30 20 0 23 -18 27 -30 6z"/>
<path d="M8876 3311 c-4 -5 -2 -12 3 -15 5 -4 12 -2 15 3 4 5 2 12 -3 15 -5 4
-12 2 -15 -3z"/>
<path d="M9794 3028 c-8 -13 43 -61 57 -53 15 10 10 20 -20 43 -21 15 -32 18
-37 10z"/>
<path d="M10186 2971 c-4 -5 -2 -12 4 -16 5 -3 10 -3 10 1 0 3 6 1 14 -5 10
-8 16 -9 21 -1 3 5 4 11 1 11 -3 1 -9 2 -13 3 -5 1 -13 5 -20 9 -6 4 -14 3
-17 -2z"/>
<path d="M10255 2949 c-9 -14 104 -64 117 -51 11 11 -9 25 -72 47 -25 9 -42
10 -45 4z"/>
<path d="M1876 2831 c-4 -5 -2 -12 3 -15 5 -4 12 -2 15 3 4 5 2 12 -3 15 -5 4
-12 2 -15 -3z"/>
<path d="M10295 2790 c-12 -19 13 -36 33 -24 9 6 17 15 17 20 0 14 -42 17 -50
4z"/>
<path d="M10176 2771 c-4 -5 -2 -12 3 -15 5 -4 12 -2 15 3 4 5 2 12 -3 15 -5
4 -12 2 -15 -3z"/>
<path d="M10085 2738 c-9 -23 2 -51 17 -46 18 6 20 22 4 43 -14 19 -15 19 -21
3z"/>
<path d="M10535 2680 c-4 -6 -3 -16 3 -22 6 -6 12 -6 17 2 4 6 3 16 -3 22 -6
6 -12 6 -17 -2z"/>
<path d="M5975 2407 c-8 -20 -1 -61 11 -62 13 0 18 55 5 68 -7 7 -12 5 -16 -6z"/>
<path d="M6095 2267 c-8 -20 -1 -61 11 -62 13 0 18 55 5 68 -7 7 -12 5 -16 -6z"/>
<path d="M5977 1884 c-4 -4 -7 -120 -7 -259 0 -195 3 -255 13 -270 8 -10 17
-14 20 -9 6 10 9 171 8 385 -1 85 -5 131 -14 143 -7 9 -16 14 -20 10z"/>
</g>
</svg>
