<?xml version="1.0" encoding="UTF-8" standalone="no"?>
<svg
   version="1.0"
   width="1332.7773pt"
   height="1293.1544pt"
   viewBox="0 0 1332.7773 1293.1544"
   preserveAspectRatio="xMidYMid"
   id="svg21128"
   sodipodi:docname="deer-white.svg"
   xmlns:inkscape="http://www.inkscape.org/namespaces/inkscape"
   xmlns:sodipodi="http://sodipodi.sourceforge.net/DTD/sodipodi-0.dtd"
   xmlns="http://www.w3.org/2000/svg"
   xmlns:svg="http://www.w3.org/2000/svg">
  <defs
     id="defs21132" />
  <sodipodi:namedview
     id="namedview21130"
     pagecolor="#ffffff"
     bordercolor="#000000"
     borderopacity="0.25"
     inkscape:showpageshadow="2"
     inkscape:pageopacity="0.0"
     inkscape:pagecheckerboard="0"
     inkscape:deskcolor="#d1d1d1"
     inkscape:document-units="pt"
     showgrid="false" />
  <metadata
     id="metadata21080">
Created by potrace 1.16, written by Peter Selinger 2001-2019
</metadata>
  <path
     d="m 1177.031,3.3288962 c -1.2801,2.08012 -3.8402,12.6407598 -5.7604,23.6814298 -6.7204,37.76228 -17.921,68.48413 -34.402,93.925674 -16.321,25.28152 -24.8015,31.84192 -40.3225,31.04187 -6.8804,-0.32002 -16.3209,-11.36069 -32.0019,-37.60227 -17.6011,-29.441784 -27.8417,-44.642694 -44.9627,-67.044054 -12.4808,-16.32098 -16.641,-20.32122 -21.44128,-20.32122 -7.2004,0 -2.7202,13.76083 18.72108,59.20357 15.521,32.641974 20.1612,43.522634 26.4016,63.203814 14.4009,44.6427 18.8812,88.32533 13.6008,130.8879 -8.4805,67.8441 -36.0021,122.88742 -86.88518,173.61048 -44.48268,44.16266 -107.20647,84.96512 -131.20792,85.12513 -7.52045,0 -15.52093,-4.16025 -21.12127,-11.04066 -2.72017,-3.04019 -10.24062,-18.72113 -16.96102,-34.56209 -6.72041,-15.84095 -20.48124,-47.52287 -30.56185,-70.40424 -20.16122,-45.44275 -28.32171,-65.60396 -40.64245,-101.28612 -9.60058,-28.00169 -13.92084,-36.32219 -18.2411,-36.32219 -9.76059,0 0.48003,56.96344 25.60154,140.8085 5.76035,19.36116 12.64077,43.52262 15.20092,53.60323 18.2411,71.68433 14.08085,124.16749 -12.96078,165.44999 -5.28032,8.00048 -11.36069,14.88089 -16.96103,19.20116 -4.9603,3.52021 -11.52069,9.12055 -14.88089,12.48075 -4.32026,4.16025 -7.84048,6.08037 -13.1208,6.88041 -8.80053,1.28008 -19.84119,-1.44008 -22.08133,-5.60033 -0.96006,-1.76011 -5.92036,-5.92036 -11.04066,-9.44057 -13.60082,-9.28056 -24.64149,-22.72137 -33.76204,-40.96247 -17.60106,-35.52215 -20.16122,-72.8044 -8.80053,-126.40764 3.84023,-17.76107 10.40063,-40.16242 26.88162,-92.00555 20.16122,-63.84385 31.68191,-121.1273 24.8015,-123.68746 -5.92036,-2.08012 -10.88066,5.44033 -19.68119,29.92181 -13.44081,36.96223 -23.04139,59.36358 -46.72282,108.80656 -9.28056,19.52118 -22.40135,47.68288 -29.28177,62.72378 -18.56112,41.44251 -23.04139,47.68288 -36.96223,51.52311 -30.08181,8.1605 -132.48799,-59.36358 -181.61096,-119.68722 -28.64173,-35.04211 -46.88283,-73.60444 -56.96343,-120.00724 -3.04019,-14.56088 -3.52022,-21.44129 -3.68023,-52.80318 0,-31.68192 0.48003,-38.0823 3.68023,-53.60324 6.7204,-31.5219 16.96102,-59.20357 37.12224,-99.846024 28.48171,-57.28346 31.04187,-64.32389 23.04139,-65.44395 -7.20044,-0.96006 -35.04212,32.64197 -65.92398,79.684814 -10.08061,15.36092 -20.48124,30.72185 -23.2014,34.08205 -5.12031,6.5604 -14.72089,12.32075 -20.80126,12.32075 -6.88041,0 -20.16121,-8.00049 -27.20164,-16.481 C 198.09194,108.61525 182.411,73.253116 173.93048,28.930436 169.2902,4.9289962 167.69011,0.92874622 162.72981,1.7287962 c -10.40063,1.44009 -13.60082,49.2829798 -5.60034,85.9251898 5.76035,26.881624 13.44081,44.802704 36.80222,85.445154 27.20164,47.20285 34.24207,65.12393 54.88331,141.92857 14.08085,51.68312 15.84096,64.6439 10.56064,73.28442 -7.04042,11.04067 -19.04115,14.56088 -39.52238,11.5207 -39.84241,-6.08037 -81.1249,-29.28177 -119.04719,-67.20406 -23.041388,-23.04139 -35.682148,-40.16242 -58.083498,-78.40473 -8.64052,-15.04091 -15.520937,-24.00145 -18.40111,-24.00145 -6.560396,0 -5.600338,10.88066 2.880173,36.00217 13.600817,40.48245 33.602027,76.00459 59.203567,105.92639 32.481958,38.0823 77.924708,62.8838 142.568608,78.08471 31.84192,7.36045 68.0041,19.68119 88.64535,30.24183 30.72185,15.84095 60.48364,36.64221 154.40931,108.16653 45.12273,34.40208 75.20454,61.2837 90.40546,80.80487 25.60154,32.64197 23.36141,45.28274 -11.36069,63.52384 -51.20309,26.88162 -118.88717,34.72209 -184.97116,21.28128 -10.72065,-2.24013 -21.28128,-4.00024 -23.68143,-4.00024 -5.12031,0 -8.48051,3.3602 -7.04042,7.04043 2.56015,6.7204 32.80198,22.24134 53.76324,27.52166 5.60034,1.44008 11.36069,3.20019 12.96078,4.00024 7.20044,4.00024 0.32002,12.64076 -20.48123,25.28152 -50.72306,31.20189 -135.36817,52.64318 -207.21251,52.9632 -40.96247,0 -82.404968,-6.72041 -129.767818,-21.44129 -15.360931,-4.80029 -30.241829,-8.80054 -32.801983,-8.96055 -9.440571,-0.64003 -11.840710960449,0 -11.840710960449,2.88018 0,5.76035 18.401105960449,18.40111 49.602993960449,34.08206 34.08205,17.12103 68.484118,27.68167 106.406408,32.80197 24.32147,3.2002 67.68409,3.2002 91.52553,0 42.40255,-5.60033 92.96561,-21.6013 141.28852,-44.48268 25.44154,-12.00072 65.76397,-29.92181 76.00459,-33.76204 19.36117,-7.36044 41.12248,-14.08085 42.24255,-12.96078 0.48003,0.48003 0.80005,6.72041 0.64004,13.76083 -1.44009,43.68264 -32.48196,82.72499 -82.725,103.84627 -16.16097,6.7204 -17.92108,12.00072 -4.80029,13.76083 14.8809,1.92011 49.12297,-10.72065 68.64415,-25.12152 29.12175,-21.76131 48.32291,-50.88307 59.36358,-90.40545 5.28032,-19.20116 16.48099,-41.60251 20.16122,-40.48245 0.96005,0.32002 1.92011,7.20044 2.24013,16.481 0.80005,27.68167 8.00048,46.56281 23.68143,62.88379 12.80077,13.2808 32.96199,22.24135 35.52214,15.52094 0.64004,-1.28008 -2.24013,-7.04043 -6.24037,-13.12079 -10.24062,-15.68095 -14.72089,-25.28153 -17.92108,-38.72234 -4.9603,-20.80125 -0.48003,-47.52287 11.52069,-68.96416 5.76035,-10.08061 16.96102,-25.44154 18.72113,-25.60155 0.80005,0 12.00072,4.00025 25.12152,8.80054 12.96078,4.80029 25.76155,8.80053 28.1617,8.80053 2.56015,0 14.40086,-4.00024 26.5616,-8.80053 12.00072,-4.80029 22.88138,-8.80054 24.16146,-8.80054 3.52021,0 17.92108,23.0414 23.52142,37.44226 7.04042,18.40111 9.12055,37.12224 5.76034,54.40329 -3.20019,16.16097 -6.7204,24.80149 -16.32098,39.68239 -4.16025,6.08037 -7.20044,12.48075 -6.88042,13.92084 0.80005,4.16025 6.72041,3.84023 15.68095,-0.64004 24.64149,-12.48075 39.8424,-42.88258 40.00241,-79.68481 0,-8.00048 0.64004,-13.92084 1.6001,-13.92084 2.08013,0 8.80053,10.40063 11.84071,18.40112 1.44009,3.52021 5.44033,16.16097 9.12055,28.00168 3.52022,11.84072 10.08061,28.48172 14.40087,36.80223 11.36069,22.08133 32.00193,44.96271 49.76301,55.20333 18.40111,10.56063 28.32171,14.56088 41.92253,16.80101 11.84069,1.92012 18.56109,0.16001 18.56109,-4.48027 0,-2.24013 -3.2002,-4.48027 -11.2006,-8.16049 -42.72263,-19.8412 -69.12422,-50.88307 -76.16465,-89.76542 -2.72016,-15.68095 -2.88017,-28.80174 -0.16001,-28.80174 2.40015,0 28.96175,9.44057 42.72258,15.20092 5.76035,2.24014 27.68167,12.80077 48.80298,23.2014 61.76368,30.40183 76.64458,36.32219 118.24708,47.20285 56.6434,14.56088 122.4074,10.88066 178.5708,-9.9206 25.4415,-9.44057 58.2435,-27.52166 77.2846,-42.40256 10.7207,-8.48051 5.9204,-14.72089 -8.6405,-10.88066 -3.8402,0.96006 -18.8811,5.60034 -33.442,10.40063 -78.2447,25.60155 -148.809,25.92157 -230.4139,1.28008 -39.3624,-11.84071 -82.88498,-34.24207 -95.04568,-48.48293 -7.3605,-8.80053 -5.9204,-10.72064 11.8407,-15.84095 24.0014,-7.04043 49.60298,-22.40135 49.60298,-29.44178 0,-4.80029 -5.2803,-5.92036 -16.9611,-3.3602 -6.08028,1.28008 -16.00088,3.52021 -22.24128,4.80029 -18.2411,4.00024 -63.84385,4.80029 -84.80511,1.60009 -28.80174,-4.48027 -47.52287,-10.0806 -67.20406,-19.84119 -24.80149,-12.32075 -37.60227,-24.16146 -37.60227,-34.56209 0,-18.88114 32.32195,-57.28345 84.80512,-101.1261 142.5686,-118.72717 160.3297,-129.92784 240.3345,-151.68916 39.8424,-10.88065 59.3636,-18.72112 85.1251,-34.24206 47.6829,-28.64173 90.4055,-92.8056 108.1665,-162.56981 4.6403,-18.40111 4.6403,-23.36141 -0.16,-23.36141 -3.5202,0 -12.0007,12.32074 -23.6814,34.40208 -34.7221,65.92397 -90.7255,116.64704 -145.7688,131.84795 -32.1619,8.96054 -50.8831,1.76011 -52.4832,-20.16121 -0.48,-7.68047 1.7602,-18.56112 12.4808,-61.2837 20.0012,-79.5248 24.3215,-91.68553 52.1631,-144.00869 23.6815,-44.80271 31.842,-67.68409 35.8422,-99.205994 3.0402,-25.60154 1.1201,-57.12345 -4.1602,-67.6840798 -2.8802,-5.28032 -4.6403,-5.44033 -7.6805,-0.80005 z"
     id="path21082"
     style="fill:#ffffff;stroke:none;stroke-width:0.16001"
     inkscape:export-filename="../../../../Downloads/deer-black-update.svg"
     inkscape:export-xdpi="96"
     inkscape:export-ydpi="96" />
  <g
     id="g21478"
     transform="translate(82.474678,508.74752)">
    <path
       d="m 774.8,675.4 c -8.7,2.1 -12.6,4.1 -9.7,4.9 7.4,2.1 7.4,2.1 7.2,6.2 -0.1,2.2 -4.4,18.4 -9.6,36 -6.6,22 -9.1,32.2 -8.4,32.6 0.7,0.3 3.6,0.4 6.5,0.1 4,-0.3 5.2,-0.8 5.2,-2 0,-1 1.5,-5.3 3.3,-9.8 7.8,-19.1 24.7,-39.7 24.7,-30 0,1.4 -2,8.8 -4.5,16.7 -5.3,16.8 -6.3,22.6 -4.2,25.3 2.2,3 7.7,2.6 12.7,-0.9 5.5,-3.8 11.4,-11 10.6,-13 -0.8,-2.3 -1.9,-1.9 -7,2.6 -3.1,2.7 -4.6,3.6 -4.6,2.5 0,-0.9 2.1,-8 4.6,-15.8 2.5,-7.9 4.8,-16.8 5.1,-19.9 0.5,-5.2 0.4,-5.7 -2.2,-7.7 -3.4,-2.7 -5.8,-2.7 -11,-0.3 -3.8,1.7 -13,10.7 -16.7,16.1 -1.9,2.8 -1.9,2.9 6.6,-26.3 2.5,-8.7 4.6,-16.7 4.6,-17.7 0,-2.5 -1.8,-2.5 -13.2,0.4 z"
       id="path21084"
       style="fill:#ffffff;stroke:none;stroke-width:0.1" />
    <path
       d="m 947.5,674.6 c -10.7,2.5 -13.6,3.5 -13.2,4.7 0.2,0.6 1.8,1.4 3.6,1.8 1.8,0.4 3.8,1.2 4.4,1.8 1.3,1.3 1.7,-0.3 -9.7,38.9 -4.2,14.4 -7.6,27.8 -7.6,29.7 0,5.1 3.6,7.2 9.3,5.5 5.1,-1.5 15.7,-11.5 15.7,-14.8 0,-3.1 -1.2,-2.8 -6.7,2 -3.6,3.1 -4.9,3.7 -5.1,2.5 -0.2,-0.8 4.2,-16.9 9.7,-35.7 5.6,-18.8 10.1,-35 10.1,-36.1 0,-2.3 -1.8,-2.3 -10.5,-0.3 z"
       id="path21086"
       style="fill:#ffffff;stroke:none;stroke-width:0.1" />
    <path
       d="m 19.8,675.7 c -5.3,0.5 -6.4,1.5 -7.6,6.9 -0.8,3.9 -1,4 -9.2,7.8 l -2.5,1.2 -0.3,30.7 c -0.1,20.1 0.1,31.5 0.8,32.7 0.9,1.6 2.1,2 6.3,2 2.9,0 5.9,-0.5 6.7,-1 1.3,-0.8 1.6,-5.7 2,-31 0.6,-35.5 -0.3,-33 12.6,-33 6.4,0 8.5,0.4 9.5,1.6 1,1.2 1.5,6 1.9,16 0.3,7.8 0.8,14.6 1.2,15 0.4,0.4 3,0.9 5.6,1.2 3.6,0.3 5.6,0 7.6,-1.3 L 57,722.8 V 709 c 0,-17.1 0,-17 10.9,-17 12.4,0 11.5,-2.3 12.1,33 0.4,25.3 0.7,30.2 2,31 0.8,0.5 3.8,1 6.7,1 4.2,0 5.4,-0.4 6.3,-1.9 0.6,-1.2 1,-13.3 1,-32.4 0,-33.5 0.3,-31.6 -6.5,-33.9 -3.4,-1.1 -4.1,-1.9 -5.2,-5.7 -2.4,-8.5 -1,-8.1 -32.2,-7.9 -15.2,0.1 -29.7,0.3 -32.3,0.5 z"
       id="path21088"
       style="fill:#ffffff;stroke:none;stroke-width:0.1" />
    <path
       d="m 123.5,675.9 c -4.4,0.5 -5.1,0.9 -5.9,3.6 -2.1,7.2 -2.8,8.1 -6.9,10 -2.7,1.3 -4.4,2.9 -4.8,4.5 -0.4,1.4 -0.7,15.2 -0.8,30.7 -0.1,27 0,28.4 1.9,30.3 1.4,1.4 3.3,2 6.3,2 7.6,0 8,-0.8 8.8,-17 0.5,-8.1 1.3,-14.8 1.9,-15.4 0.7,-0.7 7.7,-1.1 20.6,-1.1 18.2,0 19.7,0.1 21,1.9 1,1.5 1.4,5.3 1.4,14.5 0,6.9 0.4,13.1 0.8,13.7 1.3,2 5,3.4 8.9,3.4 7.1,0 6.8,1.5 7.1,-33.1 0.2,-20.9 -0.1,-31.6 -0.8,-32.3 -0.6,-0.6 -2.9,-1.7 -5.2,-2.6 -3.3,-1.2 -4.5,-2.3 -5.1,-4.5 -2.1,-7.3 -2.9,-8 -9.2,-8.6 -7.4,-0.8 -33.2,-0.8 -40,0 z m 41.9,18.3 c 1.9,2.7 2.1,11.1 0.3,12.6 -2,1.7 -39.2,1.9 -41.2,0.2 -2.1,-1.7 -2.1,-11.3 0.1,-13.4 1.3,-1.3 4.6,-1.6 20.4,-1.6 18.4,0 18.9,0.1 20.4,2.2 z"
       id="path21090"
       style="fill:#ffffff;stroke:none;stroke-width:0.1" />
    <path
       d="m 209,675.8 c -3.9,0.6 -4.6,1.1 -5.3,3.7 -1.7,5.7 -3.3,8 -6.7,9.6 -1.8,0.9 -3.7,2.5 -4.1,3.5 -0.4,1.1 -0.8,14.7 -0.8,30.4 -0.1,33.5 -0.1,33.4 7.6,33.8 4.2,0.2 5.6,-0.1 7.2,-1.7 1.9,-1.9 2.1,-3.3 2.1,-16 v -13.9 l 3.1,-1.1 c 4,-1.4 24.2,-1.4 29,-0.1 2.3,0.7 5.6,3.1 9.1,6.8 l 5.5,5.7 0.6,9 c 0.5,6.8 1,9.3 2.4,10.2 2.5,1.9 9.7,1.6 12.2,-0.4 2,-1.7 2.2,-2.6 1.9,-13.7 l -0.3,-12 -6,-4.1 c -5.4,-3.6 -6,-4.4 -6,-7.5 0,-3.3 0.4,-3.7 6.3,-6.8 l 6.2,-3.3 V 700 c 0,-8.5 0,-8.6 -6.5,-11 -3.4,-1.3 -4.2,-2.2 -5.5,-6.2 -0.8,-2.6 -2,-5.2 -2.6,-5.8 -1.3,-1.3 -42,-2.3 -49.4,-1.2 z m 45.4,18.1 c 1.3,1.4 1.6,3.3 1.4,7.2 -0.3,4.7 -0.6,5.4 -2.8,6 -1.4,0.4 -10.9,0.7 -21.1,0.8 -22.1,0.1 -22.5,0 -22.2,-8 0.2,-7.9 0.3,-7.9 23.3,-7.9 18,0 19.8,0.2 21.4,1.9 z"
       id="path21092"
       style="fill:#ffffff;stroke:none;stroke-width:0.1" />
    <path
       d="m 286.5,675.9 c -4.7,0.6 -5,0.8 -5.7,4.1 -0.4,1.9 -0.3,5.1 0.3,7.1 0.8,3.4 1.2,3.7 5.5,4.3 2.6,0.3 10.4,0.6 17.5,0.6 12.9,0 17.9,0.9 17.9,3.2 0,0.7 -9.1,10.3 -20.4,21.3 l -20.4,20 -0.7,8 c -1,12.8 -3.3,11.9 33.2,12.3 30.6,0.3 30.8,0.3 32.5,-1.8 2.3,-2.8 2.4,-10.3 0.2,-12.4 -1.3,-1.4 -4.7,-1.6 -21.3,-1.6 -18.8,0 -19.9,-0.1 -21.7,-2.1 -1.8,-2 -1.8,-2.1 8.1,-11.6 19.5,-18.6 22.7,-21 28.7,-21.8 7.8,-1 9.8,-2.6 9.8,-7.8 0,-5.5 -0.9,-6.7 -6.2,-8.7 -3.9,-1.4 -4.4,-2 -5.5,-6.4 -0.7,-2.7 -1.7,-5.4 -2.3,-6 -1.2,-1.2 -41.2,-1.8 -49.5,-0.7 z"
       id="path21094"
       style="fill:#ffffff;stroke:none;stroke-width:0.1" />
    <path
       d="m 356.8,676.1 -2.8,1.1 v 38.1 c 0,21 0.4,38.8 0.9,39.5 0.5,0.9 2.8,1.2 7.7,1 l 6.9,-0.3 0.6,-6.5 c 0.4,-3.6 0.7,-20.7 0.8,-38.1 0.1,-23.8 -0.2,-31.9 -1.1,-33.2 -1.6,-2.1 -9.3,-3 -13,-1.6 z"
       id="path21096"
       style="fill:#ffffff;stroke:none;stroke-width:0.1" />
    <path
       d="m 394.5,675.7 c -3.2,0.8 -4.2,2.1 -5.4,6.8 -1,3.9 -1.7,4.7 -5.9,6.7 l -4.7,2.3 -0.3,30.8 c -0.1,20.1 0.1,31.5 0.8,32.7 0.9,1.6 2.1,2 6.4,2 7.9,0 8.3,-0.8 8.8,-17.1 0.2,-9.5 0.8,-14.1 1.7,-15.3 2,-2.4 38.2,-2.4 40.2,0 0.8,1 1.4,6.1 1.7,15.5 0.5,15.9 1,16.9 8.7,16.9 8.2,0 8,0.7 8.3,-30.2 0.2,-15 0.1,-29.1 -0.3,-31.4 -0.5,-3.7 -1,-4.3 -5.7,-6.5 -4.7,-2.2 -5.4,-2.9 -6.8,-7.4 -1.5,-4.8 -1.6,-5 -6,-5.7 -5.1,-0.7 -38.5,-0.8 -41.5,-0.1 z m 40.7,18 c 1.3,1.1 1.8,3 1.8,6.5 0,8.8 0.1,8.8 -16.8,8.7 -8.1,0 -16.7,-0.4 -19.2,-0.7 l -4.5,-0.7 -0.3,-6.5 c -0.2,-5.2 0,-6.7 1.4,-7.7 1.3,-0.9 6.6,-1.3 18.8,-1.3 14.4,0 17.2,0.3 18.8,1.7 z"
       id="path21098"
       style="fill:#ffffff;stroke:none;stroke-width:0.1" />
    <path
       d="m 467,675.8 -2.5,0.8 -0.3,32.3 c -0.1,22.1 0.1,32.8 0.9,33.7 0.6,0.7 2.3,1.6 3.9,1.9 3.5,0.8 5.2,2.7 6.5,7.4 1.3,4.6 2.6,4.9 21,5 18.9,0.1 19.9,-0.3 20.3,-8.1 0.4,-8.5 -0.1,-8.8 -17.1,-8.8 -7.8,0 -15.2,-0.3 -16.4,-0.6 l -2.3,-0.6 v -30.3 c 0,-25.7 -0.2,-30.4 -1.5,-31.5 -1.8,-1.5 -9.1,-2.2 -12.5,-1.2 z"
       id="path21100"
       style="fill:#ffffff;stroke:none;stroke-width:0.1" />
    <path
       d="m 545,675.7 c -3,0.2 -5.9,0.8 -6.4,1.3 -0.5,0.5 -1.6,3.1 -2.5,5.7 -1.4,4.2 -2.1,5 -5.9,6.4 -2.4,0.8 -4.8,2.2 -5.3,3 -0.5,0.8 -0.9,12.5 -0.9,26 v 24.5 l 5.5,1.8 c 5.1,1.6 5.5,2 6.6,5.9 0.7,2.3 1.9,4.8 2.8,5.4 1.1,1 7.2,1.3 23.5,1.2 12.2,-0.1 23.2,-0.4 24.6,-0.8 1.9,-0.5 2.6,-1.5 3.1,-4.6 0.7,-4.3 2.6,-6.1 8,-7.5 4.9,-1.4 6.2,-3.2 6.1,-8.7 0,-5.8 -1.8,-7.3 -8.2,-7.3 -5.3,0 -8,2.1 -8,6.3 0,2.9 -2.1,5.4 -5.4,6.3 -1.2,0.3 -10.4,0.4 -20.4,0.2 -13.2,-0.2 -18.5,-0.7 -19.4,-1.6 -1.7,-1.7 -1.7,-12.7 0,-14.4 0.9,-0.9 6.2,-1.3 18,-1.6 18.6,-0.4 19.2,-0.6 19.2,-7.2 0,-7.1 -0.8,-7.4 -20,-8 -13.7,-0.4 -17.3,-0.8 -18.1,-2 -1.5,-2.2 -0.1,-11.3 1.9,-12.8 2.2,-1.7 40.5,-1.3 42.2,0.4 0.6,0.6 1.3,2.8 1.7,5 0.8,5.7 2.8,7.4 8.3,7.4 6.4,0 7.9,-1.4 8.2,-7.4 0.1,-4.2 -0.2,-5.2 -2.6,-7.3 -1.5,-1.2 -3.5,-2.3 -4.5,-2.3 -2.3,0 -5.7,-3.8 -6.5,-7.3 -0.4,-1.5 -1.5,-3.6 -2.6,-4.7 -1.9,-1.9 -3.3,-2 -19.7,-1.8 -9.8,0.1 -20.3,0.3 -23.3,0.5 z"
       id="path21102"
       style="fill:#ffffff;stroke:none;stroke-width:0.1" />
    <path
       d="m 625.5,682.1 c -3,6.9 -3.8,12.4 -1.6,12.4 0.7,0 3.2,-2.5 5.5,-5.5 4.8,-6.3 8.2,-7.9 16.9,-7.9 5.1,-0.1 5.8,0.1 5.3,1.6 -0.3,1 -4.4,15.5 -9.1,32.3 -4.8,16.8 -9.4,31.6 -10.4,32.9 -1,1.5 -3.4,2.9 -6.2,3.5 -2.8,0.7 -4.4,1.7 -4.4,2.6 0,2.3 33.6,2.8 35.5,0.5 1,-1.2 1,-1.5 -0.1,-1.9 -5.5,-1.5 -7.3,-2.3 -8.2,-3.8 -0.8,-1.2 0.7,-8.3 6.6,-29.5 4.2,-15.3 8.4,-30.2 9.3,-33.1 l 1.6,-5.2 h 6.9 c 9.1,0 11.1,1.8 12.1,11 0.5,4.7 3.2,2.8 5,-3.5 2.4,-8.6 2.3,-11.1 -0.4,-11.9 -1.3,-0.3 -15.6,-0.6 -31.9,-0.6 h -29.6 z"
       id="path21104"
       style="fill:#ffffff;stroke:none;stroke-width:0.1" />
    <path
       d="m 1077.8,678.1 c -2.2,1.2 -3.3,7.1 -1.9,9.8 1.6,2.9 8.3,2.9 11.1,0.1 2.4,-2.4 2.6,-7.2 0.4,-9.4 -1.7,-1.8 -7,-2.1 -9.6,-0.5 z"
       id="path21106"
       style="fill:#ffffff;stroke:none;stroke-width:0.1" />
    <path
       d="m 697.4,702 c -11.3,2.6 -24.5,19.2 -27.2,34 -3.3,18.1 8.3,26.8 24.6,18.6 5.1,-2.6 12.2,-9.6 12.2,-12.1 0,-2.4 -3,-1.7 -6.8,1.6 -3.4,3 -8.9,5.9 -11.2,5.9 -0.6,0 -2.2,-1.1 -3.5,-2.5 -2.1,-2 -2.5,-3.4 -2.5,-7.9 v -5.4 l 5.3,-1.7 c 8.7,-2.9 18.6,-8.6 22.3,-12.8 2.8,-3.4 3.4,-4.9 3.4,-8.7 0,-5.8 -1.5,-7.9 -6.5,-9 -4.6,-1.1 -5.8,-1.1 -10.1,0 z m 5.6,5.5 c 1.9,2.3 -1.3,9.6 -6.2,14 -4,3.7 -10.5,7.1 -11.6,6.1 -0.6,-0.7 5.2,-12.4 7.6,-15.1 2.1,-2.5 7.2,-6.5 8.2,-6.5 0.4,0 1.3,0.7 2,1.5 z"
       id="path21108"
       style="fill:#ffffff;stroke:none;stroke-width:0.1" />
    <path
       d="m 827.4,702.9 c -4,1.8 -13.4,11.5 -13.4,13.8 0,2.3 1.8,2.3 4.7,0 7.1,-5.7 6.7,-5.6 5.9,-1.2 -0.4,2.2 -3,11.7 -5.7,21.1 -2.7,9.4 -4.9,17.6 -4.9,18.3 0,1.2 8.8,1.5 10.6,0.3 0.6,-0.4 1.7,-2.5 2.4,-4.7 1.7,-5.2 8.3,-18.6 12.6,-25.3 6.8,-10.5 15.4,-17.7 15.4,-12.8 0,0.8 -2.3,8.8 -5,17.8 -6.5,21 -6.8,23 -4.1,25.7 4.1,4.1 10.5,1.8 18.1,-6.6 4.7,-5.1 6.4,-9.3 3.9,-9.3 -0.7,0 -3.2,1.8 -5.6,4.1 -2.5,2.2 -4.7,3.9 -4.9,3.6 -0.3,-0.3 1.8,-7.6 4.6,-16.3 6.3,-19.8 7.1,-25.1 4,-27.9 -6.5,-5.8 -19.8,1.6 -29.1,16.3 -1.6,2.5 -2.9,4.4 -2.9,4.1 0,-0.2 0.9,-3.6 2,-7.4 2.5,-8.7 2.5,-11.7 0.2,-13.8 -2.3,-2.1 -3.7,-2.1 -8.8,0.2 z"
       id="path21110"
       style="fill:#ffffff;stroke:none;stroke-width:0.1" />
    <path
       d="m 896.8,702.5 c -6.6,2.1 -15,10.1 -18.8,17.8 -3.5,7.2 -6.3,19.5 -5.4,23.5 1.4,5.7 4.5,10.3 7.9,11.8 5.3,2.2 17,1.8 22.2,-0.7 5.4,-2.6 12,-9.9 15.6,-17.2 4.8,-9.8 5.4,-24 1.3,-30.2 -3.4,-5.2 -14.5,-7.6 -22.8,-5 z M 908,708 c 2.5,2.5 2.7,10.5 0.5,19.8 -5.5,23.3 -22.5,34.8 -22.5,15.2 0,-12 6,-28.2 12.5,-33.9 4.1,-3.6 6.7,-3.9 9.5,-1.1 z"
       id="path21112"
       style="fill:#ffffff;stroke:none;stroke-width:0.1" />
    <path
       d="m 1072.3,703.1 c -4.1,2 -14.3,11.8 -14.3,13.8 0,2.4 2.1,1.9 6.1,-1.5 2.4,-2 4.5,-3.1 4.7,-2.6 0.2,0.6 -2.2,8.6 -5.3,17.8 -6.5,19.4 -7,25.2 -2.3,26.8 3.9,1.4 8.3,-0.8 15.6,-7.8 6,-5.7 7.9,-9.6 4.7,-9.6 -0.9,0 -3.6,1.9 -6,4.1 -3.2,3 -4.5,3.7 -4.5,2.5 0,-0.9 2.7,-9.7 6,-19.4 6.4,-18.9 6.9,-22.1 4.4,-24.6 -2.1,-2.1 -4.1,-2 -9.1,0.5 z"
       id="path21114"
       style="fill:#ffffff;stroke:none;stroke-width:0.1" />
    <path
       d="m 1148.7,702.4 c -5.9,1.6 -9.4,4.8 -10.7,9.7 -1.6,5.8 0.1,10.6 8.4,24.3 2.1,3.5 3.6,7.3 3.6,9.1 0,5.5 -7.4,10.2 -11.4,7.2 -1,-0.7 -2.4,-3.5 -3.1,-6.2 -1.4,-5.6 -3.5,-7.6 -6.2,-5.9 -1.4,0.9 -1.8,2.5 -1.8,6.9 0,5.2 0.3,6 2.8,7.9 2.3,1.7 4.3,2.1 10.5,2.1 13.4,-0.1 20.7,-5.9 20.7,-16.5 0,-5 -0.6,-6.6 -6.2,-16 -6.6,-10.9 -7.5,-14.6 -4.5,-17.3 3.9,-3.5 8.3,-1.5 10.7,4.8 1.4,3.5 2.3,4.5 4,4.5 2.6,0 4.5,-3.6 4.5,-8.5 0,-2.7 -0.6,-3.7 -2.8,-4.9 -4.1,-2.1 -13,-2.7 -18.5,-1.2 z"
       id="path21116"
       style="fill:#ffffff;stroke:none;stroke-width:0.1" />
    <path
       d="m 736.1,703.7 c -5.1,2.5 -13.2,10.5 -16.8,16.4 -3.8,6.3 -6.3,15.3 -6.3,22.4 0,11.2 9.2,17.7 20.6,14.6 5.3,-1.4 17.1,-11.9 16.1,-14.4 -0.8,-2.2 -3,-1.3 -8.2,3 -4.7,4 -7.8,5 -11.1,3.4 -4.5,-2 -5.5,-8.4 -2.9,-18.5 3.2,-12.1 10.6,-23.6 15.3,-23.6 1.5,0 2.8,1.2 4.2,3.9 2.2,4.4 4.9,5.8 8,4.1 1.9,-1 4,-4.7 4,-7.1 0,-0.5 -1.1,-2.1 -2.5,-3.4 -2.1,-2.2 -3.3,-2.5 -9.7,-2.5 -4.7,0 -8.5,0.6 -10.7,1.7 z"
       id="path21118"
       style="fill:#ffffff;stroke:none;stroke-width:0.1" />
    <path
       d="m 976.5,703.4 c -15.5,7 -26,32 -19.5,46.4 4.8,10.6 22.4,11 33.8,0.7 8.9,-8 13.3,-18 13.4,-30.5 0,-13.5 -4.3,-18 -17.2,-18 -4.1,0.1 -8.8,0.7 -10.5,1.4 z m 14,5.7 c 5.3,10.2 -4.1,38 -14.6,43.5 -2.8,1.4 -3.1,1.3 -5.5,-1.1 -2.5,-2.5 -2.6,-3.1 -2.1,-10.3 0.9,-13.8 7.5,-29.1 14.5,-33.9 3.9,-2.6 5.7,-2.1 7.7,1.8 z"
       id="path21120"
       style="fill:#ffffff;stroke:none;stroke-width:0.1" />
    <path
       d="m 1026,703.5 c -8.6,3.9 -13.4,11.7 -13.5,21.9 0,6.7 0.1,6.9 3.8,10.1 3.5,3 3.7,3.4 1.8,4 -1.1,0.3 -3.4,1.9 -5,3.5 -3.7,3.4 -4.1,7.5 -1.1,11.3 l 2.1,2.6 -4.8,2.1 c -2.6,1.1 -6.2,3.2 -8,4.6 -2.9,2.2 -3.3,3 -3.3,7.3 0,9.6 7,13.7 23,13.5 14.2,-0.2 23.5,-4.5 26,-12 2.7,-8.1 -0.4,-12.5 -15.3,-21.4 -5.1,-3 -9.2,-6.2 -9.2,-7 0,-1.4 3,-2.8 14,-6.6 9.7,-3.3 16.3,-13.3 15.3,-23.3 l -0.4,-4.1 h 3.6 c 3.9,0 6,-1.4 6,-4.1 0,-2.5 -1.8,-2.8 -17.3,-3.4 -11.7,-0.5 -14.8,-0.3 -17.7,1 z m 13.1,4.7 c 2.5,4.7 -1.2,19.1 -6.3,24.5 -4.7,5 -9.4,2 -8.5,-5.5 1.7,-14.3 10.9,-26.2 14.8,-19 z m -10.9,55.5 c 8.7,4.5 10.5,6.5 9,9.9 -1.5,3.1 -8.3,6.3 -13.4,6.4 -5.6,0 -11.6,-2.8 -13.4,-6.2 -2.1,-4 -1.2,-6.9 3.3,-11.3 4.2,-4 4.4,-4 14.5,1.2 z"
       id="path21122"
       style="fill:#ffffff;stroke:none;stroke-width:0.1" />
    <path
       d="m 1108.7,704.6 c -12.9,6.7 -22.7,23.4 -22.7,38.5 0,5.6 0.3,6.3 3.9,10.2 3.8,4 4.2,4.2 9.8,4.1 7,0 12.9,-2.7 19.1,-8.7 7.6,-7.4 4.4,-10.9 -3.4,-3.7 -3.5,3.2 -5.1,4 -8.2,4 -5.5,0 -7.4,-1.8 -7.9,-7.7 -0.6,-6.2 0.4,-7.4 9.1,-10.3 8.2,-2.7 18,-9 20.6,-13.2 3,-4.9 2.7,-11.1 -0.6,-13.7 -3.9,-3.1 -13.3,-2.8 -19.7,0.5 z m 10.7,6.5 c -0.1,4.9 -2.9,8.6 -9.8,13.1 -8.7,5.6 -9.3,5.1 -4.9,-3.8 4,-8.2 9,-13.6 12.2,-13.2 2.3,0.3 2.6,0.7 2.5,3.9 z"
       id="path21124"
       style="fill:#ffffff;stroke:none;stroke-width:0.1" />
</g>
</svg>
