<svg xmlns="http://www.w3.org/2000/svg" viewBox="0 0 1200 800" preserveAspectRatio="xMidYMid meet" role="img" aria-label="Angel silhouette">
<g transform="translate(0,800) scale(0.1,-0.1)" fill="currentColor" stroke="none">
<path d="M5721 7500 c-23 -99 -25 -240 -6 -345 10 -52 21 -95 25 -95 11 0 30
74 42 164 12 96 -2 225 -31 291 l-18 40 -12 -55z"/>
<path d="M5341 7363 c22 -116 73 -227 139 -303 l39 -45 1 30 c0 78 -101 288
-169 349 -18 16 -18 15 -10 -31z"/>
<path d="M6101 7353 c-55 -64 -107 -172 -125 -258 -13 -61 -14 -88 -3 -74 54
66 91 121 115 171 31 67 69 195 60 204 -3 3 -24 -17 -47 -43z"/>
<path d="M6451 7209 c-123 -77 -221 -175 -286 -287 -18 -32 151 75 222 141 47
43 159 185 151 192 -2 2 -41 -18 -87 -46z"/>
<path d="M4950 7244 c0 -15 134 -174 179 -211 61 -52 180 -128 188 -120 9 10
-83 132 -139 182 -46 42 -209 155 -223 155 -3 0 -5 -3 -5 -6z"/>
<path d="M5710 6859 c-14 -6 -41 -8 -60 -5 -76 12 -159 -31 -207 -107 -14 -23
-45 -63 -69 -89 -46 -50 -47 -52 -48 -161 l-1 -69 -68 -64 -67 -64 -91 0
c-128 0 -155 -17 -219 -138 -32 -61 -40 -68 -85 -85 -50 -18 -50 -18 -67 3
-30 37 -23 58 19 62 l36 3 -71 53 c-40 29 -102 87 -139 128 -74 81 -154 142
-224 171 -68 28 -200 25 -259 -5 -52 -28 -103 -73 -131 -119 -12 -18 -24 -33
-28 -33 -5 0 -43 33 -84 74 l-77 74 -112 31 c-62 17 -126 31 -142 31 -27 0
-28 -2 -22 -31 3 -17 19 -51 36 -75 l30 -45 -26 -9 c-15 -6 -67 -13 -118 -16
-123 -7 -153 -12 -170 -30 -23 -23 -10 -41 68 -93 153 -103 207 -119 361 -102
85 9 93 8 143 -15 30 -13 83 -44 119 -69 49 -34 68 -43 78 -35 17 14 51 93 66
155 6 28 15 54 19 58 7 8 82 -29 441 -217 160 -83 199 -97 334 -120 152 -25
215 -28 340 -16 92 8 144 8 220 -1 89 -11 104 -10 133 5 28 14 32 22 32 56 0
30 -9 51 -37 87 -66 87 -92 173 -75 248 l9 40 12 -45 c55 -208 154 -282 284
-216 26 13 47 20 47 15 0 -4 -17 -26 -38 -48 -26 -27 -53 -44 -85 -53 -26 -6
-47 -17 -47 -23 0 -42 -24 -88 -56 -107 -19 -11 -33 -25 -32 -30 9 -27 227
-121 309 -133 25 -4 63 -2 86 4 42 12 123 64 123 81 0 5 -26 22 -57 37 l-58
28 -3 100 c-2 55 0 137 3 183 6 70 10 83 23 80 14 -3 19 -22 25 -98 4 -52 11
-121 15 -154 l7 -58 110 -39 c152 -53 223 -90 277 -144 60 -61 97 -139 143
-300 20 -71 54 -186 75 -255 21 -69 49 -163 64 -210 22 -73 34 -95 87 -155 53
-61 158 -188 239 -289 13 -17 65 -81 116 -141 106 -129 114 -142 114 -189 0
-35 26 -75 149 -226 24 -30 55 -77 67 -105 26 -57 54 -185 54 -245 0 -34 -3
-40 -20 -40 -36 0 -97 38 -138 86 -31 36 -44 45 -54 37 -7 -6 -25 -13 -39 -16
-32 -8 -77 24 -132 94 -46 58 -64 100 -73 167 -6 50 -9 53 -68 92 -33 22 -74
50 -89 62 l-28 23 -42 -24 c-158 -90 -190 -103 -235 -96 l-44 7 18 -32 c37
-62 60 -75 129 -73 l63 1 12 -46 c53 -218 158 -347 314 -391 22 -6 41 -9 43
-7 2 2 -14 37 -36 77 -38 72 -88 215 -78 225 5 6 52 -67 163 -254 97 -161 161
-248 230 -311 53 -49 179 -120 190 -108 4 3 -13 78 -35 167 -23 89 -40 167
-38 173 2 7 52 -85 110 -203 134 -276 212 -381 342 -459 57 -34 94 -45 113
-33 10 7 5 23 -23 70 -60 103 -147 324 -132 338 5 5 78 -104 198 -296 124
-200 235 -308 399 -390 65 -33 170 -73 170 -65 0 2 -26 44 -59 92 -198 299
-414 691 -500 913 -17 41 -43 107 -59 145 -86 208 -225 618 -316 935 -196 682
-260 886 -349 1116 -164 420 -310 595 -532 636 -53 9 -79 9 -128 -1 -106 -22
-131 -39 -250 -173 -53 -60 -83 -85 -139 -112 -39 -20 -73 -35 -74 -33 -2 2 9
32 23 67 21 50 27 82 28 140 0 99 -24 159 -90 230 -65 69 -70 79 -84 167 -17
113 -44 173 -111 245 -84 93 -166 132 -280 135 -47 2 -96 -2 -110 -8z m-85
-141 c-4 -13 -39 -53 -78 -89 l-70 -67 -7 -99 c-11 -153 -52 -228 -154 -280
-45 -23 -59 -25 -133 -21 -118 6 -128 24 -16 30 101 5 151 26 201 83 53 60 64
90 64 179 0 101 20 148 85 198 27 20 61 50 77 67 33 34 41 34 31 -1z m210 -73
c92 -38 174 -87 205 -120 l25 -27 -43 17 c-24 10 -44 16 -46 14 -6 -7 25 -113
39 -136 9 -12 41 -39 73 -59 31 -20 68 -46 80 -58 70 -63 86 -178 39 -276
l-26 -55 6 50 c20 147 -3 201 -115 274 -88 57 -107 84 -141 198 -24 81 -41 98
-148 152 -66 33 -93 61 -93 99 0 24 1 24 38 -10 20 -18 69 -47 107 -63z
m-2160 -214 c97 -44 137 -101 106 -150 -7 -11 -10 -9 -16 8 -10 34 -52 78
-116 122 -85 60 -77 66 26 20z m1281 -349 c-26 -51 -62 -72 -120 -71 l-51 0
54 19 c31 10 69 33 89 54 42 41 50 40 28 -2z m2024 -187 c57 -28 104 -67 121
-98 9 -15 3 -14 -39 7 -28 14 -79 33 -114 41 -91 23 -134 10 -206 -61 -74 -72
-135 -83 -193 -34 l-24 19 33 1 c51 0 100 28 132 75 61 89 174 108 290 50z
m273 -467 c19 -24 49 -72 67 -108 18 -35 59 -92 91 -126 53 -55 62 -70 83
-145 23 -80 46 -207 46 -246 -1 -10 -32 45 -69 122 -38 77 -82 156 -99 175
l-31 35 -1 -32 c0 -44 -23 -64 -63 -56 -58 11 -121 50 -181 112 -57 60 -59 61
-73 42 -8 -12 -18 -21 -22 -21 -22 0 -107 69 -142 115 -48 63 -50 77 -6 38 50
-44 106 -76 122 -69 22 8 19 82 -5 134 -21 47 -20 49 21 25 18 -11 45 -49 75
-106 28 -52 63 -102 86 -121 41 -35 109 -63 127 -52 28 18 3 144 -50 248 -16
32 -29 62 -29 68 0 21 20 9 53 -32z m-223 -440 c74 -146 194 -298 235 -298 21
0 35 41 35 106 0 30 4 54 9 54 13 0 46 -76 61 -137 20 -87 111 -218 285 -410
31 -35 53 -63 48 -63 -15 1 -114 59 -165 97 -57 43 -135 143 -175 223 -16 30
-29 57 -30 59 -1 2 -13 -10 -27 -25 l-25 -29 -34 19 c-71 37 -179 202 -225
341 -23 70 -36 125 -28 125 2 0 19 -28 36 -62z m652 -1229 c78 -110 127 -169
128 -152 0 7 -15 81 -34 165 -42 192 -60 288 -54 294 3 2 22 -40 43 -93 21
-54 87 -222 146 -372 60 -151 106 -277 104 -279 -12 -12 -127 72 -206 148 -91
89 -161 188 -210 296 -30 65 -109 298 -109 318 0 6 29 -43 63 -110 35 -66 93
-163 129 -215z"/>
<path d="M4750 6802 c0 -12 98 -66 175 -97 74 -29 181 -55 235 -55 34 0 34 0
15 19 -50 48 -224 116 -325 127 -30 3 -65 7 -77 10 -13 2 -23 1 -23 -4z"/>
<path d="M6615 6789 c-28 -4 -79 -17 -113 -28 -66 -20 -172 -79 -172 -94 0
-12 117 -1 193 19 64 16 189 69 228 96 24 17 24 17 -31 16 -30 0 -78 -4 -105
-9z"/>
<path d="M6413 6483 c-24 -2 -43 -8 -43 -12 0 -13 113 -60 170 -71 59 -11 172
-12 210 -1 22 6 20 8 -25 28 -105 45 -218 65 -312 56z"/>
<path d="M4150 6137 c0 -16 -72 -164 -93 -191 -13 -18 -9 -23 62 -76 42 -31
139 -112 215 -179 76 -67 155 -130 176 -141 62 -32 174 -74 369 -140 101 -34
210 -74 242 -91 39 -19 108 -76 209 -171 84 -79 171 -154 193 -168 l42 -25
-42 -3 c-30 -2 -57 5 -100 27 l-59 29 -13 -114 c-15 -133 -15 -133 74 -210
l57 -48 56 31 c31 17 83 39 115 48 32 9 56 19 53 22 -3 3 -34 13 -68 23 l-63
17 50 11 c66 14 114 3 218 -51 l82 -42 129 3 c120 2 133 0 185 -23 30 -14 64
-33 74 -43 16 -14 20 -14 28 -2 13 20 4 159 -19 285 l-19 100 32 40 c17 22 36
53 43 68 19 45 14 121 -13 194 -16 42 -25 83 -23 108 l3 39 50 -84 c27 -47 56
-101 63 -120 19 -51 9 -143 -23 -215 -34 -73 -35 -122 -7 -198 43 -114 45
-140 17 -221 -14 -40 -25 -85 -25 -100 0 -41 66 -174 153 -311 43 -66 84 -129
92 -139 14 -19 19 -17 115 48 151 101 176 111 293 109 l97 -1 -22 27 c-45 55
-233 278 -307 364 -56 65 -101 105 -168 150 -51 33 -93 64 -93 69 0 4 18 8 41
8 34 0 40 3 35 18 -2 9 -30 109 -61 222 -98 358 -126 444 -157 492 -35 56 -81
94 -162 136 l-59 30 -65 -49 c-85 -66 -134 -90 -196 -96 -90 -9 -252 45 -414
139 -45 26 -99 52 -120 57 -20 6 -138 9 -262 8 -318 -2 -409 18 -625 138 -289
160 -371 205 -378 205 -4 0 -7 -6 -7 -13z"/>
<path d="M3844 5985 c14 -223 99 -504 245 -810 60 -125 155 -304 286 -535 244
-432 417 -841 513 -1214 16 -60 31 -105 34 -100 12 19 58 276 58 323 0 120
-66 394 -145 606 -39 105 -147 344 -173 383 -8 12 -12 25 -10 28 6 5 96 -128
156 -233 94 -162 202 -429 237 -588 l7 -30 19 37 c27 52 49 143 49 201 0 45
-41 271 -56 311 -3 9 -1 16 4 16 6 0 34 -41 63 -91 37 -63 55 -86 61 -77 73
109 178 310 178 339 0 10 -27 47 -61 84 -87 97 -92 110 -73 235 24 162 -5 247
-110 319 -60 42 -111 63 -301 126 -316 105 -349 124 -615 356 -91 79 -190 163
-220 185 -39 30 -63 58 -85 100 -16 33 -38 73 -48 89 l-19 30 6 -90z m631
-856 c63 -88 224 -259 243 -259 18 0 14 61 -8 131 -10 35 -17 65 -14 68 13 13
64 -44 101 -113 66 -121 148 -222 207 -253 l29 -15 -6 68 c-4 38 -16 98 -27
133 -11 36 -18 67 -15 69 6 7 82 -150 104 -216 21 -61 27 -125 15 -156 -9 -24
-56 -19 -100 10 -42 27 -70 56 -147 152 l-50 64 -11 -33 c-14 -44 -36 -47 -89
-10 -106 72 -244 268 -307 433 -24 63 -19 58 75 -73z"/>
<path d="M5679 4617 c-74 -31 -104 -53 -175 -129 -115 -123 -215 -326 -306
-618 -95 -304 -114 -363 -154 -470 -90 -243 -163 -398 -230 -487 -28 -37 -29
-43 -9 -43 54 0 318 229 418 363 27 37 52 65 54 63 8 -8 -86 -187 -131 -250
-46 -65 -163 -184 -212 -217 -83 -57 -177 -106 -257 -134 l-89 -32 28 -20 c46
-32 111 -63 136 -64 17 -1 14 -3 -12 -11 -48 -14 -110 -2 -161 30 -140 88
-266 112 -372 72 -67 -25 -175 -96 -259 -170 -54 -48 -58 -54 -58 -95 0 -91
69 -261 134 -327 49 -51 94 -64 164 -48 54 12 57 12 74 -11 74 -101 155 -169
233 -197 39 -14 147 -33 153 -27 3 2 -13 24 -35 47 -47 52 -103 134 -168 248
-131 231 -207 303 -337 319 l-63 8 30 13 c17 8 59 14 95 14 118 1 217 -71 322
-231 29 -45 80 -124 113 -175 108 -167 218 -253 364 -283 42 -9 122 -15 204
-14 121 1 140 -2 208 -26 298 -108 261 -99 409 -99 119 0 145 3 218 27 240 79
244 80 337 79 98 0 211 -24 165 -35 -14 -3 -69 -16 -122 -28 -54 -13 -98 -26
-98 -29 0 -13 98 -40 147 -40 90 0 243 74 243 118 0 9 -16 67 -34 129 -45 146
-83 330 -96 473 -8 77 -9 256 -5 540 6 355 4 455 -9 605 -54 586 -164 1001
-295 1104 -58 46 -84 53 -231 62 -74 4 -166 11 -205 14 -60 5 -78 2 -126 -18z
m781 -1543 c-6 -77 -25 -283 -41 -459 -17 -176 -33 -372 -36 -435 -6 -139 -11
-158 -28 -108 -24 67 -38 190 -31 286 4 50 5 92 3 92 -2 0 -20 -24 -39 -52
-51 -77 -127 -157 -177 -190 -25 -15 -48 -28 -52 -28 -4 0 18 37 48 82 62 92
103 170 161 308 73 174 160 458 187 614 13 77 15 25 5 -110z"/>
<path d="M6997 4149 c-18 -10 -18 -12 5 -36 12 -13 44 -37 71 -51 54 -30 87
-85 87 -144 0 -53 72 -178 103 -178 9 0 6 39 -9 103 -9 37 15 36 83 -3 56 -32
75 -59 94 -133 6 -25 20 -53 30 -63 18 -16 19 -16 19 4 0 12 -8 56 -17 98 -15
68 -22 83 -72 138 -31 35 -93 107 -139 160 -46 53 -94 101 -108 106 -34 13
-124 12 -147 -1z"/>
<path d="M4906 1588 c-3 -35 -11 -130 -16 -213 -12 -177 -14 -181 -139 -340
-48 -60 -93 -121 -101 -134 -26 -50 9 -238 51 -277 26 -24 58 -12 129 47 76
63 91 87 135 220 24 72 53 132 90 188 42 64 57 98 71 159 19 89 48 149 133
281 43 67 58 98 51 105 -7 7 -77 11 -188 11 -97 0 -184 4 -193 8 -14 7 -17 -1
-23 -55z"/>
<path d="M6025 1559 c-49 -16 -120 -34 -156 -40 l-66 -11 1 -202 c1 -185 -1
-206 -22 -260 -31 -84 -29 -121 9 -157 17 -16 35 -29 40 -29 4 0 34 -10 66
-22 42 -15 78 -40 128 -88 75 -72 96 -83 192 -101 68 -13 108 -7 117 16 9 25
-2 41 -62 88 -46 36 -73 71 -139 181 -49 80 -83 148 -83 163 0 15 20 127 45
250 25 122 45 227 45 233 0 14 -13 12 -115 -21z"/>
</g>
</svg>
