<svg xmlns="http://www.w3.org/2000/svg" viewBox="0 0 1200 800" preserveAspectRatio="xMidYMid meet" role="img" aria-label="Man on boat">
<g transform="translate(0,800) scale(0.1,-0.1)" fill="currentColor" stroke="none">
<path d="M6945 7811 c-3 -12 9 -55 33 -113 42 -101 60 -159 43 -143 -5 6 -27
55 -49 110 -38 96 -62 125 -76 90 -3 -9 4 -42 15 -73 53 -144 60 -176 54 -229
-4 -29 -10 -55 -15 -58 -5 -3 -25 16 -45 44 -37 51 -74 81 -100 81 -24 0 -19
-18 37 -128 57 -114 109 -180 167 -212 46 -26 56 -42 91 -144 61 -173 155
-366 179 -366 16 0 52 92 67 167 26 138 20 166 -60 301 -77 128 -87 160 -95
298 -8 138 -12 147 -128 299 -70 93 -105 115 -118 76z"/>
<path d="M7430 6938 c0 -88 -21 -205 -50 -279 -51 -129 -136 -259 -169 -259
-24 0 -23 34 4 87 l27 55 -28 71 c-16 39 -36 79 -45 90 -15 20 -17 17 -28 -57
-12 -86 -14 -177 -5 -226 10 -46 62 -93 126 -114 62 -19 105 -58 139 -126 43
-85 78 -126 161 -190 224 -173 278 -229 278 -293 0 -41 48 -318 66 -377 9 -30
27 -75 39 -100 21 -40 141 -210 167 -235 7 -7 9 20 5 85 l-6 95 19 -65 c18
-60 51 -196 101 -425 26 -118 47 -186 62 -205 7 -9 33 -32 58 -53 26 -21 52
-51 59 -68 7 -16 25 -36 39 -43 128 -65 461 -36 632 55 64 35 109 79 109 109
0 10 -22 67 -48 127 -27 59 -55 124 -62 143 -17 44 -43 83 -90 135 -97 108
-196 267 -231 372 -47 143 -23 117 218 -232 136 -196 190 -245 318 -285 68
-21 63 -30 -18 -30 -42 0 -77 -2 -77 -4 0 -20 88 -200 137 -281 33 -55 84
-138 112 -185 28 -47 56 -102 62 -122 5 -21 13 -38 17 -38 4 1 21 19 37 40 57
75 174 140 252 140 42 0 85 -21 111 -55 19 -24 20 -24 25 -5 17 67 -66 170
-225 277 -54 37 -98 71 -98 76 0 5 14 7 33 2 17 -3 49 -9 71 -12 l38 -6 -7 43
c-23 134 -146 277 -346 400 -104 65 -181 127 -200 163 -8 14 4 9 45 -17 70
-45 177 -99 183 -93 7 7 -35 86 -70 132 -17 22 -69 81 -117 130 -81 85 -109
123 -175 240 -37 64 -117 149 -211 220 -81 63 -85 63 -169 24 -94 -44 -172
-158 -196 -284 -7 -35 -9 -105 -6 -167 3 -59 2 -110 -2 -112 -4 -3 -39 15 -77
39 -151 97 -241 130 -325 119 -42 -6 -49 -4 -62 17 -8 13 -25 62 -37 109 -20
75 -22 100 -17 211 6 126 6 127 -22 170 -27 43 -115 129 -133 129 -4 0 -28 9
-52 21 -53 25 -73 62 -58 111 5 18 9 63 8 100 -1 54 -5 71 -23 90 -13 14 -23
32 -23 42 0 10 30 47 66 82 57 56 65 68 62 96 -2 26 -9 33 -34 40 -39 10 -109
108 -184 258 -57 115 -101 170 -137 170 -22 0 -23 -3 -23 -72z m1001 -2328
c82 -162 131 -221 199 -241 34 -10 39 -14 24 -20 -32 -13 -113 -10 -149 5 -41
18 -79 87 -131 241 -32 95 -46 192 -25 170 5 -6 42 -75 82 -155z"/>
<path d="M8035 6888 c-62 -34 -116 -116 -101 -154 5 -13 12 -10 41 15 64 56
122 51 148 -11 17 -40 51 -73 92 -88 l30 -12 -25 -10 c-13 -5 -38 -8 -55 -6
-26 3 -30 -1 -33 -24 -5 -42 16 -104 46 -135 15 -17 51 -38 82 -48 30 -10 57
-20 60 -22 10 -9 -27 -23 -61 -23 -70 0 -93 -68 -40 -121 34 -34 57 -36 145
-13 69 18 129 14 157 -12 25 -22 25 -38 0 -24 -47 25 -148 -2 -171 -45 -40
-74 84 -215 189 -215 73 0 122 54 102 112 -12 33 -3 36 27 8 17 -16 22 -32 22
-75 0 -48 3 -56 29 -74 46 -33 99 -28 149 15 50 42 52 54 13 54 -30 0 -71 38
-71 65 0 7 -9 24 -21 39 -31 39 0 34 51 -9 30 -25 52 -35 76 -35 43 0 90 23
105 51 26 50 1 139 -40 139 -22 0 -45 -25 -37 -39 4 -5 2 -13 -4 -16 -17 -11
-56 21 -76 62 -17 34 -23 38 -54 36 -85 -6 -100 12 -111 135 -12 133 -72 210
-195 249 -56 17 -62 33 -13 33 44 0 39 38 -10 83 -39 35 -54 40 -153 51 -26 3
-77 21 -115 41 -71 37 -137 46 -178 23z m455 -345 c29 -16 70 -79 70 -105 0
-8 -19 3 -46 28 -25 23 -65 51 -90 61 -24 10 -44 21 -44 26 0 14 82 7 110 -10z
m51 -179 c32 -30 54 -86 45 -111 -5 -12 -14 -4 -37 31 -17 25 -51 58 -75 72
-56 33 -57 48 -3 41 26 -3 52 -16 70 -33z"/>
<path d="M7989 6682 c-54 -35 -107 -93 -115 -130 -12 -47 -35 -85 -87 -140
l-49 -53 26 -28 c29 -30 31 -42 14 -71 -10 -15 -9 -23 6 -39 17 -19 18 -23 4
-38 -21 -24 -31 -59 -23 -83 12 -39 55 -50 190 -50 73 0 125 -4 125 -10 0 -5
-31 -19 -70 -30 -38 -11 -70 -23 -70 -25 0 -2 13 -19 28 -37 44 -52 149 -204
172 -247 11 -22 20 -53 20 -68 l-1 -28 -22 30 c-30 41 -64 75 -76 75 -30 0
-16 -170 18 -210 12 -14 38 -22 96 -29 44 -6 108 -20 142 -32 35 -13 66 -20
69 -16 4 3 13 39 20 79 26 150 86 256 178 314 25 16 45 32 46 36 0 12 -32 25
-95 38 -118 24 -177 66 -226 161 -20 40 -22 41 -60 35 -23 -4 -49 -2 -61 5
-20 11 -18 13 27 28 27 9 50 21 52 26 2 6 -16 19 -39 30 -64 30 -88 73 -88
155 0 54 -5 77 -26 114 -21 38 -27 65 -33 147 -4 72 -11 103 -21 109 -21 13
-21 13 -71 -18z m-10 -158 c17 -14 31 -30 31 -34 0 -15 -85 28 -88 44 -5 24
23 19 57 -10z m0 -68 l22 -23 -42 -7 c-50 -8 -56 -4 -41 29 14 31 32 32 61 1z"/>
<path d="M924 6418 c-12 -5 -26 -20 -32 -33 -8 -17 -23 -25 -54 -30 -82 -14
-78 0 -78 -233 0 -114 -4 -212 -8 -218 -4 -6 -17 -16 -29 -23 -31 -16 -29 -51
3 -112 25 -46 69 -87 81 -75 3 2 -8 22 -25 43 -31 40 -46 73 -34 73 4 0 32
-25 62 -56 36 -37 77 -67 117 -85 45 -20 64 -34 67 -51 3 -13 12 -66 21 -118
77 -453 71 -430 110 -470 35 -35 154 -110 320 -200 44 -24 103 -66 132 -93 30
-29 57 -46 63 -42 26 16 60 110 60 167 0 87 -21 105 -215 184 -88 35 -170 75
-181 87 -14 13 -54 117 -104 266 -77 227 -82 249 -77 307 8 107 36 110 37 4 0
-59 30 -151 162 -503 6 -15 22 -36 37 -46 28 -20 92 -44 98 -37 3 2 -3 18 -11
34 -42 81 -195 512 -202 567 -8 69 -21 100 -58 134 l-26 24 0 228 c0 183 -3
228 -14 232 -7 3 -35 9 -62 12 -38 6 -56 15 -80 41 -33 36 -46 39 -80 22z
m161 -178 c3 -5 -26 -42 -65 -82 l-70 -73 -65 68 c-36 38 -65 75 -65 83 0 11
24 14 129 14 73 0 132 -4 136 -10z m-216 -135 c22 -24 41 -47 41 -50 0 -9 -82
-95 -91 -95 -5 0 -9 43 -9 95 0 52 4 95 9 95 5 0 27 -20 50 -45z m230 -50 c-1
-109 -7 -116 -57 -61 -23 25 -42 52 -42 61 0 8 19 33 42 55 50 50 58 43 57
-55z m-79 -107 c33 -35 63 -73 66 -86 12 -44 -10 -43 -66 3 -81 66 -124 59
-82 -14 15 -28 15 -33 2 -41 -36 -23 -113 2 -125 41 -6 17 6 35 61 90 38 38
72 69 76 69 4 0 35 -28 68 -62z"/>
<path d="M1630 5690 c-13 -13 -20 -33 -20 -59 0 -52 -11 -80 -67 -163 l-47
-70 13 -66 c7 -37 15 -86 18 -110 6 -47 39 -82 79 -82 31 0 52 -24 60 -68 4
-22 22 -53 45 -79 21 -22 43 -61 50 -85 7 -23 19 -49 28 -55 38 -32 178 0 239
54 l37 33 -56 53 c-40 39 -70 57 -102 65 -33 9 -55 23 -81 54 -43 49 -53 93
-37 160 15 67 17 61 -34 117 -29 34 -46 63 -50 88 -4 21 -11 49 -16 62 -5 13
-8 25 -6 27 1 2 21 -3 42 -11 22 -8 51 -15 65 -15 l25 -2 -25 -11 c-48 -23
-50 -26 -38 -53 17 -37 58 -54 129 -54 53 0 60 -2 49 -15 -7 -8 -30 -20 -51
-27 -37 -11 -38 -12 -23 -29 9 -10 32 -21 50 -25 45 -8 43 -21 -7 -35 -22 -7
-45 -21 -51 -32 -28 -52 31 -137 95 -137 18 0 61 9 95 20 88 28 118 26 153 -9
36 -37 39 -60 4 -37 -30 20 -85 21 -130 2 -42 -18 -44 -34 -7 -68 46 -43 64
-48 128 -38 33 6 103 10 156 10 72 0 110 5 146 19 52 21 175 41 248 41 48 0
55 11 28 48 -22 31 -66 52 -112 52 -30 0 -57 11 -115 50 -42 28 -88 55 -102
60 -43 16 -101 11 -171 -15 -78 -29 -87 -30 -108 -9 -13 13 -15 28 -10 79 13
130 -15 196 -101 234 -25 11 -48 30 -56 47 -25 51 -61 68 -157 74 -48 3 -97
11 -109 18 -32 18 -70 15 -93 -8z m873 -543 l28 -22 -90 0 c-50 0 -91 2 -91 5
0 3 12 13 28 22 38 25 91 22 125 -5z"/>
<path d="M2662 4989 c-96 -16 -92 -22 55 -76 76 -29 185 -70 243 -93 329 -131
676 -235 940 -281 173 -31 429 -31 715 0 569 60 874 122 999 201 49 32 61 60
24 60 -13 0 -75 -7 -138 -15 -193 -24 -612 -38 -915 -31 -553 12 -797 43
-1335 167 -323 75 -455 90 -588 68z"/>
<path d="M2180 4927 c-20 -7 -60 -32 -90 -54 -30 -22 -66 -46 -80 -53 -41 -22
-123 -40 -180 -40 -30 0 -61 -4 -68 -9 -8 -5 -33 -50 -56 -101 -23 -52 -46
-95 -51 -96 -6 -2 -32 26 -60 61 -27 36 -53 65 -57 65 -13 0 -30 -82 -24 -116
4 -17 31 -65 61 -105 30 -41 58 -89 61 -108 9 -47 -2 -145 -26 -221 l-20 -65
21 -17 c26 -22 80 -23 117 -4 15 8 61 48 102 90 41 42 78 76 82 76 8 0 -3 -39
-26 -91 -18 -43 -14 -49 31 -49 63 0 129 37 164 91 17 27 33 49 35 49 2 0 21
-9 41 -20 62 -33 65 -28 31 68 -29 82 -31 95 -29 223 1 99 -3 148 -14 179 -8
24 -14 44 -12 46 1 2 48 -20 104 -48 81 -40 115 -51 167 -55 101 -9 110 0 53
49 -27 22 -46 42 -44 44 2 3 42 -9 88 -26 105 -39 170 -52 221 -43 l40 6 -38
33 c-45 38 -44 39 33 19 73 -19 173 -20 199 -1 18 13 11 18 -88 65 -250 117
-385 157 -558 166 -66 4 -106 2 -130 -8z"/>
<path d="M2925 4618 c-112 -38 -127 -40 -230 -40 -64 0 -132 -5 -164 -14 -76
-19 -124 -18 -210 8 -72 21 -74 21 -87 3 -9 -13 -14 -48 -14 -106 0 -131 29
-195 112 -251 48 -33 81 -37 71 -10 -4 11 9 4 38 -19 24 -20 58 -43 76 -53 32
-16 123 -23 123 -8 0 4 -14 27 -30 51 -17 24 -30 48 -30 53 0 5 25 -10 56 -32
73 -55 130 -80 182 -80 23 0 42 2 42 5 0 3 -12 23 -26 45 -15 22 -25 43 -22
45 2 3 33 -16 69 -41 86 -61 142 -84 200 -84 27 0 49 3 49 7 0 3 -15 19 -32
34 -18 15 -31 29 -28 32 3 3 45 -10 93 -29 103 -41 230 -55 307 -34 l45 13
-62 13 c-63 13 -151 62 -188 104 l-20 23 25 -6 c14 -3 97 -30 186 -61 88 -30
200 -62 250 -70 108 -19 307 -20 389 -2 l60 13 -30 12 c-16 7 -50 20 -75 28
-24 8 -67 26 -95 38 -73 34 -34 31 162 -11 139 -30 189 -37 293 -38 102 -1
129 2 148 16 22 15 22 17 5 21 -257 73 -279 99 -48 57 75 -14 151 -20 244 -20
124 0 141 3 196 26 40 17 97 31 170 39 61 7 137 22 169 34 56 20 112 58 101
70 -3 2 -137 5 -298 6 -264 1 -308 4 -458 27 -152 24 -176 26 -270 16 -294
-30 -619 17 -1082 158 -99 30 -193 54 -210 54 -18 -1 -86 -19 -152 -42z"/>
<path d="M9190 4281 c-64 -40 -145 -68 -247 -85 -201 -34 -382 -29 -477 12
l-41 19 0 -254 c0 -289 -9 -269 96 -208 113 66 324 155 366 155 17 0 -32 -37
-111 -85 -50 -30 -106 -65 -125 -79 l-33 -25 33 -5 c19 -2 79 -10 134 -16 55
-6 129 -19 165 -28 l65 -17 -225 -6 c-255 -7 -314 -19 -454 -90 -89 -45 -322
-196 -349 -226 -17 -19 -16 -20 25 -34 64 -21 178 -141 321 -339 215 -297 351
-435 495 -503 57 -26 71 -29 135 -25 87 6 111 19 252 143 101 88 199 147 268
159 50 9 54 -6 22 -75 -28 -60 -32 -94 -12 -102 34 -13 140 48 174 99 9 14 24
55 34 92 29 104 66 142 140 142 84 0 75 42 -47 226 -142 212 -215 379 -248
560 -42 224 -84 336 -189 494 -62 95 -92 130 -110 130 -7 0 -32 -13 -57 -29z
m-535 -1241 c168 -79 183 -83 367 -88 93 -2 166 -8 163 -13 -3 -4 -42 -20 -86
-34 -105 -33 -243 -35 -319 -5 -68 27 -150 84 -230 159 -63 59 -63 61 -25 42
22 -10 81 -38 130 -61z m616 -229 c-23 -41 -110 -108 -166 -125 -46 -15 -65
-16 -115 -8 -61 11 -126 37 -136 54 -4 7 21 8 73 3 103 -9 180 7 274 56 41 21
75 38 77 39 1 0 -2 -8 -7 -19z"/>
<path d="M9770 4154 c-19 -8 -42 -22 -52 -30 -16 -15 -15 -19 14 -66 26 -43
32 -64 36 -129 3 -44 8 -79 13 -79 5 0 27 10 49 21 31 16 51 20 83 16 61 -8
90 -46 112 -143 18 -85 37 -124 60 -124 24 0 26 17 10 79 -8 32 -15 69 -15 82
0 40 17 2 30 -67 15 -79 30 -94 59 -58 30 39 34 81 12 149 -10 33 -17 62 -14
65 7 7 32 -29 55 -77 13 -30 25 -43 39 -43 34 0 32 26 -7 100 -42 81 -95 132
-186 180 -65 35 -110 65 -166 112 -37 32 -78 36 -132 12z"/>
<path d="M2302 4111 c2 -17 4 -31 3 -31 -1 0 -29 11 -63 25 -82 33 -101 32
-143 -11 -65 -68 -138 -91 -231 -73 -55 11 -61 10 -113 -16 -51 -26 -55 -31
-55 -64 0 -40 56 -295 89 -411 66 -224 167 -523 198 -582 19 -37 71 -106 115
-155 74 -80 138 -183 138 -222 0 -21 39 -80 62 -92 59 -32 163 154 143 258 -4
24 -25 56 -63 97 -119 128 -119 125 1 62 88 -45 117 -56 156 -56 67 0 96 24
96 80 0 41 -4 47 -83 119 -45 42 -82 79 -82 83 0 3 27 -7 60 -23 136 -66 224
-83 280 -54 34 18 37 33 14 77 -21 41 -22 144 -1 184 24 46 67 85 126 112 167
77 386 -52 478 -281 31 -77 44 -91 76 -83 77 19 75 120 -3 176 -25 18 -30 28
-30 64 0 60 -21 104 -72 152 -53 52 -105 84 -183 114 -54 21 -82 24 -290 30
-254 8 -284 14 -410 85 -62 34 -206 160 -226 197 -11 21 -19 24 112 -39 100
-48 270 -101 269 -84 -1 3 -24 22 -53 42 -39 27 -64 57 -100 118 -54 90 -137
185 -187 215 l-33 19 5 -32z"/>
<path d="M11240 4094 c-81 -26 -122 -77 -122 -151 0 -45 3 -50 53 -94 44 -38
56 -57 73 -110 18 -54 27 -67 57 -83 34 -19 42 -19 116 -7 59 9 90 10 118 2
22 -6 41 -9 43 -6 2 2 1 18 -3 35 -9 43 -66 97 -116 110 -35 10 -39 13 -25 23
9 7 31 35 49 62 22 35 42 53 65 60 42 12 37 25 -21 53 -56 28 -107 24 -163
-14 -20 -14 -38 -23 -41 -21 -2 3 16 30 41 60 67 82 65 92 -14 94 -36 1 -85
-5 -110 -13z"/>
<path d="M9610 4030 c-30 -28 -31 -32 -18 -53 22 -32 90 -36 112 -6 16 23 11
43 -20 73 -22 23 -38 20 -74 -14z"/>
<path d="M10195 4052 c-22 -4 -40 -9 -40 -12 0 -3 28 -31 62 -62 45 -42 71
-58 100 -62 90 -14 184 -40 266 -76 95 -42 222 -117 251 -149 17 -19 17 -19
-23 -14 -34 5 -48 1 -83 -23 -22 -16 -57 -53 -77 -83 -35 -53 -36 -56 -36
-155 0 -92 2 -105 27 -148 83 -139 255 -173 290 -57 8 30 22 48 50 65 96 61
49 204 -66 204 -70 0 -117 -57 -96 -116 l10 -29 -25 28 c-47 53 -25 131 47
168 86 44 224 5 335 -96 268 -240 354 -752 194 -1154 -48 -120 -198 -324 -276
-375 -31 -21 -32 -22 43 89 103 154 193 373 223 545 17 101 16 298 -4 386 -31
142 -113 312 -197 407 -23 26 -44 46 -46 44 -2 -1 11 -39 28 -83 39 -101 68
-239 68 -329 0 -156 -46 -344 -124 -510 -88 -186 -193 -327 -385 -513 -201
-196 -273 -235 -243 -129 35 119 63 239 58 244 -3 3 -15 -7 -27 -23 -43 -57
-175 -178 -242 -222 -131 -85 -355 -178 -542 -226 -235 -60 -591 -105 -1020
-131 -239 -14 -323 -26 -440 -65 -63 -21 -43 -37 85 -69 134 -34 178 -78 190
-192 8 -73 28 -109 60 -109 9 0 37 15 61 34 67 50 146 92 224 116 59 19 107
24 300 31 193 7 246 12 332 33 208 51 365 127 445 215 58 62 38 64 -102 12
-60 -23 -115 -41 -121 -41 -21 0 94 65 172 98 68 28 269 102 278 102 2 0 -16
-21 -40 -48 -24 -26 -79 -89 -122 -140 -110 -131 -201 -192 -393 -265 -176
-67 -255 -81 -484 -82 -262 -1 -335 -19 -484 -122 -27 -18 -56 -32 -65 -31 -9
2 -33 29 -55 60 l-39 56 -46 -24 c-25 -13 -67 -26 -93 -29 -44 -6 -48 -8 -48
-34 0 -15 -12 -50 -26 -77 l-26 -48 31 -28 c17 -16 38 -28 47 -28 33 0 5 -26
-47 -44 -69 -24 -199 -26 -249 -4 -19 9 -55 37 -79 63 -25 26 -60 54 -80 62
-54 22 -90 62 -106 117 -8 27 -13 51 -11 53 2 2 18 -13 35 -32 64 -73 109 -76
137 -10 24 58 18 79 -41 147 -49 55 -53 63 -35 66 12 2 44 -11 73 -30 43 -28
61 -33 107 -32 30 0 71 4 90 8 31 7 42 3 95 -33 48 -33 69 -41 105 -41 120 0
163 112 65 167 -22 12 -71 30 -110 38 -85 20 -150 56 -170 95 -14 28 -14 31 5
50 11 11 32 22 47 26 466 106 716 220 938 426 66 61 162 178 146 178 -5 0 -49
-21 -97 -46 -221 -116 -459 -196 -905 -304 -596 -145 -655 -163 -666 -196 -2
-7 18 -14 51 -18 67 -9 77 -20 37 -41 -72 -37 -181 -6 -181 51 0 67 59 102
249 149 79 20 156 42 171 50 94 49 193 298 160 402 -21 63 -26 65 -79 29 -72
-49 -281 -114 -281 -88 0 4 13 41 30 82 16 41 29 92 30 113 l0 39 -27 -21
c-88 -67 -182 -125 -240 -147 -68 -26 -288 -68 -325 -62 -17 2 8 27 118 114
138 111 196 164 178 164 -5 0 -52 -9 -104 -21 -257 -55 -306 -61 -493 -66
-106 -3 -192 -2 -198 4 -5 5 24 44 71 97 44 49 96 114 115 146 42 69 78 147
73 160 -2 5 -41 -8 -88 -29 -121 -55 -274 -110 -350 -128 -36 -8 -135 -17
-220 -20 -128 -4 -158 -3 -168 9 -18 22 5 56 169 256 80 97 171 213 202 257
55 80 137 236 137 263 0 8 -32 -15 -70 -49 -128 -116 -234 -200 -352 -280
-116 -78 -306 -184 -315 -176 -2 3 17 35 42 73 78 114 151 274 125 274 -5 0
-53 -39 -106 -87 -231 -211 -424 -317 -703 -388 -152 -38 -164 -31 -56 34 127
75 233 152 285 206 l45 46 -70 -27 c-207 -79 -381 -124 -561 -144 -124 -13
-568 -25 -616 -16 -31 6 -37 11 -42 41 -14 73 -98 134 -186 135 -30 0 -68 -11
-122 -37 l-79 -36 62 -33 c33 -18 87 -58 118 -88 66 -62 63 -61 301 -70 147
-6 280 -26 350 -52 77 -28 161 -22 270 19 52 20 96 34 98 33 7 -7 -55 -45
-155 -95 -111 -56 -157 -63 -201 -32 -74 51 -252 75 -520 69 -135 -2 -164 -6
-178 -20 -16 -15 -15 -20 15 -64 47 -71 41 -86 -42 -98 -80 -12 -104 -55 -73
-131 15 -35 102 -95 140 -95 10 0 58 38 106 84 144 138 269 187 540 211 505
43 867 145 1140 320 39 25 70 40 70 35 0 -18 -73 -91 -134 -135 -82 -58 -164
-98 -297 -146 -226 -80 -418 -119 -704 -143 -206 -17 -277 -33 -392 -86 -62
-29 -100 -56 -153 -107 -43 -43 -70 -77 -70 -90 0 -13 15 -33 38 -50 73 -57
326 -195 434 -238 38 -15 68 -31 68 -36 0 -21 -55 -39 -180 -59 -174 -29 -215
-46 -240 -102 -11 -24 -20 -52 -20 -63 0 -35 36 -99 63 -114 35 -19 53 -3 62
52 17 96 68 121 186 89 41 -11 110 -23 154 -26 114 -7 316 -49 413 -85 195
-71 309 -167 497 -421 127 -172 158 -222 149 -244 -6 -15 -10 -17 -33 -20 -5
-1 -48 53 -96 119 -245 336 -351 432 -559 504 -99 35 -312 81 -374 81 -49 0
-57 -10 -66 -79 -14 -112 -76 -190 -191 -242 l-70 -32 65 -59 c84 -78 160
-135 183 -140 14 -2 22 7 31 33 7 20 23 51 36 69 l23 32 -23 41 c-56 98 -2
217 112 248 97 26 240 -52 283 -154 23 -56 2 -109 -48 -118 -16 -4 -14 -10 17
-49 20 -25 43 -69 52 -97 8 -29 19 -53 24 -53 4 0 33 12 65 26 182 84 396 -2
461 -184 9 -26 18 -52 20 -59 6 -22 58 5 128 67 37 33 80 67 96 75 29 15 30
17 30 93 l0 77 -58 32 c-83 46 -137 97 -246 232 -109 135 -140 165 -242 231
-107 70 -349 167 -549 219 -43 12 -72 27 -65 34 3 3 48 25 101 49 99 47 169
101 195 150 14 27 14 28 -13 28 -47 0 -154 -20 -222 -40 -35 -11 -66 -20 -69
-20 -14 0 49 56 98 88 30 19 82 63 115 97 67 69 84 75 199 75 88 0 288 49 359
88 44 23 173 149 164 159 -2 2 -58 -12 -123 -31 -111 -31 -236 -55 -224 -43 3
3 66 30 140 60 133 54 244 107 388 186 39 22 72 37 72 32 0 -20 -97 -142 -207
-261 -68 -72 -123 -135 -123 -140 0 -16 51 -22 245 -27 332 -8 447 19 694 167
74 44 137 77 140 75 3 -3 -31 -43 -76 -88 -48 -49 -93 -107 -113 -144 -23 -45
-66 -95 -162 -189 -102 -100 -136 -141 -155 -183 -13 -30 -33 -65 -44 -79 -10
-13 -16 -28 -13 -33 3 -5 -25 -9 -62 -9 -67 0 -68 0 -111 45 -24 25 -43 49
-43 54 0 5 30 0 66 -12 59 -20 68 -20 92 -7 14 9 41 42 60 75 18 33 43 70 54
83 l21 22 -20 0 c-12 0 -70 -12 -130 -27 -93 -24 -129 -27 -258 -28 -131 0
-161 3 -235 25 l-85 25 215 6 c236 7 312 19 488 74 116 37 221 97 251 145 14
21 14 23 1 18 -166 -72 -232 -87 -410 -95 -122 -5 -209 0 -489 26 -113 11
-144 2 -205 -57 -28 -27 -81 -68 -117 -91 -36 -22 -79 -59 -96 -83 -44 -61
-62 -79 -115 -120 l-47 -35 37 -16 c20 -9 91 -37 157 -63 283 -110 384 -182
540 -384 102 -131 189 -210 232 -210 10 0 51 34 91 74 83 84 120 105 196 113
109 11 221 -45 276 -139 31 -52 31 -55 25 -148 -3 -52 -6 -99 -6 -105 -1 -15
31 -99 41 -109 17 -17 37 13 43 63 21 175 205 304 411 288 140 -10 231 -54
440 -209 137 -103 278 -174 416 -212 223 -61 493 -58 736 10 264 73 282 77
414 77 106 1 147 -4 269 -31 265 -59 424 -64 613 -16 53 13 108 24 123 24 107
0 -65 -148 -245 -210 -95 -33 -87 -40 50 -40 346 0 672 177 996 540 377 423
660 922 775 1369 16 63 32 117 35 120 4 3 4 -46 1 -109 -9 -194 -61 -358 -207
-652 -134 -268 -239 -433 -431 -673 -116 -146 -239 -309 -239 -318 0 -30 211
70 285 135 25 22 48 39 50 37 6 -6 -205 -264 -322 -395 -40 -45 -73 -84 -73
-88 0 -22 249 131 352 216 185 154 293 300 423 572 123 257 188 428 240 636
60 240 70 328 70 600 -1 215 -3 257 -22 345 -60 273 -164 478 -319 632 -80 78
-197 161 -240 169 -31 6 -58 24 -36 24 13 0 42 63 42 90 0 12 -14 35 -31 51
-25 23 -40 29 -75 29 -46 0 -59 -14 -22 -23 12 -4 20 -9 17 -12 -10 -9 -97 22
-171 63 -140 76 -323 150 -438 176 -78 18 -219 27 -275 18z m-2175 -2008 c0
-3 -11 -29 -25 -59 -65 -136 -234 -263 -441 -329 -132 -43 -267 -66 -381 -66
-123 0 -145 -8 -137 -50 9 -44 -3 -76 -42 -112 -33 -31 -35 -34 -29 -83 7 -60
-7 -90 -54 -122 -45 -31 -80 -29 -128 6 -41 30 -53 30 -53 2 0 -30 -40 -97
-69 -114 -65 -38 -117 -15 -175 81 -50 82 -67 96 -114 90 -58 -8 -109 14 -161
71 -55 60 -80 64 -114 20 l-24 -31 -44 73 c-36 60 -49 75 -72 77 -42 5 -40
-17 34 -262 l9 -30 -36 35 c-34 33 -58 77 -142 261 -46 99 -101 164 -186 220
-89 57 -128 52 -166 -24 -21 -44 -58 -62 -122 -62 -48 -1 -62 4 -95 30 -149
120 0 315 167 218 25 -15 77 -35 117 -45 143 -36 242 -109 318 -233 37 -62 55
-80 55 -56 0 6 17 10 39 10 30 0 47 -8 84 -40 37 -33 52 -40 86 -40 23 0 41 3
41 6 0 3 -9 17 -20 31 -30 39 -24 44 25 22 81 -36 110 -7 100 99 l-7 67 41 52
c23 28 50 77 61 109 25 70 35 83 85 105 34 14 58 16 156 10 137 -8 167 -22
214 -103 31 -53 32 -53 86 -56 138 -8 671 50 809 89 76 21 210 80 265 117 31
21 45 26 45 16z m2584 -495 c-108 -103 -189 -148 -313 -175 -83 -17 -109 -18
-94 -3 14 14 457 239 461 234 2 -1 -22 -27 -54 -56z m75 -285 c-48 -53 -167
-141 -245 -181 -176 -92 -367 -136 -583 -135 -126 1 -198 8 -188 18 2 3 56 11
118 19 219 29 377 66 550 128 93 34 256 111 329 156 45 27 49 27 19 -5z"/>
<path d="M6453 1906 c-20 -15 -69 -123 -60 -133 12 -11 60 13 107 53 28 24 60
44 69 44 10 0 33 -18 51 -41 32 -40 116 -89 154 -89 35 0 3 102 -48 149 -24
23 -36 25 -139 29 -91 3 -116 1 -134 -12z"/>
<path d="M7708 1850 c-137 -41 -340 -69 -583 -81 -224 -11 -266 -19 -244 -45
7 -8 33 -27 58 -42 41 -24 59 -27 151 -30 121 -4 263 15 395 53 108 31 281
113 314 149 30 31 30 31 -91 -4z"/>
<path d="M5293 1838 c-30 -15 -46 -58 -34 -90 22 -58 94 -76 136 -33 68 67
-14 166 -102 123z"/>
<path d="M6535 1778 c-11 -11 -41 -31 -67 -44 -69 -35 -83 -68 -69 -158 25
-158 79 -254 161 -291 41 -19 43 -19 78 0 46 25 98 94 113 148 15 55 7 173
-15 215 -9 18 -41 48 -71 68 -30 19 -62 46 -71 59 -19 30 -32 31 -59 3z m-20
-193 c27 -26 29 -33 16 -53 -6 -10 -19 -6 -56 19 -44 30 -46 33 -29 46 26 19
42 16 69 -12z m184 1 c24 -13 24 -14 3 -25 -11 -6 -29 -11 -38 -11 -18 0 -54
27 -54 42 0 13 62 9 89 -6z"/>
<path d="M6328 1694 c-5 -4 -8 -23 -8 -43 0 -25 3 -32 11 -24 6 6 9 25 7 43
-2 17 -6 28 -10 24z"/>
<path d="M6804 1633 c17 -91 17 -125 1 -206 -19 -96 -15 -131 16 -148 18 -9
26 -7 48 8 34 26 37 54 11 109 -12 24 -20 51 -17 58 3 8 25 20 49 28 37 12 43
19 46 45 5 49 -45 98 -137 134 -23 9 -24 8 -17 -28z"/>
<path d="M6320 1511 c-7 -15 -7 -21 0 -21 12 0 25 28 17 36 -3 3 -10 -4 -17
-15z"/>
<path d="M6251 1408 c27 -38 58 -58 90 -58 37 0 55 24 43 57 -8 25 -13 27 -81
28 l-72 1 20 -28z"/>
<path d="M6640 1239 c-14 -6 -46 -8 -72 -4 -27 3 -48 2 -48 -4 0 -18 59 -71
79 -71 28 0 71 43 71 70 0 11 -1 20 -2 19 -2 0 -14 -5 -28 -10z"/>
<path d="M9822 3810 c-133 -96 -93 -304 68 -350 64 -18 160 38 160 94 0 29
-63 134 -86 143 -8 3 -26 -5 -40 -17 l-24 -23 0 26 c0 18 11 35 35 54 40 32
44 54 15 83 -30 30 -79 26 -128 -10z"/>
<path d="M1767 3340 c-3 -14 -11 -79 -17 -145 -7 -66 -18 -156 -26 -200 -8
-44 -14 -113 -14 -154 0 -129 36 -177 257 -344 180 -136 271 -233 303 -325 7
-19 -9 -6 -57 46 -38 41 -71 70 -76 66 -13 -14 -7 -114 9 -147 9 -18 54 -71
99 -119 103 -108 131 -156 201 -349 92 -255 162 -381 228 -413 36 -17 139 -46
145 -40 2 1 -20 42 -47 91 -109 190 -296 640 -327 786 -21 95 -19 116 15 184
38 76 70 168 70 202 0 27 -25 71 -40 71 -4 0 -22 -22 -40 -50 -35 -54 -87
-105 -119 -115 -32 -10 -90 24 -125 73 -18 24 -50 85 -71 135 -27 63 -59 116
-108 176 -90 112 -106 145 -187 390 -49 149 -70 199 -73 181z"/>
<path d="M2998 3349 c-116 -33 -151 -202 -53 -255 27 -14 36 -15 49 -5 11 9
13 19 5 38 -14 36 8 77 44 81 37 4 71 -19 104 -71 15 -23 42 -59 60 -79 63
-73 66 -164 6 -251 -25 -36 -79 -77 -102 -77 -21 0 -11 57 20 106 42 65 48
120 19 157 -23 28 -24 29 -100 22 -50 -4 -91 -3 -117 5 -37 11 -43 10 -79 -14
-22 -14 -55 -28 -74 -32 -60 -11 -78 -29 -85 -81 -4 -27 -9 -56 -12 -65 -7
-27 14 -21 44 12 32 36 43 38 43 7 0 -48 53 -64 90 -27 25 25 30 25 30 -1 0
-11 -13 -34 -29 -50 -39 -38 -93 -40 -146 -3 -35 23 -42 25 -74 15 -20 -7 -56
-15 -81 -19 l-45 -7 -3 -57 c-3 -51 1 -63 30 -106 18 -27 41 -64 50 -81 14
-26 23 -31 52 -31 38 0 56 20 56 62 0 33 35 85 72 108 18 11 58 27 88 36 45
13 65 26 112 77 l57 62 -14 -50 c-24 -82 -21 -90 43 -134 31 -21 99 -78 151
-126 120 -112 176 -135 246 -103 47 21 21 68 -38 68 -37 0 -39 24 -6 56 37 36
37 51 -6 110 -92 129 -104 188 -58 302 34 85 33 143 -2 212 -33 66 -106 139
-166 168 -55 27 -129 35 -181 21z"/>
<path d="M9783 3284 c9 -16 47 -72 86 -124 38 -52 82 -120 96 -150 15 -30 32
-66 39 -80 16 -34 59 -39 80 -8 20 28 21 136 2 181 -19 47 -63 80 -190 145
-61 31 -115 58 -119 61 -5 2 -2 -10 6 -25z"/>
<path d="M7883 3205 c-65 -28 -183 -210 -183 -282 0 -56 32 -115 185 -348 296
-450 403 -613 450 -689 l50 -78 45 5 c48 5 146 31 169 46 11 7 8 21 -13 75
-15 37 -43 131 -62 208 -61 242 -82 287 -238 495 -59 79 -98 123 -109 123 -11
0 -31 -8 -45 -18 -51 -36 -54 -35 -34 4 21 41 58 80 105 109 17 11 27 26 27
42 0 29 -62 116 -149 206 -97 101 -144 126 -198 102z"/>
<path d="M3504 2980 c-18 -6 -48 -29 -69 -51 -36 -40 -37 -43 -33 -105 4 -57
8 -68 53 -126 27 -34 57 -87 68 -118 22 -61 55 -109 106 -155 46 -42 152 -115
165 -115 6 0 18 21 26 47 12 38 23 52 55 70 22 13 45 24 50 26 17 6 -16 37
-73 69 -29 17 -50 34 -45 38 4 4 41 20 81 35 41 15 76 34 79 42 13 33 -60 83
-179 122 -37 13 -78 31 -90 42 -22 19 -23 19 -4 34 11 8 43 21 72 30 78 23 79
57 1 97 -32 16 -64 22 -137 24 -52 2 -109 -1 -126 -6z m279 -287 c-7 -2 -19
-2 -25 0 -7 3 -2 5 12 5 14 0 19 -2 13 -5z"/>
<path d="M9810 2827 c-13 -7 -31 -30 -39 -51 -14 -36 -13 -40 5 -53 11 -8 29
-11 44 -8 69 16 102 78 58 109 -27 19 -35 20 -68 3z"/>
<path d="M8270 2795 c0 -17 123 -151 154 -167 11 -6 -3 18 -34 58 -93 119
-120 144 -120 109z"/>
<path d="M2844 2596 c-63 -28 -78 -79 -45 -144 27 -51 76 -96 301 -272 107
-85 265 -212 350 -284 132 -112 346 -288 388 -319 29 -22 8 15 -65 115 -43 58
-116 159 -163 223 -281 386 -471 594 -608 665 -54 28 -118 35 -158 16z"/>
<path d="M9259 2541 c-27 -26 -49 -56 -49 -65 0 -22 75 -102 182 -193 81 -69
94 -85 184 -236 126 -211 209 -333 238 -352 23 -15 30 -14 123 20 135 51 138
54 118 141 -45 196 -93 291 -210 416 -80 85 -106 125 -125 198 -15 60 -36 90
-61 90 -11 0 -42 -11 -69 -25 -55 -28 -125 -41 -164 -31 -17 4 -33 21 -46 46
-29 57 -58 54 -121 -9z"/>
<path d="M2592 2385 c-28 -36 -28 -69 2 -150 48 -132 119 -203 321 -320 76
-44 219 -134 319 -201 165 -110 828 -580 1003 -711 62 -46 244 -170 309 -210
20 -12 -64 8 -121 29 -100 38 -371 215 -826 540 -420 300 -467 331 -774 514
-112 67 -205 148 -260 229 -92 133 -64 25 89 -345 101 -242 184 -414 243 -502
55 -82 65 -88 260 -147 432 -132 1210 -359 1458 -426 108 -29 221 -42 279 -31
42 8 100 55 123 100 10 19 17 55 17 92 0 78 -39 163 -88 193 -42 26 -61 26
-85 2 -17 -17 -19 -29 -14 -75 5 -48 3 -56 -11 -56 -20 0 -62 43 -72 72 -9 30
-37 17 -52 -24 -13 -34 -12 -40 11 -91 18 -40 39 -66 76 -93 28 -21 51 -42 51
-47 0 -15 -82 3 -122 26 -20 12 -188 148 -374 302 -410 341 -586 487 -684 568
-41 34 -127 104 -190 157 -172 143 -312 256 -435 350 -60 46 -139 109 -175
140 -109 95 -167 132 -214 137 -38 5 -45 2 -64 -22z"/>
<path d="M3495 2355 c-22 -7 -52 -16 -67 -19 -16 -4 -28 -11 -28 -16 0 -5 47
-72 103 -147 57 -76 176 -235 264 -353 274 -370 418 -531 510 -572 122 -54
260 27 271 158 4 49 2 56 -26 84 -17 16 -37 30 -46 30 -20 0 -46 -38 -46 -68
0 -37 -27 -78 -60 -92 -101 -42 -214 65 -213 200 1 110 64 182 196 221 38 11
67 22 65 23 -1 2 -73 45 -157 96 -162 98 -497 320 -566 375 -53 43 -136 95
-149 94 -6 0 -29 -7 -51 -14z"/>
<path d="M5097 2090 c-41 -8 -88 -37 -95 -60 -4 -10 9 -12 66 -7 70 6 137 29
177 61 19 14 16 15 -45 15 -36 -1 -82 -5 -103 -9z"/>
<path d="M2251 1873 c-25 -56 -65 -104 -113 -135 -71 -46 -59 -88 26 -88 52 0
186 68 186 95 0 33 -65 155 -82 155 -3 0 -10 -12 -17 -27z"/>
<path d="M8788 1577 c-48 -23 -88 -45 -88 -49 0 -14 148 -8 250 9 55 9 100 19
100 23 0 4 -21 13 -47 19 -25 7 -55 19 -67 27 -30 21 -52 17 -148 -29z"/>
<path d="M4774 1281 c-41 -25 -61 -80 -44 -120 16 -40 47 -52 101 -40 49 11
98 5 142 -18 16 -8 27 -11 24 -6 -3 5 2 22 13 38 10 15 16 35 13 44 -18 51
-126 121 -188 121 -16 0 -44 -9 -61 -19z"/>
<path d="M6178 1181 c-119 -38 -193 -174 -169 -308 19 -102 95 -180 185 -190
36 -5 54 0 90 21 l44 26 7 -30 c8 -35 31 -39 76 -13 64 38 61 116 -6 129 -19
3 -35 9 -35 13 0 3 13 22 28 41 42 51 52 74 52 120 0 70 -44 136 -113 172 -44
22 -120 31 -159 19z m123 -210 c43 -43 37 -102 -15 -143 -30 -25 -70 -22 -103
6 -23 20 -28 32 -28 69 0 91 84 130 146 68z"/>
<path d="M8064 1060 c-11 -4 -32 -22 -46 -39 -83 -98 -8 -241 127 -241 56 0
64 14 37 66 l-20 39 37 20 c104 58 -21 202 -135 155z"/>
<path d="M6905 1023 c-48 -6 -117 -34 -154 -62 -42 -31 -81 -92 -81 -126 0
-24 3 -25 60 -25 75 0 110 27 110 85 0 19 4 35 10 35 18 0 42 -49 39 -82 -5
-56 -1 -58 149 -58 138 0 248 -14 397 -49 44 -11 81 -18 83 -17 3 4 -163 127
-233 174 -62 41 -169 96 -215 110 -43 13 -125 21 -165 15z"/>
<path d="M6665 750 c-7 -12 2 -12 30 0 19 8 19 9 -2 9 -12 1 -25 -3 -28 -9z"/>
<path d="M6451 635 c-125 -39 -145 -167 -34 -217 44 -20 67 -22 263 -24 118
-1 253 -5 299 -9 95 -9 98 -3 23 41 -26 15 -75 53 -108 84 -110 102 -204 141
-337 139 -34 0 -82 -6 -106 -14z m285 -101 c30 -15 72 -43 92 -62 l37 -33 -45
5 c-25 3 -97 10 -160 16 -179 17 -221 35 -193 79 15 24 50 31 136 27 61 -3 90
-10 133 -32z"/>
</g>
</svg>
