<?xml version="1.0" encoding="UTF-8" standalone="no"?>
<svg
   version="1.0"
   width="1720.0369pt"
   height="163.23761pt"
   viewBox="0 0 1720.0369 163.23761"
   preserveAspectRatio="xMidYMid"
   role="img"
   aria-label="Marziale Technologies"
   id="svg24695"
   sodipodi:docname="logo-traced.svg"
   inkscape:version="1.2.2 (b0a84865, 2022-12-01)"
   xmlns:inkscape="http://www.inkscape.org/namespaces/inkscape"
   xmlns:sodipodi="http://sodipodi.sourceforge.net/DTD/sodipodi-0.dtd"
   xmlns="http://www.w3.org/2000/svg"
   xmlns:svg="http://www.w3.org/2000/svg">
  <defs
     id="defs24699" />
  <sodipodi:namedview
     id="namedview24697"
     pagecolor="#ffffff"
     bordercolor="#000000"
     borderopacity="0.25"
     inkscape:showpageshadow="2"
     inkscape:pageopacity="0.0"
     inkscape:pagecheckerboard="0"
     inkscape:deskcolor="#d1d1d1"
     inkscape:document-units="pt"
     showgrid="false"
     inkscape:zoom="0.395"
     inkscape:cx="453.16456"
     inkscape:cy="543.03797"
     inkscape:window-width="2677"
     inkscape:window-height="1205"
     inkscape:window-x="24"
     inkscape:window-y="71"
     inkscape:window-maximized="0"
     inkscape:current-layer="svg24695" />
  <metadata
     id="metadata24649">
Created by potrace 1.16, written by Peter Selinger 2001-2019
</metadata>
  <path
     d="m 22.818513,5.1312018 c -2.8,1.4 -3.2,2.5 -4.2,9.8000002 -0.7,5.2 -2.8,7.2 -8.9000003,8.7 -2.8,0.6 -6.1,2.2 -7.4,3.5 l -2.29999997,2.3 v 44.4 c 0,52.199998 -1,48.199998 11.70000027,48.199998 12.1,0 11.3,3.1 11.3,-45.999998 0,-26.2 0.4,-42.4 1,-44.1 1.9,-4.8 3.5,-5.3 17.3,-5.4 12.3,0 12.9,0.1 15.2,2.5 2.5,2.4 2.5,2.5 2.5,22.3 0,24.4 0,24.4 10.7,25 6.3,0.4 7.2,0.2 9.9,-2.1 l 2.9,-2.5 0.2,-20.3 c 0.3,-26 -0.9,-24.4 17.899997,-24.4 13.1,0 13.6,0.1 15.5,2.4 1.8,2.2 1.9,4.5 1.9,45.6 0,50.799998 -1,46.999998 11.7,46.999998 12.1,0 11.3,3.6 11.3,-48.999998 0,-50.1 0.7,-46.2 -8.6,-49 -7.5,-2.2 -8.6,-3.4 -9.5,-10.1 -0.6,-4.5000002 -1.4,-6.4000002 -3.4,-8.2000002 l -2.6,-2.2 H 71.218513 c -38.5,0.1 -46.1,0.3 -48.4,1.6 z"
     id="path24651"
     style="fill:#000000;stroke:none;stroke-width:0.1"
     inkscape:export-filename="martechtext.png"
     inkscape:export-xdpi="96"
     inkscape:export-ydpi="96" />
  <path
     d="m 177.31851,4.5312018 c -2.7,1.1 -3.9,3.3 -4.6,8.8000002 -0.7,5.5 -3,9 -6.5,9.8 -6,1.3 -8.5,2.8 -9.8,6 -1.8,4.4 -2.1,84.899998 -0.3,88.799998 1.6,3.3 6.8,5 13.2,4.2 9,-1 9.1,-1.4 9.7,-25.099998 0.4,-17.9 0.7,-20.7 2.3,-22.2 1.6,-1.6 4.5,-1.8 30.6,-2.1 26.4,-0.3 29,-0.1 31,1.5 3.3,2.7 4.1,8.3 3.4,24.8 -0.5,12.799998 -0.3,15.499998 1,18.199998 2.1,4 7.1,5.8 14.1,4.9 9.1,-1 8.6,1.7 8.6,-49.099998 v -44.4 l -2.6,-2 c -1.5,-1.2 -3.3,-2.1 -4,-2.1 -0.8,0 -3.1,-0.7 -5.2,-1.6 -4.2,-1.6 -6.2,-4.7 -6.2,-9.4 0,-4.1000002 -1.8,-7.6000002 -4.7,-8.9000002 -2.9,-1.3 -66.7,-1.4 -70,-0.1 z m 39.8,22.0000002 h 23.6 l 2.7,2.5 c 2.4,2.2 2.6,3 2.6,10.8 0,13.1 2.4,12.1 -32.2,12.5 -35.6,0.3 -33.8,1 -33.8,-12.1 0,-5.8 0.5,-8.9 1.5,-10.5 1.7,-2.4 6.9,-4.3 10,-3.6 1.1,0.2 12.6,0.4 25.6,0.4 z"
     id="path24653"
     style="fill:#000000;stroke:none;stroke-width:0.1" />
  <path
     d="m 303.41851,4.5312018 c -3,1.2 -3.7,2.6 -4.5,8.8000002 -0.9,6.3 -2.8,8.8 -8,10.2 -2.1,0.6 -4.7,2.2 -5.8,3.7 -2,2.5 -2.1,3.7 -2.1,46.8 0,51.899998 -0.9,47.999998 11.6,47.999998 6.3,0 7.7,-0.3 9.6,-2.3 2.2,-2.2 2.3,-2.9 2.6,-23.199998 l 0.3,-21 2.9,-1.5 c 2.3,-1.2 7.2,-1.5 23.4,-1.5 11.3,0 21.7,0.5 23.1,1 3.6,1.4 17.3,13.8 19.3,17.5 1.2,2.2 1.7,6 1.8,14.899998 0.2,14 1,15.3 9.1,16.2 6.5,0.8 12.1,-1 13.4,-4.3 1.3,-3.5 1.1,-30.699998 -0.2,-33.699998 -0.7,-1.5 -3.8,-3.9 -8.1,-6.1 -3.7,-2 -7.7,-4.6 -8.8,-5.8 -2.3,-2.4 -2.7,-9.4 -0.7,-12 0.6,-0.9 4.7,-3.2 8.9,-5.1 4.2,-1.9 8.2,-4.4 8.7,-5.5 0.6,-1.1 1.1,-6.2 1.1,-11.4 0,-10.9 -0.5,-11.8 -8.8,-14.2 -6.5,-2 -8.8,-4.4 -9.6,-10.3 -0.7,-5.2000002 -2,-7.3000002 -5.3,-9.0000002 -2.6,-1.4 -70.5,-1.6 -73.9,-0.2 z m 71.1,24.5000002 c 2.2,2.2 2.5,3.2 2.5,10.5 0,12.7 2.1,12 -34.9,12 -26.8,0 -31.2,-0.2 -32.5,-1.6 -2.3,-2.3 -2.9,-5.7 -2.3,-13.2 0.8,-10.6 -0.6,-10.2 34.9,-10.2 h 29.9 z"
     id="path24655"
     style="fill:#000000;stroke:none;stroke-width:0.1" />
  <path
     d="m 418.01851,4.2312018 c -4,1.5 -5,3.5 -5,10.3000002 0,5.2 0.5,7.3 1.9,9.1 1.9,2.4 2,2.4 28.9,2.9 29,0.5 30.2,0.8 30.2,5.8 0,2.8 -6.2,9.3 -41.5,42.9 l -19,18.2 -0.3,12.299998 c -0.6,18 -5.6,16.3 48.4,16.3 h 44.3 l 2.3,-2.3 c 2,-1.9 2.3,-3.3 2.3,-9.3 0,-11.299998 1.2,-10.899998 -33.7,-10.899998 h -28.9 l -2.4,-2.4 c -1.8,-1.8 -2.3,-3 -1.7,-4.5 1.1,-3 43.9,-43.1 47.8,-44.7 1.8,-0.8 5.3,-1.4 7.6,-1.4 6.1,0 11.5,-1.7 13.3,-4.3 0.9,-1.3 1.5,-4.3 1.5,-7.5 0,-6.4 -2.5,-9.6 -8.6,-10.5 -5.7,-0.9 -8.4,-4.2 -9.3,-11.3 -1.4,-9.8000002 0.5,-9.4000002 -41,-9.3000002 -19.6,0 -36.3,0.3 -37.1,0.6 z"
     id="path24657"
     style="fill:#000000;stroke:none;stroke-width:0.1" />
  <path
     d="m 523.81851,5.0312018 c -1.6,0.9 -2.8,2.1 -2.8,2.8 0,0.7 0,25.9000002 0,56.2000002 -0.1,50.899998 0.1,55.099998 1.7,56.199998 2.6,2 17.7,1.7 19.7,-0.3 1.4,-1.3 1.6,-6.9 1.9,-43.199998 0.4,-71.4000002 0.4,-68.9000002 -1.6,-70.9000002 -2.4,-2.4 -15.1,-3 -18.9,-0.8 z"
     id="path24659"
     style="fill:#000000;stroke:none;stroke-width:0.1" />
  <path
     d="m 576.61851,5.7312018 c -1.8,1.6 -2.9,4 -3.6,7.7000002 -1.2,6.5 -3,8.8 -8.3,10.2 -2.1,0.6 -5,2.1 -6.3,3.4 l -2.4,2.4 v 44.4 c 0,51.999998 -0.9,48.199998 11.2,48.199998 6.4,0 7.2,-0.2 9.4,-2.8 2.4,-2.8 2.4,-3.1 2.4,-22.099998 0,-17.6 0.2,-19.6 1.9,-21.7 l 1.9,-2.4 28.1,-0.3 28.1,-0.3 2.5,2.5 c 2.5,2.5 2.5,2.5 2.5,22 0,18.899998 0.1,19.599998 2.3,22.199998 4.4,5.1 18.7,4.2 20.8,-1.3 0.5,-1.4 0.9,-20.999998 0.9,-45.099998 0,-36.5 -0.2,-43.1 -1.5,-44.9 -0.9,-1.2 -3.9,-2.8 -7,-3.8 -6.3,-1.8 -9.5,-4.4 -9.5,-7.8 0,-1.2 -0.5,-3.9 -1.1,-5.9 -1.8,-6.6000002 -2.7,-6.8000002 -38.3,-6.8000002 -31.2,0 -31.5,0 -34,2.2 z m 64.1,23.2000002 c 2.5,2.2 2.8,3.1 3.1,10.3 0.3,6.8 0.1,8.1 -1.8,10.5 l -2.1,2.8 h -27.4 c -34,0 -32,0.9 -31.7,-14.8 0.3,-11.7 -1,-11.2 30.6,-11.2 h 26.5 z"
     id="path24661"
     style="fill:#000000;stroke:none;stroke-width:0.1" />
  <path
     d="m 685.01851,4.8312018 -2.5,1.3 -0.3,46.6000002 c -0.2,46.1 -0.2,46.7 1.9,48.599998 1.1,1.1 3.7,2.2 5.8,2.6 6,0.9 8.9,3.9 9.7,9.6 1.1,8.6 0.8,8.5 29.9,8.5 29.9,0 28.9,0.3 29.8,-10.2 0.6,-7.5 -0.4,-10.6 -4,-12.199998 -1.5,-0.7 -10.3,-1.1 -24.2,-1.1 -15.9,0 -22.2,-0.3 -23.4,-1.3 -1.6,-1.1 -1.8,-4.6 -1.7,-45.4 V 7.7312018 l -2.6,-2.1 c -2.1,-1.7 -4.1,-2.1 -9.3,-2.1 -3.6,0 -7.7,0.6 -9.1,1.3 z"
     id="path24663"
     style="fill:#000000;stroke:none;stroke-width:0.1" />
  <path
     d="m 794.51851,4.5312018 c -3.1,1.2 -4.2,3 -5,8.0000002 -0.8,4.8 -2.1,8.1 -3.9,9.2 -0.6,0.5 -3.7,1.5 -6.9,2.4 -3.3,1 -6.2,2.5 -6.8,3.5 -0.5,1.1 -0.8,15.8 -0.7,37.6 l 0.3,35.699998 2.5,1.3 c 1.4,0.7 4.2,1.5 6.2,1.8 5.7,0.9 7.9,3.3 9.3,10.1 0.9,4.6 1.7,6.2 3.6,7.1 1.7,0.9 11.1,1.3 34.7,1.3 37.9,0 39.2,-0.3 39.2,-8.5 0,-5.9 4.3,-9.7 12.4,-11 6,-1 8.6,-4.299998 8.6,-10.899998 0,-3 -0.3,-6.2 -0.6,-7.1 -1.5,-3.9 -10.6,-5.7 -17.1,-3.5 -3.2,1.2 -5.3,4.5 -5.3,8.5 0,4.5 -1.9,7.6 -5.6,9.1 -3,1.299998 -8.4,1.499998 -31.4,1.199998 -29.8,-0.3 -30.1,-0.399998 -32.2,-5.799998 -1.2,-3.1 -1.1,-15.6 0.3,-18.1 1.6,-3.1 7.7,-3.9 29.9,-3.9 11.8,0 22,-0.4 22.6,-0.8 3.3,-2.1 4.5,-10.7 2.3,-15.5 -1.9,-4.3 -4.6,-4.7 -28.7,-4.7 -28.5,0 -27.5,0.4 -27,-11.7 0.3,-7.8 0.5,-8.7 3.1,-10.9 l 2.8,-2.4 h 28 c 30.4,0 32.4,0.3 34.7,5.5 0.7,1.4 1.2,4.3 1.2,6.4 0,2.3 0.8,4.8 1.9,6.2 1.7,2.1 2.7,2.4 9.5,2.4 9.6,0 10.9,-1.1 11.4,-10 0.4,-6 0.2,-6.6 -2.4,-9.3 -1.9,-1.8 -4.4,-3.1 -7.1,-3.5 -6,-1 -9.3,-4.2 -10.4,-10.2 -0.6,-3.6 -1.7,-5.8000002 -3.9,-7.8000002 l -3,-2.7 -32.3,0.1 c -17.7,0 -33.1,0.4 -34.2,0.9 z"
     id="path24665"
     style="fill:#000000;stroke:none;stroke-width:0.1" />
  <g
     id="g24852"
     transform="matrix(1.5457973,0,0,1.5457973,-105.05432,-737.49988)">
    <path
       d="m 807,479.1 c -3.6,0.9 -7.5,1.8 -8.6,1.8 -1.2,0.1 -2.4,0.8 -2.8,1.6 -0.4,1.1 0.2,1.5 2.2,1.5 1.6,0 3.6,0.6 4.7,1.4 1.6,1.2 1.7,1.8 0.6,6.2 -1.2,5.1 -7.5,26.5 -14.2,49 -2.1,7.1 -3.9,13.4 -3.9,13.8 0,0.4 2.3,0.6 5.2,0.4 l 5.2,-0.3 1.7,-5.7 c 4.8,-16.3 20.3,-38.4 25.4,-36.4 2.1,0.8 1.9,3.6 -0.9,11.9 -8.5,25.3 -9.2,30.4 -4.4,32.1 3.9,1.4 8.4,-0.9 14.6,-7.2 5.4,-5.7 5.9,-6.6 4.1,-7.8 -0.7,-0.4 -2.8,1.1 -5,3.5 -7.4,8 -7.6,5.4 -0.9,-14.2 5.7,-16.6 6.4,-22.6 2.8,-25.1 -3,-2.1 -6.1,-2 -10.7,0.3 -4.5,2.4 -13.4,11.8 -16.2,17.3 -1.1,2.2 -2.2,3.8 -2.4,3.6 -0.2,-0.2 0.7,-3.7 2,-7.8 2.9,-9.2 11.6,-39.1 11.8,-40.5 0.3,-1.6 -3.4,-1.4 -10.3,0.6 z"
       id="path24667"
       style="fill:#000000;stroke:none;stroke-width:0.1" />
    <path
       d="m 973.5,478 c -1.1,0.4 -5.3,1.4 -9.2,2 -4.9,0.9 -7.3,1.7 -7.3,2.6 0,0.9 1.1,1.4 2.8,1.4 1.6,0 3.6,0.6 4.7,1.3 1.7,1.3 1.6,2.2 -3.5,18.8 -9,30 -13,44.3 -13,47.1 0,9.2 11.7,6.8 20.4,-4.2 4.9,-6.2 3,-7.8 -2.7,-2.2 -4.3,4.2 -6.7,5.3 -6.7,2.9 0,-1.1 3.4,-13.1 9.3,-32.7 6.4,-21.3 10.7,-36.1 10.7,-37 0,-1.2 -2.7,-1.2 -5.5,0 z"
       id="path24669"
       style="fill:#000000;stroke:none;stroke-width:0.1" />
    <path
       d="m 663.5,485.3 c -1.4,2.9 -2.8,6.8 -3.1,8.5 -1,4.9 1.9,4.1 5.1,-1.4 3.8,-6.5 7.4,-8.4 16.1,-8.4 h 7.1 l -1.2,4.7 c -0.7,2.7 -4.1,14.5 -7.5,26.3 -3.4,11.8 -6.8,23.9 -7.6,26.8 -2.1,7.8 -3,9 -7.2,9.7 -5.5,1 -6.4,1.4 -5.9,2.8 0.3,0.9 4.5,1.2 16.8,1.2 14.8,0 16.4,-0.2 16.7,-1.8 0.3,-1.3 -0.4,-1.7 -3.2,-1.7 -4.4,0 -6.5,-2 -5.9,-5.7 0.6,-3 10.9,-40.6 14.9,-54.1 l 2.5,-8.2 h 7.4 c 6.8,0 7.5,0.2 9.5,2.7 1.4,1.9 2,3.8 1.8,6.2 -0.2,2.6 0.1,3.6 1.3,3.9 1.2,0.2 1.9,-1.4 3.2,-7.3 1,-4.2 1.7,-8 1.7,-8.5 0,-0.6 -11.3,-1 -30.1,-1 h -30 z"
       id="path24671"
       style="fill:#000000;stroke:none;stroke-width:0.1" />
    <path
       d="m 1092.6,482.6 c -1.9,1.8 -2.1,7.5 -0.4,9.2 1.7,1.7 5.9,1.5 8.6,-0.4 2.5,-1.7 3.1,-7.1 1,-9.2 -1.7,-1.7 -7.4,-1.5 -9.2,0.4 z"
       id="path24673"
       style="fill:#000000;stroke:none;stroke-width:0.1" />
    <path
       d="m 728.3,505.9 c -15.4,7.2 -27.2,30.7 -21.9,43.5 3.2,7.7 11.5,9.8 21.1,5.2 6.3,-2.9 14,-10.9 12.1,-12.5 -0.9,-0.8 -2,-0.3 -4.2,2 -3.5,3.8 -10.5,7.2 -13.1,6.3 -4.2,-1.6 -5.3,-3.5 -5.3,-9.9 v -6.1 l 5.8,-1.8 c 14.3,-4.5 24.2,-12.4 24.2,-19.5 0,-5.9 -2.5,-8.3 -9.1,-8.8 -3.9,-0.3 -6.6,0.2 -9.6,1.6 z m 9.4,6.8 c -1.2,7.3 -8.8,14.8 -16.9,16.8 l -2.7,0.7 1.6,-4.4 c 4.4,-11.3 12.4,-19.9 16.6,-17.6 1.5,0.8 1.8,1.7 1.4,4.5 z"
       id="path24675"
       style="fill:#000000;stroke:none;stroke-width:0.1" />
    <path
       d="m 771.6,505 c -7.9,2.5 -17.5,12.1 -21.7,21.8 -3.1,7.2 -4.3,17 -2.6,21.7 2.6,7.5 11.6,10.7 20.2,7.1 3.6,-1.5 13.5,-10.2 13.5,-11.8 0,-2.4 -3.2,-1.7 -5.7,1.2 -2.7,3.2 -7.7,6 -10.8,6 -0.9,0 -2.7,-1.1 -4,-2.5 -2,-2 -2.5,-3.4 -2.5,-7.8 0,-10.4 5.8,-24.8 12.1,-30.1 4.4,-3.7 6.4,-3.4 8.3,1.4 2,5.1 6,6.5 8.8,3 4.2,-5.2 0.8,-10.2 -7.3,-10.6 -3,-0.2 -6.7,0.1 -8.3,0.6 z"
       id="path24677"
       style="fill:#000000;stroke:none;stroke-width:0.1" />
    <path
       d="m 855.5,505.4 c -3.3,1.4 -8.2,5.9 -11.5,10.6 -1.8,2.5 -1.9,3.1 -0.7,3.6 0.9,0.3 3,-1.1 5.5,-3.8 2.2,-2.3 4.4,-4 4.7,-3.6 0.7,0.6 -3.3,16.1 -9,35 l -2.3,7.8 h 5.3 c 5.2,0 5.3,-0.1 5.9,-3.3 0.3,-1.9 2.4,-6.9 4.5,-11.3 9.4,-19.5 21.4,-33.1 23.7,-26.9 0.3,0.8 -1.7,8.5 -4.5,17.2 -6.6,20.4 -6.8,21.8 -4.6,24.3 2.1,2.4 5.5,2.6 9.4,0.5 3.6,-1.8 13.3,-12.4 12.5,-13.6 -1,-1.6 -2.4,-0.9 -6,3.1 -3.3,3.6 -6.4,5.2 -6.4,3.2 0,-0.4 2.5,-8.2 5.5,-17.2 6.3,-18.7 6.8,-23.1 3,-25.6 -3.6,-2.3 -8.6,-1.3 -14.6,3.1 -4.6,3.4 -13.9,14.9 -13.9,17.3 0,0.5 -0.7,1.5 -1.5,2.2 -1.7,1.4 -1.9,0.7 -0.5,-1.9 0.5,-1 1.9,-5.5 3,-10 2.1,-7.9 2.1,-8.3 0.4,-10.2 -2,-2.2 -3.7,-2.3 -7.9,-0.5 z"
       id="path24679"
       style="fill:#000000;stroke:none;stroke-width:0.1" />
    <path
       d="m 920.7,505.4 c -10.8,4 -19.4,16 -21.9,30.3 -1,6.2 -1,7.6 0.6,11.7 2.7,6.9 6.4,9.1 15.6,9.1 6.4,0 8.2,-0.4 12.2,-2.8 9.4,-5.5 16.6,-17.6 17.5,-29.2 0.7,-8.9 -0.8,-13.7 -5.2,-17.1 -4.2,-3.2 -13.1,-4.2 -18.8,-2 z m 11,3.8 c 1.9,1.8 2.3,3.2 2.3,8.6 0,20.1 -14.1,42.1 -21.9,34.3 -1.7,-1.7 -2.1,-3.3 -2.1,-8.7 0,-14.2 7.8,-32.4 15.2,-35.3 3.4,-1.4 3.9,-1.3 6.5,1.1 z"
       id="path24681"
       style="fill:#000000;stroke:none;stroke-width:0.1" />
    <path
       d="m 998,505.7 c -5.7,2.1 -14,10.4 -17.3,17.5 -6.5,13.9 -5.5,26.9 2.6,31.8 4.6,2.9 13.7,2.7 20.2,-0.4 10.5,-4.8 18.7,-18.4 19.3,-31.6 0.3,-8.4 -1.3,-12.9 -5.9,-16.3 -3.6,-2.6 -13.1,-3.1 -18.9,-1 z m 11.9,3.9 c 4,5.1 2.1,20.7 -3.9,32.3 -3.4,6.5 -4.6,8.1 -8,10.4 -3.2,2.2 -5.6,2.1 -8,-0.3 -5.9,-5.9 1.2,-33.7 10.7,-42.1 4.2,-3.6 6.5,-3.7 9.2,-0.3 z"
       id="path24683"
       style="fill:#000000;stroke:none;stroke-width:0.1" />
    <path
       d="m 1046,505.5 c -8.7,2.7 -14.9,11.6 -15,21.1 0,5.5 2.3,9.7 6,10.9 3,0.9 2.4,2 -2.1,4 -6.5,3 -7.9,8.3 -3.4,12.8 l 2.6,2.5 -3.8,1.3 c -5.5,1.8 -11.2,5.6 -12.5,8.4 -1.6,3.5 -0.2,9.1 2.9,11.5 10.2,8 35.5,5.3 41.4,-4.4 5,-8.2 1.1,-14.7 -13.2,-22.1 -5,-2.6 -9.3,-5.4 -9.6,-6.2 -0.9,-2.3 3.3,-5 9.9,-6.3 11.5,-2.2 19.3,-11.4 18.6,-22 l -0.4,-5.6 3.5,0.5 c 2.5,0.2 3.8,-0.1 4.8,-1.5 2.6,-3.6 1.6,-4.2 -6.9,-4.8 -4.6,-0.3 -10.5,-0.7 -13.3,-1 -3,-0.3 -6.8,0 -9.5,0.9 z m 10.7,4.1 c 3.4,5.3 -1.9,22.9 -7.8,26 -3.4,1.7 -6.4,0.7 -7.4,-2.6 -1.7,-5.2 4.2,-22.2 8.4,-24.5 3.7,-2 4.8,-1.8 6.8,1.1 z m -11.3,52.6 c 9.8,4.8 11.8,7.3 9.2,11.3 -2.3,3.5 -7.3,5.5 -13.8,5.5 -12.9,0 -18.1,-10.4 -9,-17.9 2,-1.7 4,-3 4.4,-3.1 0.4,0 4.6,1.9 9.2,4.2 z"
       id="path24685"
       style="fill:#000000;stroke:none;stroke-width:0.1" />
    <path
       d="m 1087,506.3 c -5.5,2.9 -13.9,12.4 -11.7,13.3 1,0.3 3,-1 5.5,-3.8 2.2,-2.3 4.4,-3.9 4.8,-3.5 0.5,0.4 -1.3,7 -4,14.5 -6.8,19.4 -8.1,24.7 -6.8,27.8 1.4,2.9 4.8,3.2 9.7,0.8 4.1,-1.9 13.9,-12 13,-13.4 -1.1,-1.8 -2.4,-1.1 -6.1,3 -3.9,4.3 -6.1,4.7 -5.6,1 0.2,-1.2 2.8,-9 5.7,-17.4 6.7,-18.9 7.1,-20.9 5,-23 -2.2,-2.2 -4.4,-2 -9.5,0.7 z"
       id="path24687"
       style="fill:#000000;stroke:none;stroke-width:0.1" />
    <path
       d="m 1126.7,505.4 c -6.2,2.3 -11.4,6.3 -16.1,12.3 -5.5,7 -8.7,14.9 -9.3,23.3 -0.4,5.7 -0.2,6.9 1.9,10 1.3,1.9 3.5,4 4.8,4.7 6.6,3.4 17.6,-0.3 24.8,-8.2 3.3,-3.7 3.8,-4.6 2.6,-5.6 -1.1,-0.9 -1.8,-0.6 -3.4,1.4 -7,8.9 -18.5,9 -19.1,0.2 -0.7,-8.6 -0.5,-8.8 7.5,-11.4 10.6,-3.3 19.3,-9.3 21.8,-14.7 3.2,-7.3 0.4,-12.3 -7.4,-13 -2.4,-0.2 -6,0.2 -8.1,1 z m 6.7,7.4 c -0.1,3.1 -0.9,5.2 -3.1,8 -3,3.6 -13.2,9.8 -15.1,9.1 -1.6,-0.6 5,-14 9.1,-18.2 2.8,-3 4.2,-3.8 6.4,-3.5 2.6,0.3 2.8,0.6 2.7,4.6 z"
       id="path24689"
       style="fill:#000000;stroke:none;stroke-width:0.1" />
    <path
       d="m 1159.7,505.4 c -4.7,1.7 -6.4,3.2 -8.4,6.9 -2.5,5 -1.2,10.7 4.5,19.5 8,12.2 8.7,16.1 3.5,20.2 -5,3.9 -10.9,2.1 -11.8,-3.8 -1.1,-6.5 -1.5,-7.2 -4,-7.2 -2.4,0 -3.5,2.2 -3.5,7.2 0,6.3 3.7,8.8 13,8.8 10.1,0 16.9,-4.5 19.5,-12.8 1.2,-4.2 -0.4,-8.7 -6.5,-17.8 -6.3,-9.3 -7.5,-13.8 -4.5,-16.8 4.3,-4.3 10,-2 12,5 1.5,5.6 4.5,5.4 6.4,-0.5 1.7,-5.4 0.8,-7.2 -4.5,-8.8 -5.2,-1.5 -11.1,-1.5 -15.7,0.1 z"
       id="path24691"
       style="fill:#000000;stroke:none;stroke-width:0.1" />
  </g>
</svg>
