<?xml version="1.0" standalone="no"?>
<!DOCTYPE svg PUBLIC "-//W3C//DTD SVG 20010904//EN"
 "http://www.w3.org/TR/2001/REC-SVG-20010904/DTD/svg10.dtd">
<svg version="1.0" xmlns="http://www.w3.org/2000/svg"
 width="1200.000000pt" height="800.000000pt" viewBox="0 0 1200.000000 800.000000"
 preserveAspectRatio="xMidYMid meet" role="img" aria-label="Marziale Technologies">
<metadata>
Created by potrace 1.16, written by Peter Selinger 2001-2019
</metadata>
<g transform="translate(0.000000,800.000000) scale(0.100000,-0.100000)"
fill="currentColor" stroke="none">
<path d="M538 4574 c-28 -14 -32 -25 -42 -98 -7 -52 -28 -72 -89 -87 -28 -6
-61 -22 -74 -35 l-23 -23 0 -444 c0 -522 -10 -482 117 -482 121 0 113 -31 113
460 0 262 4 424 10 441 19 48 35 53 173 54 123 0 129 -1 152 -25 25 -24 25
-25 25 -223 0 -244 0 -244 107 -250 63 -4 72 -2 99 21 l29 25 2 203 c3 260 -9
244 179 244 131 0 136 -1 155 -24 18 -22 19 -45 19 -456 0 -508 -10 -470 117
-470 121 0 113 -36 113 490 0 501 7 462 -86 490 -75 22 -86 34 -95 101 -6 45
-14 64 -34 82 l-26 22 -457 0 c-385 -1 -461 -3 -484 -16z"/>
<path d="M2083 4580 c-27 -11 -39 -33 -46 -88 -7 -55 -30 -90 -65 -98 -60 -13
-85 -28 -98 -60 -18 -44 -21 -849 -3 -888 16 -33 68 -50 132 -42 90 10 91 14
97 251 4 179 7 207 23 222 16 16 45 18 306 21 264 3 290 1 310 -15 33 -27 41
-83 34 -248 -5 -128 -3 -155 10 -182 21 -40 71 -58 141 -49 91 10 86 -17 86
491 l0 444 -26 20 c-15 12 -33 21 -40 21 -8 0 -31 7 -52 16 -42 16 -62 47 -62
94 0 41 -18 76 -47 89 -29 13 -667 14 -700 1z m398 -220 l236 0 27 -25 c24
-22 26 -30 26 -108 0 -131 24 -121 -322 -125 -356 -3 -338 -10 -338 121 0 58
5 89 15 105 17 24 69 43 100 36 11 -2 126 -4 256 -4z"/>
<path d="M3344 4580 c-30 -12 -37 -26 -45 -88 -9 -63 -28 -88 -80 -102 -21 -6
-47 -22 -58 -37 -20 -25 -21 -37 -21 -468 0 -519 -9 -480 116 -480 63 0 77 3
96 23 22 22 23 29 26 232 l3 210 29 15 c23 12 72 15 234 15 113 0 217 -5 231
-10 36 -14 173 -138 193 -175 12 -22 17 -60 18 -149 2 -140 10 -153 91 -162
65 -8 121 10 134 43 13 35 11 307 -2 337 -7 15 -38 39 -81 61 -37 20 -77 46
-88 58 -23 24 -27 94 -7 120 6 9 47 32 89 51 42 19 82 44 87 55 6 11 11 62 11
114 0 109 -5 118 -88 142 -65 20 -88 44 -96 103 -7 52 -20 73 -53 90 -26 14
-705 16 -739 2z m711 -245 c22 -22 25 -32 25 -105 0 -127 21 -120 -349 -120
-268 0 -312 2 -325 16 -23 23 -29 57 -23 132 8 106 -6 102 349 102 l299 0 24
-25z"/>
<path d="M4490 4583 c-40 -15 -50 -35 -50 -103 0 -52 5 -73 19 -91 19 -24 20
-24 289 -29 290 -5 302 -8 302 -58 0 -28 -62 -93 -415 -429 l-190 -182 -3
-123 c-6 -180 -56 -163 484 -163 l443 0 23 23 c20 19 23 33 23 93 0 113 12
109 -337 109 l-289 0 -24 24 c-18 18 -23 30 -17 45 11 30 439 431 478 447 18
8 53 14 76 14 61 0 115 17 133 43 9 13 15 43 15 75 0 64 -25 96 -86 105 -57 9
-84 42 -93 113 -14 98 5 94 -410 93 -196 0 -363 -3 -371 -6z"/>
<path d="M5548 4575 c-16 -9 -28 -21 -28 -28 0 -7 0 -259 0 -562 -1 -509 1
-551 17 -562 26 -20 177 -17 197 3 14 13 16 69 19 432 4 714 4 689 -16 709
-24 24 -151 30 -189 8z"/>
<path d="M6076 4568 c-18 -16 -29 -40 -36 -77 -12 -65 -30 -88 -83 -102 -21
-6 -50 -21 -63 -34 l-24 -24 0 -444 c0 -520 -9 -482 112 -482 64 0 72 2 94 28
24 28 24 31 24 221 0 176 2 196 19 217 l19 24 281 3 281 3 25 -25 c25 -25 25
-25 25 -220 0 -189 1 -196 23 -222 44 -51 187 -42 208 13 5 14 9 210 9 451 0
365 -2 431 -15 449 -9 12 -39 28 -70 38 -63 18 -95 44 -95 78 0 12 -5 39 -11
59 -18 66 -27 68 -383 68 -312 0 -315 0 -340 -22z m641 -232 c25 -22 28 -31
31 -103 3 -68 1 -81 -18 -105 l-21 -28 -274 0 c-340 0 -320 -9 -317 148 3 117
-10 112 306 112 l265 0 28 -24z"/>
<path d="M7160 4577 l-25 -13 -3 -466 c-2 -461 -2 -467 19 -486 11 -11 37 -22
58 -26 60 -9 89 -39 97 -96 11 -86 8 -85 299 -85 299 0 289 -3 298 102 6 75
-4 106 -40 122 -15 7 -103 11 -242 11 -159 0 -222 3 -234 13 -16 11 -18 46
-17 454 l0 441 -26 21 c-21 17 -41 21 -93 21 -36 0 -77 -6 -91 -13z"/>
<path d="M8255 4580 c-31 -12 -42 -30 -50 -80 -8 -48 -21 -81 -39 -92 -6 -5
-37 -15 -69 -24 -33 -10 -62 -25 -68 -35 -5 -11 -8 -158 -7 -376 l3 -357 25
-13 c14 -7 42 -15 62 -18 57 -9 79 -33 93 -101 9 -46 17 -62 36 -71 17 -9 111
-13 347 -13 379 0 392 3 392 85 0 59 43 97 124 110 60 10 86 43 86 109 0 30
-3 62 -6 71 -15 39 -106 57 -171 35 -32 -12 -53 -45 -53 -85 0 -45 -19 -76
-56 -91 -30 -13 -84 -15 -314 -12 -298 3 -301 4 -322 58 -12 31 -11 156 3 181
16 31 77 39 299 39 118 0 220 4 226 8 33 21 45 107 23 155 -19 43 -46 47 -287
47 -285 0 -275 -4 -270 117 3 78 5 87 31 109 l28 24 280 0 c304 0 324 -3 347
-55 7 -14 12 -43 12 -64 0 -23 8 -48 19 -62 17 -21 27 -24 95 -24 96 0 109 11
114 100 4 60 2 66 -24 93 -19 18 -44 31 -71 35 -60 10 -93 42 -104 102 -6 36
-17 58 -39 78 l-30 27 -323 -1 c-177 0 -331 -4 -342 -9z"/>
<path d="M8070 3209 c-36 -9 -75 -18 -86 -18 -12 -1 -24 -8 -28 -16 -4 -11 2
-15 22 -15 16 0 36 -6 47 -14 16 -12 17 -18 6 -62 -12 -51 -75 -265 -142 -490
-21 -71 -39 -134 -39 -138 0 -4 23 -6 52 -4 l52 3 17 57 c48 163 203 384 254
364 21 -8 19 -36 -9 -119 -85 -253 -92 -304 -44 -321 39 -14 84 9 146 72 54
57 59 66 41 78 -7 4 -28 -11 -50 -35 -74 -80 -76 -54 -9 142 57 166 64 226 28
251 -30 21 -61 20 -107 -3 -45 -24 -134 -118 -162 -173 -11 -22 -22 -38 -24
-36 -2 2 7 37 20 78 29 92 116 391 118 405 3 16 -34 14 -103 -6z"/>
<path d="M9735 3220 c-11 -4 -53 -14 -92 -20 -49 -9 -73 -17 -73 -26 0 -9 11
-14 28 -14 16 0 36 -6 47 -13 17 -13 16 -22 -35 -188 -90 -300 -130 -443 -130
-471 0 -92 117 -68 204 42 49 62 30 78 -27 22 -43 -42 -67 -53 -67 -29 0 11
34 131 93 327 64 213 107 361 107 370 0 12 -27 12 -55 0z"/>
<path d="M6635 3147 c-14 -29 -28 -68 -31 -85 -10 -49 19 -41 51 14 38 65 74
84 161 84 l71 0 -12 -47 c-7 -27 -41 -145 -75 -263 -34 -118 -68 -239 -76
-268 -21 -78 -30 -90 -72 -97 -55 -10 -64 -14 -59 -28 3 -9 45 -12 168 -12
148 0 164 2 167 18 3 13 -4 17 -32 17 -44 0 -65 20 -59 57 6 30 109 406 149
541 l25 82 74 0 c68 0 75 -2 95 -27 14 -19 20 -38 18 -62 -2 -26 1 -36 13 -39
12 -2 19 14 32 73 10 42 17 80 17 85 0 6 -113 10 -301 10 l-300 0 -24 -53z"/>
<path d="M10926 3174 c-19 -18 -21 -75 -4 -92 17 -17 59 -15 86 4 25 17 31 71
10 92 -17 17 -74 15 -92 -4z"/>
<path d="M7283 2941 c-154 -72 -272 -307 -219 -435 32 -77 115 -98 211 -52 63
29 140 109 121 125 -9 8 -20 3 -42 -20 -35 -38 -105 -72 -131 -63 -42 16 -53
35 -53 99 l0 61 58 18 c143 45 242 124 242 195 0 59 -25 83 -91 88 -39 3 -66
-2 -96 -16z m94 -68 c-12 -73 -88 -148 -169 -168 l-27 -7 16 44 c44 113 124
199 166 176 15 -8 18 -17 14 -45z"/>
<path d="M7716 2950 c-79 -25 -175 -121 -217 -218 -31 -72 -43 -170 -26 -217
26 -75 116 -107 202 -71 36 15 135 102 135 118 0 24 -32 17 -57 -12 -27 -32
-77 -60 -108 -60 -9 0 -27 11 -40 25 -20 20 -25 34 -25 78 0 104 58 248 121
301 44 37 64 34 83 -14 20 -51 60 -65 88 -30 42 52 8 102 -73 106 -30 2 -67
-1 -83 -6z"/>
<path d="M8555 2946 c-33 -14 -82 -59 -115 -106 -18 -25 -19 -31 -7 -36 9 -3
30 11 55 38 22 23 44 40 47 36 7 -6 -33 -161 -90 -350 l-23 -78 53 0 c52 0 53
1 59 33 3 19 24 69 45 113 94 195 214 331 237 269 3 -8 -17 -85 -45 -172 -66
-204 -68 -218 -46 -243 21 -24 55 -26 94 -5 36 18 133 124 125 136 -10 16 -24
9 -60 -31 -33 -36 -64 -52 -64 -32 0 4 25 82 55 172 63 187 68 231 30 256 -36
23 -86 13 -146 -31 -46 -34 -139 -149 -139 -173 0 -5 -7 -15 -15 -22 -17 -14
-19 -7 -5 19 5 10 19 55 30 100 21 79 21 83 4 102 -20 22 -37 23 -79 5z"/>
<path d="M9207 2946 c-108 -40 -194 -160 -219 -303 -10 -62 -10 -76 6 -117 27
-69 64 -91 156 -91 64 0 82 4 122 28 94 55 166 176 175 292 7 89 -8 137 -52
171 -42 32 -131 42 -188 20z m110 -38 c19 -18 23 -32 23 -86 0 -201 -141 -421
-219 -343 -17 17 -21 33 -21 87 0 142 78 324 152 353 34 14 39 13 65 -11z"/>
<path d="M9980 2943 c-57 -21 -140 -104 -173 -175 -65 -139 -55 -269 26 -318
46 -29 137 -27 202 4 105 48 187 184 193 316 3 84 -13 129 -59 163 -36 26
-131 31 -189 10z m119 -39 c40 -51 21 -207 -39 -323 -34 -65 -46 -81 -80 -104
-32 -22 -56 -21 -80 3 -59 59 12 337 107 421 42 36 65 37 92 3z"/>
<path d="M10460 2945 c-87 -27 -149 -116 -150 -211 0 -55 23 -97 60 -109 30
-9 24 -20 -21 -40 -65 -30 -79 -83 -34 -128 l26 -25 -38 -13 c-55 -18 -112
-56 -125 -84 -16 -35 -2 -91 29 -115 102 -80 355 -53 414 44 50 82 11 147
-132 221 -50 26 -93 54 -96 62 -9 23 33 50 99 63 115 22 193 114 186 220 l-4
56 35 -5 c25 -2 38 1 48 15 26 36 16 42 -69 48 -46 3 -105 7 -133 10 -30 3
-68 0 -95 -9z m107 -41 c34 -53 -19 -229 -78 -260 -34 -17 -64 -7 -74 26 -17
52 42 222 84 245 37 20 48 18 68 -11z m-113 -526 c98 -48 118 -73 92 -113 -23
-35 -73 -55 -138 -55 -129 0 -181 104 -90 179 20 17 40 30 44 31 4 0 46 -19
92 -42z"/>
<path d="M10870 2937 c-55 -29 -139 -124 -117 -133 10 -3 30 10 55 38 22 23
44 39 48 35 5 -4 -13 -70 -40 -145 -68 -194 -81 -247 -68 -278 14 -29 48 -32
97 -8 41 19 139 120 130 134 -11 18 -24 11 -61 -30 -39 -43 -61 -47 -56 -10 2
12 28 90 57 174 67 189 71 209 50 230 -22 22 -44 20 -95 -7z"/>
<path d="M11267 2946 c-62 -23 -114 -63 -161 -123 -55 -70 -87 -149 -93 -233
-4 -57 -2 -69 19 -100 13 -19 35 -40 48 -47 66 -34 176 3 248 82 33 37 38 46
26 56 -11 9 -18 6 -34 -14 -70 -89 -185 -90 -191 -2 -7 86 -5 88 75 114 106
33 193 93 218 147 32 73 4 123 -74 130 -24 2 -60 -2 -81 -10z m67 -74 c-1 -31
-9 -52 -31 -80 -30 -36 -132 -98 -151 -91 -16 6 50 140 91 182 28 30 42 38 64
35 26 -3 28 -6 27 -46z"/>
<path d="M11597 2946 c-47 -17 -64 -32 -84 -69 -25 -50 -12 -107 45 -195 80
-122 87 -161 35 -202 -50 -39 -109 -21 -118 38 -11 65 -15 72 -40 72 -24 0
-35 -22 -35 -72 0 -63 37 -88 130 -88 101 0 169 45 195 128 12 42 -4 87 -65
178 -63 93 -75 138 -45 168 43 43 100 20 120 -50 15 -56 45 -54 64 5 17 54 8
72 -45 88 -52 15 -111 15 -157 -1z"/>
</g>
</svg>
